<?xml version="1.0" encoding="utf-8"?>
<!-- Generator: Adobe Illustrator 17.1.0, SVG Export Plug-In . SVG Version: 6.00 Build 0)  -->
<!DOCTYPE svg PUBLIC "-//W3C//DTD SVG 1.1//EN" "http://www.w3.org/Graphics/SVG/1.1/DTD/svg11.dtd">
<svg version="1.1" id="striped-pants" xmlns="http://www.w3.org/2000/svg" xmlns:xlink="http://www.w3.org/1999/xlink" x="0px"
	 y="0px" viewBox="0 0 400 400" enable-background="new 0 0 400 400" xml:space="preserve">
<path id="fill::striped-pants" fill="#3D3D3D" d="M248.7,347.5c-8.3,22.1-20,38.4-33.5,45.5h-29.9c-13.5-7-25.3-23.3-33.5-45.5
	l0.2,0.1c14.8,3.8,31.3,6.2,48.4,6.2c17.1,0,33.3-2.4,48.1-6.2L248.7,347.5z"/>
<g>
	<defs>
		<path id="SVGID_1_" d="M248.7,347.5c-8.3,22.1-20,38.4-33.5,45.5h-29.9c-13.5-7-25.3-23.3-33.5-45.5l0.2,0.1
			c14.8,3.8,31.3,6.2,48.4,6.2c17.1,0,33.3-2.4,48.1-6.2L248.7,347.5z"/>
	</defs>
	<clipPath id="SVGID_2_">
		<use xlink:href="#SVGID_1_"  overflow="visible"/>
	</clipPath>
	<g opacity="0.5" clip-path="url(#SVGID_2_)">
		<line fill="none" stroke="#000000" stroke-width="6" x1="155.3" y1="353.8" x2="155.3" y2="396"/>
		<line fill="none" stroke="#000000" stroke-width="6" x1="167.3" y1="353.8" x2="167.3" y2="396"/>
		<line fill="none" stroke="#000000" stroke-width="6" x1="179.3" y1="353.8" x2="179.3" y2="396"/>
		<line fill="none" stroke="#000000" stroke-width="6" x1="191.3" y1="353.8" x2="191.3" y2="396"/>
		<line fill="none" stroke="#000000" stroke-width="6" x1="203.3" y1="353.8" x2="203.3" y2="396"/>
		<line fill="none" stroke="#000000" stroke-width="6" x1="215.3" y1="353.8" x2="215.3" y2="396"/>
		<line fill="none" stroke="#000000" stroke-width="6" x1="227.3" y1="353.8" x2="227.3" y2="396"/>
		<line fill="none" stroke="#000000" stroke-width="6" x1="239.3" y1="353.8" x2="239.3" y2="396"/>
		<line fill="none" stroke="#000000" stroke-width="6" x1="251.3" y1="353.8" x2="251.3" y2="396"/>
	</g>
</g>
<path fill="none" stroke="#0E0902" stroke-width="11" d="M248.7,347.5c-8.3,22.1-20,38.4-33.5,45.5h-29.9
	c-13.5-7-25.3-23.3-33.5-45.5l0.2,0.1c14.8,3.8,31.3,6.2,48.4,6.2c17.1,0,33.3-2.4,48.1-6.2L248.7,347.5z"/>
</svg>
