<?xml version="1.0" encoding="utf-8"?>
<!-- Generator: Adobe Illustrator 17.1.0, SVG Export Plug-In . SVG Version: 6.00 Build 0)  -->
<!DOCTYPE svg PUBLIC "-//W3C//DTD SVG 1.1//EN" "http://www.w3.org/Graphics/SVG/1.1/DTD/svg11.dtd">
<svg version="1.1" id="Layer_2" xmlns="http://www.w3.org/2000/svg" xmlns:xlink="http://www.w3.org/1999/xlink" x="0px" y="0px"
	 viewBox="0 0 400 400" enable-background="new 0 0 400 400" xml:space="preserve">
<g>
	<path id="fill::base" fill="#FF4500" d="M248.7,347.5c-8.3,22.1-20,38.4-33.5,45.5h-29.9c-13.5-7-25.3-23.3-33.5-45.5l0.2,0.1
		c14.8,3.8,31.3,6.2,48.4,6.2s33.3-2.4,48.1-6.2L248.7,347.5z"/>
	<path id="fill::accent" fill="#9494FF" d="M200.3,393h-15c-13.5-7-25.3-23.3-33.5-45.5l0.2,0.1c14.8,3.8,31.3,6.2,48.4,6.2
		L200.3,393z"/>
	<line fill="none" stroke="#000000" stroke-width="9" x1="200.3" y1="358.3" x2="200.3" y2="392.3"/>
	<path fill="none" stroke="#000000" stroke-width="11" d="M248.7,347.5c-8.3,22.1-20,38.4-33.5,45.5h-29.9
		c-13.5-7-25.3-23.3-33.5-45.5l0.2,0.1c14.8,3.8,31.3,6.2,48.4,6.2s33.3-2.4,48.1-6.2L248.7,347.5z"/>
</g>
</svg>