<?xml version="1.0" encoding="utf-8"?>
<!-- Generator: Adobe Illustrator 17.1.0, SVG Export Plug-In . SVG Version: 6.00 Build 0)  -->
<!DOCTYPE svg PUBLIC "-//W3C//DTD SVG 1.1//EN" "http://www.w3.org/Graphics/SVG/1.1/DTD/svg11.dtd">
<svg version="1.1" id="Layer_3" xmlns="http://www.w3.org/2000/svg" xmlns:xlink="http://www.w3.org/1999/xlink" x="0px" y="0px"
	 viewBox="0 0 400 400" enable-background="new 0 0 400 400" xml:space="preserve">
<g>
	<defs>
		<path id="fill::skirt" d="M151.8,347.6L151.8,347.6c14.8,3.8,31.4,6.3,48.5,6.3
			c17.1,0,33.3-2.5,48.2-6.3l0,0c2.1,7.8,4.3,6.7,10.8,7.9c8.4,1.6,25.7,23.2,26.5,24c-15.2-4.4-35.4-3.7-48.4,1.7
			c-10.4,4.3-31.1,5.9-36.5,5.9c-5.6,0-23.4,0.6-33.2-4.4c-10.8-5.6-34.6-3.1-54-7.2c0.7-0.5,8-15.3,21-21.3
			C134.8,354.2,147.2,357,151.8,347.6z"/>
	</defs>
	<use xlink:href="#fill::skirt"  overflow="visible" fill="#FFFFFF"/>
	<clipPath id="fill::skirt_1_">
		<use xlink:href="#fill::skirt"  overflow="visible"/>
	</clipPath>
	<g id="fill::stripes" clip-path="url(#fill::skirt_1_)">
		<path fill="#FF8B22" d="M148.3,350.8c0,0,39.6,14.2,48.8,14.6s10.7-0.3,19.9-4.2c21.2-8.9,32.1-8.8,36.9-10l-4.9-12
			c0,0-26.5,9.6-33.5,12c-9.8,3.4-20.2,2.1-26.7,1.1c-7.1-1.2-25.1-7.3-34.8-10.6L148.3,350.8z"/>
		<path fill="#FF8B22" d="M218,383.9c2.4-1,4.3-1.8,5.3-2.5l38.9-18l-2-6.3c-10.8-1.8-48,16-48,16c-11.2,7.4-21.9,1.6-21.9,1.6
			c-25.6-11.6-50.4-17.6-50.4-17.6l-10.6,7.2l38,10.8c0,0,24.9,12.1,33,12.5c4.1,0.2,11.9-1.4,17.6-3.7l0,0L218,383.9z"/>
	</g>
	<use xlink:href="#fill::skirt"  overflow="visible" fill="none" stroke="#000000" stroke-width="11" stroke-linejoin="round"/>
</g>
</svg>
