<?xml version="1.0" encoding="utf-8"?>
<!-- Generator: Adobe Illustrator 17.1.0, SVG Export Plug-In . SVG Version: 6.00 Build 0)  -->
<!DOCTYPE svg PUBLIC "-//W3C//DTD SVG 1.1//EN" "http://www.w3.org/Graphics/SVG/1.1/DTD/svg11.dtd">
<svg version="1.1" id="Layer_3" xmlns="http://www.w3.org/2000/svg" xmlns:xlink="http://www.w3.org/1999/xlink" x="0px" y="0px"
	 viewBox="0 0 400 400" enable-background="new 0 0 400 400" xml:space="preserve">
<path id="fill::y-fronts" inkscape:connector-curvature="0" fill="#FFFFEE" d="M248.7,347.5c-8.3,22.1-20,38.4-33.5,45.5h-29.9
	c-13.5-7-25.3-23.3-33.5-45.5l0.2,0.1c14.8,3.8,31.3,6.2,48.4,6.2c17.1,0,33.3-2.4,48.1-6.2L248.7,347.5z"/>
<path opacity="0.5" fill="#030300" d="M225,389.9l-22.6-22.6v-16.1h-6v16.3l-22.5,22.5l4.2,4.2l21.3-21.3l21.3,21.3L225,389.9z
	 M199.5,368.7L199.5,368.7h-0.1H199.5z"/>
<path id="base_6_" inkscape:connector-curvature="0" fill="none" stroke="#000000" stroke-width="11" d="M248.7,347.5
	c-8.3,22.1-20,38.4-33.5,45.5h-29.9c-13.5-7-25.3-23.3-33.5-45.5l0.2,0.1c14.8,3.8,31.3,6.2,48.4,6.2c17.1,0,33.3-2.4,48.1-6.2
	L248.7,347.5z"/>
</svg>
