<?xml version="1.0" encoding="utf-8"?>
<!-- Generator: Adobe Illustrator 17.1.0, SVG Export Plug-In . SVG Version: 6.00 Build 0)  -->
<!DOCTYPE svg PUBLIC "-//W3C//DTD SVG 1.1//EN" "http://www.w3.org/Graphics/SVG/1.1/DTD/svg11.dtd">
<svg version="1.1" id="Layer_2" xmlns="http://www.w3.org/2000/svg" xmlns:xlink="http://www.w3.org/1999/xlink" x="0px" y="0px"
	 viewBox="0 0 400 400" enable-background="new 0 0 400 400" xml:space="preserve">
<path id="fill::admiral_x26__x26_admiral-f:darker::stroke::outline" fill="#262323" stroke="#060400" stroke-width="8" stroke-linejoin="round" d="
	M342.3,123.7c0-11.6,0-23.1,0-34.7c-16.2,0-33.3,1.1-49.1-3.4C275,80.5,273.8,70,266.4,55.3C253.9,30.6,228.3,10,199.8,10
	c-28.2,0-52.4,19.8-65.6,43.6c-6.8,12.3-5,23.3-20.2,30C96.7,91.1,75.8,89,57.4,89c0,11.6,0,23.1,0,34.7
	c46.9-8.1,94.8-12.7,142.4-13.3C273.9,111.4,295.4,115.6,342.3,123.7z"/>
</svg>
