<?xml version="1.0" encoding="utf-8"?>
<!-- Generator: Adobe Illustrator 17.1.0, SVG Export Plug-In . SVG Version: 6.00 Build 0)  -->
<!DOCTYPE svg PUBLIC "-//W3C//DTD SVG 1.1//EN" "http://www.w3.org/Graphics/SVG/1.1/DTD/svg11.dtd">
<svg version="1.1" id="Layer_2" xmlns="http://www.w3.org/2000/svg" xmlns:xlink="http://www.w3.org/1999/xlink" x="0px" y="0px"
	 viewBox="0 0 400 400" enable-background="new 0 0 400 400" xml:space="preserve">
<g>
	<defs>
		<path id="fill::accent:2" d="M200,67.5c-92.7,0-117.8,44.6-123.7,85c13.9-23.4,55.7-35.1,123.7-35.1s109.9,11.7,123.7,35.1
			C317.8,112.1,292.7,67.5,200,67.5z"/>
	</defs>
	<use xlink:href="#fill::accent:2"  overflow="visible" fill="#876DAF"/>
	<clipPath id="fill::accent:2_1_">
		<use xlink:href="#fill::accent:2"  overflow="visible"/>
	</clipPath>
	
		<path id="fill::beanie" clip-path="url(#fill::accent:2_1_)" fill="#584675" stroke="#000000" stroke-width="9" stroke-miterlimit="10" d="
		M200,47.5c-92.7,0-117.8,44.6-123.7,85C90.2,109.1,132,97.4,200,97.4s109.9,11.7,123.7,35.1C317.8,92.1,292.7,47.5,200,47.5z"/>
	
		<use xlink:href="#fill::accent:2"  overflow="visible" fill="none" stroke="#000000" stroke-width="9" stroke-linejoin="round" stroke-miterlimit="10"/>
</g>
<polygon id="fill::accent:1" fill="#876DAF" stroke="#000000" stroke-width="5" stroke-linejoin="round" stroke-miterlimit="10" points="
	213.3,46.1 210,59 223.2,57.5 212.9,66 224.6,72.5 211.2,73.3 216.8,85.5 205.5,78.3 202.9,91.4 198,79 188.2,88 191.5,75.1 
	178.3,76.6 188.6,68.1 176.9,61.6 190.3,60.8 184.7,48.6 196,55.8 198.6,42.7 203.5,55.2 "/>
</svg>
