<?xml version="1.0" encoding="utf-8"?>
<!-- Generator: Adobe Illustrator 17.1.0, SVG Export Plug-In . SVG Version: 6.00 Build 0)  -->
<!DOCTYPE svg PUBLIC "-//W3C//DTD SVG 1.1//EN" "http://www.w3.org/Graphics/SVG/1.1/DTD/svg11.dtd">
<svg version="1.1" id="Layer_2" xmlns="http://www.w3.org/2000/svg" xmlns:xlink="http://www.w3.org/1999/xlink" x="0px" y="0px"
	 viewBox="0 0 400 400" enable-background="new 0 0 400 400" xml:space="preserve">
<g>
	<path fill="#FFFFFF" d="M169.3,106.2c0,0,0.8,19.4,5.6,21.6c0,0,11.6-21.2,15.4-23.8L169.3,106.2z"/>
	<path d="M176,131l-2.1-1c-5.5-2.6-6.8-17.4-7-23.7l-0.1-2.3l23.4-2.5l1.6,4.4c-2.1,1.5-9.2,12.8-14.7,23L176,131z M171.9,108.4
		c0.4,6.2,1.5,12,2.7,15c2.4-4.4,6.6-11.5,10.1-16.4L171.9,108.4z"/>
</g>
<g>
	<path fill="#FFFFFF" d="M237.2,105.4c0,0-0.8,19.4-5.6,21.6c0,0-11.6-21.2-15.4-23.8L237.2,105.4z"/>
	<path d="M230.5,130.2l-1.1-2c-5.5-10.1-12.6-21.5-14.7-23l1.6-4.4l23.4,2.5l-0.1,2.3c-0.3,6.3-1.5,21.1-7,23.7L230.5,130.2z
		 M221.8,106.2c3.5,4.9,7.6,12.1,10.1,16.4c1.2-3.1,2.3-8.9,2.7-15.1L221.8,106.2z"/>
</g>
<g>
	<path fill="#584528" d="M337.3,157.2c0.1-1.8-0.5-5.5-0.6-7.3c0-2.4-0.3-4.7-0.6-7.1c28.7-42.6,7.6-64.9,7.6-64.9
		c-14.9-7.8-39.7,1.8-52.3,7.7C267.6,72,236.3,63.9,202,64.3c-33.5,0.4-63.9,8.9-87.1,22.5C103.4,81.1,76,69.5,60,77.9
		c0,0-22.2,23.5,10,68.4c-0.2,1.7-0.5,3.3-0.5,5c-2.4,15.5,7.6,87.9,40.6,87.3c0,0,14.5,0.4,28.7-10.1c0,0-50.3-22.3-31.3-90.6
		c44.3-44.3,145-46.5,188.3-4.7c21.4,69.6-30.5,92.5-30.5,92.5c14.2,10.6,29.9,10.6,29.9,10.6C332.4,237,337.4,157.2,337.3,157.2
		L337.3,157.2z"/>
	<path d="M109.7,243.9c-8.7,0-16.5-4-23.3-11.9c-18.1-21.1-24.4-67.6-22.2-81.6c0-0.6,0.1-1.7,0.2-2.8c-32.7-46.9-9.4-72.4-8.3-73.5
		l1.4-1.1c4.5-2.3,9.9-3.5,16.2-3.5c14.6,0,31,6.5,41,11.1c24.6-13.7,55.4-21.4,87.3-21.8h2.7c31.8,0,62.6,7.3,87.1,20.6
		c10.7-4.8,25.3-10,38.4-10c6.2,0,11.7,1.2,16.1,3.5l1.4,1.1c1,1,23.1,25.3-5.9,69.9c0.2,1.9,0.4,3.8,0.4,5.7c0,0.6,0.1,1.5,0.2,2.5
		c0.1,0.9,0.2,1.8,0.3,2.6l0.2,0.2l-0.1,2.4c-0.2,3.4-5.7,84-46.8,84l0,0c-1.2,0-18.1-0.2-33.6-11.7l-7.3-5.4l8.4-3.8
		c1.9-0.9,46.5-21.7,27.9-84.7c-18.6-17.3-50.2-27.5-84.7-27.5c-38.2,0-73.2,12-94.1,32.2c-16.5,62,28.2,82.7,28.6,82.9l8.4,3.7
		l-7.4,5.5c-14.4,10.7-28.9,11.2-31.7,11.2h-0.8V243.9z M63.4,82.2c-2.9,3.8-15.5,24,11,60.9l1.2,1.7l-0.4,3.4
		c-0.1,1.1-0.3,2.1-0.3,3.2c-1.8,11.6,3.7,55,19.7,73.7c4.7,5.5,9.6,8.1,15.1,8.1h0.3l0,0c1.4,0,9.4-0.2,18.6-4.8
		c-14.3-10.2-41.3-37.6-26.2-92l0.4-1.4l1-1c22.7-22.7,61.1-36.3,102.7-36.3c38.5,0,72.4,11.5,93.2,31.5l1,1l0.4,1.3
		c17.1,55.6-10.7,83.7-25.3,94.1c10.2,5.1,19.5,5.2,19.7,5.2c25.5,0,34.7-50.4,36.4-72.1l0.1-1.9c0.1-0.8-0.1-2.1-0.3-3.3
		c-0.2-1.4-0.3-2.6-0.3-3.5c0-2.2-0.3-4.3-0.6-6.4l-0.3-2l1.1-1.7c23.3-34.7,11.6-53.8,8.7-57.6c-2.8-1.3-6.2-1.9-10.3-1.9
		c-12.8,0-28.3,6.3-36.3,10.1l-2.5,1.2l-2.4-1.4c-23.3-13.3-53.2-20.6-84.2-20.6h-2.5c-31.1,0.4-61.1,8.1-84.5,21.8l-2.5,1.4
		l-2.6-1.3c-8.6-4.2-25.1-11.3-38.8-11.3C69.7,80.3,66.2,80.9,63.4,82.2z"/>
</g>
<path fill="#352514" d="M291.2,99.4c0,0,23.3-13.2,42.8-12.3c0,0-30,11.4-30.1,19.1c0,0,13.2,21.1,31.9,12.4c0,0-5.3,14.8-10,17.7
	C325.9,136.3,303.5,129.1,291.2,99.4z"/>
<path fill="#352514" d="M112.6,99.4c0,0-23.3-13.2-42.8-12.3c0,0,30,11.4,30.1,19.1c0,0-13.2,21.1-31.9,12.4c0,0,5.3,14.8,10,17.7
	C77.9,136.3,100.3,129.1,112.6,99.4z"/>
<g>
	<path fill="#BB895E" d="M244.4,104c0,11.4-18.4,10.5-41.1,11c-22.7,0.4-41.1,0.5-41.1-11s18.4-21.9,41.1-21.9S244.4,92.6,244.4,104
		z"/>
	<path d="M192.5,118.8c-12.7,0-33.9,0-33.9-14.8c0-14.1,20.1-25.5,44.7-25.5c24.7,0,44.8,11.5,44.8,25.5s-17.9,14.2-38.6,14.5
		l-6.1,0.1C199.7,118.7,196,118.8,192.5,118.8z M203.4,85.8C182,85.8,166,95.4,166,104c0,5.3,7.7,7.4,26.6,7.4c3.4,0,7-0.1,10.8-0.1
		l6.1-0.1c19.5-0.3,31.4-0.9,31.4-7.2C240.8,95.4,224.8,85.8,203.4,85.8z"/>
</g>
<g>
	<circle id="circle3036_5_" cx="142.4" cy="91.4" r="2.6"/>
	<path d="M142.4,99.4c-4.4,0-8-3.6-8-8s3.6-8,8-8s8,3.6,8,8S146.8,99.4,142.4,99.4z M142.4,88.7c-1.5,0-2.7,1.2-2.7,2.7
		s1.2,2.7,2.7,2.7s2.7-1.2,2.7-2.7S143.9,88.7,142.4,88.7z"/>
</g>
<g>
	<circle id="circle3036_4_" cx="265.5" cy="91.4" r="2.6"/>
	<path d="M265.5,99.4c-4.4,0-8-3.6-8-8s3.6-8,8-8s8,3.6,8,8S269.9,99.4,265.5,99.4z M265.5,88.7c-1.5,0-2.7,1.2-2.7,2.7
		s1.2,2.7,2.7,2.7s2.7-1.2,2.7-2.7S267,88.7,265.5,88.7z"/>
</g>
<g>
	<path d="M215,82c0,6.4-5.2,11.6-11.6,11.6c-6.4,0-11.6-5.2-11.6-11.6s5.2-1.8,11.6-1.8S215,75.6,215,82z"/>
	<path d="M203.4,99c-9.4,0-16.9-7.6-16.9-16.9c0-6.5,4.2-8.8,7.7-8.8c1.6,0,3.1,0.4,4.7,0.8c3,0.8,6.1,0.8,9.1,0
		c1.6-0.4,3.1-0.8,4.7-0.8c3.6,0,7.7,2.3,7.7,8.8C220.3,91.4,212.7,99,203.4,99z M197.9,84.9c2.1,4.2,9,4,11,0
		C205.8,85.6,201.1,85.6,197.9,84.9z"/>
</g>
</svg>
