<?xml version="1.0" encoding="utf-8"?>
<!-- Generator: Adobe Illustrator 17.1.0, SVG Export Plug-In . SVG Version: 6.00 Build 0)  -->
<!DOCTYPE svg PUBLIC "-//W3C//DTD SVG 1.1//EN" "http://www.w3.org/Graphics/SVG/1.1/DTD/svg11.dtd">
<svg version="1.1" id="Layer_2" xmlns="http://www.w3.org/2000/svg" xmlns:xlink="http://www.w3.org/1999/xlink" x="0px" y="0px"
	 viewBox="0 0 400 400" enable-background="new 0 0 400 400" xml:space="preserve">
<path id="fill::bob_x26__x26_bob-f:darker::stroke::outline" fill="#7A27D0" stroke="#4F1C91" stroke-width="9" stroke-linejoin="round" d="
	M264.4,65.9c-9.6-2.2-42.7-9.4-63.4-9.1c-20.7-0.3-53.8,6.9-63.4,9.1c-31,3.7-76.6,35-61.9,119.3c0,0,38.2,45,33.7,33.1
	c-13.1-34.4-9.9-76.5-0.9-99.8c3.4-8.7,22.7-25.5,26.5-24.8c0.5,0.1,41.8,10.1,66.1,9.7c24.3,0.4,65.6-9.6,66.1-9.7
	c3.7-0.8,23.1,16.1,26.5,24.8c9,23.2,12.2,65.4-0.9,99.8c-4.5,11.8,33.7-33.1,33.7-33.1C341.1,100.9,295.4,69.6,264.4,65.9z"/>
</svg>
