<?xml version="1.0" encoding="utf-8"?>
<!-- Generator: Adobe Illustrator 17.1.0, SVG Export Plug-In . SVG Version: 6.00 Build 0)  -->
<!DOCTYPE svg PUBLIC "-//W3C//DTD SVG 1.1//EN" "http://www.w3.org/Graphics/SVG/1.1/DTD/svg11.dtd">
<svg version="1.1" id="Layer_2" xmlns="http://www.w3.org/2000/svg" xmlns:xlink="http://www.w3.org/1999/xlink" x="0px" y="0px"
	 viewBox="0 0 400 400" enable-background="new 0 0 400 400" xml:space="preserve">
<g id="fill::braids">
	<path fill="#443200" d="M198.3,70.3c0,0,0-0.1,0-0.1c0-5.6-4.5-10.1-10.1-10.1c-5.6,0-10.1,4.5-10.1,10.1c0,0.4,0,0.9,0.1,1.3
		c6-0.7,12-1.1,18.1-1.2L198.3,70.3z"/>
	<path fill="#443200" d="M165,62.9c-5.6,0-10.1,4.5-10.1,10.1c0,0.9,0.1,1.8,0.3,2.6c6.4-1.6,13-2.8,19.8-3.7
		C174.5,66.8,170.2,62.9,165,62.9z"/>
	<path fill="#443200" d="M142.7,68.5c-5.6,0-10.1,4.5-10.1,10.1c0,1.4,0.3,2.8,0.8,4c6.1-2.5,12.5-4.6,19.1-6.3
		C151.5,71.8,147.5,68.5,142.7,68.5z"/>
	<path fill="#443200" d="M121.8,77c-5.6,0-10.1,4.5-10.1,10.1c0,2.1,0.6,4,1.7,5.6c5.6-3.4,11.5-6.5,17.8-9.2
		C129.8,79.7,126.1,77,121.8,77z"/>
	<path fill="#443200" d="M221.8,71.5c0.1-0.4,0.1-0.9,0.1-1.3c0-5.6-4.5-10.1-10.1-10.1c-5.6,0-10.1,4.5-10.1,10.1c0,0,0,0.1,0,0.1
		l6.1,0.1C212.5,70.6,217.2,71,221.8,71.5z"/>
	<path fill="#443200" d="M245.1,73c0-5.6-4.5-10.1-10.1-10.1c-5.2,0-9.5,3.9-10,9c6.8,0.9,13.4,2.1,19.8,3.7
		C244.9,74.8,245.1,73.9,245.1,73z"/>
	<path fill="#443200" d="M267.3,78.6c0-5.6-4.5-10.1-10.1-10.1c-4.8,0-8.8,3.3-9.8,7.8c6.6,1.7,13,3.9,19.1,6.3
		C267,81.4,267.3,80,267.3,78.6z"/>
	<path fill="#443200" d="M288.3,87.1c0-5.6-4.5-10.1-10.1-10.1c-4.3,0-8,2.7-9.4,6.5c6.3,2.7,12.3,5.7,17.8,9.2
		C287.6,91.1,288.3,89.2,288.3,87.1z"/>
</g>
</svg>
