<?xml version="1.0" encoding="utf-8"?>
<!-- Generator: Adobe Illustrator 17.1.0, SVG Export Plug-In . SVG Version: 6.00 Build 0)  -->
<!DOCTYPE svg PUBLIC "-//W3C//DTD SVG 1.1//EN" "http://www.w3.org/Graphics/SVG/1.1/DTD/svg11.dtd">
<svg version="1.1" id="Layer_2" xmlns="http://www.w3.org/2000/svg" xmlns:xlink="http://www.w3.org/1999/xlink" x="0px" y="0px"
	 viewBox="0 0 400 400" enable-background="new 0 0 400 400" xml:space="preserve">
<g id="fill::cap:1_x26__x26_cap-f:darker::stroke::cap-outline">
	<path fill="#26325A" stroke="#070D36" stroke-width="9" d="M115.4,56.4c-7.1,9.7-17.1,43.4-3.5,40.8c13.9-2.7,41.7-8,93.2,2.4
		c51.4,10.4,61.7,38.2,82.5,36.3c20.7-1.9,20.8-30.1,19.2-40.9c-3.4-21.9-8-55-82.9-70.1C148.9,9.8,128.9,37.9,115.4,56.4z"/>
	<path fill="#26325A" stroke="#070D36" stroke-width="9" d="M207.7,22c-0.9,3.5,5,7.6,13.1,9.2c8.1,1.6,15.4,0.2,16.3-3.3
		c0.9-3.5-5-7.6-13.1-9.2C215.9,17.1,208.6,18.6,207.7,22z"/>
	<path fill="#26325A" stroke="#070D36" stroke-width="9" d="M126.7,97.8c24,7.9,56.7,17.4,71.7,21c18.1,4.3,36.7,8.9,52.3,12
		c43.3,8.6,84.7,18.3,61.2-1C264.1,99.5,184.2,85.3,126.7,97.8z"/>
</g>
<g id="fill::cap:2">
	<path fill="#111840" d="M233.5,32.2c20,5.1,34.9,12.1,44.8,21.5c4.9,4.7,8.6,10,11.1,15.9c2.5,6,3.7,12.7,3.7,20.2
		c0,8.3-1.5,17.7-4.7,28.2l2.5,0.8c3.2-10.7,4.8-20.3,4.8-28.9c0-7.8-1.3-14.9-3.9-21.2c-3.9-9.5-10.8-17.3-20.4-23.7
		c-9.6-6.4-22.1-11.4-37.2-15.2L233.5,32.2L233.5,32.2z"/>
	<path fill="#111840" d="M209.1,25.6c-6.3-0.5-12.6-1.1-18.6-1.1c-6.1,0-11.9,0.6-17.5,2.3c-4.1,1.3-8.1,3.4-11.7,6.3
		c-5.5,4.5-10.3,11-14.2,20.4c-3.9,9.4-7,21.7-9,37.8l2.6,0.3c1.8-14.1,4.4-25.2,7.6-33.9c2.4-6.5,5.2-11.7,8.2-15.8
		c4.6-6.1,9.7-9.8,15.4-12c5.7-2.2,11.9-2.9,18.6-2.9c5.9,0,12.1,0.5,18.4,1.1L209.1,25.6L209.1,25.6z"/>
	<path fill="#111840" d="M224.8,33.7c2.5,1.1,4.5,2.6,6.1,4.5c2.5,2.9,4.2,6.6,5.3,10.8c1.1,4.3,1.6,9.1,1.6,14
		c0,12.8-3,26.6-5.6,35.5l2.5,0.7c2.7-9.1,5.7-23.1,5.7-36.2c0-6.9-0.8-13.5-3.1-19.1c-1.1-2.8-2.6-5.4-4.5-7.5
		c-1.9-2.2-4.2-4-7.1-5.2L224.8,33.7L224.8,33.7z"/>
</g>
</svg>
