<?xml version="1.0" encoding="utf-8"?>
<!-- Generator: Adobe Illustrator 17.1.0, SVG Export Plug-In . SVG Version: 6.00 Build 0)  -->
<!DOCTYPE svg PUBLIC "-//W3C//DTD SVG 1.1//EN" "http://www.w3.org/Graphics/SVG/1.1/DTD/svg11.dtd">
<svg version="1.1" id="Layer_3" xmlns="http://www.w3.org/2000/svg" xmlns:xlink="http://www.w3.org/1999/xlink" x="0px" y="0px"
	 viewBox="0 0 400 400" enable-background="new 0 0 400 400" xml:space="preserve">
<g id="fill::chef">
	<path fill="#FFFFFF" stroke="#000000" stroke-width="9" stroke-linejoin="round" d="M240.4,85.3c0,0-12.5,12.5-42.4,18
		c-29.9,5.6-47.9-1.2-47.9-1.2L136,25.8L226.2,9L240.4,85.3z"/>
	<path fill="#FFFFFF" stroke="#000000" stroke-width="9" d="M209.9,7c-2.2,0.4-4.3,1-6.3,1.7c-7.3-3.1-16.1-4.1-25.2-2.4
		s-16.9,5.8-22.7,11.3c-2.1,0-4.3,0.2-6.5,0.6c-16.8,3.1-28.3,16.6-25.8,30.2c2.5,13.6,18.2,22,34.9,18.9c2.2-0.4,4.3-1,6.3-1.7
		c7.3,3.1,16.1,4.1,25.2,2.4c9.1-1.7,16.9-5.8,22.7-11.3c2.1,0,4.3-0.2,6.5-0.6c16.8-3.1,28.3-16.6,25.8-30.2
		C242.3,12.3,226.6,3.9,209.9,7z"/>
</g>
</svg>
