<?xml version="1.0" encoding="utf-8"?>
<!-- Generator: Adobe Illustrator 17.1.0, SVG Export Plug-In . SVG Version: 6.00 Build 0)  -->
<!DOCTYPE svg PUBLIC "-//W3C//DTD SVG 1.1//EN" "http://www.w3.org/Graphics/SVG/1.1/DTD/svg11.dtd">
<svg version="1.1" id="cowl" xmlns="http://www.w3.org/2000/svg" xmlns:xlink="http://www.w3.org/1999/xlink" x="0px" y="0px"
	 viewBox="0 0 400 400" enable-background="new 0 0 400 400" xml:space="preserve">
<path id="fill::cowl:2" fill="#318448" stroke="#000000" stroke-width="7" d="M282.4,213l13.7,18.7c0,0-28.4,25.4-98.6,25.3
	c-59.2-0.1-95.4-23.3-95.4-23.3l13.2-17.3C115.3,216.3,206.3,270.3,282.4,213"/>
<path id="fill::cowl:1" fill="#318448" stroke="#000000" stroke-width="7" d="M340.4,154.3c0,48.4-62.5,87.7-139.6,87.7
	S61.2,202.8,61.2,154.3c0-48.4,62.5-87.7,139.6-87.7C277.9,66.6,340.4,105.9,340.4,154.3 M271.4,101.2c-20.2-6.6-45.2,6.2-72.3,6.2
	c-28.9,0-55.4-12.4-76.3-4.8c-28,10.1-45.9,27.4-45.9,52.6c0,44.1,54.7,73.8,122.3,73.8c67.5,0,122.3-29.7,122.3-73.8
	C321.4,128.8,301.8,111.2,271.4,101.2z"/>
</svg>
