<?xml version="1.0" encoding="utf-8"?>
<!-- Generator: Adobe Illustrator 17.1.0, SVG Export Plug-In . SVG Version: 6.00 Build 0)  -->
<!DOCTYPE svg PUBLIC "-//W3C//DTD SVG 1.1//EN" "http://www.w3.org/Graphics/SVG/1.1/DTD/svg11.dtd">
<svg version="1.1" id="Layer_3" xmlns="http://www.w3.org/2000/svg" xmlns:xlink="http://www.w3.org/1999/xlink" x="0px" y="0px"
	 viewBox="0 0 400 400" enable-background="new 0 0 400 400" xml:space="preserve">
<path id="fill::crown" fill="#C1B544" stroke="#231F20" stroke-width="11" stroke-linejoin="round" stroke-miterlimit="10" d="
	M340.8,47c-6.7-17.3-64,24-68,21.7c0,0-5.4,1-12.8,1.1c1.5-10.5,6.3-24.7,17.5-43.8c-9.7-10.4-34.2,22.5-47.1,38
	c-7.1-4-12.5-10.6-13.5-21.2C213.5,7.3,226.7,25,200,6c-26.7,19-13.5,1.3-16.8,36.7c-1,10.6-6.4,17.2-13.5,21.2
	c-12.9-15.5-37.4-48.4-47.1-38c11.2,19.1,15.9,33.4,17.5,43.8c-7.4-0.2-12.8-1.1-12.8-1.1c-4,2.3-61.3-39-68-21.7
	c49.7,38.3,41.2,59.9,41.2,59.9c30,5.5,61.5,8.7,99.6,8.7v0c0,0,0,0,0,0s0,0,0,0v0c38.1,0,69.1-3.2,99.1-8.7
	C299.1,106.9,291.1,85.3,340.8,47z"/>
<path id="crown-f:lighter::fill::band" fill="#C4BC7E" stroke="#231F20" stroke-width="11" stroke-linejoin="round" stroke-miterlimit="10" d="
	M96.1,86.3c6,14,4.3,20.6,4.3,20.6c30,5.5,61.5,8.7,99.6,8.7v0c0,0,0,0,0,0s0,0,0,0v0c38.1,0,69.1-3.2,99.1-8.7
	c0,0-2.5-6.9,4.2-19.8C303.3,87.2,202.3,103,96.1,86.3z"/>
</svg>
