<?xml version="1.0" encoding="utf-8"?>
<!-- Generator: Adobe Illustrator 17.1.0, SVG Export Plug-In . SVG Version: 6.00 Build 0)  -->
<!DOCTYPE svg PUBLIC "-//W3C//DTD SVG 1.1//EN" "http://www.w3.org/Graphics/SVG/1.1/DTD/svg11.dtd">
<svg version="1.1" id="fill::curly-short_x26__x26_curly-short-f:darker::stroke::outline"
	 xmlns="http://www.w3.org/2000/svg" xmlns:xlink="http://www.w3.org/1999/xlink" x="0px" y="0px" viewBox="0 0 400 400"
	 enable-background="new 0 0 400 400" xml:space="preserve">
<path fill="#554928" stroke="#352D1A" stroke-width="6" stroke-linejoin="round" stroke-miterlimit="10" d="M307.2,101.4
	c-1.1,0-2.1,0.2-3.1,0.5c-0.6-6-5.7-10.7-11.8-10.7c-1.5,0-2.9,0.3-4.2,0.8c0-0.1,0-0.2,0-0.4c0-7.2-5.9-13.1-13.1-13.1
	c-3.1,0-5.9,1.1-8.2,2.9c-1.9-5.8-7.3-9.9-13.7-9.9c-3.5,0-6.7,1.3-9.2,3.4c-2.2-6.1-8-10.5-14.9-10.5c-5.4,0-10.1,2.7-13,6.7
	c-2.9-5.6-8.7-9.5-15.5-9.5c0,0-0.1,0-0.1,0c0,0-0.1,0-0.1,0c-6.8,0-12.6,3.9-15.5,9.5c-2.9-4.1-7.6-6.7-13-6.7
	c-6.9,0-12.7,4.4-14.9,10.5c-2.5-2.1-5.7-3.4-9.2-3.4c-6.4,0-11.8,4.2-13.7,9.9c-2.2-1.8-5.1-2.9-8.2-2.9c-7.2,0-13.1,5.9-13.1,13.1
	c0,0.1,0,0.2,0,0.4c-1.3-0.5-2.7-0.8-4.2-0.8c-6.2,0-11.3,4.7-11.8,10.7c-1-0.3-2-0.5-3.1-0.5c-6,0-10.8,4.8-10.8,10.8
	S87.7,123,93.7,123c5.3,0,9.7-3.9,10.6-8.9c1.3,0.5,2.8,0.8,4.3,0.8c6.4,0,11.6-5.1,11.9-11.5c1.6,0.7,3.5,1.2,5.4,1.2
	c5.5,0,10.2-3.4,12.1-8.2c2.6,2.3,6,3.8,9.7,3.8c5.9,0,11-3.6,13.2-8.7c2.8,2.7,6.7,4.4,10.9,4.4c5.8,0,10.9-3.2,13.6-7.8
	c3.1,5,8.5,8.3,14.8,8.3c0,0,0.1,0,0.1,0c0,0,0.1,0,0.1,0c6.3,0,11.7-3.3,14.8-8.3c2.8,4.7,7.8,7.8,13.6,7.8c4.2,0,8.1-1.7,10.9-4.4
	c2.2,5.1,7.3,8.7,13.2,8.7c3.7,0,7.1-1.4,9.7-3.8c1.9,4.8,6.6,8.2,12.1,8.2c1.9,0,3.7-0.4,5.4-1.2c0.2,6.4,5.4,11.5,11.9,11.5
	c1.5,0,3-0.3,4.3-0.8c0.9,5.1,5.3,8.9,10.6,8.9c6,0,10.8-4.8,10.8-10.8S313.1,101.4,307.2,101.4z"/>
</svg>
