<?xml version="1.0" encoding="utf-8"?>
<!-- Generator: Adobe Illustrator 17.1.0, SVG Export Plug-In . SVG Version: 6.00 Build 0)  -->
<!DOCTYPE svg PUBLIC "-//W3C//DTD SVG 1.1//EN" "http://www.w3.org/Graphics/SVG/1.1/DTD/svg11.dtd">
<svg version="1.1" id="Layer_2" xmlns="http://www.w3.org/2000/svg" xmlns:xlink="http://www.w3.org/1999/xlink" x="0px" y="0px"
	 viewBox="0 0 400 400" enable-background="new 0 0 400 400" xml:space="preserve">
<g id="fill::dreadlocks_x26__x26_dreadlocks-f:darker::stroke::outline">
	<path fill="#D73100" stroke="#030800" stroke-width="9" d="M322.7,254.9c-0.4,0-0.9,0-1.3-0.1c-5.6-0.7-9.5-5.9-8.8-11.5
		c6.6-50-1-88.8-22.5-115.2c-25.4-31.2-62.3-34.4-62.7-34.4c-5.6-0.4-9.8-5.3-9.4-10.9c0.4-5.6,5.3-9.8,10.9-9.5
		c1.9,0.1,45.8,3.6,76.8,41.6c25.3,31,34.4,75.1,27.1,131.1C332.2,251.1,327.8,254.9,322.7,254.9z"/>
	<path fill="#D73100" stroke="#030800" stroke-width="9" d="M342.5,237.1c-5.4,0-9.9-4.3-10.2-9.7c-3.1-63.7-19.5-106.3-48.8-126.6
		c-30-20.8-63.6-10.5-63.9-10.4c-5.4,1.7-11.1-1.3-12.8-6.6c-1.7-5.4,1.3-11.1,6.6-12.8c1.8-0.6,43.6-13.5,81.8,13.1
		c34.8,24.2,54.2,72.1,57.6,142.4c0.3,5.6-4.1,10.4-9.7,10.7C342.9,237.1,342.7,237.1,342.5,237.1z"/>
	<path fill="#D73100" stroke="#030800" stroke-width="9" d="M299.7,258.7c-0.8,0-1.6-0.1-2.4-0.3c-5.5-1.3-8.9-6.9-7.5-12.3
		c15-62.1,11.4-108-10.6-132.8c-22.3-25.3-56.7-21.7-57.1-21.6c-5.6,0.6-10.7-3.4-11.3-9s3.4-10.7,9-11.3
		c1.8-0.2,45.4-4.8,74.7,28.4c26.9,30.5,32,81.3,15.1,151.1C308.5,255.6,304.3,258.7,299.7,258.7z"/>
	<path fill="#D73100" stroke="#030800" stroke-width="9" d="M313,243.7c-0.8,0-1.6-0.1-2.4-0.3c-5.5-1.3-8.9-6.9-7.5-12.3
		c14.4-59.6,10.9-102.2-10.1-123.3c-23.4-23.5-62-14.5-62.4-14.4c-5.5,1.3-11-2.1-12.3-7.5c-1.3-5.5,2.1-11,7.5-12.3
		c2-0.5,50.2-11.6,81.7,19.8c26.7,26.7,31.9,74.7,15.5,142.5C321.8,240.6,317.6,243.7,313,243.7z"/>
	<path fill="#D73100" stroke="#030800" stroke-width="9" d="M287.5,250.7c-0.8,0-1.6-0.1-2.4-0.3c-5.5-1.3-8.9-6.9-7.5-12.3
		c14.4-59.5,10.9-102.1-10-123.2c-23.2-23.4-67.6-17.1-68-17c-5.5,1.3-11-2.1-12.3-7.6s2.1-11,7.5-12.3c2-0.5,55.7-9.1,87.2,22.3
		c26.7,26.7,31.9,74.7,15.5,142.5C296.3,247.6,292.1,250.7,287.5,250.7z"/>
	<path fill="#D73100" stroke="#030800" stroke-width="9" d="M96.6,243.7c-4.6,0-8.8-3.1-9.9-7.8C70.3,168,75.5,120.1,102.2,93.4
		c31.4-31.5,79.6-20.3,81.7-19.8c5.5,1.3,8.9,6.8,7.5,12.3c-1.3,5.5-6.8,8.9-12.3,7.6c-0.7-0.2-39.4-8.8-62.5,14.5
		c-20.9,21.1-24.4,63.7-10,123.2c1.3,5.5-2,11-7.5,12.3C98.2,243.6,97.4,243.7,96.6,243.7z"/>
	<path fill="#D73100" stroke="#030800" stroke-width="9" d="M52.4,236.2c-0.3,0-0.6,0-1,0c-5.6-0.5-9.8-5.5-9.2-11.1
		c6.6-70.8,28.3-118,64.6-140.2c40.9-25,84.1-8.1,85.9-7.4c5.2,2.1,7.8,8.1,5.7,13.3c-2.1,5.2-8,7.8-13.3,5.7l0,0
		c-0.4-0.1-35.9-13.7-67.9,6C86.9,121.2,68.5,163,62.6,227C62.1,232.3,57.6,236.2,52.4,236.2z"/>
	<path fill="#D73100" stroke="#030800" stroke-width="9" d="M66.4,229.9c-0.3,0-0.6,0-1,0c-5.6-0.5-9.8-5.5-9.2-11.1
		C63,145.4,84.4,98.1,119.7,78.4c36.9-20.6,74.1-2.8,75.7-2c5.1,2.5,7.2,8.6,4.7,13.7s-8.6,7.1-13.7,4.7l0,0
		c-0.3-0.1-29.5-13.9-56.9,1.6c-28.5,16.1-46.8,59.1-52.9,124.3C76.1,225.9,71.6,229.9,66.4,229.9z"/>
	<path fill="#D73100" stroke="#030800" stroke-width="9" d="M85.6,239.9c-4.6,0-8.8-3.1-9.9-7.8c-16-66.3-10.6-113.2,16-139.4
		C124.8,60,177,73,179.2,73.6c5.5,1.4,8.8,7,7.3,12.5c-1.4,5.5-7,8.8-12.4,7.4l0,0c-0.4-0.1-43.4-10.6-68.2,13.9
		C85.1,128,81.5,169.5,95.5,227.3c1.3,5.5-2,11-7.5,12.3C87.2,239.8,86.4,239.9,85.6,239.9z"/>
	<path fill="#D73100" stroke="#030800" stroke-width="9" d="M110.9,248.3c-4.6,0-8.8-3.1-9.9-7.8C84.6,172.6,89.8,124.7,116.5,98
		c31.4-31.5,79.6-20.3,81.7-19.8c5.5,1.3,8.9,6.8,7.5,12.3c-1.3,5.5-6.8,8.9-12.3,7.6c-0.7-0.2-39.4-8.8-62.5,14.5
		c-20.9,21.1-24.4,63.7-10,123.2c1.3,5.5-2,11-7.5,12.3C112.6,248.2,111.7,248.3,110.9,248.3z"/>
</g>
</svg>
