<?xml version="1.0" encoding="utf-8"?>
<!-- Generator: Adobe Illustrator 17.1.0, SVG Export Plug-In . SVG Version: 6.00 Build 0)  -->
<!DOCTYPE svg PUBLIC "-//W3C//DTD SVG 1.1//EN" "http://www.w3.org/Graphics/SVG/1.1/DTD/svg11.dtd">
<svg version="1.1" id="Layer_2" xmlns="http://www.w3.org/2000/svg" xmlns:xlink="http://www.w3.org/1999/xlink" x="0px" y="0px"
	 viewBox="0 0 400 400" enable-background="new 0 0 400 400" xml:space="preserve">
<g id="fill::eared-hat:4">
	<path fill="#F04E23" stroke="#000000" stroke-width="11" d="M310.3,219.2c0,0-27-32.8-27-33.3c0-0.6,35.1-19,35.1-19L310.3,219.2z"
		/>
	<path fill="#F04E23" stroke="#000000" stroke-width="11" d="M87.2,219.2c0,0,33.9-38.5,33.9-39.1c0-0.6-42-13.2-42-13.2L87.2,219.2
		z"/>
</g>
<path d="M92.9,206.3c0.9-3.6,2-7.4,3.1-11.4c1-4,2-8.1,2.4-12.5l-5.5-0.4l3.3,4.4c2.3-1.7,4.1-3.9,5.1-6.2c1.1-2.3,1.4-4.8,1.4-7
	c0-2-0.3-3.8-0.6-5.6c-0.5-2.6-1.3-5-1.8-7.1c-0.6-2.1-0.9-3.9-0.9-5.1c0-0.6,0.1-1,0.1-1.3c0.1-0.2,0.1-0.4,0.2-0.6
	c0.2-0.3,0.4-0.5,0.9-0.9c0.5-0.4,1.3-0.8,2.5-1.3c0.5-0.2,1-0.4,1.4-0.8c1.2-0.9,2.2-2.1,2.9-3.3c0.6-1,1-2,1.3-2.9
	c0.5-1.6,0.7-3.1,0.9-4.3c0.1-0.9,0.2-1.7,0.4-2.3c0.1-0.4,0.2-0.7,0.2-0.8l0,0l0,0l-1-0.5l0.8,0.7c0.1-0.1,0.1-0.2,0.1-0.2l-1-0.5
	l0.8,0.7l-1.6-1.3l0.8,1.9c0.3-0.1,0.6-0.4,0.8-0.6l-1.6-1.3l0.8,1.9l-0.6-1.4l0.3,1.5c0.1,0,0.2,0,0.3-0.1l-0.6-1.4l0.3,1.5
	l-0.1-0.4l0,0.4l0,0l-0.1-0.4l0,0.4l0.1,0c0.1,0,0.6,0,1.3,0.2c2.2,0.6,4.5-0.3,5.8-2.1c0.7-1,1.4-1.7,2.3-2.3
	c1.4-1.1,3.1-1.8,5.1-2.3c3.1-0.8,7.1-1,11.4-1.4c2.2-0.2,4.5-0.5,6.8-1c2.3-0.5,4.7-1.2,7.1-2.3c0.2-0.1,0.3-0.2,0.5-0.3
	c3.4-2.1,6.5-2.9,9.7-2.9c2,0,4.1,0.3,6.1,1c2.1,0.7,4.1,1.6,6.1,2.8c1.2,0.7,2.6,1,4,0.7c3.9-0.8,7.7-1.7,11.3-2.3
	c3.6-0.6,7.1-1.1,10.4-1.1c2.3,0,4.4,0.2,6.5,0.6c2.1,0.4,4.2,1.1,6.2,2.1c0.5,0.2,1,0.4,1.5,0.5c2.3,0.4,4.6,0.5,6.8,0.5
	c3.3,0,6.5-0.3,9.5-0.5c3-0.3,5.9-0.5,8.5-0.5c2.5,0,4.8,0.2,6.8,0.8c2.1,0.5,3.9,1.4,5.8,2.7c0.2,0.1,0.5,0.3,0.7,0.4
	c2.5,1.4,5.1,2.2,7.6,2.6c2.5,0.5,5,0.6,7.4,0.6c4.6,0,8.9-0.5,12.7-0.5c2.9,0,5.3,0.3,7.3,1c1,0.4,1.9,0.8,2.7,1.4
	c0.8,0.6,1.6,1.4,2.4,2.4l4.4-3.3l-5.4,0.8c0,0.1,0,0.2,0,0.4c0,0.4-0.1,0.9-0.3,1.7c-0.3,1.1-0.8,2.5-1.3,4.1
	c-0.3,0.8-0.5,1.7-0.7,2.7c-0.2,1-0.4,2.1-0.4,3.3c0,1,0.1,2,0.4,3.1c0.4,1.6,1.2,3.2,2.2,4.6c1.1,1.4,2.4,2.6,4,3.7l3.1-4.6l-3.8,4
	c0.4,0.4,0.7,0.7,0.9,1c0.3,0.5,0.5,1,0.6,1.8c0.1,0.7,0.2,1.7,0.2,2.9c0,0.9,0,1.9,0,3c0,1.1,0,2.2,0.2,3.5c0.2,1.9,0.7,4,1.8,6.1
	c1.1,2.1,2.7,4.1,4.9,5.7l3.3-4.4l-5.5-0.7c-0.1,0.5-0.1,1-0.1,1.6c0,2.2,0.5,4,1.1,5.7c0.5,1.2,1,2.3,1.5,3.3
	c0.7,1.5,1.4,2.8,1.8,3.8c0.2,0.5,0.4,0.9,0.4,1.3c0.1,0.3,0.1,0.5,0.1,0.6c0,0.1,0,0.1,0,0.1c0,0,0,0.1-0.2,0.3
	c-2,2.3-1.8,5.7,0.4,7.8c2.3,2,5.7,1.8,7.8-0.4c1-1.1,1.8-2.4,2.3-3.7c0.5-1.4,0.7-2.8,0.7-4.1c0-2.1-0.5-4-1.1-5.5
	c-0.5-1.2-1-2.2-1.4-3.2c-0.7-1.5-1.4-2.7-1.8-3.8c-0.2-0.5-0.4-1-0.4-1.4c-0.1-0.4-0.1-0.7-0.1-0.9l0-0.2c0.2-2-0.6-3.9-2.2-5.1
	c-0.7-0.5-1.1-0.9-1.4-1.3c-0.4-0.6-0.7-1.2-0.8-2c-0.2-0.8-0.2-1.9-0.2-3.2c0-0.9,0-1.9,0-3c0-1.9-0.1-4.1-0.8-6.6
	c-0.3-1.2-0.9-2.5-1.6-3.7c-0.7-1.2-1.7-2.4-2.8-3.4c-0.2-0.2-0.4-0.4-0.7-0.5c-0.5-0.4-0.9-0.7-1.2-0.9c-0.4-0.4-0.5-0.6-0.5-0.7
	c0-0.1-0.1-0.2-0.1-0.5c0-0.3,0.1-0.8,0.2-1.5c0.3-1,0.8-2.4,1.3-4.1c0.5-1.7,1.1-3.7,1.1-6.1c0-0.6,0-1.3-0.1-2
	c-0.1-0.9-0.5-1.8-1.1-2.6c-1.4-1.8-3-3.4-4.8-4.6c-2.6-1.9-5.4-3-8.2-3.6c-2.8-0.6-5.5-0.8-8.2-0.8c-4.6,0-8.9,0.5-12.7,0.5
	c-2,0-3.8-0.1-5.4-0.4c-1.6-0.3-3-0.8-4.3-1.5l-2.6,4.8l3.3-4.4c-3-2.3-6.3-3.8-9.6-4.6c-3.3-0.8-6.5-1.1-9.6-1.1
	c-3.3,0-6.5,0.3-9.5,0.5c-3,0.3-5.9,0.5-8.5,0.5c-1.8,0-3.5-0.1-5-0.4l-0.9,5.4l2.4-4.9c-2.9-1.4-5.9-2.4-8.9-3
	c-3-0.6-5.9-0.9-8.8-0.9c-4.2,0-8.3,0.5-12.3,1.2c-4,0.7-7.9,1.6-11.7,2.4l1.1,5.4l2.8-4.7c-2.7-1.6-5.5-3-8.5-3.9
	c-3-1-6.2-1.5-9.4-1.5c-5.2,0-10.5,1.4-15.5,4.5l2.9,4.7l-2.4-5c-2,1-4.5,1.6-7.3,1.9c-2.1,0.3-4.5,0.5-6.9,0.7
	c-3.7,0.3-7.6,0.7-11.6,2.1c-2,0.7-4,1.6-5.9,3c-1.9,1.3-3.6,3-5.1,5l4.4,3.2l1.4-5.3c-1.4-0.3-2.7-0.5-4-0.6
	c-0.8,0-1.5,0.1-2.3,0.2c-1.5,0.3-2.9,1-4,2c-1,0.9-1.7,1.8-2.2,2.8c-0.4,0.8-0.7,1.6-0.9,2.3c-0.4,1.3-0.5,2.4-0.7,3.4
	c-0.2,1.5-0.4,2.8-0.6,3.5c-0.1,0.4-0.2,0.6-0.3,0.6l0,0l0,0l0.2,0.2l-0.2-0.2l0,0l0.2,0.2l-0.2-0.2l3.3,4.4l-1.9-5.2
	c-1.8,0.6-3.4,1.4-4.8,2.4c-1.1,0.7-2,1.6-2.9,2.5c-1.2,1.4-2.1,3-2.7,4.7c-0.5,1.6-0.7,3.3-0.7,4.8c0,1.9,0.3,3.7,0.6,5.4
	c0.5,2.5,1.3,4.9,1.8,7c0.5,2.1,0.9,4,0.9,5.4c0,1.1-0.2,1.8-0.4,2.4c-0.3,0.6-0.7,1.2-1.8,2c-1.3,0.9-2,2.4-2.2,3.9
	c-0.3,3.4-1.1,6.9-2,10.6c-1,3.7-2.2,7.6-3.1,11.6c-0.7,3,1.1,5.9,4.1,6.6C89.2,211.1,92.1,209.2,92.9,206.3L92.9,206.3z"/>
<g>
	<path id="fill::eared-hat:3" fill="#FF4500" stroke="#000000" stroke-width="11" d="M284.3,73.3c29.3,1.9,56.2-13.7,68.8-13.4
		c12.7,0.2-14.4,72.2-24.1,79.1C319.4,145.8,284.3,73.3,284.3,73.3z"/>
	<g>
		<defs>
			<path id="SVGID_1_" d="M284.3,73.3c29.3,1.9,56.2-13.7,68.8-13.4c12.7,0.2-14.4,72.2-24.1,79.1
				C319.4,145.8,284.3,73.3,284.3,73.3z"/>
		</defs>
		<clipPath id="SVGID_2_">
			<use xlink:href="#SVGID_1_"  overflow="visible"/>
		</clipPath>
		<path clip-path="url(#SVGID_2_)" d="M367.3,63.2c-0.5-1.9-1.8-3.3-3.6-3.9l-29.3-9.5c-1.3-0.4-2.7-0.3-3.9,0.2l-19,8.5
			c-1.6,0.7-2.7,2.1-3.1,3.7c-0.4,1.7,0,3.4,1.1,4.7l22.3,27.5c1,1.2,2.4,2,4,2s3.1-0.5,4.2-1.6l26-26.5
			C367.3,67,367.8,65,367.3,63.2z"/>
	</g>
	<path fill="#FFFFFF" stroke="#000000" stroke-width="11" d="M351.8,61.5C315.6,96,309,108.8,309,110c-0.1,1.1,26.4,20.1,26.4,20.1
		s18.9-43.7,19.6-54.6S351.8,61.5,351.8,61.5z"/>
</g>
<g>
	<path id="fill::eared-hat:2" fill="#FF4500" stroke="#000000" stroke-width="11" d="M119.9,73.3c-29.3,1.9-56.2-13.7-68.8-13.4
		C38.4,60,65.5,132,75.1,138.9C84.8,145.8,119.9,73.3,119.9,73.3z"/>
	<g>
		<defs>
			<path id="SVGID_3_" d="M119.9,73.3c-29.3,1.9-56.2-13.7-68.8-13.4C38.4,60,65.5,132,75.1,138.9C84.8,145.8,119.9,73.3,119.9,73.3
				z"/>
		</defs>
		<clipPath id="SVGID_4_">
			<use xlink:href="#SVGID_3_"  overflow="visible"/>
		</clipPath>
		<path clip-path="url(#SVGID_4_)" d="M36.8,63.2c0.5-1.9,1.8-3.3,3.6-3.9l29.3-9.5c1.3-0.4,2.7-0.3,3.9,0.2l19,8.5
			c1.6,0.7,2.7,2.1,3.1,3.7c0.4,1.7,0,3.4-1.1,4.7L72.4,94.5c-1,1.2-2.4,2-4,2s-3.1-0.5-4.2-1.6l-26-26.5C36.9,67,36.4,65,36.8,63.2
			z"/>
	</g>
	<path fill="#FFFFFF" stroke="#000000" stroke-width="11" d="M52.3,61.5C88.5,96,95.1,108.8,95.2,110c0.1,1.1-26.4,20.1-26.4,20.1
		S49.9,86.4,49.2,75.5S52.3,61.5,52.3,61.5z"/>
</g>
<g id="fill::eared-hat:1">
	<path fill="#F04E23" stroke="#000000" stroke-width="11" d="M139.5,111.1c-60.2,20.4-39.5,90.8-53.5,104.1
		c-3.7,0.5-11.3-38.2-13.3-58.3c-4-40.4,14.5-101.4,131.8-99.2c119.4,2.3,131.8,63.6,124.4,104.3c-3.5,19.3-11.5,57.5-14.6,59
		c-10.8-9.7-5.2-83.6-40.2-101.2C244.8,99.7,152.6,106.7,139.5,111.1z"/>
	<path fill="#F04E23" stroke="#000000" stroke-width="11" stroke-linejoin="round" d="M72.8,144.8c104-53.8,245.4-12,255.2,7.7
		c0.6,1.2,12.1-26.3-3.4-33.6C256.4,85.6,109.8,94.4,87.8,113C78.4,120.9,72.6,141.9,72.8,144.8z"/>
</g>
<g>
	<path d="M78.8,212.8c0,0.3,0,42.9,0,42.9c0,3,2.5,5.5,5.5,5.5c3,0,5.5-2.5,5.5-5.5c0,0,0-10.7,0-21.3c0-10.7,0-21.4,0-21.6
		c0-3-2.5-5.5-5.5-5.5C81.3,207.3,78.8,209.8,78.8,212.8L78.8,212.8z"/>
	<path d="M308.2,213.5c0,0.3,0,42.9,0,42.9c0,3,2.5,5.5,5.5,5.5c3,0,5.5-2.5,5.5-5.5c0,0,0-42.6,0-42.9c0-3-2.5-5.5-5.5-5.5
		C310.7,208,308.2,210.4,308.2,213.5L308.2,213.5z"/>
	<circle cx="84.3" cy="254.3" r="8.9"/>
	<circle cx="314" cy="254.3" r="8.9"/>
</g>
</svg>
