<?xml version="1.0" encoding="utf-8"?>
<!-- Generator: Adobe Illustrator 17.1.0, SVG Export Plug-In . SVG Version: 6.00 Build 0)  -->
<!DOCTYPE svg PUBLIC "-//W3C//DTD SVG 1.1//EN" "http://www.w3.org/Graphics/SVG/1.1/DTD/svg11.dtd">
<svg version="1.1" id="Layer_3" xmlns="http://www.w3.org/2000/svg" xmlns:xlink="http://www.w3.org/1999/xlink" x="0px" y="0px"
	 viewBox="0 0 400 400" enable-background="new 0 0 400 400" xml:space="preserve">
<path id="fill::flight-helmet_x26__x26_flight-helmet-f:darker::stroke::outline" fill="#744E24" stroke="#2A1600" stroke-width="11" d="
	M200.7,54.8c-32.5,0-86.7,14.9-106.3,41.9l-14.7,20.9L71,137.3l-1.9,42.9c0,0,22.6,2.9,22.6,1.6c0-0.8-1.2-18.3,8-38.6
	c2.8-6.1,9.4-19.6,11.9-26.5c71.3-12.7,124.8-11.4,176-2.5c6.2,27.7,8.9,66.9,16.5,70.1c1.6,0.7,19.1-3.1,19.1-3.1l-2.8-48.4
	l-11.9-33.6C290.5,70.5,234.2,54.8,200.7,54.8"/>
<g id="flight-helmet-f:darker::fill::tabs">
	<path fill="#2A1600" d="M122,88.5l-18.7,4.4c-1,1.2-2,2.5-2.9,3.8l-3.2,2.8v3.4L122,97V88.5z"/>
	<path fill="#2A1600" d="M279.2,88.5V97l24.8,5.9v-2.2l-1.3-1.6c-1.3-2.2-2.8-4.2-4.4-6.2L279.2,88.5z"/>
	<polyline fill="#2A1600" points="183.5,81.7 218.2,81.7 218.2,93.5 183.5,93.5 183.5,81.7 	"/>
	<polygon fill="#2A1600" points="309.6,184.7 321.5,182.5 321.5,199.8 309.6,201.9 	"/>
	<polygon fill="#2A1600" points="84.2,182.8 73.1,180.8 73.1,196.5 84.2,198.5 	"/>
</g>
<g>
	<path fill="#B97B00" d="M135,79.8l2.7,5.4c3.5-1.8,7.2-3.2,11.1-4.2c3.9-1,8-1.5,12.5-1.5c4.6,0,9.5,0.6,14.9,1.9
		c1.1,0.3,2.2,0.6,3,0.8c0.6,0.2,1.1,0.4,1.4,0.6c0.2,0.1,0.4,0.2,0.4,0.3l0,0l0,0l0.3-0.2L181,83v0.1l0.3-0.2L181,83l0.5-0.3
		l-0.5,0.1V83l0.5-0.3l-0.5,0.1h0.1H181l0,0h0.1H181c0,0,0,0,0,0.1V89c0,0.3-0.1,0.6-0.2,1c-0.2,0.5-0.7,1.2-1.4,1.6
		c-0.7,0.5-1.5,0.8-2.3,0.9l-42.6,4.3c-0.2,0-0.3,0-0.4,0c-1,0-1.5-0.3-1.9-0.6c-0.2-0.1-0.3-0.3-0.3-0.4c-0.1-0.2-0.1-0.3-0.1-0.6
		v-6.1V89c0,0,0-0.1,0.2-0.3c0.2-0.3,0.9-0.9,2-1.6c1-0.7,2.4-1.3,3.9-2.1L135,79.8l-2.7-5.4c-1.2,0.6-2.4,1.2-3.7,1.9
		c-1,0.6-1.9,1.2-2.9,1.9c-1.4,1.1-2.9,2.4-4.1,4.3c-0.6,0.9-1.1,2-1.4,3.1s-0.5,2.4-0.5,3.6v6.1c0,1.9,0.4,3.8,1.2,5.5
		c1.1,2.5,3,4.6,5.3,6c2.3,1.4,5,2.1,7.8,2.1c0.5,0,1.1,0,1.7-0.1l42.6-4.3c4-0.4,7.6-2.2,10.3-4.9c1.3-1.3,2.4-2.9,3.2-4.7
		c0.8-1.8,1.2-3.8,1.2-5.8V83c0-1-0.1-2.1-0.4-3.1c-0.4-1.8-1.4-3.4-2.5-4.7c-0.8-1-1.8-1.7-2.7-2.3c-1.4-0.9-2.8-1.6-4.2-2.1
		s-2.8-0.9-4.1-1.2c-6.2-1.5-12.1-2.2-17.7-2.2c-5.5,0-10.6,0.7-15.4,1.9c-4.8,1.2-9.3,3-13.6,5.1L135,79.8z"/>
	<path fill="#B97B00" d="M266.5,79.8l2.7-5.4c-4.2-2.1-8.7-3.9-13.6-5.1c-4.8-1.2-10-1.9-15.4-1.9c-5.6,0-11.4,0.7-17.7,2.2
		c-1.4,0.3-2.8,0.7-4.2,1.2c-1.1,0.4-2.2,0.8-3.2,1.5c-0.8,0.5-1.6,1-2.4,1.7c-1.2,1-2.3,2.3-3,3.9s-1.1,3.4-1.1,5.1v6.1
		c0,2.1,0.5,4,1.2,5.8c1.2,2.7,3.1,4.9,5.4,6.5c2.3,1.7,5.1,2.8,8.1,3.1l42.6,4.3c0.6,0.1,1.1,0.1,1.7,0.1c3.7,0,7.3-1.3,9.9-3.7
		c1.3-1.2,2.4-2.7,3.2-4.4c0.8-1.7,1.2-3.6,1.2-5.5v-6.1c0-1.1-0.1-2.2-0.4-3.2c-0.5-1.8-1.4-3.4-2.4-4.7c-1.5-1.9-3.3-3.2-5-4.3
		c-1.7-1.1-3.4-1.9-4.9-2.7L266.5,79.8l-2.7,5.4c1.1,0.6,2.2,1.1,3.1,1.6c0.7,0.4,1.3,0.8,1.7,1.1c0.7,0.5,1,0.9,1.1,1.1
		c0.1,0.1,0.1,0.1,0.1,0.1s0,0,0,0.1v6.1c0,0.3,0,0.4-0.1,0.6s-0.3,0.4-0.6,0.6c-0.3,0.2-0.9,0.4-1.6,0.4c-0.1,0-0.3,0-0.4,0
		l-42.6-4.3c-1.1-0.1-2.2-0.7-2.9-1.4c-0.4-0.4-0.6-0.8-0.8-1.1c-0.2-0.4-0.2-0.7-0.2-1V83v-0.1l0,0h-0.2l0.2,0.1l0,0h-0.2l0.2,0.1
		l-0.6-0.2l0.5,0.3l0.1-0.1l-0.6-0.2l0.5,0.3l-0.3-0.2l0.3,0.2v-0.1l-0.3-0.2l0.3,0.2c0,0,0.1-0.1,0.3-0.2c0.3-0.2,0.9-0.5,1.6-0.8
		c0.8-0.3,1.8-0.6,2.9-0.8c5.4-1.3,10.3-1.8,14.9-1.9c4.5,0,8.6,0.5,12.5,1.5c3.9,1,7.6,2.4,11.1,4.2L266.5,79.8z"/>
	<path fill="#C7A95D" d="M187.9,75.7c-0.5-0.9-1.2-1.6-1.9-2.2c-1.1-0.9-2.4-1.5-3.7-2.1c-1.4-0.5-2.8-0.9-4.2-1.3
		c-6-1.4-11.5-2.1-16.8-2.1c-10.3,0-19.2,2.5-27.2,6.5c-2.3,1.1-4.7,2.4-6.8,4.1c-1,0.9-1.9,1.8-2.6,3s-1.1,2.6-1.1,4.1V92
		c0,2.7,1.2,5.2,3,6.9c1.9,1.7,4.4,2.7,7.2,2.7c0.4,0,0.8,0,1.2-0.1l42.6-4.3c3.1-0.3,5.8-1.7,7.8-3.7s3.3-4.7,3.3-7.7v-6.1
		C188.9,78.3,188.6,76.9,187.9,75.7z M184.9,85.8c0,1.8-0.8,3.5-2.2,4.9s-3.3,2.4-5.4,2.6l-42.6,4.3c-0.3,0-0.6,0-0.8,0
		c-1.9,0-3.5-0.6-4.6-1.6s-1.7-2.3-1.7-4v-6.1c0-0.8,0.2-1.5,0.6-2.2c0.5-1,1.6-2,2.9-2.9c1.4-0.9,3-1.8,4.7-2.6
		c7.6-3.8,15.8-6.1,25.4-6.1c4.9,0,10.1,0.6,15.8,2c2.4,0.6,4.6,1.3,5.9,2.2c0.7,0.4,1.1,0.9,1.4,1.4c0.3,0.5,0.5,1.1,0.5,2v6.1
		H184.9z"/>
	<path fill="#C7A95D" d="M276.7,81.8c-1-1.8-2.5-3.1-4.2-4.2s-3.5-2-5.2-2.9c-8-4-16.9-6.5-27.2-6.5c-5.2,0-10.8,0.6-16.8,2.1
		c-2.6,0.6-5.1,1.4-7.2,2.8c-1,0.7-2,1.6-2.6,2.8c-0.7,1.1-1,2.5-1,4V86c0,3,1.3,5.7,3.3,7.7s4.8,3.4,7.8,3.7l42.6,4.3
		c0.4,0,0.8,0.1,1.2,0.1c2.8,0,5.4-1,7.2-2.7c1.9-1.7,3.1-4.2,3-6.9v-6.1C277.8,84.4,277.4,83,276.7,81.8z M273.8,92
		c0,1.6-0.6,3-1.7,4s-2.7,1.6-4.6,1.6c-0.3,0-0.6,0-0.8,0l-42.6-4.3c-2.1-0.2-4-1.2-5.4-2.6s-2.2-3.1-2.2-4.9v-6.1
		c0-0.9,0.2-1.5,0.5-2c0.2-0.4,0.5-0.8,1-1.1c0.6-0.5,1.5-1,2.6-1.4s2.4-0.8,3.7-1.1c5.7-1.4,10.9-2,15.8-2c9.6,0,17.9,2.3,25.4,6.1
		c2.3,1.1,4.5,2.3,6,3.6c0.8,0.6,1.3,1.3,1.7,1.9c0.4,0.7,0.6,1.3,0.6,2.2L273.8,92L273.8,92z"/>
</g>
</svg>
