<?xml version="1.0" encoding="utf-8"?>
<!-- Generator: Adobe Illustrator 17.1.0, SVG Export Plug-In . SVG Version: 6.00 Build 0)  -->
<!DOCTYPE svg PUBLIC "-//W3C//DTD SVG 1.1//EN" "http://www.w3.org/Graphics/SVG/1.1/DTD/svg11.dtd">
<svg version="1.1" id="Layer_3" xmlns="http://www.w3.org/2000/svg" xmlns:xlink="http://www.w3.org/1999/xlink" x="0px" y="0px"
	 viewBox="0 0 400 400" enable-background="new 0 0 400 400" xml:space="preserve">
<path id="fill::fro_x26__x26_fro-f:darker::stroke::outline" fill="#2D2829" stroke="#231F20" stroke-width="6" stroke-linejoin="round" stroke-miterlimit="10" d="
	M344.2,102c24-10.5,10.5-40.9-7.4-35.1c11.8-15.2-5.1-34.1-17.2-28c5.1-11.5-9.8-29.4-30.7-19.6c-3-9.8-16-13.2-24.5-13.2
	c-8.4,0-21.2,3.3-24.4,12.9c-0.1,0.1-0.3,0.1-0.4,0.2c-0.1-0.1-0.3-0.1-0.4-0.2C235.9,9.3,223.1,6,214.7,6c-1.3,0-2.7,0.1-4.2,0.3
	c-3-2.1-6.7-3.3-10.6-3.3s-7.6,1.2-10.6,3.3C187.7,6.1,186.3,6,185,6c-8.4,0-21.2,3.3-24.4,12.9c-0.1,0.1-0.3,0.1-0.4,0.2
	c-0.1-0.1-0.3-0.1-0.4-0.2C156.6,9.3,143.8,6,135.4,6C127,6,114,9.4,110.9,19.2C90,9.4,75.1,27.3,80.2,38.8
	C68,32.7,51.1,51.6,63,66.8c-17.9-5.7-31.4,24.7-7.4,35.1c-13.2,5.1-17.6,32.4,4.4,35.8c-8.4,12.8,7.1,25.3,15.9,23.7
	c-4.4,7.1,6.1,18.5,14.9,17.1c0.4,0.1,0.9,0.1,1.3,0.1c3.8,0,6.9-3.1,6.9-6.9c0-2-0.9-3.8-2.2-5.1c0.5-0.9,0.7-2,0.7-3.1
	c0-0.4,0-0.9-0.1-1.3c0,0,0,0,0-0.1c0,0,0,0,0,0c-0.1-0.7-0.4-1.3-0.7-1.9c-0.1-0.5-0.3-1.1-0.3-1.6c0.7-1.1,1.2-2.4,1.2-3.8
	c0-1.5-0.5-2.8-1.2-3.9c0-0.4-0.1-0.8-0.3-1.1c1.8-1.2,3-3.3,3-5.7c0-2.6-1.4-4.8-3.5-6c2.3-0.7,3.9-2.3,5-4.1
	c0.9,0.7,2,1.4,3.1,1.9c1.6,1,3.5,1.5,5.5,1.5c5.5,0,10.1-4.1,11.2-9.6c0,0,0.1,0,0.1,0c0-0.1,0-0.1-0.1-0.2
	c0.2-0.8,0.2-1.6,0.2-2.5c0-1.1-0.1-2.1-0.4-3.1c0-0.2,0.1-0.3,0.2-0.5c2.1,2.2,5.1,3.6,8.4,3.6c6,0,11-4.6,11.7-10.6
	c0.3-0.9,0.8-1.6,1.4-2.3c3.5,5.3,9.3,8.7,15.8,8.7c5.5,0,10.4-2.4,13.9-6.3c0,0.1,0.1,0.2,0.1,0.3c0.1,0,0.2,0.1,0.2,0.1
	c0.1,0,0.2-0.1,0.2-0.1c0-0.1,0.1-0.2,0.1-0.3c3.6,4.1,8.6,6.7,14.3,6.7c5.1,0,9.8-2.1,13.3-5.6c3.5,3.5,8.1,5.6,13.3,5.6
	c5.7,0,10.8-2.6,14.3-6.7c0,0.1,0.1,0.2,0.1,0.3c0.1,0,0.2,0.1,0.2,0.1c0.1,0,0.2-0.1,0.2-0.1c0-0.1,0.1-0.2,0.1-0.3
	c3.5,3.9,8.5,6.3,13.9,6.3c6.5,0,12.3-3.4,15.8-8.7c0.6,0.7,1,1.5,1.4,2.3c0.8,6,5.7,10.6,11.7,10.6c3.3,0,6.3-1.4,8.4-3.6
	c0.1,0.2,0.1,0.3,0.2,0.5c-0.3,1-0.4,2.1-0.4,3.1c0,0.8,0.1,1.7,0.2,2.5c0,0.1,0,0.1-0.1,0.2c0,0,0.1,0,0.1,0
	c1.1,5.5,5.7,9.6,11.2,9.6c2,0,3.9-0.5,5.5-1.5c1.2-0.6,2.2-1.2,3.1-1.9c1.1,1.7,2.7,3.4,5,4.1c-2.3,1.1-3.8,3.5-3.8,6.2
	c0,2.4,1.3,4.6,3.2,5.8c-0.1,0.2-0.1,0.4-0.1,0.6c-1,1.2-1.5,2.7-1.5,4.3c0,1.5,0.5,3,1.4,4.1c0,0.2-0.1,0.5-0.1,0.7
	c-0.8,1.1-1.2,2.5-1.2,3.9c0,1.1,0.3,2.1,0.7,3.1c-1.4,1.3-2.2,3.1-2.2,5.1c0,3.8,3.1,6.9,6.9,6.9c0.7,0,1.3-0.1,1.9-0.3
	c8.7,1.1,18.9-10.1,14.6-17.1c8.8,1.7,24.3-10.8,15.9-23.7C361.7,134.4,357.3,107,344.2,102z"/>
</svg>
