<?xml version="1.0" encoding="utf-8"?>
<!-- Generator: Adobe Illustrator 17.1.0, SVG Export Plug-In . SVG Version: 6.00 Build 0)  -->
<!DOCTYPE svg PUBLIC "-//W3C//DTD SVG 1.1//EN" "http://www.w3.org/Graphics/SVG/1.1/DTD/svg11.dtd">
<svg version="1.1" id="Layer_2" xmlns="http://www.w3.org/2000/svg" xmlns:xlink="http://www.w3.org/1999/xlink" x="0px" y="0px"
	 viewBox="0 0 400 400" enable-background="new 0 0 400 400" xml:space="preserve">
<path fill="#282828" stroke="#000000" stroke-width="6" stroke-miterlimit="10" d="M315.1,97h-15.9c0-19.5-40.8-41.2-99.2-41.2
	S100.8,77.5,100.8,97H84.9c0-32,50.6-57.1,115.1-57.1S315.1,65,315.1,97z"/>
<g id="fill::accent">
	<path fill="#773E18" stroke="#000000" stroke-width="6" stroke-miterlimit="10" d="M77.3,156.5c-1.9,11-12.4,18.5-23.5,16.6l0,0
		c-11.1-1.9-18.5-12.4-16.6-23.4l4.8-28.1c1.9-11.1,12.4-18.5,23.5-16.6l0,0c11,1.9,18.5,12.4,16.6,23.4L77.3,156.5z"/>
	<path fill="#773E18" stroke="#000000" stroke-width="6" stroke-miterlimit="10" d="M321.9,156.5c1.9,11,12.4,18.5,23.4,16.6l0,0
		c11.1-1.9,18.5-12.4,16.6-23.4l-4.8-28.1c-1.9-11.1-12.4-18.5-23.5-16.6l0,0c-11,1.9-18.5,12.4-16.6,23.4L321.9,156.5z"/>
</g>
<path fill="#96908C" stroke="#000000" stroke-width="6" stroke-miterlimit="10" d="M67.8,172.8c-0.8,4.8-5.4,8.1-10.3,7.3l0,0
	c-4.8-0.8-8.1-5.4-7.2-10.3l10.8-63c0.8-4.8,5.4-8.1,10.3-7.3l0,0c4.8,0.8,8.1,5.4,7.3,10.3L67.8,172.8z"/>
<path fill="#282828" stroke="#000000" stroke-width="6" stroke-miterlimit="10" d="M90.3,182.7c-1.5,8.9-10,14.9-19,13.4l0,0
	c-8.9-1.5-14.9-10-13.4-18.9l12.9-74.7c1.5-8.9,10-14.9,19-13.4l0,0c8.9,1.5,14.9,10,13.4,19L90.3,182.7z"/>
<path fill="#96908C" stroke="#000000" stroke-width="6" stroke-miterlimit="10" d="M331.4,172.8c0.8,4.8,5.4,8.1,10.3,7.3l0,0
	c4.8-0.8,8.1-5.4,7.2-10.3l-10.8-63c-0.8-4.8-5.4-8.1-10.3-7.3l0,0c-4.8,0.8-8.1,5.4-7.3,10.3L331.4,172.8z"/>
<path fill="#282828" stroke="#000000" stroke-width="6" stroke-miterlimit="10" d="M308.8,182.7c1.5,8.9,10,14.9,19,13.4l0,0
	c8.9-1.5,14.9-10,13.4-18.9l-12.9-74.7c-1.5-8.9-10-14.9-19-13.4l0,0c-8.9,1.5-14.9,10-13.4,19L308.8,182.7z"/>
</svg>
