<?xml version="1.0" encoding="utf-8"?>
<!-- Generator: Adobe Illustrator 17.1.0, SVG Export Plug-In . SVG Version: 6.00 Build 0)  -->
<!DOCTYPE svg PUBLIC "-//W3C//DTD SVG 1.1//EN" "http://www.w3.org/Graphics/SVG/1.1/DTD/svg11.dtd">
<svg version="1.1" id="Layer_2" xmlns="http://www.w3.org/2000/svg" xmlns:xlink="http://www.w3.org/1999/xlink" x="0px" y="0px"
	 viewBox="0 0 400 400" enable-background="new 0 0 400 400" xml:space="preserve">
<g>
	<g id="fill::headscarf:1">
		<path id="SVGID_1_" fill="#ED1C24" d="M200,67.5c-92.7,0-117.8,44.6-123.7,85c13.9-23.4,55.6-56,123.6-56s110,32.6,123.9,56
			C317.8,112.1,292.7,67.5,200,67.5z"/>
	</g>
	<g id="fill::dots:1">
		<defs>
			<path id="SVGID_9_" d="M200,67.5c-92.7,0-117.8,44.6-123.7,85c13.9-23.4,55.6-56,123.6-56s110,32.6,123.9,56
				C317.8,112.1,292.7,67.5,200,67.5z"/>
		</defs>
		<clipPath id="SVGID_10_">
			<use xlink:href="#SVGID_9_"  overflow="visible"/>
		</clipPath>
		<g clip-path="url(#SVGID_10_)">
			<circle fill="#FFFEF8" cx="302.8" cy="132.3" r="8.7"/>
			<circle fill="#FFFEF8" cx="302.8" cy="105.9" r="8.7"/>
			<circle fill="#FFFEF8" cx="276.5" cy="97.2" r="8.7"/>
			<circle fill="#FFFEF8" cx="250.2" cy="88.4" r="8.7"/>
			<circle fill="#FFFEF8" cx="223.8" cy="79.6" r="8.7"/>
			<circle fill="#FFFEF8" cx="197.5" cy="70.8" r="8.7"/>
			<circle fill="#FFFEF8" cx="197.5" cy="97.2" r="8.7"/>
			<circle fill="#FFFEF8" cx="171.2" cy="88.4" r="8.7"/>
			<circle fill="#FFFEF8" cx="144.8" cy="79.6" r="8.7"/>
			<circle fill="#FFFEF8" cx="92.2" cy="114.7" r="8.7"/>
			<circle fill="#FFFEF8" cx="144.8" cy="105.9" r="8.7"/>
			<circle fill="#FFFEF8" cx="118.5" cy="97.2" r="8.7"/>
		</g>
	</g>
	<g>
		<path id="SVGID_2_" fill="none" stroke="#000000" stroke-width="9" stroke-linejoin="round" stroke-miterlimit="10" d="M200,67.5
			c-92.7,0-117.8,44.6-123.7,85c13.9-23.4,55.6-56,123.6-56s110,32.6,123.9,56C317.8,112.1,292.7,67.5,200,67.5z"/>
	</g>
</g>
<g>
	<g id="fill::headscarf:4">
		<path id="SVGID_3_" fill="#ED1C24" d="M174.1,80.3c0,0-21.7-27.9-48.5-31.3s70.1-2.7,74.2,16.5S174.1,80.3,174.1,80.3z"/>
	</g>
	<g id="fill::dots:4">
		<defs>
			<path id="SVGID_11_" d="M174.1,80.3c0,0-21.7-27.9-48.5-31.3s70.1-2.7,74.2,16.5S174.1,80.3,174.1,80.3z"/>
		</defs>
		<clipPath id="SVGID_12_">
			<use xlink:href="#SVGID_11_"  overflow="visible"/>
		</clipPath>
		<g clip-path="url(#SVGID_12_)">
			<circle fill="#FFFEF8" cx="186" cy="65.2" r="8.7"/>
			<circle fill="#FFFEF8" cx="162.4" cy="53.5" r="8.7"/>
		</g>
	</g>
	<g>
		<path id="SVGID_4_" fill="none" stroke="#000000" stroke-width="9" stroke-miterlimit="10" d="M174.1,80.3
			c0,0-21.7-27.9-48.5-31.3s70.1-2.7,74.2,16.5S174.1,80.3,174.1,80.3z"/>
	</g>
</g>
<g>
	<g id="fill::headscarf:3">
		<path id="SVGID_5_" fill="#ED1C24" d="M227.3,80.7c0,0,27.1-20.7,53-17.2c25.9,3.5-64.8-19.8-73.3-2.9S227.3,80.7,227.3,80.7z"/>
	</g>
	<g>
		<defs>
			<path id="SVGID_13_" d="M227.3,80.7c0,0,27.1-20.7,53-17.2c25.9,3.5-64.8-19.8-73.3-2.9S227.3,80.7,227.3,80.7z"/>
		</defs>
		<clipPath id="SVGID_14_">
			<use xlink:href="#SVGID_13_"  overflow="visible"/>
		</clipPath>
		<g id="fill::dots:3" clip-path="url(#SVGID_14_)">
			<circle fill="#FFFEF8" cx="218.3" cy="65.2" r="8.7"/>
			<circle fill="#FFFEF8" cx="243.1" cy="52.9" r="8.7"/>
		</g>
	</g>
	<g>
		<path id="SVGID_6_" fill="none" stroke="#000000" stroke-width="9" stroke-miterlimit="10" d="M227.3,80.7c0,0,27.1-20.7,53-17.2
			c25.9,3.5-64.8-19.8-73.3-2.9S227.3,80.7,227.3,80.7z"/>
	</g>
</g>
<g>
	<g>
		<g id="fill::headscarf:2">
			<circle id="SVGID_7_" fill="#ED1C24" cx="201" cy="77.9" r="22.3"/>
		</g>
		<g>
			<defs>
				<circle id="SVGID_15_" cx="201" cy="77.9" r="22.3"/>
			</defs>
			<clipPath id="SVGID_16_">
				<use xlink:href="#SVGID_15_"  overflow="visible"/>
			</clipPath>
			<g id="fill::dots:2" clip-path="url(#SVGID_16_)">
				<circle fill="#FFFEF8" cx="223.8" cy="79.6" r="8.7"/>
				<circle fill="#FFFEF8" cx="197.5" cy="70.8" r="8.7"/>
				<circle fill="#FFFEF8" cx="197.5" cy="97.2" r="8.7"/>
			</g>
		</g>
		<g>
			<circle id="SVGID_8_" fill="none" stroke="#000000" stroke-width="9" stroke-miterlimit="10" cx="201" cy="77.9" r="22.3"/>
		</g>
	</g>
</g>
</svg>
