<?xml version="1.0" encoding="utf-8"?>
<!-- Generator: Adobe Illustrator 17.1.0, SVG Export Plug-In . SVG Version: 6.00 Build 0)  -->
<!DOCTYPE svg PUBLIC "-//W3C//DTD SVG 1.1//EN" "http://www.w3.org/Graphics/SVG/1.1/DTD/svg11.dtd">
<svg version="1.1" id="Layer_2" xmlns="http://www.w3.org/2000/svg" xmlns:xlink="http://www.w3.org/1999/xlink" x="0px" y="0px"
	 viewBox="0 0 400 400" enable-background="new 0 0 400 400" xml:space="preserve">
<g id="color-2-f:darker::fill::back-tassle">
	<path fill="#0A7FA9" stroke="#000000" stroke-width="7" stroke-linejoin="round" stroke-miterlimit="10" d="M265.4,24.2
		c20.1,8.4,34.8,22.3,38.3,39c0.6,2.8,0.9,5.5,0.8,8.2L292,72.9c-7-14.6-29.2-24.1-53-21.9"/>
	
		<ellipse fill="#0A7FA9" stroke="#000000" stroke-width="7" stroke-linejoin="round" stroke-miterlimit="10" cx="222.5" cy="37.5" rx="42.8" ry="33.6"/>
</g>
<circle fill="#A8A547" stroke="#000000" stroke-width="7" stroke-linejoin="round" stroke-miterlimit="10" cx="296.6" cy="62.9" r="13.2"/>
<path id="fill::color-2" fill="#9494FF" stroke="#000000" stroke-width="7" stroke-linejoin="round" stroke-miterlimit="10" d="
	M198.9,108.9c-33.5,0-62.4-5.2-78.1-13.6c3.8-4.5,5.9-9.2,5.9-14.8c0-17.5,3.3-31.8-23.5-31.8c-24.1,0-44,11.5-47.8,26.6l-12.8-0.4
	c-0.6-2.7-0.9-5.4-0.9-8.2c0-30.5,37.8-55.3,84.4-55.3s72.8,24.7,72.8,55.3V108.9z"/>
<path id="fill::color-1" fill="#FF4500" stroke="#000000" stroke-width="7" stroke-linejoin="round" stroke-miterlimit="10" d="
	M198.9,108.9c33.5,0,62.4-5.2,78.1-13.6c-3.8-4.5-5.9-9.2-5.9-14.8c0-17.5-3.3-31.8,23.5-31.8c24.1,0,44,11.5,47.8,26.6l12.8-0.4
	c0.6-2.7,0.9-5.4,0.9-8.2c0-30.5-37.8-55.3-84.4-55.3s-72.8,24.7-72.8,55.3V108.9z"/>
<g>
	
		<circle fill="#A8A547" stroke="#000000" stroke-width="7" stroke-linejoin="round" stroke-miterlimit="10" cx="348.4" cy="80.4" r="15.7"/>
	
		<circle fill="#A8A547" stroke="#000000" stroke-width="7" stroke-linejoin="round" stroke-miterlimit="10" cx="50.3" cy="80.4" r="15.7"/>
</g>
</svg>
