<?xml version="1.0" encoding="utf-8"?>
<!-- Generator: Adobe Illustrator 17.1.0, SVG Export Plug-In . SVG Version: 6.00 Build 0)  -->
<!DOCTYPE svg PUBLIC "-//W3C//DTD SVG 1.1//EN" "http://www.w3.org/Graphics/SVG/1.1/DTD/svg11.dtd">
<svg version="1.1" id="Layer_3" xmlns="http://www.w3.org/2000/svg" xmlns:xlink="http://www.w3.org/1999/xlink" x="0px" y="0px"
	 viewBox="0 0 400 400" enable-background="new 0 0 400 400" xml:space="preserve">
<g id="fill::kercheif">
	<path fill="#BE3A19" stroke="#000000" stroke-width="6" stroke-linejoin="round" d="M117.2,207.5c0,0-17.7,2.6-25.8,13.6
		s16.2-31.5,25.7-28.5S117.2,207.5,117.2,207.5z"/>
	<path fill="#BE3A19" stroke="#000000" stroke-width="6" stroke-linejoin="round" d="M115,211.9c2.4,2.5-9.5,12.6-21.1,20.1
		c-11.5,7.4,35-5.3,35.2-15.2C129.4,207,115,211.9,115,211.9z"/>
	<path fill="#BE3A19" stroke="#000000" stroke-width="9" stroke-linejoin="round" d="M321,169.7c-44.7,10.8-85.9,14.6-121.3,14.7
		c-35.4-0.2-76.6-3.9-121.3-14.7c44.5,70.5,116.9,89.2,120.5,89.1C203.2,258.8,276.5,240.2,321,169.7z"/>
</g>
</svg>
