<?xml version="1.0" encoding="utf-8"?>
<!-- Generator: Adobe Illustrator 17.1.0, SVG Export Plug-In . SVG Version: 6.00 Build 0)  -->
<!DOCTYPE svg PUBLIC "-//W3C//DTD SVG 1.1//EN" "http://www.w3.org/Graphics/SVG/1.1/DTD/svg11.dtd">
<svg version="1.1" id="lildoo" xmlns="http://www.w3.org/2000/svg" xmlns:xlink="http://www.w3.org/1999/xlink" x="0px" y="0px"
	 viewBox="0 0 400 400" enable-background="new 0 0 400 400" xml:space="preserve">
<g id="fill::lildoo_x26__x26_lildoo-f:darker::stroke::lildoo">
	<path fill="#896411" stroke="#4F380B" stroke-width="7" d="M154.3,91.8c0,0-51.2,7.7-57.1,16.9s2.2-15.1,50.5-32
		S154.3,91.8,154.3,91.8z"/>
	<path fill="#896411" stroke="#4F380B" stroke-width="7" stroke-linejoin="round" d="M238.3,86.7c0,0,32.8,4.4,51.6,14.7
		c0,0-26.9-33.5-47.5-24.7C227.7,83,238.3,86.7,238.3,86.7z"/>
	<path fill="#896411" stroke="#4F380B" stroke-width="7" d="M259.1,83.2c-3.9,0.4-29.5,14.1-40.8,18c0,0-0.5-6.3,1-9
		s-20.9,11.7-58.2,11.7c0,0-10.1-5.1-20.9-19.2c1.5-16.8,43.5-35.4,75.9-29.5S259.1,83.2,259.1,83.2z"/>
</g>
</svg>
