<?xml version="1.0" encoding="utf-8"?>
<!-- Generator: Adobe Illustrator 17.1.0, SVG Export Plug-In . SVG Version: 6.00 Build 0)  -->
<!DOCTYPE svg PUBLIC "-//W3C//DTD SVG 1.1//EN" "http://www.w3.org/Graphics/SVG/1.1/DTD/svg11.dtd">
<svg version="1.1" id="Layer_2" xmlns="http://www.w3.org/2000/svg" xmlns:xlink="http://www.w3.org/1999/xlink" x="0px" y="0px"
	 viewBox="0 0 400 400" enable-background="new 0 0 400 400" xml:space="preserve">
<g id="fill::long-sidesweep_x26__x26_long-sidesweep-f:darker::stroke::outline">
	<path fill="#826E5F" stroke="#493E36" stroke-width="8" stroke-linejoin="round" d="M119.8,81.9c-13.6,1.4-40.2,35.5-45.6,69.1
		c-6.7,41.4,7.4,80.4,12.8,95.6s17.5,37.2,17.5,37.2s5.2,0,5.7-11.3c11.4,13.8,24.4,22.1,27.4,20.4c-7.5-30.2-10-45.4-19.4-67.2
		s-25.9-59.2,2.2-123.4c-1.3,0.1-2.5,0.4-3.8,0.6c3.1-5.5,6.5-11.2,10.3-16.6C125.6,82.7,122.9,81.5,119.8,81.9z"/>
	<path fill="#826E5F" stroke="#493E36" stroke-width="8" stroke-linejoin="round" d="M185.1,55.9c-56.5-0.1-80.3,22.1-76.5,48.1
		c1.6,2.7,3.5,3.4,4.8,1.6c-0.1,1-0.1,1.8,0,2.8c4.2,4.5,10.5-11.9,33-11.9c72.5,0,70.8,22.5,129.3,43.8
		c10.1,26.1,12.4,50.9,13,81.9c0.5,27.2-27.6,69.4-27.6,69.4s16.8,1.1,32.8-21.1c-0.3,7.2,8-0.2,8,7.4c13-30.7,29.6-48.7,27.9-96.6
		c-2.8-64.4-38.7-120.2-132.7-125C192.8,56,188.9,55.9,185.1,55.9z"/>
</g>
<g id="long-sidesweep-f:darker::stroke::strands">
	
		<path id="path23110" fill="none" stroke="#493E36" stroke-width="4.5" stroke-linecap="round" stroke-linejoin="round" d="
		M107.5,99.2c-54.3,71.8-2.3,176.8-1.7,175.6"/>
	
		<path id="path23150" fill="none" stroke="#493E36" stroke-width="4" stroke-linecap="round" stroke-linejoin="round" d="
		M113.1,102.3c8.1-57.5,173.4-39.4,203.6,37.5"/>
	
		<path id="path23152" fill="none" stroke="#493E36" stroke-width="4" stroke-linecap="round" stroke-linejoin="round" d="
		M95.7,134.9c-10.3,64.4,33,150.3,35.7,153.7"/>
	
		<path id="path4623" fill="none" stroke="#493E36" stroke-width="4" stroke-linecap="round" stroke-linejoin="round" d="
		M181.1,86c54.4,4.1,109.8,36.7,123.1,45"/>
	
		<path id="path23154" fill="none" stroke="#493E36" stroke-width="4.5" stroke-linecap="round" stroke-linejoin="round" d="
		M118.4,102.3c24.8-24.6,71.8-19.3,93.4-6.1c62.7,38.4,92.3,30,110.2,71.6"/>
	
		<path id="path23156" fill="none" stroke="#493E36" stroke-width="4" stroke-linecap="round" stroke-linejoin="round" d="
		M290.9,146.5c26.5,97.7-23.1,144-25.4,140.2"/>
	
		<path id="path4625" fill="none" stroke="#493E36" stroke-width="4.5" stroke-linecap="round" stroke-linejoin="round" d="
		M311.9,159.1c17.5,50.4-15.3,116.2-15.3,116.2"/>
	
		<path id="path18923-3-8-8" fill="none" stroke="#493E36" stroke-width="4.5" stroke-linecap="round" stroke-linejoin="round" d="
		M325.9,170.6c-11.4-40.1-44.9-69.7-96.1-83.6s-107.5-16.1-116.4,21.4"/>
	
		<path id="path4436" fill="none" stroke="#493E36" stroke-width="4.5" stroke-linecap="round" stroke-linejoin="round" d="
		M108.2,108.2c-39.5,55.9-6.3,144.9,3.8,163.7"/>
	
		<path id="path18923-3-8" fill="none" stroke="#493E36" stroke-width="4.5" stroke-linecap="round" stroke-linejoin="round" d="
		M289.1,273.3c-0.3-0.8,29.5-64.7,16.4-119"/>
	
		<path id="path18923-3-8-6" fill="none" stroke="#493E36" stroke-width="4.5" stroke-linecap="round" stroke-linejoin="round" d="
		M326.3,178.2c-10.4-18.7-24.8-32.3-53.4-40.7"/>
</g>
</svg>
