<?xml version="1.0" encoding="utf-8"?>
<!-- Generator: Adobe Illustrator 17.1.0, SVG Export Plug-In . SVG Version: 6.00 Build 0)  -->
<!DOCTYPE svg PUBLIC "-//W3C//DTD SVG 1.1//EN" "http://www.w3.org/Graphics/SVG/1.1/DTD/svg11.dtd">
<svg version="1.1" id="Layer_3" xmlns="http://www.w3.org/2000/svg" xmlns:xlink="http://www.w3.org/1999/xlink" x="0px" y="0px"
	 viewBox="0 0 400 400" enable-background="new 0 0 400 400" xml:space="preserve">
<g id="fill::long-hair_x26__x26_long-hair-f:darker::stroke::outline">
	<path fill="#EEDF89" stroke="#8C7C0E" stroke-width="8" d="M312.5,174.2c-15.9,84.1-0.3,106.9-0.3,106.9s-20.6-4.1-17.5-65
		S312.5,174.2,312.5,174.2z"/>
	<path fill="#EEDF89" stroke="#8C7C0E" stroke-width="8" d="M79,150c23.1,97.8,1.6,115.5,1.6,115.5s32.7,1.7,19.5-68.1
		S79,150,79,150z"/>
	<path fill="#EEDF89" stroke="#8C7C0E" stroke-width="8" d="M299.2,121.1c44.9,64.1,14.7,70.9-19.9,126.7c0,0,11.1-19.4,5.3-34.5
		C278.9,198.8,289.9,211.1,299.2,121.1z"/>
	<path fill="#EEDF89" stroke="#8C7C0E" stroke-width="8" d="M108.1,126.4c-15.9,80.1,21.7,113.9,26.2,125.4
		c9.6,24.9-29.8,50.3-29.3,46.6c0.8-6.4,24.7-9.4,20.1-31.8c-4.6-22.4-30-24-33.2-52.5C90.3,199.1,90.1,146.6,108.1,126.4z"/>
	<path fill="#EEDF89" stroke="#8C7C0E" stroke-width="8" d="M263.8,91.2c44.7,42.3,31.1,102.8,24.1,133c-7,30.2-28.6,47.3-19.3,60.4
		c4.6-13.2,8.8-6.6,25.1-26.2c16.4-19.6,18.2-28.8,19-45C314.1,188.2,320.2,115.1,263.8,91.2z"/>
	<path fill="#EEDF89" stroke="#8C7C0E" stroke-width="8" d="M215.5,71.2l-11.2,12.6c-155.7,8.6-94.4,156.8-81.8,235.2
		C119.4,302.6,76,209,72.5,170s9.3-91.5,69.1-107.9C169.2,54.5,196.3,53.1,215.5,71.2z"/>
	<path fill="#EEDF89" stroke="#8C7C0E" stroke-width="8" d="M201.4,61.9c21.2-8.9,49.4-3.2,67.1,5.2c17.7,8.4,45.8,22.3,56.4,66.6
		c9.3,38.9-2.1,61.1-6.7,80.1c-8.8,36.6-45.4,72.6-47.5,91.7c-3.9-20.3,56.8-101.1,34.6-163.5c-20.6-58-102.7-54.3-104.1-59.4
		C198.3,72.8,201.2,64.1,201.4,61.9z"/>
</g>
</svg>
