<?xml version="1.0" encoding="utf-8"?>
<!-- Generator: Adobe Illustrator 17.1.0, SVG Export Plug-In . SVG Version: 6.00 Build 0)  -->
<!DOCTYPE svg PUBLIC "-//W3C//DTD SVG 1.1//EN" "http://www.w3.org/Graphics/SVG/1.1/DTD/svg11.dtd">
<svg version="1.1" id="fill::long-wavy_x26__x26_long-wavy-f:darker::stroke::outline"
	 xmlns="http://www.w3.org/2000/svg" xmlns:xlink="http://www.w3.org/1999/xlink" x="0px" y="0px" viewBox="0 0 400 400"
	 enable-background="new 0 0 400 400" xml:space="preserve">
<path id="path3029" fill="#2B2A2B" stroke="#020300" stroke-width="8" stroke-miterlimit="10" d="M154.9,68.8
	c-22.5,13.9,22.5,10.5,60.6,20.4c40,10.3,67.5,36,67.5,70.2c0,36.1-22.5,71.8-0.6,106.7c15.2,24.1,12.5,38.8,12.5,38.8l11.2-18.4
	c0,0,9.9,12.6,20.9,19.6c-20-110,5.5-102.2,1.5-152.5C321.5,65.5,182.5,51.8,154.9,68.8z"/>
<path id="path3845" fill="#2B2A2B" stroke="#020300" stroke-width="8" stroke-miterlimit="10" d="M158.3,72.1
	C109,71.7,71,120.5,71,157.5c0,33.7,8,37,8,60.5c0,21.8-32,52.5,17,92c0,0-4.8-13.5,4-27c6,18,19.5,22,19.5,22s-0.5-14,10.3-33.2
	c23.9-42.3-11.8-74.7-11.8-112.4c0-33.7,36.5-73,70.9-74.2C223.5,84,207.6,72.5,158.3,72.1z"/>
</svg>
