<?xml version="1.0" encoding="utf-8"?>
<!-- Generator: Adobe Illustrator 17.1.0, SVG Export Plug-In . SVG Version: 6.00 Build 0)  -->
<!DOCTYPE svg PUBLIC "-//W3C//DTD SVG 1.1//EN" "http://www.w3.org/Graphics/SVG/1.1/DTD/svg11.dtd">
<svg version="1.1" id="Layer_3" xmlns="http://www.w3.org/2000/svg" xmlns:xlink="http://www.w3.org/1999/xlink" x="0px" y="0px"
	 viewBox="0 0 400 400" enable-background="new 0 0 400 400" xml:space="preserve">
<g id="braid-f::fill::tai_x26__x26_braid-f:darker::stroke::tail-outline">
	<defs>
		<path id="SVGID_1_" d="M289.5,216.7c-14.7,9.6-32.4,16.5-51.6,20.5V304h86.5V175.4C319,191,307.1,205.2,289.5,216.7z"/>
	</defs>
	<clipPath id="SVGID_2_">
		<use xlink:href="#SVGID_1_"  overflow="visible"/>
	</clipPath>
	<g clip-path="url(#SVGID_2_)">
		<path fill="#FFF088" stroke="#7E6625" stroke-width="4.9283" d="M286.7,212.7c0-9.8,2.9-17.8,6.6-17.8c3.6,0,6.6,8,6.6,17.8
			c0,9.8-12.1,36.2-15.8,36.2S286.7,222.5,286.7,212.7z"/>
		<path fill="#FFF088" stroke="#7E6625" stroke-width="4.9283" d="M288.5,218.6c7.3-6.6,15.3-22.3,17.8-19.6
			c2.4,2.7-1.7,22.7-8.9,29.3c-7.3,6.6-13.5,21.1-15.9,18.4C279,244,281.3,225.2,288.5,218.6z"/>
		<path fill="#FFF088" stroke="#7E6625" stroke-width="4.9283" d="M282,230.2c0.5-9.8,3.9-17.6,7.5-17.4c3.6,0.2,6.1,8.3,5.6,18.1
			c-0.5,9.8-12.4,25.5-16,25.3C275.5,256,281.5,240,282,230.2z"/>
		<path fill="#FFF088" stroke="#7E6625" stroke-width="4.9283" d="M280.3,232.4c6.8-7.1,14.4-10.9,17-8.4c2.6,2.5-0.7,10.3-7.5,17.4
			c-6.8,7.1-8.7,22.1-11.4,19.6C275.9,258.5,273.6,239.5,280.3,232.4z"/>
		<path fill="#FFF088" stroke="#7E6625" stroke-width="4.9283" d="M278,246.2c1.7-9.7,5.9-17,9.5-16.4c3.6,0.6,5.1,9,3.4,18.7
			c-1.7,9.7-12.3,18.9-15.9,18.3C271.6,266.1,276.4,255.9,278,246.2z"/>
		<path fill="#FFF088" stroke="#7E6625" stroke-width="4.9283" d="M271.6,250.4c6.7-7.2,14.3-11,16.9-8.6s-0.6,10.3-7.3,17.5
			c-6.7,7.2-5.2,21.5-7.8,19C270.7,275.9,264.9,257.6,271.6,250.4z"/>
		<path fill="#FFF088" stroke="#7E6625" stroke-width="4.9283" d="M269.7,265.1c1.5-9.7,5.6-17.1,9.2-16.6c3.6,0.6,5.3,8.9,3.8,18.6
			c-1.5,9.7-12.3,17.8-15.9,17.2C263.2,283.7,268.2,274.8,269.7,265.1z"/>
		<path fill="#FFF088" stroke="#7E6625" stroke-width="4.9283" d="M264.7,270.7c5.9-7.9,13-12.5,15.9-10.3
			c2.9,2.2,0.5,10.3-5.4,18.2c-5.9,7.9-8.1,19.3-11,17.2C261.4,293.6,258.8,278.6,264.7,270.7z"/>
	</g>
</g>
<g id="fill::braid_x26__x26_braid-f:darker::stroke::outline">
	<path fill="#FFF088" stroke="#7E6625" stroke-width="8" d="M233.9,103.8c36.2,8.4,60.7,30.4,69.6,40c14.8,16,27,31.5,19.5-11.3
		c-7.1-40.7-65.3-63.3-120.4-67.2C157.4,71.5,173.6,89.8,233.9,103.8z"/>
	<path fill="#FFF088" stroke="#7E6625" stroke-width="8" d="M160.5,104c-36.2,8.4-74.1,77.8-82.5,71.3c-5.7-4.4-9.7-14.2-8.1-30.7
		c3.9-41.1,43.3-66.6,122-79.1C272.2,62.7,220.9,90,160.5,104z"/>
</g>
</svg>
