<?xml version="1.0" encoding="utf-8"?>
<!-- Generator: Adobe Illustrator 17.1.0, SVG Export Plug-In . SVG Version: 6.00 Build 0)  -->
<!DOCTYPE svg PUBLIC "-//W3C//DTD SVG 1.1//EN" "http://www.w3.org/Graphics/SVG/1.1/DTD/svg11.dtd">
<svg version="1.1" id="Layer_3" xmlns="http://www.w3.org/2000/svg" xmlns:xlink="http://www.w3.org/1999/xlink" x="0px" y="0px"
	 viewBox="0 0 400 400" enable-background="new 0 0 400 400" xml:space="preserve">
<g id="fill::marilyn_x26__x26_marilyn-f:darker::stroke::outline">
	<path fill="#FFFF78" stroke="#FFB240" stroke-width="9.2997" stroke-linecap="round" stroke-linejoin="round" d="M283.3,85.8
		c47.9-25.1,84.4,31,66.9,75.3c-11.6,29.5-60.7,53.6-32.1,71.1c14,8.6-69.8,4.5-42.5-25.1c16.4-17.7,27.7-46.1,26.6-52.2
		c-2.7-16.1-13.2-35.4-34.3-42.9c-42.7-15.2-65,4.9-65,4.9c-19.7-19.2-95.7-7.9-95.7-7.9l38.9-50l26.1-6.3l31.3-6.5l45-7l14.8,2.6
		l17.1,5.6"/>
	<path fill="#FFFF78" stroke="#FFB240" stroke-width="9.2997" stroke-linecap="round" stroke-linejoin="round" d="M200.4,72.3
		c-34.9-26.1-86.7,27.2-79.8,42.7c6.9,15.5,9.4,55.3-20.6,68.3c-30,13-58.3,3.9-58.3,3.9C3.5,176.8,1.4,150.3,9.1,158.8
		c7.7,8.6,36.5,0.9,36.5,0.9C10.5,150.3,17.2,124,17.2,124c-0.1,25.6,27.6,14.8,27.6,14.8c-30-13.6,21.9-81.8,7.7-39.9
		c-14.1,42,14.9,25,14.9,25c-1.6-41.1,32-73.4,63.9-90.9c14.6-8,58-26.2,111-16.4c53,9.7,44.7,67.2,44.7,67.2l-3.8,12"/>
</g>
</svg>
