<?xml version="1.0" encoding="utf-8"?>
<!-- Generator: Adobe Illustrator 17.1.0, SVG Export Plug-In . SVG Version: 6.00 Build 0)  -->
<!DOCTYPE svg PUBLIC "-//W3C//DTD SVG 1.1//EN" "http://www.w3.org/Graphics/SVG/1.1/DTD/svg11.dtd">
<svg version="1.1" id="Layer_4" xmlns="http://www.w3.org/2000/svg" xmlns:xlink="http://www.w3.org/1999/xlink" x="0px" y="0px"
	 viewBox="0 0 400 400" enable-background="new 0 0 400 400" xml:space="preserve">
<path id="fill::messy_x26__x26_messy-f:darker::stroke::outline" fill="#3C180D" stroke="#210C07" stroke-width="9" stroke-linejoin="round" stroke-miterlimit="10" d="
	M313.8,107.6l0.2-2.2l-20.9-18.7l4.3-7.9l-35.2-2.7l-1.7-12.3l-29.2,4.7l-4.9-10L206.7,64c0,0-17.4-17.6-18.3-15.6
	s-2.4,18.1-2.4,18.1l-14.4-7.9L172,68l-24.5-9.6l0.4,15.7l-26.1-5.2l8.8,11.3c-1.2,0.5-2.4,1-3.6,1.5l-16.3-2.7l1.5,10.2
	c-5.9,3.5-11.4,7.3-16.2,11.4l4.1,6.5l-1.4,10.9l19-13.6l-0.7,19l21.7-20.4l0.7,7.5l18.3-12.9v8.2l31.9-16.3l-0.7,20.4l25.1-14.3
	v14.3l14.3-12.9l4.1,12.2l17-12.9l12.9,14.9l4.1-12.9l19,22.4l6.1-13.6l20.4,19.7l7.1-13.2C317.4,111.5,315.7,109.5,313.8,107.6z"/>
</svg>
