<?xml version="1.0" encoding="utf-8"?>
<!-- Generator: Adobe Illustrator 17.1.0, SVG Export Plug-In . SVG Version: 6.00 Build 0)  -->
<!DOCTYPE svg PUBLIC "-//W3C//DTD SVG 1.1//EN" "http://www.w3.org/Graphics/SVG/1.1/DTD/svg11.dtd">
<svg version="1.1" id="fill::shoulder-length_x26__x26_lshoulder-length-f:darker::stroke::outline"
	 xmlns="http://www.w3.org/2000/svg" xmlns:xlink="http://www.w3.org/1999/xlink" x="0px" y="0px" viewBox="0 0 400 400"
	 enable-background="new 0 0 400 400" xml:space="preserve">
<path fill="#3A3A3A" stroke="#000000" stroke-width="7" stroke-linejoin="round" stroke-miterlimit="10" d="M188.1,73.9
	c-106,19.8-116.3,47.4-111.6,81.9l20.8-15.7l4.1,3.9l17.1-19.9l3.3,1.1c-4.1,5.2-3.9,5.9-3.9,5.9s26.6-3.8,38-11.8l20.4,1.1
	c-3.4,4.4-3.2,5-3.2,5s26.6-3.8,38-11.8c-5.7,6.8-8.8,10.3-8.8,10.3s40.4-8.6,54.3-18.8l25.7,32.6l2.4-10.9l16.4,24.4l7.7-9.5
	l11.2,27.4C330.3,154.2,294.2,54.1,188.1,73.9z"/>
</svg>
