<?xml version="1.0" encoding="utf-8"?>
<!-- Generator: Adobe Illustrator 17.1.0, SVG Export Plug-In . SVG Version: 6.00 Build 0)  -->
<!DOCTYPE svg PUBLIC "-//W3C//DTD SVG 1.1//EN" "http://www.w3.org/Graphics/SVG/1.1/DTD/svg11.dtd">
<svg version="1.1" id="Layer_3" xmlns="http://www.w3.org/2000/svg" xmlns:xlink="http://www.w3.org/1999/xlink" x="0px" y="0px"
	 viewBox="0 0 400 400" enable-background="new 0 0 400 400" xml:space="preserve">
<g>
	<defs>
		<path id="fill::helmet:1" d="M201.1,101.4c-75.4,0-139,52.3-140.3,24.7c0-58,61.1-105,136.5-105c68.6,0,125.5,39,135.1,89.7
			C333.4,115.8,276.5,101.4,201.1,101.4z"/>
	</defs>
	<use xlink:href="#fill::helmet:1"  overflow="visible" fill="#31421D"/>
	<clipPath id="fill::helmet:1_1_">
		<use xlink:href="#fill::helmet:1"  overflow="visible"/>
	</clipPath>
	<g id="stroke::camo" clip-path="url(#fill::helmet:1_1_)">
		<g>
			<path fill="none" stroke="#A8A85E" stroke-width="3.4065" stroke-miterlimit="10" d="M9.6,71.8c0,0,97.1,43.5,120.1,130.8"/>
			<path fill="none" stroke="#A8A85E" stroke-width="3.4065" stroke-miterlimit="10" d="M33.3,60.2c0,0,97.1,43.5,120.1,130.8"/>
			<path fill="none" stroke="#A8A85E" stroke-width="3.4065" stroke-miterlimit="10" d="M57.1,48.6c0,0,97.1,43.5,120.1,130.8"/>
			<path fill="none" stroke="#A8A85E" stroke-width="3.4065" stroke-miterlimit="10" d="M80.8,37.1c0,0,97.1,43.5,120.1,130.8"/>
			<path fill="none" stroke="#A8A85E" stroke-width="3.4065" stroke-miterlimit="10" d="M104.6,25.5c0,0,97.1,43.5,120.1,130.8"/>
			<path fill="none" stroke="#A8A85E" stroke-width="3.4065" stroke-miterlimit="10" d="M128.3,13.9c0,0,97.1,43.5,120.1,130.8"/>
			<path fill="none" stroke="#A8A85E" stroke-width="3.4065" stroke-miterlimit="10" d="M152,2.3c0,0,97.1,43.5,120.1,130.8"/>
			<path fill="none" stroke="#A8A85E" stroke-width="3.4065" stroke-miterlimit="10" d="M175.8-9.3c0,0,97.1,43.5,120.1,130.8"/>
			<path fill="none" stroke="#A8A85E" stroke-width="3.4065" stroke-miterlimit="10" d="M199.5-20.9c0,0,97.1,43.5,120.1,130.8"/>
		</g>
		<g>
			<path fill="none" stroke="#A8A85E" stroke-width="3.4065" stroke-miterlimit="10" d="M364,71.8c0,0-97.1,43.5-120.1,130.8"/>
			<path fill="none" stroke="#A8A85E" stroke-width="3.4065" stroke-miterlimit="10" d="M340.3,60.2c0,0-97.1,43.5-120.1,130.8"/>
			<path fill="none" stroke="#A8A85E" stroke-width="3.4065" stroke-miterlimit="10" d="M316.5,48.6c0,0-97.1,43.5-120.1,130.8"/>
			<path fill="none" stroke="#A8A85E" stroke-width="3.4065" stroke-miterlimit="10" d="M292.8,37.1c0,0-97.1,43.5-120.1,130.8"/>
			<path fill="none" stroke="#A8A85E" stroke-width="3.4065" stroke-miterlimit="10" d="M269,25.5c0,0-97.1,43.5-120.1,130.8"/>
			<path fill="none" stroke="#A8A85E" stroke-width="3.4065" stroke-miterlimit="10" d="M245.3,13.9c0,0-97.1,43.5-120.1,130.8"/>
			<path fill="none" stroke="#A8A85E" stroke-width="3.4065" stroke-miterlimit="10" d="M221.5,2.3c0,0-97.1,43.5-120.1,130.8"/>
			<path fill="none" stroke="#A8A85E" stroke-width="3.4065" stroke-miterlimit="10" d="M197.8-9.3c0,0-97.1,43.5-120.1,130.8"/>
			<path fill="none" stroke="#A8A85E" stroke-width="3.4065" stroke-miterlimit="10" d="M174.1-20.9c0,0-97.1,43.5-120.1,130.8"/>
		</g>
	</g>
	
		<use xlink:href="#fill::helmet:1"  overflow="visible" fill="none" stroke="#000000" stroke-width="7.4942" stroke-linejoin="round"/>
</g>
<path id="fill::helmet:2" fill="#31421D" d="M281.8,93.2c-1.9-0.8-3.6-0.6-4.9,0.1c-44.5-4.6-88.7,3.1-132.7,9.5
	c-26.8,3.9-51.7,10.8-73.7,24.7c-2-1-4.3-1.2-6.3,0.1c-7.2,4.3-11.3,9-13.6,15.2c-0.1,0.1-0.2,0.2-0.3,0.4c-1.6,2-1.9,4.1-1.5,6.1
	c-0.4,2.1-0.7,4.2-1,6.6c-0.8,8.8,12.8,8.7,13.6,0c1.7-2.9,3.4-5.9,5.2-8.8c26-20.8,57.3-27.5,90.1-32.3c40.8-6,82.1-12.3,123.4-7.4
	c0.2,0,0.4-0.1,0.6-0.1c15.6,3.9,59.6,4.2,57.2,23c-1.1,8.7,12.5,8.6,13.6,0C356.1,95.9,300.9,100.9,281.8,93.2z"/>
<path fill="none" stroke="#000000" stroke-width="6.5228" d="M340.9,141.2c1.1-2.1,1.5-4.3,1.3-6.4c-1.9-21.1-64.4-32.4-142.9-25.4
	c-78.5,7-140.5,29.8-138.6,50.9c0.2,2,0.9,3.9,2.2,5.7c1.7,2.4,15,10.2,18.5,12.2"/>
<path fill="none" stroke="#000000" stroke-width="7.0654" d="M325.3,150.6c19.3-8.8,27.9-18.5,27.1-28c-2-22.8-70-35.1-155-27.5
	c-85,7.6-152.2,32.3-150.2,55.1c0.7,8.1,18,18.3,33.5,23.3"/>
<polygon points="306.2,112.8 334.6,123.7 342.3,140.6 324.2,152 306.2,114 "/>
<polygon points="79,139 60.8,158.1 79,178.2 "/>
</svg>
