<?xml version="1.0" encoding="utf-8"?>
<!-- Generator: Adobe Illustrator 17.1.0, SVG Export Plug-In . SVG Version: 6.00 Build 0)  -->
<!DOCTYPE svg PUBLIC "-//W3C//DTD SVG 1.1//EN" "http://www.w3.org/Graphics/SVG/1.1/DTD/svg11.dtd">
<svg version="1.1" id="Layer_2" xmlns="http://www.w3.org/2000/svg" xmlns:xlink="http://www.w3.org/1999/xlink" x="0px" y="0px"
	 viewBox="0 0 400 400" enable-background="new 0 0 400 400" xml:space="preserve">
<path id="fill::mohawk" fill="#23F120" d="M202,104.8c8.9,0.2,17.9,1,17.9,1c9-10.8,10.5-38.7-2-43.2c-2.3-0.8-8.8-1.2-15.9-0.9
	c-7.1-0.3-13.6,0.1-15.9,0.9c-12.5,4.5-11,32.4-2,43.2C184,105.8,193.1,105.1,202,104.8z"/>
<path id="mohawk-f:darker::fill::outline" fill="#239D20" d="M228.5,68.3c-0.9-2.1-2-4-3.6-5.7c-1.5-1.6-3.4-3-5.7-3.8
	c-0.8-0.3-1.6-0.4-2.4-0.6c-1.3-0.2-2.8-0.4-4.5-0.5c-1.7-0.1-3.6-0.2-5.5-0.2c-1.6,0-3.2,0-4.8,0.1c-1.7-0.1-3.3-0.1-4.8-0.1
	c-2.6,0-5.1,0.1-7.2,0.3c-1,0.1-2,0.2-2.8,0.4c-0.9,0.2-1.6,0.3-2.4,0.6c-2.2,0.8-4.1,2.1-5.7,3.8c-2.3,2.5-3.8,5.6-4.7,8.9
	c-0.9,3.3-1.4,7-1.4,10.6c0,4.8,0.7,9.7,2,14.2c1.3,4.5,3.3,8.7,6,12l1.3,1.6l2.1-0.2c0,0,0.1,0,0.4,0c1.8-0.1,9.6-0.7,17.2-0.9
	c4.3,0.1,8.7,0.3,12.1,0.5c1.7,0.1,3.1,0.2,4,0.3c0.5,0,0.9,0.1,1.1,0.1c0.3,0,0.4,0,0.4,0l2.1,0.2l1.3-1.6c2.7-3.3,4.6-7.4,6-12
	c1.3-4.5,2-9.4,2-14.2C231,77.3,230.3,72.5,228.5,68.3z M221.3,94.2c-0.8,2.9-2,5.5-3.3,7.5c-3.3-0.2-9.6-0.7-15.9-0.8l-0.1,0
	l-0.1,0c-6.3,0.1-12.7,0.6-15.9,0.8c-1.3-2-2.4-4.6-3.3-7.5c-1.1-3.8-1.7-8-1.7-12c0-4.1,0.7-8,1.8-10.8c0.6-1.4,1.3-2.5,2.1-3.4
	c0.8-0.8,1.6-1.4,2.5-1.7c0.1,0,0.5-0.1,1.1-0.2c0.9-0.2,2.1-0.3,3.6-0.4c1.5-0.1,3.2-0.1,5-0.1c1.5,0,3.1,0,4.7,0.1l0.2,0l0.2,0
	c1.6-0.1,3.2-0.1,4.7-0.1c2.4,0,4.7,0.1,6.4,0.3c0.9,0.1,1.6,0.2,2.2,0.3c0.6,0.1,1,0.2,1.1,0.2c0.9,0.3,1.7,0.9,2.5,1.7
	c1.2,1.2,2.2,3.2,2.9,5.6c0.7,2.5,1.1,5.4,1.1,8.5C223,86.2,222.4,90.4,221.3,94.2z"/>
</svg>
