<?xml version="1.0" encoding="utf-8"?>
<!-- Generator: Adobe Illustrator 17.1.0, SVG Export Plug-In . SVG Version: 6.00 Build 0)  -->
<!DOCTYPE svg PUBLIC "-//W3C//DTD SVG 1.1//EN" "http://www.w3.org/Graphics/SVG/1.1/DTD/svg11.dtd">
<svg version="1.1" id="Layer_4" xmlns="http://www.w3.org/2000/svg" xmlns:xlink="http://www.w3.org/1999/xlink" x="0px" y="0px"
	 viewBox="0 0 400 400" enable-background="new 0 0 400 400" xml:space="preserve">
<g id="fill::ninja-mask">
	<path fill="#231F20" stroke="#000000" stroke-width="11" d="M297,6.7c11.8,0,21.3,9.5,21.3,21.3c0,11.8-9.5,21.3-21.3,21.3
		c-11.8,0-21.3-9.5-21.3-21.3C275.7,16.2,285.2,6.7,297,6.7z"/>
	<path fill="#231F20" stroke="#000000" stroke-width="11" d="M321,143.4c0.9,4,1.4,8.1,1.4,12.2c0,44.1-54.8,79.9-122.4,79.9
		c-67.6,0-122.4-35.8-122.4-79.9c0-4.2,0.5-8.2,1.4-12.2c-9.7-4.1-16.6-13.7-16.6-24.9c0-14.9,12.1-27,27-27
		c8.4,0,15.9,3.8,20.8,9.8c22.3-15.7,54.2-25.5,89.7-25.5c35.4,0,67.3,9.8,89.7,25.5c5-6,12.5-9.8,20.8-9.8c14.9,0,27,12.1,27,27
		C337.5,129.7,330.7,139.3,321,143.4z M200,120.7c-42,0-79.1-1.2-101.1,19.9c22,21.1,59.1,29.9,101.1,29.9c42,0,79.1-8.8,101.1-29.9
		C279.1,119.6,242,120.7,200,120.7z"/>
</g>
</svg>
