<?xml version="1.0" encoding="utf-8"?>
<!-- Generator: Adobe Illustrator 17.1.0, SVG Export Plug-In . SVG Version: 6.00 Build 0)  -->
<!DOCTYPE svg PUBLIC "-//W3C//DTD SVG 1.1//EN" "http://www.w3.org/Graphics/SVG/1.1/DTD/svg11.dtd">
<svg version="1.1" id="Layer_2" xmlns="http://www.w3.org/2000/svg" xmlns:xlink="http://www.w3.org/1999/xlink" x="0px" y="0px"
	 viewBox="0 0 400 400" enable-background="new 0 0 400 400" xml:space="preserve">
<path fill="#404041" stroke="#0E0902" stroke-width="11" stroke-miterlimit="10" d="M201,137c48.9,0,88.2-10.6,88.2-23.7
	c0-4.9-4.9-11.6-4.9-11.6s-52.8,2.9-83.3,2.9s-83.3-2.9-83.3-2.9s-4.9,6.7-4.9,11.6C112.7,126.3,152.1,137,201,137z"/>
<path id="fill::officer-hat" fill="#2B4924" stroke="#0E0902" stroke-width="11" stroke-linejoin="round" stroke-miterlimit="10" d="
	M314.4,65.5c-12.9-49-114.6-56.4-114.6-56.4l0,0l0,0c-1.6,0.1-101.7,7.4-114.6,56.4c-2.8,26,29.7,21.2,29.7,21.2l1.4,18.3l83.5,9.9
	l0,0l0,0l0,0l0,0l83.5-9.9l1.4-18.3C284.8,86.7,317.2,91.5,314.4,65.5z"/>
<g id="fill::accent">
	<path id="XMLID_2_" fill="#D6DE23" stroke="#0E0902" stroke-width="11" stroke-linejoin="round" stroke-miterlimit="10" d="M201,93
		c-1.6,0.1-86.1-6.3-86.1-6.3l1.4,18.3l83.5,9.9l0,0l0,0l0,0l0,0l83.5-9.9l1.4-18.3L201,93z"/>
	<polygon fill="#D6DE23" stroke="#0E0902" stroke-width="6" stroke-linejoin="round" stroke-miterlimit="10" points="222,87.5 
		201,106.6 179.9,87.5 179.9,54.3 201,62.5 222,54.3 	"/>
</g>
</svg>
