<?xml version="1.0" encoding="utf-8"?>
<!-- Generator: Adobe Illustrator 17.1.0, SVG Export Plug-In . SVG Version: 6.00 Build 0)  -->
<!DOCTYPE svg PUBLIC "-//W3C//DTD SVG 1.1//EN" "http://www.w3.org/Graphics/SVG/1.1/DTD/svg11.dtd">
<svg version="1.1" id="Layer_3" xmlns="http://www.w3.org/2000/svg" xmlns:xlink="http://www.w3.org/1999/xlink" x="0px" y="0px"
	 viewBox="0 0 400 400" enable-background="new 0 0 400 400" xml:space="preserve">
<path fill="#DECEB0" d="M89.7,86c8.2,0,15.7,3.2,21.4,8.2c23-14.8,54.2-23.9,88.5-23.9c34.7,0,66.1,9.3,89.2,24.3
	c4.2-3.8,9.3-6.5,15-7.8c0-0.1,0-0.1,0-0.2c-3.3-36.9-56.6-62.3-119-56.7c-51.2,4.6-92.6,28.6-104,57.4C83.6,86.5,86.6,86,89.7,86z"
	/>
<path d="M87.2,86.2c12.2-25.5,50.8-46.6,98-50.8c5.6-0.5,11.1-0.7,16.6-0.7c52.3,0,93.7,22.5,96.4,52.4c0,0.5,0,0.9,0,1.4
	c3.4-1.4,7.1-2.2,11-2.4c-3.3-36.2-48.4-62.4-107.3-62.4c-5.8,0-11.7,0.3-17.6,0.8c-55.7,5-100.4,32.8-110.1,65.6
	C78.1,87.9,82.5,86.6,87.2,86.2z"/>
<path id="path5632" inkscape:connector-curvature="0" fill="#DECEB0" stroke="#000000" stroke-width="10.2145" stroke-linejoin="round" d="
	M187.4,59.7c-50.1,4.5-90.1,29.8-97.2,59.3c23.9-15.1,59.3-26.8,99.8-30.4s77.4,1.6,103.6,12.2C281.4,73,237.6,55.2,187.4,59.7z"/>
<path id="path5760" inkscape:connector-curvature="0" sodipodi:nodetypes="ccc" fill-opacity="0.4018" d="M247.5,37.3
	c1.1,10.2-2.3,20-3.1,24.9c4.5-5.7,7.9-11.4,18.5-21.3"/>
<path id="path5760-8" inkscape:connector-curvature="0" sodipodi:nodetypes="ccc" fill-opacity="0.4018" d="M177.4,35.8
	c3.6,3.9,6.5,15.8,8.7,23.6c1.1-7.8,1.1-14.4,6.7-27.4"/>
<path id="path5760-9" inkscape:connector-curvature="0" sodipodi:nodetypes="ccc" fill-opacity="0.4018" d="M124.3,48.3
	c-0.2,6.2,4.8,16,7.5,24c-6.8-6.2-11.3-11.7-22-17.7"/>
<rect id="rect3891-7-4-0" x="224" y="71.7" transform="matrix(-1.764936e-03 -1 1 -1.764936e-03 165.3224 314.2608)" fill-opacity="0.4018" width="31.1" height="5.8"/>
<rect id="rect3891-7-6-5-0-7" x="212.9" y="71.7" transform="matrix(-1.764936e-03 -1 1 -1.764936e-03 154.198 303.1951)" fill-opacity="0.4018" width="31.1" height="5.8"/>
<rect id="rect3891-7-6-5-8-4-2-8" x="201.8" y="71.7" transform="matrix(-1.764936e-03 -1 1 -1.764936e-03 143.0735 292.1293)" fill-opacity="0.4018" width="31.1" height="5.8"/>
<rect id="rect3891-7-4-0-7" x="152.8" y="76.7" transform="matrix(-8.913917e-02 -0.996 0.996 -8.913917e-02 100.8482 251.5372)" fill-opacity="0.4018" width="25.3" height="5.8"/>
<rect id="rect3891-7-6-5-0-7-1" x="141.8" y="77.7" transform="matrix(-8.913917e-02 -0.996 0.996 -8.913917e-02 87.8386 241.6162)" fill-opacity="0.4018" width="25.3" height="5.8"/>
<rect id="rect3891-7-6-5-8-4-2-8-3" x="130.7" y="78.7" transform="matrix(-8.913917e-02 -0.996 0.996 -8.913917e-02 74.8289 231.6951)" fill-opacity="0.4018" width="25.3" height="5.8"/>
</svg>
