<?xml version="1.0" encoding="utf-8"?>
<!-- Generator: Adobe Illustrator 17.1.0, SVG Export Plug-In . SVG Version: 6.00 Build 0)  -->
<!DOCTYPE svg PUBLIC "-//W3C//DTD SVG 1.1//EN" "http://www.w3.org/Graphics/SVG/1.1/DTD/svg11.dtd">
<svg version="1.1" id="Layer_2" xmlns="http://www.w3.org/2000/svg" xmlns:xlink="http://www.w3.org/1999/xlink" x="0px" y="0px"
	 viewBox="0 0 400 400" enable-background="new 0 0 400 400" xml:space="preserve">
<g id="fill::helmet">
	<path fill="#2F5884" stroke="#000000" stroke-width="8" stroke-linejoin="round" d="M269.6,104.8c22.8,5,37.3,22.2,43.9,42.9
		l16.7-10.9c-5.5-23.3-20.9-40.4-45.2-50.9L269.6,104.8"/>
	<path fill="#2F5884" stroke="#000000" stroke-width="8" stroke-linejoin="round" d="M223.8,104.1c14.2-3.9,29.4,0.2,43.6,4.8
		c3.1-8.7,9.7-16.6,18.6-22.7c-10.8-12.3-28.9-22.5-44.8-26.3"/>
	<path fill="#2F5884" stroke="#000000" stroke-width="8" stroke-linejoin="round" d="M178,104.2c-14.2-3.9-29.4,0.2-43.6,4.8
		c-3.1-8.7-9.7-16.6-18.6-22.7C126.6,74,144.8,63.7,160.7,60L178,104.2z"/>
	<path fill="#2F5884" stroke="#000000" stroke-width="8" stroke-linejoin="round" d="M158.5,57c18.3-13.3,65.5-13.9,83.9-0.3
		c-12.4,12.9-16.7,31.8-18.6,48.7c-11.7,5.3-31.5,5.4-44.8,0.3C176.2,87.7,171.2,67.9,158.5,57L158.5,57z"/>
	<path fill="#2F5884" stroke="#000000" stroke-width="8" stroke-linejoin="round" d="M132.2,104.9c-22.8,5-37.3,22.2-43.9,42.9
		l-16.7-10.9c5.5-23.3,20.9-40.4,45.2-50.9L132.2,104.9"/>
	<path fill="#2F5884" stroke="#000000" stroke-width="8" stroke-linejoin="round" d="M92.1,149.4c1.8,29.2,26.6,52.2,42,57.3
		c1,6.1-5.6,18.8-10.6,22.1C80.9,216,43.7,176.4,65.2,126C70.6,139.5,79,145,92.1,149.4"/>
	<path fill="#2F5884" stroke="#000000" stroke-width="8" stroke-linejoin="round" d="M309.6,149.3c-1.8,29.2-26.6,52.2-42,57.3
		c-1,6.1,5.6,18.8,10.6,22.1c42.7-12.8,79.8-52.4,58.3-102.8C331.2,139.4,322.7,144.9,309.6,149.3"/>
</g>
<g id="helmet-f:darker::fill::accent">
	<path fill="#1A3F56" stroke="#000000" stroke-width="8" stroke-linejoin="round" d="M266.7,108.9c17.7,7.7,36,28.7,37.8,61.5
		l4.8-20.5l4.5-1.9c-5.8-21.1-21.3-38.7-43.6-43.2L266.7,108.9"/>
	<path fill="#1A3F56" stroke="#000000" stroke-width="8" stroke-linejoin="round" d="M135.1,109c-17.7,7.7-36,28.7-37.8,61.5
		L92.5,150l-4.5-1.9c5.8-21.1,21.3-38.7,43.6-43.2L135.1,109"/>
</g>
</svg>
