<?xml version="1.0" encoding="utf-8"?>
<!-- Generator: Adobe Illustrator 17.1.0, SVG Export Plug-In . SVG Version: 6.00 Build 0)  -->
<!DOCTYPE svg PUBLIC "-//W3C//DTD SVG 1.1//EN" "http://www.w3.org/Graphics/SVG/1.1/DTD/svg11.dtd">
<svg version="1.1" id="Layer_3" xmlns="http://www.w3.org/2000/svg" xmlns:xlink="http://www.w3.org/1999/xlink" x="0px" y="0px"
	 viewBox="0 0 400 400" enable-background="new 0 0 400 400" xml:space="preserve">
<g id="rambo-f:darker::fill::tail-outlines">
	<path fill="#7A1018" d="M347.3,185.2c-0.4-1-1.3-1.7-2.3-2.1l-20.6-7.5c-0.4,1.3-0.9,2.5-1.4,3.7c-0.5,1.2-1.1,2.4-1.7,3.6
		l17.2,6.3l-8.1,22.1l-23.5-8.6c-1,1-2.1,2.1-3.2,3.1c-1.1,1-2.2,2-3.4,3l31.2,11.4c0.5,0.2,0.9,0.2,1.4,0.2c1.6,0,3.2-1,3.8-2.6
		l10.8-29.6C347.7,187.2,347.7,186.1,347.3,185.2z"/>
	<path fill="#7A1018" d="M323.7,231.3l-14.4-31.1c-1,1-2,2.1-3,3.1c-1,1-2,1.9-3.1,2.9l11.5,24.9l-21.3,9.9l-9.6-20.8
		c-1.2,0.7-2.3,1.3-3.5,2c-1.2,0.6-2.4,1.2-3.6,1.8l11.1,24c0.7,1.5,2.1,2.3,3.6,2.3c0.6,0,1.1-0.1,1.7-0.4l28.6-13.3
		c1-0.4,1.7-1.3,2.1-2.3S324.1,232.3,323.7,231.3z"/>
</g>
<g id="fill::rambo:2">
	<path fill="#ED1C24" d="M338.5,189.2l-17.2-6.3c-3.5,7-8.3,13.6-14.4,19.8l23.5,8.6L338.5,189.2z"/>
	<path fill="#ED1C24" d="M314.8,231.1l-11.5-24.9c-4.1,3.7-8.6,7.2-13.7,10.5c-1.9,1.2-3.8,2.4-5.8,3.5l9.6,20.8L314.8,231.1z"/>
</g>
<path id="fill::rambo:1_x26__x26_rambo-f:darker::stroke::outline" fill="#ED1C24" stroke="#7A1018" stroke-width="7.846" stroke-linejoin="round" d="
	M312.1,119.5c-6.2-9.2-14.7-17.7-25.5-25c-1.5-1-3.1-2-4.7-3l-164,0.7c-1.2,0.8-2.4,1.5-3.6,2.3c-12.4,8.4-21.9,18.4-28.2,29.3
	l226-0.9L312.1,119.5z"/>
</svg>
