<?xml version="1.0" encoding="utf-8"?>
<!-- Generator: Adobe Illustrator 17.1.0, SVG Export Plug-In . SVG Version: 6.00 Build 0)  -->
<!DOCTYPE svg PUBLIC "-//W3C//DTD SVG 1.1//EN" "http://www.w3.org/Graphics/SVG/1.1/DTD/svg11.dtd">
<svg version="1.1" id="Layer_3" xmlns="http://www.w3.org/2000/svg" xmlns:xlink="http://www.w3.org/1999/xlink" x="0px" y="0px"
	 viewBox="0 0 400 400" enable-background="new 0 0 400 400" xml:space="preserve">
<g id="fill::short-hat">
	<path fill="#9BB2C2" stroke="#231F20" stroke-width="9" d="M249.9,73.3h-49.1h-1.7H150c0,0-39-15.6-24,13.3
		c14,27.1,62.3,30.1,73.1,30.4c0.1,0,1.5,0,1.7,0c10.7-0.3,59-3.4,73.1-30.4C288.9,57.6,249.9,73.3,249.9,73.3z"/>
	<path fill="#9BB2C2" stroke="#231F20" stroke-width="9" d="M148.3,26.8c0,0,1.8,34,1.8,45.5s97.5,10.8,97.5,10.8l4-8.8
		c0,0,0.8-45.8,1.5-49S148.3,26.8,148.3,26.8z"/>
	<ellipse fill="#9BB2C2" stroke="#231F20" stroke-width="9" cx="200.7" cy="25.3" rx="52.4" ry="9"/>
</g>
<path id="fill::band" fill="#423D51" stroke="#231F20" stroke-width="9" d="M251.6,88.1c0,7.7-22.7,13.9-50.8,13.9
	S150,95.8,150,88.1v-24c0,7.7,22.7,13.9,50.8,13.9s50.8-6.2,50.8-13.9V88.1z"/>
</svg>
