<?xml version="1.0" encoding="utf-8"?>
<!-- Generator: Adobe Illustrator 17.1.0, SVG Export Plug-In . SVG Version: 6.00 Build 0)  -->
<!DOCTYPE svg PUBLIC "-//W3C//DTD SVG 1.1//EN" "http://www.w3.org/Graphics/SVG/1.1/DTD/svg11.dtd">
<svg version="1.1" id="Layer_2" xmlns="http://www.w3.org/2000/svg" xmlns:xlink="http://www.w3.org/1999/xlink" x="0px" y="0px"
	 viewBox="0 0 400 400" enable-background="new 0 0 400 400" xml:space="preserve">
<path id="fill::short-straight_x26__x26_short-straight-f:darker::stroke::outline" fill="#3F3F3F" stroke="#020100" stroke-width="6" stroke-linejoin="round" stroke-miterlimit="10" d="
	M328,153.3l-0.3,0.4v-3c-0.7-8.7-3.4-17.2-7.9-25.1c0,0,0,0,0,0c-0.1-0.2-0.2-0.3-0.3-0.5c-0.2-0.3-0.4-0.6-0.6-1
	c-0.3-0.5-0.6-0.9-0.9-1.4c-0.2-0.3-0.4-0.6-0.6-0.9c-0.3-0.5-0.6-1-1-1.5c-0.2-0.3-0.4-0.5-0.5-0.8c-0.4-0.6-0.8-1.2-1.3-1.7
	c-0.1-0.2-0.2-0.3-0.4-0.5c-1.1-1.5-2.4-3-3.7-4.5c-0.1-0.1-0.2-0.2-0.3-0.3c-0.5-0.6-1.1-1.2-1.7-1.8c0-0.1-0.1-0.1-0.1-0.2h0
	c-5.3-5.7-11.7-11-19.1-15.8c-24-15.7-55.8-24.3-89.5-24.3c-33.3,0-64.8,8.4-88.7,23.8l0,0c-7.4,4.8-13.8,10.1-19.1,15.8h0
	c-0.1,0.1-0.1,0.1-0.1,0.2c-0.6,0.6-1.1,1.2-1.7,1.8c-0.1,0.1-0.2,0.2-0.3,0.3c-1.3,1.5-2.5,3-3.7,4.5c-0.1,0.2-0.2,0.3-0.4,0.5
	c-0.4,0.6-0.8,1.2-1.3,1.7c-0.2,0.3-0.4,0.5-0.5,0.8c-0.3,0.5-0.7,1-1,1.5c-0.2,0.3-0.4,0.6-0.6,0.9c-0.3,0.5-0.6,0.9-0.9,1.4
	c-0.2,0.3-0.4,0.6-0.6,1c-0.1,0.2-0.2,0.3-0.3,0.5c0,0,0,0,0,0c-4.5,8-7.1,16.4-7.9,25.1v3l-0.3-0.4c0,66.3-10,67.5-10,67.5h10.7
	c3.6-10.8,7.3-28.8,7.4-57.5c0,0,0,0,0,0v57.5h13.6c1.8-10.2,3.1-23.5,3.2-40.5c0,0,0,0,0,0v40.5h12.9v-4.4c0,0,0,0,0,0v-90
	c34.8-6.3,61.1-16.3,72.9-28.2c20.7,12.8,59.4,22.5,106.4,26.3v92.4c0,0,0,0,0,0v4.4h12.9v-40.5c0,0,0,0,0,0
	c0.1,17,1.4,30.3,3.2,40.5h13.6v-57.5c0,0,0,0,0,0c0.1,28.7,3.8,46.7,7.4,57.5H338C338,220.8,328,219.6,328,153.3z"/>
</svg>
