<?xml version="1.0" encoding="utf-8"?>
<!-- Generator: Adobe Illustrator 17.1.0, SVG Export Plug-In . SVG Version: 6.00 Build 0)  -->
<!DOCTYPE svg PUBLIC "-//W3C//DTD SVG 1.1//EN" "http://www.w3.org/Graphics/SVG/1.1/DTD/svg11.dtd">
<svg version="1.1" id="fill::shoulder-length_x26__x26_shoulder-length-f:darker::stroke::outline"
	 xmlns="http://www.w3.org/2000/svg" xmlns:xlink="http://www.w3.org/1999/xlink" x="0px" y="0px" viewBox="0 0 400 400"
	 enable-background="new 0 0 400 400" xml:space="preserve">
<path fill="#4F380B" stroke="#2D1F07" stroke-width="7" d="M75.2,168.8c0,0,3.3,58.7-17.8,83.4c0,0,24.9,2,34-7.1
	S75.2,168.8,75.2,168.8z"/>
<path fill="#4F380B" stroke="#2D1F07" stroke-width="7" d="M321.8,169.1c0,0-3.3,58.7,17.8,83.4c0,0-24.9,2-34-7.1
	S321.8,169.1,321.8,169.1z"/>
<path fill="#4F380B" stroke="#2D1F07" stroke-width="7" stroke-linejoin="round" d="M324,165.4c0-51.4-56.4-102.3-122.3-102.3
	S74,104,73.3,165.1c-0.8,70,32.7,86.4,32.7,86.4c-0.6,0.1,7.3-26.4,1.5-79.9c8.3-6.9,34.3-40.2,44.2-70.9c0.5-0.3,4,18,49.7,26.2
	c27.6,5,39.1-6.2,39.1-6.2c-4.8-1.3-32-13-47.9-27.5c55.9,3.6,88.4,32.1,91.7,84.9c-4.7,70.3,7.6,75.8,7.6,75.8S324,221.6,324,165.4
	z"/>
<path fill="#4F380B" d="M201,87.5c0,0,33.2,9.6,54.4,35.6c6.8,8.3,12.3,28,12.3,28s8.9-30.7,8.2-54c-0.7-23.2-54.7-23.4-54.7-23.4"
	/>
<path fill="#4F380B" stroke="#2D1F07" stroke-width="7" stroke-linejoin="round" d="M197.1,93.4c0,0,37.5,1.1,58.3,29.7
	c6.3,8.6,12.3,28,12.3,28s8.9-30.7,8.2-54c-0.7-23.2-59.5-33-59.5-33"/>
</svg>
