<?xml version="1.0" encoding="utf-8"?>
<!-- Generator: Adobe Illustrator 17.1.0, SVG Export Plug-In . SVG Version: 6.00 Build 0)  -->
<!DOCTYPE svg PUBLIC "-//W3C//DTD SVG 1.1//EN" "http://www.w3.org/Graphics/SVG/1.1/DTD/svg11.dtd">
<svg version="1.1" id="fill::side-part_x26__x26_side-part-f:darker::stroke::outline"
	 xmlns="http://www.w3.org/2000/svg" xmlns:xlink="http://www.w3.org/1999/xlink" x="0px" y="0px" viewBox="0 0 400 400"
	 enable-background="new 0 0 400 400" xml:space="preserve">
<g>
	<path fill="#9C7A48" stroke="#6B5228" stroke-width="6" d="M262,76.1c20.4,20.9,29,50,29.8,53.2c2.1,7.7,19.1,19,22.2,24.6
		c2.3,4.1,8.2,3.5,12.5,3.9c0,0,1.9-15.7-1.7-25.7C317.3,111.3,304.3,90.2,262,76.1z"/>
	<path fill="#9C7A48" stroke="#6B5228" stroke-width="6" d="M92,111.4c-10.1,11.9-17.9,55.5-17.9,55.5s24.5-29,28.4-45.6
		C103.8,115.9,95.3,119.2,92,111.4z"/>
	<path fill="#9C7A48" stroke="#6B5228" stroke-width="6" d="M256.9,78.7C114.7,45,97.2,127.8,77.8,141.6c0,0,1-20.8,14.3-41.3
		c19-29.2,55.8-44.9,98.5-42.1C228.3,60.6,250.8,66.8,256.9,78.7z"/>
	<path fill="#9C7A48" stroke="#6B5228" stroke-width="6" d="M258.3,85.9c-98.5-29.2-110.3,1.6-137.5,20.5
		c-3,2.1-14.8,16.2-20.5,19.4c0,0,1.7-31.2,18.2-45.6S169.3,55,205,57.7C236.5,60.2,255.4,67.8,258.3,85.9z"/>
	<path fill="#9C7A48" stroke="#6B5228" stroke-width="6" d="M273.2,93.7c-105.1-5.2-128.1,5.6-150.2,19.8
		c3.1-38.1,62.3-55,95.1-52.7C248,63.3,270.3,77.8,273.2,93.7z"/>
	<path fill="#9C7A48" stroke="#6B5228" stroke-width="6" d="M273.2,89.9c12.5,15.7,44.1,15.2,48.8,38.1c-6.8-4.8-14.5-7.5-19.6-9
		C294.3,116.7,272.4,112.8,273.2,89.9z"/>
	<path fill="#9C7A48" stroke="#6B5228" stroke-width="6" d="M285.9,113.7c4.8,19,38.8,41.3,42.1,46.6
		C325.5,163.8,285.1,152.8,285.9,113.7z"/>
	<path fill="#9C7A48" stroke="#6B5228" stroke-width="6" d="M274.1,103.8c-38.8-11.2-86-14.7-111.8-0.9
		c2.5-23.8,42.5-32.6,69.4-26.3C258.5,83,271.8,93.9,274.1,103.8z"/>
</g>
</svg>
