<?xml version="1.0" encoding="utf-8"?>
<!-- Generator: Adobe Illustrator 17.1.0, SVG Export Plug-In . SVG Version: 6.00 Build 0)  -->
<!DOCTYPE svg PUBLIC "-//W3C//DTD SVG 1.1//EN" "http://www.w3.org/Graphics/SVG/1.1/DTD/svg11.dtd">
<svg version="1.1" id="sidecomb" xmlns="http://www.w3.org/2000/svg" xmlns:xlink="http://www.w3.org/1999/xlink" x="0px" y="0px"
	 viewBox="0 0 400 400" enable-background="new 0 0 400 400" xml:space="preserve">
<g id="fill:sidecomb_x26__x26_fill:darker::stroke::sidecomb:2">
	<path fill="#CCB461" stroke="#6C5D2E" stroke-width="8" stroke-linecap="round" stroke-linejoin="round" d="M85.6,170.7
		c0,0,12.4-34.2,23.3-39.7s77.1-17.6,115.5-13.8c22.3,1.3,45,2.2,63.5,8.7c16.4,9.2,23,29.4,31.7,45.9c3.7,1.2,7.1,3.2,11.5,1.4
		c1.1-25.2-10.1-58.5-39.8-68.9c-4.7-15.6-45.1-31.4-93.9-31.7s-90,20-108.3,45c-18.4,25-14.9,47.1-14.9,53.5
		C74.1,177.6,85.6,170.7,85.6,170.7z"/>
	<path fill="#CCB461" stroke="#6C5D2E" stroke-width="8" stroke-linecap="round" stroke-linejoin="round" d="M152.2,101.7
		c-40.6,14.7-57,35.9-57,35.9s64.3-20.6,104.2-17.8c28,2,64.8,6.9,64.8,6.9s-2.3-16.2-2.6-16.2C261.2,110.5,152.2,101.7,152.2,101.7
		z"/>
	<path fill="#CCB461" stroke="#6C5D2E" stroke-width="8" stroke-linecap="round" stroke-linejoin="round" d="M262.7,95.2
		c-24.6-10.3-49.3-12.5-71.6-10.7c-48.1,4-85,27.1-85.9,30.4c69.7-19.8,138.5-18.9,169.6,0.8"/>
</g>
<path id="fill:sidecomb" fill="#CCB461" d="M259.6,101c0,0-23.6-7.1-29.8-4.5c-16.3,6.9-26.5,28.2-26.2,28.2
	c0.3,0,20.3,12.5,20.6,12.5c0.2,0,42.8,1.8,56.4-8.6c7.3-5.7,5.9-7,15.9-4.3L259.6,101z"/>
<g id="fill:sidecomb_x26__x26_fill:darker::stroke::sidecomb:1">
	<path fill="#CCB461" stroke="#6C5D2E" stroke-width="8" stroke-linecap="round" stroke-linejoin="round" d="M287,126.8
		C272.6,139,187,142,187,142s19.6-9.7,40.3-11.8"/>
	<path fill="#CCB461" stroke="#6C5D2E" stroke-width="8" stroke-linecap="round" stroke-linejoin="round" d="M212.7,110.3
		c-37.8,10.9-61.8,26.8-61.8,26.8s21.3-5.2,51.6-5.9c6.5-0.1,17-0.7,22.5-1"/>
	<path fill="#CCB461" stroke="#6C5D2E" stroke-width="8" stroke-linecap="round" stroke-linejoin="round" d="M213.4,116.1
		c-39.2,0.8-82.2,11.1-82,10.6c20.5-21.5,60.9-31.4,103.4-25.4"/>
</g>
</svg>
