<?xml version="1.0" encoding="utf-8"?>
<!-- Generator: Adobe Illustrator 17.1.0, SVG Export Plug-In . SVG Version: 6.00 Build 0)  -->
<!DOCTYPE svg PUBLIC "-//W3C//DTD SVG 1.1//EN" "http://www.w3.org/Graphics/SVG/1.1/DTD/svg11.dtd">
<svg version="1.1" id="Layer_2" xmlns="http://www.w3.org/2000/svg" xmlns:xlink="http://www.w3.org/1999/xlink" x="0px" y="0px"
	 viewBox="0 0 400 400" enable-background="new 0 0 400 400" xml:space="preserve">
<path id="fill::spikey_x26__x26_spikey-f:darker::stroke::outline" fill="#726149" stroke="#2B2216" stroke-width="6" stroke-miterlimit="10" d="
	M233.4,39.3L233.4,39.3l-8.6,2.4c-12.5,3.6-26,0.4-35.5-8.6l-0.2-0.1l-14,9.4c-8.9,6-20.8,5-28.6-2.5l-0.1-0.1l-28.2,18.3
	C102,68.7,89.5,84.3,83.3,102.6c-0.6,1.8-1.2,3.7-1.6,5.5l-4.1,16.4c-1.8,7.8-2.6,16,2.8,22l0.4,0.5v-0.3
	c1.2-11.8,9.8-21.5,21.3-24.1h0.2V122c0.2-14.2,12-25.4,26.2-24.8l57.9,2.4c9.5,0.4,19,0.4,28.5,0l56.1-2.3
	c14.3-0.6,26.2,10.8,26.2,25.1v0.3l0.4,0.1c11.6,2.6,20.2,12.3,21.4,24.1v0.3l0.4-0.5c5.4-6,4.6-14.2,2.8-22l-2.6-9.2
	C314,95,301.5,73,283.8,60.5C256,41,247.5,59,233.4,39.3z"/>
<g id="spikey-f:darker::stroke::lines">
	<g>
		<path fill="none" stroke="#2B2216" stroke-width="5" stroke-linecap="round" stroke-miterlimit="10" d="M105.7,108.7l-7.4-1.9
			c-9.5-2.4-17.8,3.5-19.8,14"/>
		<path fill="none" stroke="#2B2216" stroke-width="5" stroke-linecap="round" stroke-miterlimit="10" d="M103.6,115.2l-9,0.2
			c-11.6,0.3-19.3,9.7-18.2,22.3v0.5"/>
		<path fill="none" stroke="#2B2216" stroke-width="5" stroke-linecap="round" stroke-miterlimit="10" d="M294.1,109.4l7.4-1.9
			c9.5-2.4,17.8,3.5,19.8,14"/>
		<path fill="none" stroke="#2B2216" stroke-width="5" stroke-linecap="round" stroke-miterlimit="10" d="M296.4,115.2l9,0.2
			c11.6,0.3,19.3,9.7,18.2,22.3v0.5"/>
	</g>
	<path fill="none" stroke="#2B2216" stroke-width="5" stroke-linecap="round" stroke-miterlimit="10" d="M145.7,41.5l-0.5,0.4
		c-25.4,17.4-23.4,45.7,9.5,56.4"/>
	<path fill="none" stroke="#2B2216" stroke-width="5" stroke-linecap="round" stroke-miterlimit="10" d="M189.3,35.1l-0.5,0.3
		c-26.2,13.3-26.8,45.1-1,63.1l2.2,1.5"/>
	<path fill="none" stroke="#2B2216" stroke-width="5" stroke-linecap="round" stroke-miterlimit="10" d="M232.8,38.9l-11.8,8
		c-29.3,19.8-32.9,43.8-7.5,53.1"/>
	<path fill="none" stroke="#2B2216" stroke-width="5" stroke-linecap="round" stroke-miterlimit="10" d="M224.5,98.5l0.3-0.2
		c18.2-9.4,24.6-32.2,13.9-49.6l-3.8-6.2l9.4,12.3c10.5,13.8,7,33.7-7.6,43l-0.3,0.2"/>
	<path fill="none" stroke="#2B2216" stroke-width="5" stroke-linecap="round" stroke-miterlimit="10" d="M180,41l-5.9,3.9
		c-19.4,12.6-20.1,40.7-1.4,54.3l0.4,0.3"/>
	<path fill="none" stroke="#2B2216" stroke-width="5" stroke-linecap="round" stroke-miterlimit="10" d="M142,43l-12.1,11.3
		c-12.9,12-11,33,3.8,42.5L134,97"/>
</g>
</svg>
