<?xml version="1.0" encoding="utf-8"?>
<!-- Generator: Adobe Illustrator 17.1.0, SVG Export Plug-In . SVG Version: 6.00 Build 0)  -->
<!DOCTYPE svg PUBLIC "-//W3C//DTD SVG 1.1//EN" "http://www.w3.org/Graphics/SVG/1.1/DTD/svg11.dtd">
<svg version="1.1" id="fill::tapered_x26__x26_tapered-f:darker::stroke::outline"
	 xmlns="http://www.w3.org/2000/svg" xmlns:xlink="http://www.w3.org/1999/xlink" x="0px" y="0px" viewBox="0 0 400 400"
	 enable-background="new 0 0 400 400" xml:space="preserve">
<path id="path6901-6" inkscape:connector-curvature="0" sodipodi:nodetypes="ccccccccccc" fill="#4C3A1D" stroke="#000000" stroke-width="8" stroke-linejoin="round" stroke-miterlimit="16.5714" d="
	M201.8,64.8C122.2,57.4,84.3,111.5,79,146.7c-4.7,42.6,0.5,92.6,21.7,129c0-2.1-4.2-14.8-3-30.9c3.9,21,8.6,35.6,9.1,35.3
	c-0.7,0-27.9-191.1,93.8-181.9c118.9,0.3,95.9,172.5,95.9,172.5l5.6-9.6l4.5,11.5c4.4-3.9,29.6-78.5,18.7-128.8
	C309.3,92.9,256.3,57.5,201.8,64.8z"/>
<path id="path9640-6" inkscape:connector-curvature="0" sodipodi:nodetypes="cc" fill="#4C3A1D" stroke="#000000" stroke-width="4" stroke-linecap="round" stroke-linejoin="round" stroke-miterlimit="10.2857" d="
	M203.5,64.6c0.4,14.4-0.6,24-0.6,24"/>
<path id="path4225-2-8" inkscape:connector-curvature="0" sodipodi:nodetypes="cscc" fill="#4C3A1D" stroke="#000000" stroke-width="4" stroke-linecap="round" stroke-linejoin="round" stroke-miterlimit="10.2857" d="
	M203.9,94.7c0.1-5.1,3.2-19.2-4.3-18.9c-166.3,5.8-97,201.8-95,200.6C103.9,276.3,53.4,91.8,203.9,94.7z"/>
<path id="path6897-9-9" inkscape:connector-curvature="0" sodipodi:nodetypes="cccc" fill="#4C3A1D" stroke="#000000" stroke-width="4" stroke-linejoin="round" stroke-miterlimit="10.2857" d="
	M203.8,94.7c137.9-0.1,93.7,172.6,93.7,172.5c12.7-23.3,44.6-192-94.1-191.6C203.4,81,204,88.3,203.8,94.7z"/>
</svg>
