<?xml version="1.0" encoding="utf-8"?>
<!-- Generator: Adobe Illustrator 17.1.0, SVG Export Plug-In . SVG Version: 6.00 Build 0)  -->
<!DOCTYPE svg PUBLIC "-//W3C//DTD SVG 1.1//EN" "http://www.w3.org/Graphics/SVG/1.1/DTD/svg11.dtd">
<svg version="1.1" id="Layer_3" xmlns="http://www.w3.org/2000/svg" xmlns:xlink="http://www.w3.org/1999/xlink" x="0px" y="0px"
	 viewBox="0 0 400 400" enable-background="new 0 0 400 400" xml:space="preserve">
<g id="fill::tousled">
	<path fill="#675246" stroke="#201912" stroke-width="6" stroke-linecap="round" stroke-linejoin="round" d="M275.8,96.4
		c0,0-23.5-19.6-33.8-20.3c-10.5-0.7-18.9,9.9-23.2,0.4c-3.8-8.4,19.6-23,31.8-16.2C264.6,68.1,275.8,96.4,275.8,96.4z"/>
	<path fill="#675246" stroke="#201912" stroke-width="4" stroke-linecap="round" stroke-linejoin="round" d="M266.5,66.6
		c0,0-9.9-3.3-23.5-0.1c-13.6,3.2-13.2,13-14.8,6.2s-0.1-10.5,13.5-13.7C255.2,55.8,266.5,66.6,266.5,66.6z"/>
	<path fill="#675246" stroke="#201912" stroke-width="6" stroke-linecap="round" stroke-linejoin="round" d="M107.6,93.8
		c0,0,3.5-11.7,19.5-24.3c23.5-18.6,31.3-9.4,35.7-3.1s-2.7-0.6-29.3,13.3C110.9,91.6,107.6,93.8,107.6,93.8z"/>
	<path fill="#675246" stroke="#201912" stroke-width="6" stroke-linecap="round" stroke-linejoin="round" d="M253,94.8
		c0,0-2.4-5.6-13.7-11.3c-11.4-5.7-19.7-0.8-16.5-7.1c3.1-6.3,7.1-9.5,18.5-3.8C252.6,78.3,253,94.8,253,94.8z"/>
	<path fill="#675246" stroke="#201912" stroke-width="6" stroke-linecap="round" stroke-linejoin="round" d="M122.8,86.2
		c0,0,46.6,5.4,75.2-1s38.2-21.1,36.6-29.2s-37.1-12.7-65.8-6.3S122.8,86.2,122.8,86.2z"/>
	<path fill="#675246" stroke="#201912" stroke-width="6" stroke-linecap="round" stroke-linejoin="round" d="M136.3,87.5
		c0,0,14.2-9,30.9-8.2c14.9,0.7,15.9,7,24.7,4.6c13.2-3.6-2.1-18-17-18.8C148.2,63.8,136.3,87.5,136.3,87.5z"/>
	<path fill="#675246" stroke="#201912" stroke-width="6" stroke-linecap="round" stroke-linejoin="round" d="M157.1,67.9
		c0,0,17.6-2.8,29.8,4C199,78.7,194,86.4,203,82.3c9.4-4.2,3.3-23.8-10.4-26.6C173.1,51.7,157.1,67.9,157.1,67.9z"/>
	<path fill="#675246" stroke="#201912" stroke-width="6" stroke-linecap="round" stroke-linejoin="round" d="M164.9,45.8
		c0,0,29.9,6.6,36.8,14.2c7,7.9,3.8,21,13.9,18.6c8.9-2.1,6.2-29.6-6.7-35.1C194.2,37.2,164.9,45.8,164.9,45.8z"/>
</g>
</svg>
