<?xml version="1.0" encoding="utf-8"?>
<!-- Generator: Adobe Illustrator 17.1.0, SVG Export Plug-In . SVG Version: 6.00 Build 0)  -->
<!DOCTYPE svg PUBLIC "-//W3C//DTD SVG 1.1//EN" "http://www.w3.org/Graphics/SVG/1.1/DTD/svg11.dtd">
<svg version="1.1" id="Layer_3" xmlns="http://www.w3.org/2000/svg" xmlns:xlink="http://www.w3.org/1999/xlink" x="0px" y="0px"
	 viewBox="0 0 400 400" enable-background="new 0 0 400 400" xml:space="preserve">
<path id="fill::tyrolean:1" fill="#5E603B" stroke="#000000" stroke-width="10.7364" d="M278.9,89.7c0,0-60.4-76.5-103.3-83.2
	c-24.5-3.8-36.2,68.4-36.2,68.4"/>
<path id="fill::feather_x26__x26_feather-f:darker::stroke::outline" fill="#FF4500" stroke="#7F1E00" stroke-width="6" d="
	M168.7,76.2l8.4-8.3c-2.4-2.4-59.6-59.2-97.2-59.2c-2.8,0-5.2,1.5-6.3,3.9C72.3,15,70.5,19,86,37.5l1.6,1.9l2.5,0.2
	c0.5,0,47.4,3.5,68.8,37.2l5-3.2l1.8-0.3C166.8,74.3,167.8,75.3,168.7,76.2z"/>
<polygon opacity="0.5" fill="#030100" points="231.9,40 148.7,67 223.9,92.4 268.1,75.9 "/>
<path id="fill::tyrolean:2" fill="#5E603B" stroke="#000000" stroke-width="10.7364" stroke-linecap="round" stroke-linejoin="round" d="
	M327.2,91.7c0,0-95.3,36.3-221.4,7.6c0,0-4-25.7-30.9-37.1C74.9,62.2,176.4,46.7,327.2,91.7z"/>
</svg>
