<?xml version="1.0" encoding="utf-8"?>
<!-- Generator: Adobe Illustrator 17.1.0, SVG Export Plug-In . SVG Version: 6.00 Build 0)  -->
<!DOCTYPE svg PUBLIC "-//W3C//DTD SVG 1.1//EN" "http://www.w3.org/Graphics/SVG/1.1/DTD/svg11.dtd">
<svg version="1.1" id="Layer_2" xmlns="http://www.w3.org/2000/svg" xmlns:xlink="http://www.w3.org/1999/xlink" x="0px" y="0px"
	 viewBox="0 0 400 400" enable-background="new 0 0 400 400" xml:space="preserve">
<polygon fill="#B3B3B3" stroke="#000000" stroke-width="11.0509" stroke-linejoin="round" points="212.3,177.9 200.1,184.7 
	187.8,177.8 190.7,108.2 208.9,108.2 "/>
<path fill="#808080" stroke="#000000" stroke-width="11.2073" stroke-linejoin="round" d="M343.2,128.4
	c0-51.8-113.7-107.7-143.3-108.1C170.4,20.7,56.9,76.6,56.9,128.4c0,0-1.5,56.4,3.8,66.6s35.5,25.2,35.5,25.2l20.2-31.5
	c0,0,0.7-40.4,0.7-63.8c27.6,3.4,57.4,4.9,82.9,5.3c25.5-0.4,55.5-1.9,83-5.3c0,23.4,0.9,63.8,0.9,63.8l20.1,31.5
	c0,0,30.1-15,35.4-25.2C344.8,184.8,343.2,128.4,343.2,128.4z"/>
<g id="interior">
	<defs>
		<path id="SVGID_1_" d="M199.9,26c-13.1,0.2-50.2,13.2-82.5,33.9c-36.8,23.5-60.8,48.5-60.8,68.6c0,0,0,0.1,0,0.2
			c0,27,3.2,58.2,6.1,63.8c2.7,5.2,18.6,14.3,30,20.5l17.3-25.8c0.1-7.7,1.1-41.7,1.1-62.2c0-1.6,0.9-3.1,2.1-4.2
			c1.2-1.1,2.9-1.6,4.5-1.4c29.7,3.7,61.1,4.9,82.2,5.3c21.2-0.4,52.7-1.6,82.4-5.3c1.6-0.2,3.2,0.3,4.4,1.4
			c1.2,1.1,1.9,2.6,1.9,4.2c0,20.5,0.7,54.5,0.9,62.1l16.5,25.8c11.5-6.1,28.9-15.3,31.7-20.5c2.9-5.6,6.3-36.8,6.3-63.8
			c0-0.1,0-0.1,0-0.2c0-20.1-24.3-45.1-61.1-68.6C250.4,39.2,213.1,26.2,199.9,26z"/>
	</defs>
	<clipPath id="SVGID_2_">
		<use xlink:href="#SVGID_1_"  overflow="visible"/>
	</clipPath>
	<polygon clip-path="url(#SVGID_2_)" fill="#999999" stroke="#000000" stroke-width="11.0509" stroke-linecap="round" points="
		217.2,130.3 181.6,130.3 188.7,8.8 210.1,8.8 	"/>
	<path clip-path="url(#SVGID_2_)" fill="none" stroke="#999999" stroke-width="17.3203" stroke-linecap="round" d="M62.6,105.7
		c0,0,147,30.6,280.7-4.6"/>
	<path clip-path="url(#SVGID_2_)" fill="none" stroke="#000000" stroke-width="11.2073" stroke-linecap="round" d="M324.6,91
		c-121.5,30.5-251.4,0.9-251.4,0.9"/>
	<path clip-path="url(#SVGID_2_)" fill="none" stroke="#000000" stroke-width="11.2073" stroke-linecap="round" d="M62.8,117.3
		c0,0,146.9,29.7,280.7-3"/>
</g>
<circle fill="#333333" cx="82.9" cy="107.2" r="4.1"/>
<circle fill="#333333" cx="137.9" cy="114.3" r="4.1"/>
<circle fill="#333333" cx="200.1" cy="117.4" r="4.1"/>
<circle fill="#333333" cx="257.1" cy="115.4" r="4.1"/>
<circle fill="#333333" cx="318.2" cy="106.2" r="4.1"/>
</svg>
