<?xml version="1.0" encoding="utf-8"?>
<!-- Generator: Adobe Illustrator 17.1.0, SVG Export Plug-In . SVG Version: 6.00 Build 0)  -->
<!DOCTYPE svg PUBLIC "-//W3C//DTD SVG 1.1//EN" "http://www.w3.org/Graphics/SVG/1.1/DTD/svg11.dtd">
<svg version="1.1" id="Layer_2" xmlns="http://www.w3.org/2000/svg" xmlns:xlink="http://www.w3.org/1999/xlink" x="0px" y="0px"
	 viewBox="0 0 400 400" enable-background="new 0 0 400 400" xml:space="preserve">
<path id="fill::mask-base" fill="#F2D821" stroke="#000000" stroke-width="11" stroke-miterlimit="10" d="M201,179.7l11.5-2.8
	l15.7-59.2l36.5-21.8c0,0,4.1-5.5,11.7-7C238.1,65.5,148.2,67,120.9,90.2c9.1,12.8,17.6,18.6,17.6,18.6l40.3,6.8l7.1,60.8L201,179.7
	z"/>
<g id="fill::mask-wings">
	<path fill="#0576B0" stroke="#000000" stroke-width="10.914" stroke-miterlimit="10" d="M191.8,177.5l-9.5-62.8
		c0,0-73.7-10.9-79.1-95.5c0,0-54.6,83.2-39.6,105s15,21.8,15,21.8l0.5,4.5c-1.8,3.7-2.6,9-1.4,16.9c3.9,26.3,38.6,42.1,44.5,44.5
		c-5.9-2.5-2.5-28.5-1.3-37.2C151.6,177.8,189.4,180.7,191.8,177.5z M155.7,124.3c8.7,0,15.7,7,15.7,15.7c0,8.7-7,15.7-15.7,15.7
		c-8.7,0-15.7-7-15.7-15.7C140,131.3,147,124.3,155.7,124.3z"/>
	<path fill="#0576B0" stroke="#000000" stroke-width="10.914" stroke-miterlimit="10" d="M338.4,124.3c15-21.8-39.6-105-39.6-105
		c-3.3,78.4-79.1,95.5-79.1,95.5l-9.5,62.8c2.4,3.2,40.2,0.3,70.9-2.7c1.3,8.6,4.7,34.6-1.3,37.2c5.9-2.5,40.6-18.2,44.5-44.5
		c1.1-7.8,0.4-13.2-1.4-16.9l0.5-4.5C323.4,146.1,323.4,146.1,338.4,124.3z M246.4,154.3c-8.3,0-15-6.7-15-15c0-8.3,6.7-15,15-15
		s15,6.7,15,15C261.4,147.6,254.7,154.3,246.4,154.3z"/>
</g>
<g>
	<circle cx="122.9" cy="212.5" r="5.6"/>
	<circle cx="280.1" cy="212.5" r="5.6"/>
</g>
</svg>
