<?xml version="1.0" encoding="utf-8"?>
<!-- Generator: Adobe Illustrator 17.1.0, SVG Export Plug-In . SVG Version: 6.00 Build 0)  -->
<!DOCTYPE svg PUBLIC "-//W3C//DTD SVG 1.1//EN" "http://www.w3.org/Graphics/SVG/1.1/DTD/svg11.dtd">
<svg version="1.1" id="head" xmlns="http://www.w3.org/2000/svg" xmlns:xlink="http://www.w3.org/1999/xlink" x="0px" y="0px"
	 viewBox="0 0 400 400" enable-background="new 0 0 400 400" xml:space="preserve">
<ellipse fill="#FFFFFF" stroke="#000000" stroke-width="11" stroke-linejoin="round" cx="245.151" cy="284.273" rx="44.109" ry="53.243"/>
<ellipse fill="#FFFFFF" stroke="#000000" stroke-width="11" stroke-linejoin="round" cx="154.849" cy="284.273" rx="44.109" ry="53.243"/>
<path fill="#FFFFFF" stroke="#000000" stroke-width="11" stroke-linejoin="round" d="M175.906,392.945
	c0.554-1.881,0.854-3.843,0.854-5.864c0-13.762-13.609-24.919-30.396-24.919s-30.396,11.156-30.396,24.919
	c0,2.021,0.301,3.982,0.854,5.864H175.906z"/>
<path fill="#FFFFFF" stroke="#000000" stroke-width="11" stroke-linejoin="round" d="M282.349,392.945
	c0.554-1.881,0.854-3.843,0.854-5.864c0-13.762-13.609-24.919-30.396-24.919s-30.396,11.156-30.396,24.919
	c0,2.021,0.301,3.982,0.854,5.864H282.349z"/>
<path fill="#FFFFFF" stroke="#000000" stroke-width="11" stroke-linejoin="round" d="M184.935,392.945h30.13
	c26.511-13.875,46.128-63.515,46.128-122.632c0-69.864-27.397-126.499-61.193-126.499s-61.193,56.636-61.193,126.499
	C138.807,329.43,158.424,379.07,184.935,392.945z"/>
<line fill="#FFFFFF" stroke="#000000" stroke-width="11" stroke-linejoin="round" x1="167.833" y1="392.945" x2="232.167" y2="392.945"/>
</svg>
