<?xml version="1.0" encoding="utf-8"?>
<!-- Generator: Adobe Illustrator 17.1.0, SVG Export Plug-In . SVG Version: 6.00 Build 0)  -->
<!DOCTYPE svg PUBLIC "-//W3C//DTD SVG 1.1//EN" "http://www.w3.org/Graphics/SVG/1.1/DTD/svg11.dtd">
<svg version="1.1" id="accent-glasses" xmlns="http://www.w3.org/2000/svg" xmlns:xlink="http://www.w3.org/1999/xlink" x="0px"
	 y="0px" viewBox="0 0 400 400" enable-background="new 0 0 400 400" xml:space="preserve">
<path id="fill::accent-glasses" d="M291.5,99.3c-2.1-0.3-3.9,1.2-4.2,3.2l-3.2,24.4c-8.2-4.4-23.4-4.4-37.4-4.4h-1.2
	c-17.5,0-32.6,7.5-36.5,17.2h-16.7c-3.9-9.7-19-17.2-36.5-17.2h-1.2c-14,0-29.3,0-37.5,4.4l-4.1-28c-0.3-2-2.2-3.5-4.3-3.2
	c-2,0.3-3.5,2.2-3.2,4.3l5.5,37.7c0,0.1,0.1,0.2,0.1,0.4c1.5,15,21.3,28.7,42.3,28.7c9.5,0,19.3-2.2,26.8-5.9
	c6.6-3.3,10.8-7.5,12.4-12.2h16.2c3.7,11,22,18.1,39.2,18.1c20.6,0,40.2-13.3,42.2-28.1c0-0.1,0.1-0.2,0.1-0.3l4.6-35
	C295,101.5,293.5,99.6,291.5,99.3z M153.2,159.4c-16.9,0-34.9-11.8-34.9-23c0-6.2,24.3-6.2,36-6.2h1.2c16.6,0,30,8,30,14.5
	C185.7,151.4,171.2,159.4,153.2,159.4z M247.9,159.4c-18,0-32.4-8.1-32.4-14.7c0-6.6,13.4-14.5,30-14.5h1.2c11.7,0,36,0,36,6.2
	C282.8,147.6,264.8,159.4,247.9,159.4z"/>
</svg>
