<?xml version="1.0" encoding="utf-8"?>
<!-- Generator: Adobe Illustrator 17.1.0, SVG Export Plug-In . SVG Version: 6.00 Build 0)  -->
<!DOCTYPE svg PUBLIC "-//W3C//DTD SVG 1.1//EN" "http://www.w3.org/Graphics/SVG/1.1/DTD/svg11.dtd">
<svg version="1.1" id="accent-glasses" xmlns="http://www.w3.org/2000/svg" xmlns:xlink="http://www.w3.org/1999/xlink" x="0px"
	 y="0px" viewBox="0 0 400 400" enable-background="new 0 0 400 400" xml:space="preserve">
<g id="fill::accent-glasses">
	<path fill="#030303" d="M154.7,122.6c-0.1,0-0.2,0-0.3,0c-4.6,0-9.4,0-14.1,0.2c-3.5,0.1-6.9,0.3-10.2,0.7
		c-2.4,0.3-4.7,0.7-6.8,1.2c-1.6,0.4-3.1,0.9-4.5,1.4c-0.7,0.3-1.3,0.6-1.9,0.9l1.4,9.7c0.3,2-1.1,4-3.2,4.3c-0.2,0-0.4,0-0.5,0
		c-1.7,0-3.2-1.2-3.6-2.8c0.4,3.6,1.8,7,3.9,10.1c1.8,2.7,4.2,5.2,6.9,7.4c4.1,3.3,9,6.1,14.4,8c5.4,1.9,11.2,3.1,17.1,3.1
		c9.9,0,19.4-2.2,26.8-5.9c3.7-1.9,6.8-4.1,9.2-6.8c1.2-1.3,2.2-2.8,2.9-4.4c0.1-0.3,0.3-0.7,0.4-1h-1.9c-2.4,0-4.3-1.8-4.5-4.1
		h-0.4c0,0.7-0.1,1.4-0.5,2.1c-0.6,1.3-1.8,2.9-3.7,4.4c-2.8,2.3-7,4.4-11.9,5.8c-4.9,1.5-10.6,2.4-16.3,2.4c0,0,0,0,0,0
		c0,0,0,0,0,0c-4.4,0-8.8-0.8-13-2.1c-6.3-2-11.9-5.4-15.9-9.2c-2-1.9-3.5-3.9-4.5-5.9c-1-2-1.5-3.9-1.5-5.8c0-0.6,0.1-0.8,0.3-1.2
		c0.2-0.3,0.6-0.7,1.2-1.1c1.1-0.7,3-1.5,5.3-2.1c3.6-0.9,8.3-1.3,13.3-1.6c5-0.2,10.4-0.3,15.6-0.3c0.1,0,0.2,0,0.2,0
		c0.4,0,0.8,0,1.2,0c0,0,0,0,0.1,0c8.3,0,16.2,2.1,21.7,5.1c2.8,1.5,4.9,3.2,6.3,4.9c0.7,0.8,1.2,1.6,1.5,2.4
		c0.3,0.8,0.4,1.4,0.4,2.1h0.4c0-0.1,0-0.2,0-0.4c0-2.5,2-4.5,4.5-4.5h1.7c0,0,0-0.1,0-0.1c-1.1-2.7-3-5.1-5.3-7.1
		c-3.5-3.1-8.2-5.5-13.5-7.2c-5.3-1.7-11.4-2.7-17.6-2.7C155.3,122.6,155,122.6,154.7,122.6"/>
	<path fill="#030303" d="M286.4,141.8c-0.2,0-0.3,0-0.5,0c-2.1-0.3-3.5-2.2-3.2-4.2l1.4-10.5c-1.9-1-4.1-1.8-6.5-2.3
		c-4.4-1-9.4-1.5-14.7-1.8c-5.3-0.3-10.9-0.3-16.2-0.3c-0.1,0-0.2,0-0.3,0c-0.3,0-0.7,0-1,0c-9.6,0-18.5,2.3-25.4,6
		c-3.4,1.9-6.3,4.1-8.5,6.8c-1.1,1.3-2,2.8-2.6,4.3c0,0,0,0.1,0,0.1h2c2.5,0,4.5,2,4.5,4.5c0,0.1,0,0.2,0,0.4h0.1
		c0-0.7,0.1-1.4,0.4-2.1c0.5-1.3,1.6-2.8,3.3-4.3c2.5-2.2,6.3-4.3,10.9-5.8c4.6-1.5,9.8-2.4,15.3-2.4c0,0,0,0,0,0c0.4,0,0.8,0,1.2,0
		c0,0,0.1,0,0.1,0c4.6,0,9.2,0,13.7,0.2c3.4,0.1,6.6,0.3,9.5,0.7c2.2,0.3,4.2,0.6,5.9,1c1.3,0.3,2.4,0.7,3.4,1.1
		c1.4,0.6,2.3,1.3,2.8,1.8c0.2,0.3,0.4,0.5,0.4,0.7c0.1,0.2,0.1,0.5,0.1,0.8c0,2.5-0.9,5.1-2.7,7.8c-1.3,2-3.2,4-5.4,5.8
		c-3.4,2.7-7.6,5.1-12.2,6.8c-4.6,1.7-9.6,2.6-14.5,2.6c0,0,0,0,0,0c0,0,0,0-0.1,0c-8.7,0-17.3-2.1-23.3-5.1c-3-1.5-5.4-3.3-6.9-5
		c-0.8-0.9-1.3-1.7-1.6-2.4c-0.3-0.8-0.5-1.5-0.5-2.1h-0.1c-0.2,2.3-2.1,4.1-4.5,4.1h-2.2c0.1,0.3,0.2,0.7,0.4,1
		c1.2,2.8,3.3,5.2,5.8,7.2c3.8,3.1,8.8,5.5,14.5,7.2c5.7,1.7,12,2.7,18.5,2.7c5.2,0,10.4-0.9,15.3-2.5c7.3-2.4,13.9-6.2,18.8-11
		c2.5-2.4,4.5-5,6-7.9c1.1-2.1,1.8-4.4,2.2-6.7C289.7,140.6,288.2,141.8,286.4,141.8z"/>
	<path d="M118.3,136.8l-1.4-9.7l-4.1-28c-0.3-1.9-1.9-3.2-3.7-3.2c-0.2,0-0.4,0-0.5,0c-2,0.3-3.5,2.2-3.2,4.3l5.5,37.7
		c0,0.1,0,0.3,0.1,0.4c0.4,1.7,1.9,2.8,3.6,2.8c0.2,0,0.4,0,0.5,0C117.2,140.7,118.6,138.8,118.3,136.8z"/>
	<path d="M291.5,99.3c-0.2,0-0.3,0-0.5,0c-1.9,0-3.5,1.4-3.7,3.3l-3.2,24.4l-1.4,10.5c-0.3,2.1,1.2,3.9,3.2,4.2c0.2,0,0.3,0,0.5,0
		c1.7,0,3.2-1.2,3.6-2.9c0-0.1,0.1-0.2,0.1-0.4l4.6-35C295,101.5,293.5,99.6,291.5,99.3z"/>
	<path d="M210.9,139.8h-2h-16.7h-1.7c-2.5,0-4.5,2-4.5,4.5c0,0.1,0,0.2,0,0.4c0.2,2.3,2.1,4.1,4.5,4.1h1.9h16.2h2.2
		c2.4,0,4.3-1.8,4.5-4.1v0c0-0.1,0-0.2,0-0.4C215.4,141.8,213.4,139.8,210.9,139.8z"/>
</g>
</svg>
