<?xml version="1.0" encoding="utf-8"?>
<!-- Generator: Adobe Illustrator 17.1.0, SVG Export Plug-In . SVG Version: 6.00 Build 0)  -->
<!DOCTYPE svg PUBLIC "-//W3C//DTD SVG 1.1//EN" "http://www.w3.org/Graphics/SVG/1.1/DTD/svg11.dtd">
<svg version="1.1" id="deal-with-it" xmlns="http://www.w3.org/2000/svg" xmlns:xlink="http://www.w3.org/1999/xlink" x="0px"
	 y="0px" viewBox="0 0 400 400" enable-background="new 0 0 400 400" xml:space="preserve">
<g>
	<rect x="92.9" y="118.7" fill="#231F20" width="214.5" height="8.2"/>
	<rect x="92.9" y="127" fill="#231F20" width="99" height="8.2"/>
	<rect x="101.1" y="135.2" fill="#231F20" width="90.7" height="8.2"/>
	<rect x="109.4" y="143.5" fill="#231F20" width="74.2" height="8.2"/>
	<rect x="117.6" y="151.7" fill="#231F20" width="57.7" height="8.2"/>
	<rect x="208.4" y="127" fill="#231F20" width="99" height="8.2"/>
	<rect x="208.4" y="135.2" fill="#231F20" width="90.7" height="8.2"/>
	<rect x="216.6" y="143.5" fill="#231F20" width="74.2" height="8.2"/>
	<rect x="224.9" y="151.7" fill="#231F20" width="57.7" height="8.2"/>
	<rect x="125.9" y="143.5" fill="#606162" width="8.2" height="8.2"/>
	<rect x="117.6" y="135.2" fill="#606162" width="8.2" height="8.2"/>
	<rect x="109" y="126" fill="#606162" width="9" height="9"/>
	<rect x="142.4" y="143.5" fill="#606162" width="8.2" height="8.2"/>
	<rect x="134.1" y="135.2" fill="#606162" width="8.2" height="8.2"/>
	<rect x="127" y="126" fill="#606162" width="7" height="9"/>
	<rect x="233.6" y="143.5" fill="#606162" width="8.2" height="8.2"/>
	<rect x="225.4" y="135.2" fill="#606162" width="8.2" height="8.2"/>
	<rect x="218" y="126" fill="#606162" width="8" height="9"/>
	<rect x="250.1" y="143.5" fill="#606162" width="8.2" height="8.2"/>
	<rect x="241.9" y="135.2" fill="#606162" width="8.2" height="8.2"/>
	<rect x="233" y="126" fill="#606162" width="9" height="9"/>
</g>
</svg>
