<?xml version="1.0" encoding="utf-8"?>
<!-- Generator: Adobe Illustrator 17.1.0, SVG Export Plug-In . SVG Version: 6.00 Build 0)  -->
<!DOCTYPE svg PUBLIC "-//W3C//DTD SVG 1.1//EN" "http://www.w3.org/Graphics/SVG/1.1/DTD/svg11.dtd">
<svg version="1.1" id="deal-with-it" xmlns="http://www.w3.org/2000/svg" xmlns:xlink="http://www.w3.org/1999/xlink" x="0px"
	 y="0px" viewBox="0 0 400 400" enable-background="new 0 0 400 400" xml:space="preserve">
<polygon fill="#231F20" points="92.9,118.8 92.9,127 92.9,135.2 101.1,135.2 101.1,143.5 109.4,143.5 109.4,151.7 117.6,151.7 
	117.6,160 175.4,160 175.4,151.7 183.6,151.7 183.6,143.5 191.9,143.5 191.9,135.2 191.9,127 208.4,127 208.4,135.2 208.4,143.5 
	216.6,143.5 216.6,151.7 224.9,151.7 224.9,160 282.6,160 282.6,151.7 290.9,151.7 290.9,143.5 299.1,143.5 299.1,135.2 
	307.4,135.2 307.4,127 307.4,118.8 "/>
<g id="Layer_3">
	<rect x="117.6" y="135.2" fill="#606162" width="8.2" height="8.2"/>
	<rect x="125.9" y="143.5" fill="#606162" width="8.2" height="8.2"/>
	<rect x="109.4" y="127" fill="#606162" width="8.2" height="8.2"/>
	<rect x="134.1" y="135.2" fill="#606162" width="8.2" height="8.2"/>
	<rect x="142.4" y="143.5" fill="#606162" width="8.2" height="8.2"/>
	<rect x="125.9" y="127" fill="#606162" width="8.2" height="8.2"/>
	<rect x="226.2" y="135.2" fill="#606162" width="8.2" height="8.2"/>
	<rect x="234.5" y="143.5" fill="#606162" width="8.2" height="8.2"/>
	<rect x="218" y="127" fill="#606162" width="8.2" height="8.2"/>
	<rect x="242.7" y="135.2" fill="#606162" width="8.2" height="8.2"/>
	<rect x="251" y="143.5" fill="#606162" width="8.2" height="8.2"/>
	<rect x="234.5" y="127" fill="#606162" width="8.2" height="8.2"/>
</g>
</svg>
