<?xml version="1.0" encoding="utf-8"?>
<!-- Generator: Adobe Illustrator 17.1.0, SVG Export Plug-In . SVG Version: 6.00 Build 0)  -->
<!DOCTYPE svg PUBLIC "-//W3C//DTD SVG 1.1//EN" "http://www.w3.org/Graphics/SVG/1.1/DTD/svg11.dtd">
<svg version="1.1" id="Layer_3" xmlns="http://www.w3.org/2000/svg" xmlns:xlink="http://www.w3.org/1999/xlink" x="0px" y="0px"
	 viewBox="0 0 400 400" enable-background="new 0 0 400 400" xml:space="preserve">
<path id="fill::disguise_x26__x26_disguise-f:darker::stroke::disguise-outline" fill="#4A2510" stroke="#1E0F07" stroke-width="6" d="
	M222.5,217.8c-0.9,0-1.8-0.1-2.6-0.2c-5.8-0.9-9.6-4-11.4-6c-1.8,0.4-4.7,0.9-7.5,0.9c-0.5,0-1,0-1.5,0c-0.5,0-1,0-1.5,0
	c-2.8,0-5.7-0.5-7.5-0.9c-1.9,2-5.6,5.1-11.4,6c-0.8,0.1-1.7,0.2-2.6,0.2c-5.5,0-10.4-2.5-12.7-4c-4.4,1.8-8.2,3.3-12.3,3.3
	c-3.5,0-6.9-1-10.9-3.3c-7.1-4-8.5-11.5-8.2-16.5c-2.4-1-6.2-3-10.5-6.8c-5.2-4.6-6.7-13.2-4.3-24c0.4-1.9,1.9-3.1,3.8-3.1
	c2,0,4.2,1.5,7.9,3.9c3.2,2.1,7.1,4.7,11.6,6.8c4.6,2.1,11.2,3.1,20.2,3.1c1.7,0,3.2,0,4.5-0.1c0.9,0,1.7,0,2.3,0
	c0.9,0,1.4,0,1.8,0.1c1.5,0.3,2.7,1.3,4.5,2.9c2.4,2,5.6,4.8,10.7,7c2,0.9,6.2,2,14.7,2c8.5-0.1,12.7-1.2,14.7-2
	c5.1-2.3,8.4-5,10.7-7c1.8-1.5,3-2.6,4.5-2.9c0.4-0.1,0.9-0.1,1.8-0.1c0.6,0,1.4,0,2.3,0c1.3,0,2.8,0.1,4.5,0.1c9,0,15.6-1,20.2-3.1
	c4.5-2,8.4-4.6,11.6-6.8c3.6-2.4,5.8-3.9,7.9-3.9c1.9,0,3.4,1.2,3.8,3.1c2.4,10.8,0.9,19.4-4.3,24c-4.3,3.8-8.1,5.8-10.5,6.8
	c0.3,5-1.1,12.5-8.2,16.5c-3.9,2.2-7.4,3.3-10.9,3.3h0c-4.2,0-8-1.5-12.3-3.3C232.9,215.3,228,217.8,222.5,217.8z"/>
<g>
	<path fill="#6D5A4B" d="M288.5,137.9l-1.2-43.6c-0.1-2.2-1.9-4-4.1-3.9c-2.2,0.1-4,1.9-3.9,4.1l1.2,43.6c0.1,2.2,1.9,4,4.1,3.9
		C286.8,142,288.5,140.1,288.5,137.9"/>
	<path fill="#6D5A4B" d="M117.4,138.2l1.2-42.6c0.1-2.2-1.7-4-3.9-4.1c-2.2-0.1-4,1.7-4.1,3.9l-1.2,42.6c-0.1,2.2,1.7,4,3.9,4.1
		C115.5,142.1,117.4,140.4,117.4,138.2"/>
	<g>
		<path fill="#6D5A4B" d="M192.9,131.7c-1.5-3.2-3.9-5.8-6.8-7.9c-4.4-3.2-9.9-5.6-16.1-7.2c-6.2-1.6-13-2.4-19.7-2.4
			c-9.1,0-18.1,1.5-25.6,5c-3.7,1.8-7.1,4-9.8,7c-2.7,2.9-4.6,6.6-5.4,10.7l-0.1,0.4l0,0.5c0.1,5.4,1.7,10.4,4.4,14.6
			c2,3.1,4.5,5.9,7.4,8.2c4.3,3.5,9.5,6.1,15.1,7.8c5.5,1.7,11.5,2.6,17.3,2.6c4.9,0,9.8-0.6,14.5-1.9c7-1.9,13.4-5.4,18.2-10.6
			c2.4-2.6,4.4-5.7,5.8-9.2c1.4-3.5,2.2-7.3,2.3-11.5l0-0.1l0-0.1C194.2,135.4,193.7,133.5,192.9,131.7z M183.4,148.7
			c-1.3,2.3-3,4.4-5,6.1c-3,2.6-6.8,4.7-11.1,6c-4.3,1.4-9,2-13.8,2c-4.5,0-9.1-0.6-13.4-1.8c-6.4-1.8-12.1-4.8-16.2-8.8
			c-2-2-3.6-4.2-4.7-6.7c-1.1-2.3-1.7-4.9-1.8-7.7c0.6-2.5,1.7-4.6,3.4-6.4c2.7-3,6.9-5.4,12.1-7c5.2-1.6,11.2-2.4,17.4-2.4
			c4.6,0,9.3,0.4,13.7,1.3c6.6,1.2,12.4,3.4,16.4,6.1c2,1.3,3.5,2.7,4.4,4.1c0.9,1.4,1.4,2.6,1.4,4
			C186.2,142,185.1,145.6,183.4,148.7z"/>
		<path fill="#6D5A4B" d="M288.5,137.5c-0.1-2.1-0.5-4-1.4-5.8c-1.5-3.2-3.9-5.8-6.8-7.9c-4.4-3.2-9.9-5.6-16.1-7.2
			c-6.2-1.6-13-2.4-19.7-2.4c-9.1,0-18.1,1.5-25.6,5c-3.7,1.8-7.1,4-9.8,7c-2.7,2.9-4.6,6.6-5.4,10.7l-0.1,0.4l0,0.5
			c0.1,5.4,1.7,10.4,4.4,14.6c2,3.1,4.5,5.9,7.4,8.2c4.3,3.5,9.5,6.1,15.1,7.8c5.5,1.7,11.5,2.6,17.3,2.6c4.9,0,9.8-0.6,14.5-1.9
			c7-1.9,13.4-5.4,18.2-10.6c2.4-2.6,4.4-5.7,5.8-9.2c1.4-3.5,2.2-7.3,2.3-11.5l0-0.1L288.5,137.5z M277.6,148.7
			c-1.3,2.3-3,4.4-5,6.1c-3,2.6-6.8,4.7-11.1,6c-4.3,1.4-9,2-13.8,2c-4.5,0-9.1-0.6-13.4-1.8c-6.4-1.8-12.1-4.8-16.2-8.8
			c-2-2-3.6-4.2-4.7-6.7c-1.1-2.3-1.7-4.9-1.8-7.7c0.6-2.5,1.7-4.6,3.4-6.4c2.7-3,6.9-5.4,12.1-7c5.2-1.6,11.2-2.4,17.4-2.4
			c4.6,0,9.3,0.4,13.7,1.3c6.6,1.2,12.4,3.4,16.4,6.1c2,1.3,3.5,2.7,4.4,4.1c0.9,1.4,1.4,2.6,1.4,4
			C280.3,142,279.3,145.6,277.6,148.7z"/>
	</g>
	<path fill="#6D5A4B" d="M189.5,135v12c6.5-2.8,12.7-2.2,18.8,0v-12C202.3,137.4,196.3,136.8,189.5,135z"/>
</g>
</svg>
