<?xml version="1.0" encoding="utf-8"?>
<!-- Generator: Adobe Illustrator 17.1.0, SVG Export Plug-In . SVG Version: 6.00 Build 0)  -->
<!DOCTYPE svg PUBLIC "-//W3C//DTD SVG 1.1//EN" "http://www.w3.org/Graphics/SVG/1.1/DTD/svg11.dtd">
<svg version="1.1" id="Layer_3" xmlns="http://www.w3.org/2000/svg" xmlns:xlink="http://www.w3.org/1999/xlink" x="0px" y="0px"
	 viewBox="0 0 400 400" enable-background="new 0 0 400 400" xml:space="preserve">
<g id="fill::eye-patch">
	<path fill="#231F20" d="M219.3,116.2V140c0,13.1,10.7,23.8,23.8,23.8c13.1,0,23.8-10.7,23.8-23.8v-23.8H219.3z"/>
	<path fill="#231F20" d="M118.5,100c0.1,0,22.4,6.6,52.4,13.2c15,3.3,31.9,6.6,48.9,9.1c17,2.5,34.2,4.1,49.7,4.1
		c7.4,0,14.5-0.4,21-1.3c6.5-0.9,12.5-2.2,17.9-4.3l-3.6-9.3c-4.4,1.7-9.6,2.9-15.6,3.7c-6,0.8-12.6,1.2-19.7,1.2
		c-14.8,0-31.5-1.6-48.2-4c-25.1-3.7-50.1-9.2-68.8-13.7c-9.4-2.3-17.1-4.4-22.6-5.8c-2.7-0.7-4.9-1.3-6.3-1.8
		c-0.7-0.2-1.3-0.4-1.7-0.5c-0.2-0.1-0.3-0.1-0.4-0.1c-0.1,0-0.1,0-0.1,0L118.5,100L118.5,100z"/>
</g>
</svg>
