<?xml version="1.0" encoding="utf-8"?>
<!-- Generator: Adobe Illustrator 17.1.0, SVG Export Plug-In . SVG Version: 6.00 Build 0)  -->
<!DOCTYPE svg PUBLIC "-//W3C//DTD SVG 1.1//EN" "http://www.w3.org/Graphics/SVG/1.1/DTD/svg11.dtd">
<svg version="1.1" id="Layer_2" xmlns="http://www.w3.org/2000/svg" xmlns:xlink="http://www.w3.org/1999/xlink" x="0px" y="0px"
	 viewBox="0 0 400 400" enable-background="new 0 0 400 400" xml:space="preserve">
<g>
	<path fill="#282828" stroke="#000000" stroke-width="5" stroke-linejoin="round" stroke-miterlimit="10" d="M177.9,162.6
		c14.2-7.2,28.5-8.3,42.7-0.2c-10.7-15.8-11.6-33-1.8-51.7c-12.9,6.4-25.4,5.8-37.6,0.4C192.6,133.1,189.4,149.4,177.9,162.6"/>
	<path fill="#282828" d="M205.3,141.6c3,16.2,23.2,27.9,44.6,23.9s36.9-22.3,32.8-38.3c-5.2-20.6-25-28.3-46.4-24.3
		C215,106.8,202.3,125.4,205.3,141.6"/>
	<path fill="#282828" d="M194.8,142c-3,16.2-23.2,27.9-44.6,23.9c-21.4-4-36.9-22.3-32.8-38.3c5.2-20.6,25-28.3,46.4-24.3
		C185.1,107.2,197.8,125.8,194.8,142"/>
	<path fill="#181818" d="M207.4,117.6c-2.5,0.4-5,0.7-7.5,0.7c0,0,0,0,0,0c0,0,0,0,0,0c-2.5,0-5-0.2-7.5-0.6
		c4,5.9,6.3,12.7,6.3,19.5c0,1.8-0.2,3.6-0.5,5.4l0,0c-0.8,4-2.4,7.8-4.8,11.2c-0.1,0.2-0.3,0.4-0.4,0.6c2.4-0.4,4.8-0.6,7.2-0.6
		c0,0,0,0,0,0c2.4,0,4.8,0.2,7.1,0.6c-0.3-0.3-0.5-0.7-0.8-1c-2.4-3.3-4-7.1-4.8-11.2v0c-0.3-1.8-0.5-3.6-0.5-5.4
		C201.4,130.1,203.5,123.4,207.4,117.6"/>
	<path d="M190,114.5c0.9,1,1.6,2.1,2.4,3.1c2.5,0.4,5,0.6,7.5,0.6c0,0,0,0,0,0c0,0,0,0,0,0c2.5,0,5-0.2,7.5-0.7
		c0.6-0.9,1.2-1.8,1.9-2.6L190,114.5"/>
	<path d="M286.1,126.3c-1.2-4.7-3.1-8.8-5.5-12.3c-3.7-5.3-8.8-9.3-14.5-11.8c-5.8-2.6-12.3-3.8-19.1-3.8c-3.7,0-7.5,0.4-11.3,1.1
		c-10.4,1.9-19,7.1-25,13.8c-6,6.7-9.4,15.1-9.4,23.5c0,1.8,0.2,3.6,0.5,5.4l0,0c0.8,4,2.4,7.8,4.8,11.2c3.6,5,8.6,9.1,14.6,11.9
		c6,2.8,12.9,4.4,20.2,4.4c3,0,6-0.3,9.1-0.8c10.3-1.9,19.2-6.9,25.7-13.4c3.3-3.3,5.9-6.9,7.7-10.8c1.8-3.9,2.9-8.1,2.9-12.3
		C286.9,130.4,286.6,128.3,286.1,126.3z M277.7,141.7c-2.2,4.6-6,9.1-10.9,12.7c-4.9,3.6-10.9,6.3-17.6,7.6
		c-2.6,0.5-5.3,0.7-7.8,0.7c-8.3,0-16-2.5-21.9-6.5c-2.9-2-5.4-4.4-7.2-7c-1.8-2.6-3.1-5.4-3.6-8.4l-3.4,0.6l3.4-0.6
		c-0.3-1.4-0.4-2.8-0.4-4.2c0-6.5,2.7-13.3,7.6-18.9c5-5.6,12.1-9.9,21-11.6c3.4-0.6,6.8-0.9,10-0.9c8,0,15.1,1.9,20.7,5.7
		c2.8,1.9,5.2,4.2,7.2,7c2,2.8,3.5,6.1,4.5,10c0.4,1.4,0.5,2.9,0.5,4.3C279.9,135.4,279.1,138.6,277.7,141.7z"/>
	<path d="M189.3,113.7c-6-6.7-14.6-11.9-25-13.8c-3.8-0.7-7.6-1.1-11.3-1.1c-9.1,0-17.6,2.2-24.6,6.8c-3.5,2.3-6.5,5.3-9,8.8
		c-2.5,3.5-4.4,7.7-5.5,12.3c-0.5,2-0.7,4-0.7,6.1c0,4.2,1,8.4,2.9,12.3c2.8,5.9,7.3,11.2,13,15.4c5.7,4.2,12.7,7.4,20.4,8.8
		c3.1,0.6,6.1,0.8,9.1,0.8c9.7,0,18.7-2.8,25.8-7.7c3.5-2.4,6.6-5.3,9-8.7c2.4-3.3,4-7.1,4.8-11.2c0.3-1.8,0.5-3.6,0.5-5.4
		C198.7,128.8,195.3,120.4,189.3,113.7z M187.7,149.7c-2.8,3.9-6.9,7.3-11.9,9.6c-5,2.4-10.9,3.8-17.2,3.8c-2.6,0-5.2-0.2-7.8-0.7
		c-8.8-1.6-16.6-5.9-22.1-11.4c-2.7-2.7-4.9-5.8-6.3-8.9c-1.5-3.1-2.2-6.3-2.2-9.3c0-1.5,0.2-2.9,0.5-4.3c1-3.9,2.5-7.2,4.5-10
		c3-4.2,6.9-7.3,11.6-9.5c4.7-2.1,10.3-3.2,16.2-3.2c3.2,0,6.6,0.3,10,0.9c8.9,1.7,16.1,6,21,11.6c5,5.6,7.7,12.4,7.6,18.9
		c0,1.4-0.1,2.8-0.4,4.2h0C190.8,144.3,189.6,147.1,187.7,149.7z"/>
</g>
<g id="fill::goggles">
	
		<ellipse transform="matrix(-0.9832 0.1826 -0.1826 -0.9832 508.4666 221.9652)" fill="#FF6400" stroke="#000000" stroke-width="5" stroke-miterlimit="10" cx="244" cy="134.4" rx="29.8" ry="22.5"/>
	
		<ellipse transform="matrix(0.9832 0.1826 -0.1826 0.9832 27.2277 -26.2247)" fill="#FF6400" stroke="#000000" stroke-width="5" stroke-miterlimit="10" cx="156.1" cy="134.8" rx="29.8" ry="22.5"/>
</g>
</svg>
