<?xml version="1.0" encoding="utf-8"?>
<!-- Generator: Adobe Illustrator 17.1.0, SVG Export Plug-In . SVG Version: 6.00 Build 0)  -->
<!DOCTYPE svg PUBLIC "-//W3C//DTD SVG 1.1//EN" "http://www.w3.org/Graphics/SVG/1.1/DTD/svg11.dtd">
<svg version="1.1" id="hipster-glasses" xmlns="http://www.w3.org/2000/svg" xmlns:xlink="http://www.w3.org/1999/xlink" x="0px"
	 y="0px" viewBox="0 0 400 400" enable-background="new 0 0 400 400" xml:space="preserve">
<g id="fill::hipster-glasses">
	<path d="M252,114.8c-21.3,0-36.5,3.6-37.1,3.7l-2.5,0.6l-1.5,1.7c-2.7,3-3.6,7.5-2.9,14.1c0.4,3.7,1.2,6.9,1.4,7.6
		c2.5,10.9,9,18.9,19.3,23.9c7.7,3.7,17.5,5.6,29.1,5.6c10.2,0,19.4-1.4,24.8-2.3l0.7-0.1c5.1-0.8,9.5-3.3,13.1-7.6
		c8.5-10.1,10.4-28.5,9-33.8c-2-7.4-11.3-9.5-14.3-10.2c-5.7-1.3-14-2.1-28.5-2.9C259.1,114.9,255.6,114.8,252,114.8L252,114.8z
		 M281.9,163.6c-5.1,0.8-14.2,2.3-24.1,2.3c-17,0-36.2-4.4-40.9-24.6c0,0-3.5-12.8,0.2-16.9c0,0,14.5-3.5,34.9-3.5
		c3.2,0,6.5,0.1,10,0.3c25.5,1.4,34.5,3.1,35.8,8.3C299.3,134.7,295.8,161.4,281.9,163.6z"/>
	<path d="M190.4,120.3l-1.5-1.7l-2.5-0.6c-0.6-0.2-15.8-3.7-37.1-3.7c-3.5,0-7.1,0.1-10.6,0.3c-14.5,0.8-22.8,1.7-28.5,2.9
		c-3.1,0.7-12.4,2.7-14.3,10.2c-1.4,5.3,0.5,23.6,9,33.8c3.5,4.2,7.9,6.8,13.1,7.6l0.7,0.1c5.5,0.9,14.7,2.3,24.8,2.3
		c11.6,0,21.4-1.9,29.1-5.6c10.3-5,16.8-13,19.3-23.9c0.2-0.6,1-3.9,1.4-7.6C194,127.8,193.1,123.3,190.4,120.3z M184.3,140.8
		c-4.6,20.2-23.9,24.6-40.9,24.6c-9.9,0-19-1.5-24.1-2.3c-13.9-2.2-17.4-28.9-16-34.1c1.4-5.2,10.3-6.9,35.9-8.3
		c3.5-0.2,6.8-0.3,10-0.3c20.4,0,34.9,3.5,34.9,3.5C187.8,127.9,184.3,140.8,184.3,140.8z"/>
	<path d="M192.1,127.2c0,0,7.4-4.7,16-0.8l1.5,7.5c0,0-11.6-4.3-17,1.1"/>
</g>
</svg>
