<?xml version="1.0" encoding="utf-8"?>
<!-- Generator: Adobe Illustrator 17.1.0, SVG Export Plug-In . SVG Version: 6.00 Build 0)  -->
<!DOCTYPE svg PUBLIC "-//W3C//DTD SVG 1.1//EN" "http://www.w3.org/Graphics/SVG/1.1/DTD/svg11.dtd">
<svg version="1.1" id="oval-glasses" xmlns="http://www.w3.org/2000/svg" xmlns:xlink="http://www.w3.org/1999/xlink" x="0px"
	 y="0px" viewBox="0 0 400 400" enable-background="new 0 0 400 400" xml:space="preserve">
<g id="fill::oval-glasses">
	<path d="M286.4,130.3c-3-4.1-7.9-7.4-14.3-9.7c-6.4-2.3-14.4-3.7-23.9-3.7c-12.6,0-22.7,2.4-29.8,6.5c-3.6,2-6.4,4.5-8.4,7.4
		c-2,2.8-3.1,6.1-3.1,9.4c0,1.8,0.4,3.5,1.1,5.2c1.2,2.8,3.4,5.3,6,7.5c4,3.3,9.3,5.9,15.2,7.8c6,1.9,12.7,2.9,19.6,2.9
		c10.5,0,20.4-2.9,27.8-7.2c3.7-2.2,6.8-4.7,9.1-7.5c1.1-1.4,2.1-2.9,2.7-4.5c0.7-1.6,1-3.3,1-5C289.5,136.1,288.4,133,286.4,130.3z
		 M213.2,140.3c0-2,0.6-3.9,2-5.8c2-2.9,5.8-5.7,11.3-7.8c5.6-2.1,12.9-3.4,21.7-3.4c11.8,0,20.9,2.3,26.7,5.5
		c2.9,1.6,5,3.4,6.4,5.3c1.3,1.8,1.9,3.6,1.9,5.3c0,0.8-0.2,1.6-0.6,2.6c-0.7,1.6-2,3.5-4,5.3c-3,2.7-7.4,5.3-12.6,7.1
		c-5.2,1.8-11.1,3-17.3,3c-9.4,0-18.7-2.3-25.4-5.8c-3.3-1.7-6-3.7-7.7-5.7c-0.9-1-1.5-2-1.9-2.9C213.4,142,213.2,141.1,213.2,140.3
		"/>
	<path d="M190.5,130.8c-3-4.3-7.9-7.7-14.3-10.1c-6.4-2.4-14.5-3.8-23.9-3.8c-12.6,0-22.6,2.4-29.8,6.3c-3.6,2-6.4,4.3-8.4,7.1
		c-2,2.7-3.1,5.9-3.1,9.1c0,1.7,0.4,3.4,1,5c1.2,2.8,3.1,5.3,5.6,7.6c3.8,3.4,8.8,6.3,14.7,8.4c5.8,2.1,12.5,3.3,19.4,3.3
		c10.5,0,20.6-2.5,28.3-6.5c3.9-2,7.2-4.4,9.6-7.2c1.2-1.4,2.2-2.9,2.9-4.5c0.7-1.6,1.1-3.4,1.1-5.2
		C193.6,136.9,192.5,133.7,190.5,130.8z M186.7,142.9c-0.7,1.6-2.1,3.4-4.2,5.1c-3.1,2.6-7.7,4.9-13.1,6.6
		c-5.4,1.7-11.5,2.7-17.7,2.7c-9.4,0-18.3-2.7-24.7-6.4c-3.2-1.9-5.7-4-7.4-6c-0.8-1-1.4-2-1.8-3c-0.4-0.9-0.6-1.8-0.6-2.6
		c0-1.8,0.6-3.5,1.9-5.3c2-2.7,5.8-5.5,11.3-7.5c5.6-2,12.9-3.3,21.7-3.3c11.8,0,20.9,2.3,26.7,5.7c2.9,1.7,5,3.6,6.4,5.5
		c1.3,1.9,2,3.9,2,5.8C187.3,141.1,187.1,142,186.7,142.9z"/>
	<path d="M192,144.7l-1.5-2.2c0,0-2.3-5.5-0.7-6.4c3.8-2.1,9.3-2.7,13.8-2.1c1.9,0.2,4.7,0.8,7.2,2.1c1.5,0.8-0.5,6.1-0.5,6.1
		l-2.2,2.5c-0.1,0-3-1-5.6-1.3C197.9,142.8,192.6,144.1,192,144.7z"/>
	<polyline points="289.5,138.6 291.9,103.5 285.6,103.1 283.2,138.2 	"/>
	<polyline points="117.2,138.2 114.8,103.1 108.5,103.5 110.9,138.6 	"/>
</g>
</svg>
