<?xml version="1.0" encoding="utf-8"?>
<!-- Generator: Adobe Illustrator 17.1.0, SVG Export Plug-In . SVG Version: 6.00 Build 0)  -->
<!DOCTYPE svg PUBLIC "-//W3C//DTD SVG 1.1//EN" "http://www.w3.org/Graphics/SVG/1.1/DTD/svg11.dtd">
<svg version="1.1" id="reading-glasses" xmlns="http://www.w3.org/2000/svg" xmlns:xlink="http://www.w3.org/1999/xlink" x="0px"
	 y="0px" viewBox="0 0 400 400" enable-background="new 0 0 400 400" xml:space="preserve">
<g id="fill::reading-glasses">
	<rect x="191.7" y="131" fill="#261806" width="19.6" height="8.9"/>
	<polygon fill="#261806" points="276.4,127 294.5,100 294.6,112.6 280.3,144.6 	"/>
	<path fill="#261806" d="M280.8,133.5c-0.2-1-0.4-1.9-0.7-2.7c-0.3-0.9-0.7-1.7-1.2-2.5c-0.7-1-1.6-1.7-2.5-2.4
		c-1.7-1.1-3.7-1.9-6-2.6c-3.4-1-7.5-1.8-11.7-2.3c-4.2-0.5-8.6-0.7-12.7-0.7c-6.1,0-15,0.4-22.7,2.3c-3.9,0.9-7.4,2.2-10.3,4.2
		c-1.4,1-2.7,2.2-3.6,3.7c-0.9,1.5-1.5,3.3-1.5,5.1c0,0.2,0,0.4,0,0.6c0,1.5,0.2,3.2,0.5,5.2c0.5,3,1.3,6.4,2.5,9.5
		c0.6,1.6,1.3,3.1,2.2,4.5c0.9,1.4,1.9,2.6,3.2,3.6c2.9,2.1,6.7,3.4,11.2,4.3c4.5,0.8,9.8,1.2,15.7,1.2c0.5,0,1,0,1.5,0
		c6.2-0.1,13.1-0.4,19-1.4c3-0.5,5.7-1.1,8-2c1.2-0.4,2.3-0.9,3.2-1.6c1-0.6,1.9-1.4,2.6-2.4c0.8-1.1,1.3-2.2,1.7-3.5
		c0.7-2,1.2-4.2,1.5-6.6c0.3-2.4,0.5-4.9,0.5-7.3C281.3,137.6,281.1,135.4,280.8,133.5z M274.5,148.3c-0.3,1.3-0.6,2.5-0.9,3.4
		c-0.3,0.9-0.7,1.7-0.9,2c-0.1,0.2-0.4,0.5-0.9,0.8c-0.9,0.6-2.4,1.2-4.4,1.7c-2.9,0.8-6.6,1.3-10.6,1.7c-4,0.4-8.2,0.5-12.2,0.6
		c-0.5,0-1,0-1.5,0c-5.6,0-10.6-0.4-14.6-1.1c-4-0.7-7-1.9-8.8-3.2c-0.7-0.5-1.6-1.5-2.3-3c-1.2-2.2-2.1-5.1-2.7-8
		c-0.3-1.4-0.5-2.8-0.7-4c-0.2-1.2-0.2-2.3-0.2-3l0-0.2c0-0.1,0-0.2,0-0.3c0-0.7,0.2-1.3,0.6-1.9c0.3-0.5,0.9-1.1,1.6-1.7
		c1.3-1,3.3-1.9,5.7-2.7c3.6-1.1,8-1.9,12.3-2.4c4.3-0.4,8.6-0.6,11.9-0.6c5.8,0,12.5,0.5,18,1.6c2.7,0.5,5.2,1.2,7,1.9
		c0.9,0.4,1.6,0.7,2.2,1.1c0.5,0.3,0.8,0.7,0.9,0.8c0.1,0.1,0.3,0.5,0.4,1c0.3,0.7,0.5,1.8,0.6,3c0.1,1.2,0.2,2.6,0.2,4.1
		C275.3,142.6,275,145.7,274.5,148.3z"/>
	<path fill="#261806" d="M194.1,135.6c0-1.9-0.5-3.7-1.5-5.1c-0.8-1.3-1.9-2.4-3.1-3.3c-2.1-1.6-4.7-2.7-7.5-3.6
		c-4.2-1.3-9-2.1-13.6-2.6c-4.6-0.5-9-0.6-12.5-0.6c-6.2,0-13.2,0.6-19.2,1.7c-3,0.6-5.7,1.3-8.1,2.3c-1.2,0.5-2.2,1-3.2,1.6
		c-1,0.6-1.8,1.4-2.5,2.4c-0.5,0.8-0.9,1.6-1.2,2.5c-0.4,1.3-0.7,2.7-0.9,4.2c-0.2,1.5-0.3,3.1-0.3,4.8c0,3.2,0.3,6.6,0.9,9.7
		c0.3,1.5,0.7,3,1.1,4.3c0.5,1.3,1,2.5,1.7,3.5c0.7,1,1.6,1.7,2.6,2.4c1.7,1.1,3.7,1.8,6,2.4c3.4,0.9,7.4,1.5,11.6,1.9
		c4.2,0.4,8.6,0.5,12.6,0.6c0.5,0,1,0,1.5,0c5.9,0,11.2-0.4,15.7-1.2c4.5-0.9,8.3-2.1,11.2-4.3c1.8-1.3,3-3.1,4.1-5
		c1.6-2.9,2.6-6.3,3.3-9.5c0.4-1.6,0.6-3.1,0.8-4.5c0.2-1.4,0.3-2.7,0.3-3.8C194.1,136,194.1,135.8,194.1,135.6z M188.1,135.9l0,0.2
		c0,1-0.1,2.6-0.4,4.3c-0.4,2.6-1.1,5.7-2.2,8.3c-0.5,1.3-1.1,2.5-1.7,3.4c-0.6,0.9-1.2,1.6-1.7,2c-1.8,1.3-4.8,2.5-8.8,3.2
		c-4,0.7-8.9,1.1-14.6,1.1c-0.5,0-1,0-1.5,0c-6-0.1-12.7-0.4-18.1-1.3c-2.7-0.4-5.1-1-6.9-1.7c-0.9-0.3-1.6-0.7-2.1-1
		c-0.5-0.3-0.8-0.6-0.9-0.8c-0.2-0.3-0.6-1-0.9-2c-0.5-1.4-0.9-3.4-1.2-5.5c-0.3-2.1-0.5-4.4-0.5-6.5c0-1.9,0.1-3.8,0.4-5.2
		c0.1-0.7,0.3-1.4,0.5-1.9c0.2-0.5,0.3-0.8,0.4-1c0.1-0.1,0.4-0.4,0.9-0.8c0.9-0.6,2.5-1.3,4.4-1.9c2.9-0.9,6.7-1.6,10.7-2.1
		c4-0.5,8.2-0.7,12-0.7c5.7,0,14.4,0.5,21.3,2.1c3.4,0.8,6.4,2,8.3,3.3c0.9,0.6,1.6,1.3,2,1.9c0.4,0.6,0.6,1.2,0.6,1.9
		C188.1,135.7,188.1,135.8,188.1,135.9z"/>
	<polygon fill="#261806" points="126.1,127 108,100 107.9,112.6 122.2,144.6 	"/>
</g>
</svg>
