<?xml version="1.0" encoding="utf-8"?>
<!-- Generator: Adobe Illustrator 17.1.0, SVG Export Plug-In . SVG Version: 6.00 Build 0)  -->
<!DOCTYPE svg PUBLIC "-//W3C//DTD SVG 1.1//EN" "http://www.w3.org/Graphics/SVG/1.1/DTD/svg11.dtd">
<svg version="1.1" id="rectangle-glasses" xmlns="http://www.w3.org/2000/svg" xmlns:xlink="http://www.w3.org/1999/xlink" x="0px"
	 y="0px" viewBox="0 0 400 400" enable-background="new 0 0 400 400" xml:space="preserve">
<g id="fill::rectangle-glasses">
	<path fill="#0E0902" d="M192.6,129.8c4.3,2.9,11.2,2.7,15.1,0l1.1,18c-1.8-10.9-16.2-9.4-17.3,0L192.6,129.8z"/>
	<polygon fill="#0E0902" points="275.1,126.5 293.2,99.5 293.3,112.1 279.1,144.2 	"/>
	<path fill="#0E0902" d="M279.4,132.6c-0.3-1.7-0.8-3.3-1.8-4.8c-0.9-1.2-1.9-2.5-3.4-3.6c-1.1-0.8-2.5-1.5-4.1-2.1
		c-2.4-0.8-5.4-1.4-9.5-1.7c-4.1-0.4-9.3-0.5-16-0.5c-6,0-11.2,0.1-15.8,0.4c-3.4,0.2-6.4,0.6-9.1,1.2c-2,0.4-3.8,1-5.4,1.8
		c-1.2,0.6-2.3,1.2-3.3,2.1c-1.5,1.2-2.7,2.8-3.4,4.5c-0.8,1.8-1.1,3.7-1.1,5.8c0,1.5,0.2,3.3,0.5,5.4c0.5,3.1,1.4,6.7,2.7,10
		c0.6,1.7,1.4,3.2,2.3,4.7c0.9,1.4,1.9,2.7,3.3,3.7c1.1,0.8,2.2,1.5,3.5,2.1c1.9,0.8,4,1.3,6.6,1.6c2.6,0.3,5.7,0.3,9.9,0.3
		c2.9,0,6.3,0,10.4-0.1c10-0.1,16.3-0.6,21-1.8c2.3-0.6,4.2-1.4,5.8-2.5c1.6-1.1,2.8-2.4,3.8-3.8c0.7-1,1.2-2.2,1.7-3.5
		c0.7-1.9,1.2-4.1,1.6-6.5c0.4-2.3,0.6-4.8,0.6-7.1C279.9,136.3,279.7,134.4,279.4,132.6z M273,146.4c-0.3,1.3-0.6,2.4-0.9,3.4
		c-0.3,1-0.7,1.7-1,2.1c-0.7,1-1.3,1.6-2.2,2.2c-0.7,0.5-1.5,0.9-2.7,1.3c-1.7,0.6-4.2,1.1-7.6,1.4c-3.4,0.3-7.7,0.5-13.2,0.6
		c-4.1,0-7.5,0.1-10.3,0.1c-5.5,0-8.9-0.2-11.2-0.6c-1.1-0.2-2-0.5-2.8-0.8c-0.8-0.4-1.5-0.8-2.4-1.4c-0.3-0.2-0.7-0.6-1.1-1.2
		c-0.7-0.9-1.5-2.3-2.1-3.9c-1-2.4-1.8-5.2-2.3-7.7c-0.3-1.3-0.5-2.5-0.6-3.6c-0.1-1.1-0.2-2-0.2-2.6c0-1.2,0.1-2.1,0.4-2.9
		c0.2-0.7,0.5-1.2,0.9-1.8c0.7-0.9,1.6-1.7,3.2-2.4c2.3-1.1,5.8-1.8,10.5-2.3c4.6-0.4,10.4-0.6,17.2-0.6c5.9,0,10.6,0.1,14.2,0.4
		c2.7,0.2,4.9,0.5,6.6,0.8c2.5,0.5,4,1.1,5,1.7c0.5,0.3,0.9,0.6,1.2,1c0.4,0.4,0.7,0.9,1.1,1.4c0.2,0.3,0.6,1.2,0.8,2.5
		c0.2,1.2,0.4,2.8,0.4,4.5C273.9,140.9,273.6,143.8,273,146.4z"/>
	<path fill="#0E0902" d="M193.1,131c-0.4-1.3-1-2.5-1.8-3.5c-1.4-1.9-3.3-3.3-5.5-4.3c-3.3-1.5-7.4-2.3-12.4-2.8
		c-5-0.5-10.9-0.6-17.8-0.6c0,0,0,0,0,0c-6,0-10.8,0.1-14.6,0.4c-2.9,0.2-5.3,0.5-7.3,0.9c-3,0.6-5.3,1.4-7.1,2.6
		c-0.9,0.6-1.7,1.3-2.3,1.9c-0.7,0.7-1.2,1.4-1.7,2.1c-1,1.4-1.5,3-1.8,4.8c-0.3,1.7-0.5,3.6-0.5,5.6c0,3.1,0.3,6.4,1,9.4
		c0.3,1.5,0.7,2.9,1.1,4.2c0.5,1.3,1,2.5,1.7,3.5c1,1.4,2.2,2.7,3.8,3.8c1.2,0.8,2.6,1.5,4.1,2c2.4,0.8,5.2,1.3,8.9,1.7
		c3.7,0.4,8.1,0.6,13.7,0.6c4.1,0,7.5,0.1,10.4,0.1c5.6,0,9.2-0.1,12.3-0.7c1.5-0.3,2.9-0.7,4.1-1.2c1.3-0.6,2.4-1.3,3.5-2.1
		c0.9-0.7,1.7-1.5,2.3-2.3c1.2-1.5,2.1-3.3,2.9-5.2c1.2-2.8,2-6,2.6-8.8c0.3-1.4,0.5-2.8,0.7-4c0.1-1.2,0.2-2.4,0.2-3.3
		C193.7,134.1,193.5,132.5,193.1,131z M187.3,140.1c-0.4,2.7-1.3,6-2.3,8.8c-0.5,1.4-1.1,2.7-1.8,3.6c-0.6,1-1.3,1.7-1.7,2.1
		c-0.9,0.6-1.6,1.1-2.4,1.4c-1.2,0.5-2.6,0.9-4.7,1.1c-2.2,0.2-5.1,0.3-9.2,0.3c-2.9,0-6.3,0-10.3-0.1c-9.8-0.1-15.8-0.7-19.5-1.6
		c-1.8-0.5-3-1-3.9-1.6c-0.9-0.6-1.5-1.3-2.2-2.2c-0.3-0.4-0.7-1.2-1-2.1c-0.5-1.4-1-3.3-1.3-5.4c-0.3-2-0.5-4.2-0.5-6.2
		c0-1.7,0.1-3.2,0.4-4.5c0.2-1.2,0.6-2.2,0.8-2.5c0.7-1,1.3-1.7,2-2.2c0.6-0.4,1.3-0.8,2.5-1.2c1.7-0.6,4.2-1.1,8-1.4
		c3.8-0.3,8.8-0.5,15.5-0.5v0l0,0c5.9,0,11.1,0.1,15.3,0.4c3.2,0.2,6,0.6,8.2,1.1c1.7,0.4,3.1,0.8,4.2,1.4c0.8,0.4,1.5,0.8,2,1.3
		c0.8,0.7,1.3,1.4,1.7,2.3c0.4,0.9,0.6,2,0.6,3.5C187.7,136.7,187.6,138.3,187.3,140.1z"/>
	<polygon fill="#0E0902" points="125.8,126.5 107.6,99.5 107.6,112.1 121.8,144.2 	"/>
</g>
</svg>
