<?xml version="1.0" encoding="utf-8"?>
<!-- Generator: Adobe Illustrator 17.1.0, SVG Export Plug-In . SVG Version: 6.00 Build 0)  -->
<!DOCTYPE svg PUBLIC "-//W3C//DTD SVG 1.1//EN" "http://www.w3.org/Graphics/SVG/1.1/DTD/svg11.dtd">
<svg version="1.1" id="rounded-shades" xmlns="http://www.w3.org/2000/svg" xmlns:xlink="http://www.w3.org/1999/xlink" x="0px"
	 y="0px" viewBox="0 0 400 400" enable-background="new 0 0 400 400" xml:space="preserve">
<g>
	<path d="M112.5,121.2h11c3.7,0,6.6,1.8,6.6,3.9v3.3c0,2.2-3,3.9-6.6,3.9h-11c-3.7,0-6.6-1.8-6.6-3.9v-3.3
		C105.9,122.9,108.9,121.2,112.5,121.2z"/>
	<path d="M278.5,121.2h11c3.7,0,6.6,1.8,6.6,3.9v3.3c0,2.2-3,3.9-6.6,3.9h-11c-3.7,0-6.6-1.8-6.6-3.9v-3.3
		C271.9,122.9,274.8,121.2,278.5,121.2z"/>
</g>
<g id="fill::rounded-shades">
	<path fill="#414141" d="M193.4,133.3c0,10.3-10.1,25.6-40.6,25.6s-37.4-12-37.4-22.3s16.8-14.9,37.4-14.9S193.4,123.1,193.4,133.3z
		"/>
	<path fill="#414141" d="M208.1,133.3c0,10.3,10.1,25.6,40.6,25.6s37.4-12,37.4-22.3s-16.8-14.9-37.4-14.9S208.1,123.1,208.1,133.3z
		"/>
</g>
<g>
	<path d="M179.3,123.1c14.9-1.6,29-0.9,42.9,0l-15.5,9.6h-15.3L179.3,123.1z"/>
	<path d="M196.5,127.6c-0.9-1.5-2-2.7-3.3-3.8c-2.3-1.8-4.9-2.9-7.9-3.8c-4.4-1.3-9.5-2-15.1-2.4c-5.5-0.4-11.5-0.5-17.5-0.5
		c-5.3,0-10.5,0.3-15.2,0.9c-3.5,0.5-6.9,1.1-9.9,2c-2.3,0.7-4.4,1.4-6.4,2.4c-2.9,1.4-5.5,3.2-7.5,5.6c-1,1.2-1.8,2.5-2.3,4
		c-0.6,1.5-0.8,3.1-0.8,4.7c0,3.1,0.5,6.4,2,9.7c1.1,2.4,2.7,4.8,4.8,7c3.2,3.2,7.7,5.8,13.5,7.6c5.8,1.8,13,2.8,21.9,2.8
		c8,0,14.8-1,20.5-2.8c8.6-2.6,14.8-7,18.9-12c4-5,5.8-10.5,5.8-15.5C198.1,131.3,197.5,129.3,196.5,127.6z M187.1,139.6
		c-1.7,3.4-4.8,6.9-10.2,9.8c-5.4,2.8-13.2,4.9-24,4.9c-7.3,0-13.1-0.7-17.5-1.9c-3.3-0.9-5.9-2-7.9-3.2c-3-1.8-4.7-3.8-5.8-5.9
		c-1.1-2.1-1.5-4.3-1.5-6.6c0-0.6,0.1-1.1,0.3-1.7c0.2-0.5,0.5-0.9,1-1.4c0.8-0.9,2.2-1.9,4.1-2.8c2.8-1.3,6.8-2.5,11.5-3.2
		c4.7-0.7,10.1-1.1,15.8-1.1c5.1,0,10.2,0.1,14.8,0.4c3.5,0.2,6.7,0.5,9.6,1c2.1,0.3,4.1,0.8,5.7,1.3c1.2,0.4,2.2,0.8,3.1,1.2
		c1.3,0.6,2,1.3,2.3,1.7c0.2,0.2,0.3,0.4,0.3,0.6c0.1,0.2,0.1,0.4,0.1,0.8C188.7,135.1,188.2,137.3,187.1,139.6z"/>
	<path d="M289.6,131.1c-0.7-1.5-1.6-2.8-2.7-4c-1.9-2-4.3-3.6-7-4.9c-4-1.9-8.8-3.1-14-4c-5.3-0.8-11.1-1.2-17.3-1.2
		c-5.2,0-10.4,0.1-15.3,0.4c-3.7,0.2-7.2,0.6-10.5,1.1c-2.5,0.4-4.8,0.9-6.9,1.6c-1.6,0.5-3.1,1.1-4.6,1.8c-2.1,1.1-4.1,2.5-5.6,4.4
		c-0.7,1-1.4,2.1-1.8,3.3c-0.4,1.2-0.6,2.5-0.6,3.8c0,3.3,0.8,6.9,2.5,10.4c2.6,5.3,7.3,10.3,14.3,13.9c7,3.6,16.4,5.9,28.4,5.9
		c7.9,0,14.4-0.8,19.9-2.2c4.1-1.1,7.5-2.5,10.4-4.2c4.3-2.6,7.4-6,9.3-9.6c1.9-3.6,2.5-7.4,2.5-10.9
		C290.8,134.7,290.4,132.8,289.6,131.1z M280.3,142.5c-0.6,1.4-1.5,2.8-2.8,4.1c-2,2-5,3.8-9.6,5.3c-4.6,1.4-10.9,2.3-19.1,2.3
		c-7.2,0-13.1-0.9-17.8-2.3c-7.1-2.2-11.5-5.5-14.3-8.9c-2.7-3.4-3.8-6.9-3.8-9.6c0-0.5,0.1-0.8,0.3-1.1c0.2-0.3,0.4-0.6,1-1
		c0.9-0.7,2.5-1.5,4.8-2.2c3.3-1,7.9-1.7,13.1-2.1c5.2-0.4,10.9-0.5,16.8-0.5c5,0,9.7,0.3,14,0.8c3.2,0.4,6.1,1,8.6,1.7
		c1.9,0.5,3.5,1.1,4.9,1.8c2.1,1,3.5,2.1,4.3,3c0.4,0.5,0.6,0.9,0.8,1.4c0.2,0.4,0.2,0.9,0.2,1.4
		C281.4,138.6,281.1,140.6,280.3,142.5z"/>
</g>
</svg>
