<?xml version="1.0" encoding="utf-8"?>
<!-- Generator: Adobe Illustrator 17.1.0, SVG Export Plug-In . SVG Version: 6.00 Build 0)  -->
<!DOCTYPE svg PUBLIC "-//W3C//DTD SVG 1.1//EN" "http://www.w3.org/Graphics/SVG/1.1/DTD/svg11.dtd">
<svg version="1.1" id="rounded-glasses" xmlns="http://www.w3.org/2000/svg" xmlns:xlink="http://www.w3.org/1999/xlink" x="0px"
	 y="0px" viewBox="0 0 400 400" enable-background="new 0 0 400 400" xml:space="preserve">
<g id="fill::rounded-glasses">
	<polygon fill="#471806" points="122.1,125.2 106.9,98 106.8,105.9 121,150.1 	"/>
	<rect x="190.6" y="136.4" fill="#471806" width="19.6" height="13"/>
	<polygon fill="#471806" points="278.1,125.2 293.4,98 293.4,105.9 279.2,150.1 	"/>
	<path fill="#471806" d="M279.8,131.9c-0.5-2.6-1.6-5.7-4.1-8.4c-1.2-1.3-2.8-2.4-4.7-3.2c-1.9-0.8-4.1-1.2-6.6-1.2h-38.9
		c-2.1,0-4.2,0.2-6.2,0.7c-3.1,0.7-6.1,2.1-8.4,4.4c-1.2,1.2-2.1,2.6-2.8,4.2c-0.7,1.6-1,3.4-1,5.4c0,0.6,0,1.3,0.1,2l1.2,11.1
		c0.4,3.8,1.9,7.3,4.4,9.9c1.2,1.3,2.7,2.4,4.4,3.2c1.7,0.8,3.6,1.2,5.6,1.2h41.7c3.1,0,5.7-0.8,7.9-2.1c1.6-1,2.9-2.3,3.9-3.6
		c1.6-2,2.5-4.2,3.1-6.2c0.3-1,0.5-2,0.7-2.8c0.1-0.9,0.2-1.7,0.2-2.4v-7.5C280.3,135.1,280.2,133.6,279.8,131.9z M274.3,143.7
		c0,0.6-0.1,1.8-0.5,3c-0.5,1.9-1.5,4.1-3,5.6c-0.7,0.8-1.6,1.4-2.6,1.9c-1,0.4-2.2,0.7-3.8,0.7h-41.7c-1.2,0-2.2-0.2-3.1-0.6
		c-1.4-0.6-2.6-1.7-3.5-3.1c-0.9-1.4-1.6-3.2-1.8-5.1l-1.2-11.1c-0.1-0.5-0.1-0.9-0.1-1.3c0-1.7,0.4-2.9,1-3.9c0.4-0.8,1-1.4,1.8-2
		c1.1-0.9,2.6-1.6,4.3-2c1.7-0.5,3.6-0.7,5.4-0.7l38.9,0c2.4,0,4.1,0.5,5.3,1.3c0.9,0.6,1.7,1.3,2.3,2.1c0.9,1.2,1.5,2.7,1.8,4.2
		c0.3,1.4,0.4,2.8,0.4,3.7L274.3,143.7z"/>
	<path fill="#471806" d="M191.8,127.2c-0.8-1.5-2-2.8-3.2-3.9c-1.9-1.6-4.1-2.6-6.4-3.3c-2.3-0.7-4.7-1-7.1-1h-38.9
		c-3.4,0-6.2,0.8-8.5,2.2c-1.7,1.1-3,2.4-4,3.9c-1.5,2.2-2.3,4.5-2.8,6.6c-0.5,2.1-0.6,4-0.6,5.3v7.9c0,1.3,0.2,2.9,0.7,4.7
		c0.7,2.7,2,5.9,4.4,8.5c1.2,1.3,2.7,2.5,4.5,3.3c1.8,0.8,3.9,1.3,6.2,1.3h41.7c2,0,3.9-0.4,5.6-1.2c2.6-1.2,4.6-3.2,6.1-5.5
		c1.5-2.4,2.4-5.1,2.7-8.1l1.2-11.7c0.1-0.7,0.1-1.3,0.1-2C193.6,131.6,193,129.2,191.8,127.2z M187.5,135.7l-1.2,11.7
		c-0.3,2.8-1.4,5.2-2.8,6.9c-0.7,0.8-1.6,1.5-2.5,1.9c-0.9,0.4-1.9,0.7-3.1,0.7h-41.7c-2,0-3.5-0.5-4.7-1.3
		c-0.9-0.6-1.7-1.4-2.4-2.3c-1-1.4-1.7-3-2.2-4.6c-0.5-1.6-0.6-3-0.6-3.8V137c0-0.8,0.1-2.1,0.3-3.4c0.2-1,0.5-2.1,0.9-3.1
		c0.7-1.5,1.6-2.8,2.9-3.8c0.6-0.5,1.4-0.9,2.3-1.2c0.9-0.3,2-0.5,3.4-0.5h38.9c1.6,0,3.3,0.2,4.8,0.6c2.3,0.6,4.2,1.6,5.5,3
		c0.6,0.7,1.2,1.5,1.5,2.4c0.4,0.9,0.6,2,0.6,3.4C187.6,134.8,187.6,135.2,187.5,135.7z"/>
</g>
</svg>
