<?xml version="1.0" encoding="utf-8"?>
<!-- Generator: Adobe Illustrator 17.1.0, SVG Export Plug-In . SVG Version: 6.00 Build 0)  -->
<!DOCTYPE svg PUBLIC "-//W3C//DTD SVG 1.1//EN" "http://www.w3.org/Graphics/SVG/1.1/DTD/svg11.dtd">
<svg version="1.1" id="stylish-glasses" xmlns="http://www.w3.org/2000/svg" xmlns:xlink="http://www.w3.org/1999/xlink" x="0px"
	 y="0px" viewBox="0 0 400 400" enable-background="new 0 0 400 400" xml:space="preserve">
<g>
	<path d="M283.3,128.8c-0.4-1-0.9-2-1.5-2.8c-0.6-0.9-1.5-1.7-2.4-2.3c-1.5-0.9-3.2-1.6-5.1-2.2c-2.9-0.9-6.2-1.5-9.8-1.9
		c-3.6-0.4-7.5-0.6-11.5-0.6c-4.8,0-9.7,0.3-14.2,0.8c-4.6,0.5-8.8,1.3-12.3,2.3c-4.2,1.2-7.6,2.5-10.3,3.8c-4.1,2-6.8,4-8.5,6.2
		c-0.9,1.1-1.4,2.3-1.8,3.4c-0.4,1.1-0.5,2.2-0.5,3.2c0,1.1,0.2,2.1,0.3,2.8c0,0.1,0.1,0.3,0.1,0.4l0,0c0,0,0.1,0.2,0.1,0.5
		c0.2,0.9,0.8,2.6,1.7,4.6c0.9,2,2.3,4.2,4.3,6.1c2.5,2.3,5.8,4.2,10,5.8c4.1,1.6,9,2.7,14.6,3.5c6.6,0.9,12.1,1.2,16.7,1.2
		c6.8,0,11.7-0.8,15.2-1.7c3.5-1,5.6-2.2,6.8-3.1c1.5-1.1,2.6-2.5,3.7-4.2c1.6-2.5,2.9-5.7,3.9-9c1-3.3,1.6-6.9,1.6-10.2
		C284.3,133,284.1,130.8,283.3,128.8z M206,142.3L206,142.3L206,142.3L206,142.3z M206.6,143.1L206.6,143.1L206.6,143.1L206.6,143.1
		z M276.1,146.6c-0.7,1.8-1.5,3.4-2.3,4.7c-0.8,1.3-1.6,2.2-2.1,2.6c-0.6,0.5-2,1.3-4.8,2.2c-2.8,0.8-7.2,1.5-13.6,1.5
		c-4.3,0-9.6-0.3-16-1.1c-5.2-0.7-9.7-1.8-13.3-3.1c-3.6-1.3-6.3-3-8-4.6c-1.5-1.4-2.7-3.5-3.4-5.3c-0.4-0.9-0.6-1.7-0.8-2.2
		c-0.1-0.3-0.1-0.5-0.2-0.7l0-0.2c-0.1-0.6-0.2-1.1-0.2-1.6c0-0.6,0.1-1.2,0.4-1.8c0.2-0.5,0.6-1.1,1.2-1.7c0.9-1,2.5-2.2,4.9-3.4
		c2.4-1.2,5.8-2.6,10.3-3.9c3-0.9,7-1.6,11.3-2.1c4.3-0.5,9-0.8,13.5-0.8c5,0,9.9,0.3,14.1,1c2.1,0.3,3.9,0.7,5.5,1.2
		c1.6,0.5,2.8,1,3.6,1.5c0.3,0.2,0.6,0.4,0.8,0.8c0.4,0.5,0.7,1.3,1,2.2c0.2,1,0.4,2.2,0.4,3.5C278.4,138.7,277.4,143,276.1,146.6z"
		/>
	<path d="M199.3,131.5c-3.5,0-6.7,0.5-9.7,1c0.5,2.2,0.9,4.5,0.9,7c0,1-0.2,1.8-0.3,2.8c1.6-2.3,4.9-4.2,9.1-4.2
		c4,0,7.5,1.6,9.1,3.8c0.1,0,0.2,0,0.3,0c-0.1-0.8-0.3-1.6-0.3-2.4c0-2.5,0.5-4.8,0.9-7C206.2,132,203,131.5,199.3,131.5
		L199.3,131.5z"/>
	<path d="M194.3,138.8c0-1.3-0.2-2.8-0.9-4.3c-0.5-1.1-1.3-2.3-2.3-3.4c-1.5-1.6-3.7-3.2-6.5-4.6c-2.9-1.5-6.6-2.9-11.3-4.3
		c-3.5-1-7.7-1.8-12.3-2.3c-4.5-0.5-9.4-0.8-14.2-0.8c-5.3,0-10.5,0.3-15,1c-2.3,0.4-4.4,0.8-6.3,1.4c-1.9,0.6-3.6,1.3-5.1,2.2
		c-1,0.6-1.8,1.4-2.4,2.3c-1,1.3-1.6,2.8-2,4.4c-0.4,1.6-0.5,3.2-0.5,4.9c0,4.5,1.1,9.2,2.7,13.5c0.8,2.1,1.7,4.1,2.8,5.8
		c1.1,1.7,2.2,3.1,3.7,4.2c1.2,0.9,3.3,2.1,6.8,3.1c3.5,1,8.4,1.7,15.2,1.7c4.6,0,10.1-0.3,16.7-1.2c5.6-0.7,10.5-1.9,14.6-3.5
		c4.1-1.6,7.5-3.5,10-5.8c2.5-2.3,3.9-5.2,4.8-7.4c0.5-1.1,0.8-2.1,1-2.8c0.1-0.4,0.2-0.6,0.2-0.8l0-0.2l0,0c0-0.1,0.1-0.2,0.1-0.4
		C194.2,140.8,194.3,139.9,194.3,138.8z M186.7,144.5c-0.7,1.5-1.7,3.1-2.9,4.3c-1.7,1.6-4.4,3.2-8,4.6c-3.6,1.4-8.1,2.5-13.3,3.1
		c-6.4,0.8-11.6,1.1-16,1.1c-6.4,0-10.7-0.7-13.6-1.5c-2.9-0.8-4.2-1.7-4.8-2.2c-0.5-0.4-1.3-1.3-2.1-2.6c-1.2-1.9-2.4-4.6-3.2-7.5
		c-0.8-2.9-1.3-5.9-1.3-8.5c0-1.7,0.2-3.3,0.6-4.4c0.2-0.6,0.4-1,0.7-1.3c0.3-0.3,0.5-0.6,0.8-0.8c0.8-0.5,2.1-1.1,3.6-1.5
		c2.3-0.7,5.3-1.3,8.7-1.6c3.4-0.4,7.1-0.5,10.8-0.5c4.6,0,9.2,0.3,13.5,0.8c4.3,0.5,8.2,1.2,11.3,2.1c4,1.2,7.1,2.3,9.4,3.5
		c3.5,1.7,5.4,3.3,6.3,4.4c0.5,0.6,0.7,1.1,0.8,1.6c0.1,0.5,0.2,0.9,0.2,1.4c0,0.5-0.1,1-0.2,1.6c0,0.1-0.1,0.2-0.1,0.4
		C187.9,141.5,187.4,142.9,186.7,144.5z M193.5,142.9L193.5,142.9L193.5,142.9L193.5,142.9z"/>
	<polygon points="275.2,124.8 298.8,104.2 301.5,112 280.5,133.5 	"/>
	<polygon points="117.4,133.9 96.4,112.4 99.1,104.6 122.7,125.2 	"/>
</g>
</svg>
