<?xml version="1.0" encoding="utf-8"?>
<!-- Generator: Adobe Illustrator 17.1.0, SVG Export Plug-In . SVG Version: 6.00 Build 0)  -->
<!DOCTYPE svg PUBLIC "-//W3C//DTD SVG 1.1//EN" "http://www.w3.org/Graphics/SVG/1.1/DTD/svg11.dtd">
<svg version="1.1" id="sunglasses" xmlns="http://www.w3.org/2000/svg" xmlns:xlink="http://www.w3.org/1999/xlink" x="0px" y="0px"
	 viewBox="0 0 400 400" enable-background="new 0 0 400 400" xml:space="preserve">
<g id="fill::sunglasses">
	<path fill="#B66132" d="M243.5,114.7c-20.4,0-33.8,5.8-33.8,21.6s22.3,35,39.2,35s26.7-14.9,26.7-30.8
		C275.5,124.5,263.8,114.7,243.5,114.7"/>
	<path fill="#B66132" d="M155,114.7c-20.4,0-32.1,9.9-32.1,25.8c0,15.9,9.8,30.8,26.7,30.8s39.2-19.2,39.2-35S175.4,114.7,155,114.7
		"/>
</g>
<g opacity="0.4">
	<path fill="#FFFFFF" d="M243.5,114.8c-17,0-29,4.1-32.6,14.6c6.8-2.5,14.5-4.2,23-4.2c18.7,0,34.7,7,41.5,17c0-0.6,0-1.2,0-1.8
		C275.5,124.5,263.8,114.8,243.5,114.8"/>
	<path fill="#FFFFFF" d="M155,114.8c-20.4,0-32,9.8-32,25.7c0,0.6,0,1.2,0,1.8c6.8-10,22.9-17,41.5-17c8.5,0,16.2,1.7,23,4.2
		C184,118.9,172,114.8,155,114.8"/>
</g>
<g>
	<path d="M190.3,130.9c0.5-1.4,1.6-2.7,3.2-3.7c1.6-0.9,3.6-1.5,5.8-1.5c0.8,0,1.7,0.1,2.5,0.3c1.7,0.3,3.1,1,4.2,1.9
		c1.1,0.9,1.9,1.9,2.2,3l3.9-1.3c-0.7-2-2-3.6-3.6-4.9c-1.7-1.3-3.7-2.2-5.9-2.7c-1.1-0.2-2.3-0.3-3.4-0.3c-2.9,0-5.6,0.7-7.9,2.1
		c-2.3,1.4-4.1,3.4-5,5.9L190.3,130.9L190.3,130.9z"/>
	<polyline points="153.4,117.5 245.1,117.5 245.1,112 153.4,112 	"/>
	<path d="M278.4,140.5c0,6.4-1.5,12.7-4.3,18.1c-2.8,5.4-7.1,10-12.7,12.7c-3.7,1.8-7.9,2.9-12.6,2.9c-3.6,0-7.2-0.8-10.8-2
		c-3.6-1.3-7.2-3.1-10.5-5.3c-6.7-4.4-12.7-10.4-16.5-16.9c-2.5-4.3-4.1-9-4.1-13.6c0-4.9,1.2-9.2,3.5-12.7c2.3-3.5,5.7-6.1,9.7-7.9
		c2.7-1.2,5.7-2.1,9-2.7c4.4-0.8,9.2-1.2,14.4-1.2c8,0,14.8,1.4,20.4,4.3c5.5,2.8,9.8,7.1,12.1,12.5
		C277.6,132.1,278.4,136.1,278.4,140.5 M272.7,140.5c0-5.5-1.5-9.9-4.2-13.4c-2.7-3.5-6.7-6.2-12.2-7.8c-3.6-1.1-7.9-1.7-12.8-1.7
		c-5.6,0-10.5,0.4-14.7,1.4c-4.2,0.9-7.6,2.4-10.1,4.3c-1.7,1.3-3,2.7-4,4.4c-1.3,2.3-2,5.1-2,8.6c0,2.5,0.7,5.2,1.9,7.9
		c1.3,2.8,3.1,5.6,5.4,8.3c4.5,5.4,10.7,10.1,17,13c4.2,1.9,8.4,3,12,3c3.8,0,7.1-0.8,10-2.3c2.9-1.4,5.4-3.5,7.4-6.1
		C270.4,155,272.7,147.9,272.7,140.5"/>
	<path d="M188.9,124.8c-1.4-2.4-3.3-4.5-5.5-6.2c-3.4-2.5-7.6-4.2-12.3-5.3c-4.8-1.1-10.1-1.5-16-1.5c-5.3,0-10.1,0.6-14.4,1.9
		c-6.4,1.9-11.6,5.2-15.2,9.8c-3.6,4.6-5.4,10.4-5.4,16.9c0,8.6,2.6,16.9,7.6,23.2c2.5,3.2,5.6,5.8,9.3,7.6
		c3.7,1.8,7.9,2.9,12.6,2.9c4.8,0,9.7-1.3,14.4-3.5c7.1-3.3,13.9-8.5,19-14.5c2.6-3,4.7-6.3,6.2-9.6c1.5-3.3,2.4-6.8,2.4-10.3
		C191.7,131.9,190.7,128,188.9,124.8z M125.8,140.5c0-3.6,0.7-6.8,1.9-9.6c1.9-4.1,5-7.4,9.5-9.7c4.5-2.3,10.5-3.6,17.8-3.6
		c5,0,9.4,0.4,13.3,1.1c2.9,0.6,5.5,1.3,7.7,2.3c3.3,1.5,5.7,3.4,7.3,5.8c1.6,2.4,2.5,5.5,2.6,9.5c0,3.3-1.2,7-3.4,10.7
		c-3.2,5.6-8.7,11-14.7,15c-3,2-6.2,3.6-9.3,4.7c-3.1,1.1-6.2,1.7-8.9,1.7c-3.8,0-7.1-0.8-10-2.3c-4.3-2.2-7.8-5.8-10.1-10.3
		C127.1,151.4,125.8,146,125.8,140.5z"/>
	<polygon points="291.5,107.8 274.2,129.3 266.7,119.1 287.6,102.6 	"/>
	<polygon points="107.2,107.8 124.5,129.3 132,119.1 111.1,102.6 	"/>
</g>
</svg>
