<?xml version="1.0" encoding="utf-8"?>
<!-- Generator: Adobe Illustrator 17.1.0, SVG Export Plug-In . SVG Version: 6.00 Build 0)  -->
<!DOCTYPE svg PUBLIC "-//W3C//DTD SVG 1.1//EN" "http://www.w3.org/Graphics/SVG/1.1/DTD/svg11.dtd">
<svg version="1.1" id="_x38_bit" xmlns="http://www.w3.org/2000/svg" xmlns:xlink="http://www.w3.org/1999/xlink" x="0px" y="0px"
	 viewBox="0 0 400 400" enable-background="new 0 0 400 400" xml:space="preserve">
<g id="fill::8bit">
	<path fill="#424242" stroke="#0E0902" stroke-width="11" d="M155,231c-23,0-41.7,21.3-43.8,48.4h87.5C196.7,252.3,178,231,155,231z
		"/>
	<path fill="#424242" stroke="#0E0902" stroke-width="11" d="M245.3,231c-23,0-41.7,21.3-43.8,48.4H289
		C287,252.3,268.3,231,245.3,231z"/>
	<path fill="#424242" stroke="#0E0902" stroke-width="11" d="M200.3,198.8c-18.8,0-36.8,2.6-52.8,7.2c-5.4,18.9-8.4,40.9-8.4,64.4
		c0,29.1,4.8,55.9,12.8,77.2c14.8,3.8,31.3,6.2,48.4,6.2s33.3-2.4,48.1-6.2c8-21.3,12.8-48.1,12.8-77.2c0-23.5-3-45.5-8.4-64.4
		C236.8,201.4,219.1,198.8,200.3,198.8z"/>
</g>
<g>
	<path fill="#FFFFFF" d="M181.6,326.3v-1.4h1.4h1.4v-1.4v-1.4h2.8h2.8v-12.8v-12.8h1.4h1.4v-1.4v-1.4h-4.2h-4.2v-1.4v-1.4H183h-1.4
		v-1.6v-1.6h-1.4h-1.4v-1.2v-1.2h-1.4H176v-4.4v-4.4h1.4h1.4v-1.4v-1.4h-1.4H176V271v-2.6h2.8h2.8v1.2v1.2h1.4h1.4v-1.2v-1.2h2.8
		h2.8v-1.6v-1.6h4.4h4.4v-2.8v-2.8h1.4h1.4v-2.8V254h1.2h1.2v-1.4v-1.4h3h3v1.4v1.4h3h3v1.4v1.4h1.2h1.2v-1.4V254h1.4h1.4v1.4v1.4
		h1.4h1.4v1.4v1.4h-1.4h-1.4v1.4v1.4h-1.4h-1.4V261v-1.4h-1.2H216v-1.4v-1.4h-3h-3v-1.4V254h-3h-3v2.8v2.8h-1.2h-1.2v2.8v2.8h4.2
		h4.2v1.6v1.6h3h3v1.2v1.2h1.2h1.2v-1.2v-1.2h2.8h2.8v2.6v2.6h-1.4h-1.4v1.4v1.4h1.4h1.4v4.4v4.4h-1.4h-1.4v1.2v1.2h-1.4h-1.4v1.6
		v1.6h-1.2H216v1.4v1.4h-4.4h-4.4v1.4v1.4h1.4h1.4v12.8V322h3h3v1.4v1.4h1.2h1.2v1.4v1.4h-5.6h-5.6v-1.4v-1.4h-1.6H204v1.4v1.4h-4
		h-4v-1.4v-1.4h-1.6h-1.6v1.4v1.4h-5.6h-5.6L181.6,326.3L181.6,326.3z M192.8,323.5v-1.4h-1.4H190v1.4v1.4h1.4h1.4L192.8,323.5
		L192.8,323.5z M210,323.5v-1.4h-1.4h-1.4v1.4v1.4h1.4h1.4V323.5z M207.2,297.9v-1.4H200h-7.2v1.4v1.4h7.2h7.2V297.9z M207.2,289.3
		v-1.6h1.4h1.4v-1.2v-1.2h-1.4h-1.4v1.2v1.2H200h-7.2v-1.2v-1.2h-1.4H190v1.2v1.2h1.4h1.4v1.6v1.6h7.2h7.2L207.2,289.3L207.2,289.3z
		 M181.6,272.3v-1.4h-1.4h-1.4v1.4v1.4h1.4h1.4V272.3z M221.2,272.3v-1.4h-1.4h-1.4v1.4v1.4h1.4h1.4V272.3z M184.4,312.3v-1.4H183
		h-1.4v-5.8v-5.8h1.4h1.4v-1.4v-1.4h1.6h1.6v8.6v8.6H186h-1.6V312.3z M212.8,305.1v-8.6h1.6h1.6v1.4v1.4h1.2h1.2v5.8v5.8h-1.2H216
		v1.4v1.4h-1.6h-1.6L212.8,305.1L212.8,305.1z"/>
	<path fill="#FF4500" d="M190.1,273.7v3v3h3h3v-3v-3h-3H190.1z M204,273.7v3v3h3h3v-3v-3h-3H204z"/>
</g>
</svg>
