<?xml version="1.0" encoding="utf-8"?>
<!-- Generator: Adobe Illustrator 17.1.0, SVG Export Plug-In . SVG Version: 6.00 Build 0)  -->
<!DOCTYPE svg PUBLIC "-//W3C//DTD SVG 1.1//EN" "http://www.w3.org/Graphics/SVG/1.1/DTD/svg11.dtd">
<svg version="1.1" id="andre" xmlns="http://www.w3.org/2000/svg" xmlns:xlink="http://www.w3.org/1999/xlink" x="0px" y="0px"
	 viewBox="0 0 400 400" enable-background="new 0 0 400 400" xml:space="preserve">
<path id="fill::andre" fill="#363729" stroke="#000000" stroke-width="11" stroke-linejoin="round" d="M176.8,238.1
	c0,0-4.9-33.4,0.7-37.9c-10.5,1.2-20.6,3.2-30,5.9c-0.7,2.5-1.4,5-2,7.6c6.9,4.3,11.4,12,11.4,20.7v43.5c0.8,34.9-14,36.9-12.6,43.5
	c2,9.4,4.6,18.2,7.6,26.2c14.8,3.8,31.3,6.2,48.4,6.2c17.1,0,33.3-2.4,48.1-6.2c2.8-7.5,5.2-15.8,7.2-24.5
	C230.5,312,175.4,301.8,176.8,238.1z"/>
</svg>
