<?xml version="1.0" encoding="utf-8"?>
<!-- Generator: Adobe Illustrator 17.1.0, SVG Export Plug-In . SVG Version: 6.00 Build 0)  -->
<!DOCTYPE svg PUBLIC "-//W3C//DTD SVG 1.1//EN" "http://www.w3.org/Graphics/SVG/1.1/DTD/svg11.dtd">
<svg version="1.1" id="apron" xmlns="http://www.w3.org/2000/svg" xmlns:xlink="http://www.w3.org/1999/xlink" x="0px" y="0px"
	 viewBox="0 0 400 400" enable-background="new 0 0 400 400" xml:space="preserve">
<g id="fill::shirt:1">
	<path fill="#F2EB48" stroke="#000000" stroke-width="11" d="M155,231c-23,0-41.7,21.3-43.8,48.4h87.5C196.7,252.3,178,231,155,231z
		"/>
	<path fill="#F2EB48" stroke="#000000" stroke-width="11" d="M245.3,231c-23,0-41.7,21.3-43.8,48.4H289
		C287,252.3,268.3,231,245.3,231z"/>
</g>
<path id="fill::apron" fill="#335289" stroke="#000000" stroke-width="11" d="M200.3,198.8c-18.8,0-36.8,2.6-52.8,7.2
	c-5.4,18.9-8.4,40.9-8.4,64.4c0,29.1,4.8,80.9,12.8,102.2c14.8,3.8,31.3,6.2,48.4,6.2s33.3-2.4,48.1-6.2
	c8-21.3,12.8-73.1,12.8-102.2c0-23.5-3-45.5-8.4-64.4C236.8,201.4,219.1,198.8,200.3,198.8z"/>
<g>
	<g>
		<defs>
			<path id="SVGID_1_" d="M200.3,198.8c-18.8,0-36.8,2.6-52.8,7.2c-5.4,18.9-8.4,40.9-8.4,64.4c0,29.1,4.8,80.9,12.8,102.2
				c14.8,3.8,31.3,6.2,48.4,6.2s33.3-2.4,48.1-6.2c8-21.3,12.8-73.1,12.8-102.2c0-23.5-3-45.5-8.4-64.4
				C236.8,201.4,219.1,198.8,200.3,198.8z"/>
		</defs>
		<clipPath id="SVGID_2_">
			<use xlink:href="#SVGID_1_"  overflow="visible"/>
		</clipPath>
		<g id="fill::shirt:2" clip-path="url(#SVGID_2_)">
			<path fill="#F2EB48" stroke="#000000" stroke-width="11" d="M297,293.2c-18.2,9.5-57.2,9.8-57.2,9.8v-91h59.9
				C299.7,212,297,257.7,297,293.2z"/>
			<path fill="#F2EB48" stroke="#000000" stroke-width="11" d="M159.7,303c-18.2,9.5-59.9-20-59.9-20v-71h59.9
				C159.7,212,159.7,267.5,159.7,303z"/>
			<rect x="178.8" y="224.3" fill="#F2EB48" stroke="#000000" stroke-width="11" width="38.7" height="50"/>
		</g>
	</g>
	<path fill="none" stroke="#000000" stroke-width="11" d="M200.3,198.8c-18.8,0-36.8,2.6-52.8,7.2c-5.4,18.9-8.4,40.9-8.4,64.4
		c0,29.1,4.8,80.9,12.8,102.2c14.8,3.8,31.3,6.2,48.4,6.2s33.3-2.4,48.1-6.2c8-21.3,12.8-73.1,12.8-102.2c0-23.5-3-45.5-8.4-64.4
		C236.8,201.4,219.1,198.8,200.3,198.8z"/>
</g>
</svg>
