<?xml version="1.0" encoding="utf-8"?>
<!-- Generator: Adobe Illustrator 17.1.0, SVG Export Plug-In . SVG Version: 6.00 Build 0)  -->
<!DOCTYPE svg PUBLIC "-//W3C//DTD SVG 1.1//EN" "http://www.w3.org/Graphics/SVG/1.1/DTD/svg11.dtd">
<svg version="1.1" id="bhikku" xmlns="http://www.w3.org/2000/svg" xmlns:xlink="http://www.w3.org/1999/xlink" x="0px" y="0px"
	 viewBox="0 0 400 400" enable-background="new 0 0 400 400" xml:space="preserve">
<path id="fill::bhikku:2" fill="#FF7700" d="M252.1,342.4c20.3,21.9,25.7,2.3,26.9-15.3C271.7,335.2,262.4,340.7,252.1,342.4z"/>
<path d="M272.9,333c-1,7.2-2.7,12.6-5.1,13.6c-0.1,0.1-2.7,1-9.6-5.6c-3.3,1.1-6.7,1.8-10.3,2l-1.6,1.4c3.1,3.6,11.7,13.3,20.9,13.3
	c1.6,0,3.2-0.3,4.9-1c7.2-3,11.2-12.5,12.4-28.9c0.2-2.8,0.3-5.6,0.3-8.2C281.5,324.8,277.4,329.3,272.9,333z"/>
<path id="bhikku-f:darker::fill::bhikku-body" fill="#F04C23" stroke="#000000" stroke-width="11" d="M200.3,198.8
	c-18.8,0-36.8,2.6-52.8,7.2c-5.4,18.9-8.4,40.9-8.4,64.4c0,29.1,4.8,55.9,12.8,77.2c14.8,3.8,31.3,6.2,48.4,6.2s33.3-2.4,48.1-6.2
	c8-21.3,12.8-48.1,12.8-77.2c0-23.5-3-45.5-8.4-64.4C236.8,201.4,219.1,198.8,200.3,198.8z"/>
<path id="fill::bhikku:1" fill="#FF7700" stroke="#000000" stroke-width="11" stroke-linejoin="round" d="M132.7,236.4
	c35,21.6,46,82.9,85.5,90.7c32.9,6.5,32.6-70.2,60.8-76.2c8.3-1.8-19.6-30.4-36.6-42.8c-17-12.4-11.8,8.3-42.2,19.1
	S143.5,213.7,132.7,236.4z"/>
</svg>
