<?xml version="1.0" encoding="utf-8"?>
<!-- Generator: Adobe Illustrator 17.1.0, SVG Export Plug-In . SVG Version: 6.00 Build 0)  -->
<!DOCTYPE svg PUBLIC "-//W3C//DTD SVG 1.1//EN" "http://www.w3.org/Graphics/SVG/1.1/DTD/svg11.dtd">
<svg version="1.1" id="bow-tie-shirt" xmlns="http://www.w3.org/2000/svg" xmlns:xlink="http://www.w3.org/1999/xlink" x="0px"
	 y="0px" viewBox="0 0 400 400" enable-background="new 0 0 400 400" xml:space="preserve">
<g>
	<g id="fill::bow-tie-shirt">
		<path fill="#FFFFFF" stroke="#0E0902" stroke-width="11" d="M154.2,231c0,23.2,0,48.4,0,48.4h-43.8
			C112.5,252.2,131.2,231,154.2,231z"/>
		<path fill="#FFFFFF" stroke="#0E0902" stroke-width="11" d="M134.1,278.8h-25c-3.3,0-5.9,2.7-5.9,5.9v12.5c0,3.3,2.7,5.9,5.9,5.9
			h25c3.3,0,5.9-2.7,5.9-5.9v-12.5C140,281.4,137.4,278.8,134.1,278.8z"/>
		<path fill="#FFFFFF" stroke="#0E0902" stroke-width="11" d="M289.1,282.4h-43.8c0,0,0-22.9,0-48.4
			C268.3,234,287.1,255.2,289.1,282.4z"/>
		<path fill="#FFFFFF" stroke="#0E0902" stroke-width="11" d="M259.5,287.7v12.5c0,3.3,2.7,5.9,5.9,5.9h25c3.3,0,5.9-2.7,5.9-5.9
			v-12.5c0-3.3-2.7-5.9-5.9-5.9h-25C262.1,281.8,259.5,284.4,259.5,287.7z"/>
		<path fill="#FFFFFF" stroke="#0E0902" stroke-width="11" d="M199.4,198.8c-18.8,0-36.8,2.6-52.8,7.2c-5.4,18.9-8.4,40.9-8.4,64.4
			c0,29.1,4.8,55.8,12.8,77.2c14.8,3.8,31.3,6.2,48.4,6.2s33.3-2.4,48.1-6.2c8-21.3,12.8-48.1,12.8-77.2c0-23.5-3-45.5-8.4-64.4
			C235.9,201.4,218.2,198.8,199.4,198.8z"/>
	</g>
	<g>
		<circle cx="207.8" cy="284.2" r="2.8"/>
		<circle cx="207.8" cy="300.7" r="2.8"/>
		<circle cx="207.8" cy="317.3" r="2.8"/>
		<circle cx="207.8" cy="333.8" r="2.8"/>
	</g>
	<path fill="#0E0902" d="M196,251.8v101c0,2.7,1.8,5,4,5s4-2.2,4-5v-101c0-2.7-1.8-5-4-5C197.8,246.8,196,249,196,251.8"/>
</g>
<g>
	<path id="fill::bow-tie" fill="#FF4500" d="M235.2,252.1c-0.4-4.8,2-10-3.5-14.7c-7.3-6.3-16.5,3.8-23.3,11.2
		c-0.3-1.1-1-1.9-1.9-1.9h-12.8c-0.8,0-1.5,0.6-1.8,1.5c-6.8-7.4-15.9-17-23-10.9c-5.4,4.7-3.2,8.7-3.6,13.5
		c-0.4,4.8-1.5,13.7,1.4,19s17.8,1.3,25.4-6.2c0.4,0.7,1,1.1,1.6,1.1h12.8c0.8,0,1.4-0.6,1.8-1.4l0,0c7.5,7.7,22.7,11.8,25.7,6.5
		C236.9,264.6,235.6,257,235.2,252.1z"/>
	<path id="bow-tie-f:darker::fill::bow-tie-outline" fill="#912800" d="M171.7,235.7l-1.1-3.6c-0.9,0.3-1.7,0.7-2.4,1.1
		c-0.7,0.4-1.3,0.9-1.8,1.4c-2,1.7-3.4,3.6-4.1,5.5c-0.8,1.9-1,3.8-1,5.4c0,1.6,0.2,3,0.1,4.2c0,0.4,0,0.7,0,1.1
		c-0.2,2.2-0.6,5.6-0.6,9.1c0,1.9,0.1,4,0.5,6s0.9,4,2,5.9c0.4,0.7,0.9,1.3,1.5,1.9c0.9,0.8,1.9,1.3,2.9,1.6c1,0.3,2,0.4,3,0.4
		c2,0,4-0.4,6-1c3.1-0.9,6.3-2.4,9.4-4.3c3.1-1.8,6-4,8.4-6.3l-2.6-2.7l-3.7,0.9c0.2,0.9,0.5,1.8,1.3,2.8c0.4,0.5,0.9,1,1.6,1.4
		c0.7,0.4,1.6,0.7,2.5,0.7h12.8c1,0,1.9-0.3,2.7-0.7c1.1-0.7,1.8-1.6,2.3-2.5s0.7-1.9,0.8-2.9l-3.8-0.3l-2.7,2.7
		c3.2,3.2,7.4,6.2,11.7,8.4c2.1,1.1,4.3,2,6.4,2.7c2.1,0.7,4.1,1.1,6.2,1.1c1.3,0,2.7-0.2,4-0.8c0.7-0.3,1.3-0.7,1.9-1.2
		c0.6-0.5,1.1-1.1,1.5-1.8c0.9-1.7,1.5-3.5,1.8-5.3s0.4-3.5,0.4-5.2c0-1.8-0.1-3.6-0.3-5.2s-0.3-3-0.4-4.2c0-0.3,0-0.6,0-0.9
		c0-1.4,0.2-3.2,0.2-5.4c0-1.7-0.2-3.6-0.9-5.5c-0.7-2-2.1-3.9-4-5.5c-1.1-0.9-2.3-1.7-3.6-2.2s-2.6-0.7-3.9-0.7
		c-2.3,0-4.5,0.7-6.4,1.7c-2.9,1.5-5.5,3.7-8,6c-2.4,2.3-4.7,4.8-6.7,7l2.8,2.6l3.7-0.6c-0.2-1.3-0.7-2.6-1.8-3.6
		c-0.5-0.5-1.1-0.9-1.8-1.2s-1.4-0.4-2.2-0.4h-12.8c-0.6,0-1.2,0.1-1.9,0.3c-0.9,0.3-1.7,1-2.3,1.6c-0.6,0.7-0.9,1.4-1.1,2.1
		l3.6,1.2l2.8-2.6c-2.7-2.9-5.8-6.2-9.1-9c-1.7-1.4-3.5-2.6-5.4-3.6c-1.9-0.9-4-1.6-6.3-1.6c-1.1,0-2.2,0.2-3.2,0.5L171.7,235.7
		l1.1,3.6c0.3-0.1,0.6-0.1,1-0.1c0.8,0,1.8,0.2,3,0.8c1.8,0.9,4,2.5,6.1,4.5s4.3,4.3,6.3,6.4c0.9,1,2.3,1.4,3.6,1.1
		c1.3-0.3,2.4-1.2,2.8-2.5l0,0l-1.4-0.6l0.9,1.1c0.4-0.3,0.5-0.6,0.5-0.6l-1.4-0.6l0.9,1.1l-1.4-1.8l0.7,2.2
		c0.3-0.1,0.5-0.2,0.7-0.4l-1.4-1.8l0.7,2.2l-0.7-2v2.1c0.2,0,0.4,0,0.7-0.1l-0.7-2v2.1h12.8v-2l-0.8,1.8c0.2,0.1,0.5,0.2,0.8,0.2
		v-2l-0.8,1.8l0.7-1.7l-1.5,1c0.1,0.2,0.4,0.5,0.8,0.6l0.7-1.7l-1.5,1l0.7-0.5l-0.9,0.1c0,0,0,0.1,0.2,0.4l0.7-0.5l-0.9,0.1
		c0.2,1.4,1.2,2.6,2.6,3c1.4,0.4,2.9,0,3.9-1c2.7-2.9,5.7-6.2,8.5-8.6c1.4-1.2,2.8-2.2,4-2.8s2.3-0.9,3-0.9c0.4,0,0.8,0.1,1.2,0.2
		c0.4,0.2,0.8,0.4,1.3,0.8c1.1,1,1.6,1.7,1.9,2.5c0.3,0.8,0.4,1.7,0.4,2.8c0,1.5-0.2,3.3-0.2,5.4c0,0.5,0,1,0.1,1.5
		c0.1,1.4,0.3,2.8,0.4,4.3c0.1,1.5,0.3,3,0.3,4.5c0,1.3-0.1,2.6-0.3,3.8c-0.2,1.2-0.6,2.2-1,3l0.5,0.3l-0.4-0.4l-0.1,0.2l0.5,0.3
		l-0.4-0.4l0.2,0.3l-0.2-0.3h-0.1l0.2,0.3l-0.2-0.3c0,0-0.1,0-0.2,0.1c-0.2,0-0.4,0.1-0.7,0.1c-0.9,0-2.3-0.2-3.9-0.7
		c-2.4-0.8-5.2-2.1-7.9-3.7s-5.2-3.6-7.1-5.5c-1-1-2.6-1.4-4-0.9s-2.3,1.8-2.5,3.3v0.1l0.9,0.3l-0.6-0.6c-0.2,0.2-0.3,0.3-0.3,0.3
		l0.9,0.3l-0.6-0.6l1.4,1.5l-0.8-1.8c-0.3,0.1-0.5,0.3-0.6,0.4l1.4,1.5l-0.8-1.8l1,2.2v-2.4c-0.3,0-0.7,0.1-1,0.2l1,2.2v-2.4h-12.8
		v2.6l1.3-2.2c-0.3-0.2-0.9-0.4-1.3-0.4v2.6l1.3-2.2l-1.1,1.9l1.7-1.5c-0.1-0.1-0.3-0.3-0.5-0.4l-1.1,1.9l1.7-1.5l-1.1,0.9l1.2-0.7
		l-0.1-0.2l-1.1,0.9l1.2-0.7l-0.4,0.3l0.5-0.2l0,0l-0.4,0.3l0.5-0.2c0,0,0-0.1-0.1-0.3c-0.3-1.3-1.3-2.3-2.6-2.7
		c-1.3-0.4-2.7,0-3.6,0.9c-2.5,2.4-6.1,4.9-9.7,6.7c-1.8,0.9-3.5,1.6-5.1,2.1s-2.9,0.7-3.8,0.7c-0.6,0-1-0.1-1-0.1l0,0l-0.1,0.1
		l0.1-0.1l0,0l-0.1,0.1l0.1-0.1l-0.3,0.5l0.5-0.3l-0.2-0.2l-0.3,0.5l0.5-0.3c-0.5-0.9-0.9-2.1-1.1-3.5c-0.2-1.4-0.4-3-0.3-4.7
		c0-3,0.3-6.1,0.5-8.5c0-0.6,0.1-1.1,0.1-1.7c0-1.7-0.2-3.1-0.1-4.2c0-1.1,0.1-1.8,0.4-2.5c0.3-0.7,0.8-1.5,2.1-2.6
		c0.4-0.3,0.7-0.6,1-0.8s0.5-0.3,0.5-0.3L171.7,235.7z"/>
</g>
</svg>
