<?xml version="1.0" encoding="utf-8"?>
<!-- Generator: Adobe Illustrator 17.1.0, SVG Export Plug-In . SVG Version: 6.00 Build 0)  -->
<!DOCTYPE svg PUBLIC "-//W3C//DTD SVG 1.1//EN" "http://www.w3.org/Graphics/SVG/1.1/DTD/svg11.dtd">
<svg version="1.1" id="cardigan" xmlns="http://www.w3.org/2000/svg" xmlns:xlink="http://www.w3.org/1999/xlink" x="0px" y="0px"
	 viewBox="0 0 400 400" enable-background="new 0 0 400 400" xml:space="preserve">
<path id="fill::undershirt" fill="#FAEEED" d="M199.9,198.5c-18.8,0-36.8,2.6-52.8,7.2c-5.4,18.9-8.4,40.9-8.4,64.4
	c0,29.1,4.8,55.8,12.8,77.2c14.8,3.8,31.3,6.3,48.4,6.3s33.3-2.4,48.1-6.3c8-21.3,12.8-48.1,12.8-77.2c0-23.5-3-45.5-8.4-64.4
	C236.4,201.1,218.7,198.5,199.9,198.5"/>
<g id="fill::cardigan">
	<path fill="#3D5B43" stroke="#000000" stroke-width="11" stroke-miterlimit="10" d="M154.8,313.1h-37.1c-4.5-8.3-7.1-18.2-7.1-28.9
		c0-29.4,19.8-53.2,44.1-53.2L154.8,313.1z"/>
	<path fill="#3D5B43" stroke="#000000" stroke-width="11" stroke-miterlimit="10" d="M282.2,313.1c4.5-8.3,7.1-18.2,7.1-28.9
		c0-29.4-19.7-53.2-44.1-53.2s0,82.1,0,82.1H282.2z"/>
	<path fill="#3D5B43" stroke="#000000" stroke-width="11" stroke-miterlimit="10" d="M200.1,272.6c-3.2,0-18.5-18.1-23.8-36.9
		c-1.3-4.8-22.8-5.5-33.4-7.5c-2.2,13.1-3.4,27.2-3.4,41.9c0,29.1,4.8,55.8,12.8,77.2c14.8,3.8,31,6.3,48.1,6.3h-0.7
		c17.1,0,33.3-2.4,48.1-6.3c8-21.3,12.8-48.1,12.8-77.2c0-14.7-1.2-28.8-3.4-41.9c-10.7,2-32.1,2.7-33.4,7.5
		C218.5,254.5,203.3,272.6,200.1,272.6L200.1,272.6z"/>
</g>
<path fill="#0E0902" d="M198.6,272.3V356c0,1,0.8,1.8,1.8,1.8s1.8-0.8,1.8-1.8v-83.7c0-1-0.8-1.8-1.8-1.8S198.6,271.3,198.6,272.3"
	/>
<g>
	<circle fill="#FFF9BA" cx="199.8" cy="285.8" r="4"/>
	<circle fill="#FFF9BA" cx="199.8" cy="309.1" r="4"/>
	<circle fill="#FFF9BA" cx="199.8" cy="332.4" r="4"/>
</g>
<path fill="#0E0902" d="M221.2,274h25.4c1,0,1.8-0.8,1.8-1.8s-0.8-1.8-1.8-1.8h-25.4c-1,0-1.8,0.8-1.8,1.8S220.2,274,221.2,274"/>
</svg>
