<?xml version="1.0" encoding="utf-8"?>
<!-- Generator: Adobe Illustrator 17.1.0, SVG Export Plug-In . SVG Version: 6.00 Build 0)  -->
<!DOCTYPE svg PUBLIC "-//W3C//DTD SVG 1.1//EN" "http://www.w3.org/Graphics/SVG/1.1/DTD/svg11.dtd">
<svg version="1.1" id="collared-shirt" xmlns="http://www.w3.org/2000/svg" xmlns:xlink="http://www.w3.org/1999/xlink" x="0px"
	 y="0px" viewBox="0 0 400 400" enable-background="new 0 0 400 400" xml:space="preserve">
<path id="snoo-body-f::fill::neck" fill="#FFFFFF" d="M228.9,231l-29.4,40.9L170.4,231H228.9z"/>
<g>
	<g id="fill::collared-shirt_1_">
		<path fill="#8BC2EF" stroke="#0E0902" stroke-width="11" d="M154.2,231c0,23.2,0,48.4,0,48.4h-43.8
			C112.5,252.2,131.2,231,154.2,231z"/>
		<path fill="#8BC2EF" stroke="#0E0902" stroke-width="11" d="M134.1,278.8h-25c-3.3,0-5.9,2.7-5.9,5.9v12.5c0,3.3,2.7,5.9,5.9,5.9
			h25c3.3,0,5.9-2.7,5.9-5.9v-12.5C140,281.4,137.4,278.8,134.1,278.8z"/>
		<path fill="#8BC2EF" stroke="#0E0902" stroke-width="11" d="M289.1,282.4h-43.8c0,0,0-22.9,0-48.4
			C268.3,234,287.1,255.2,289.1,282.4z"/>
		<path fill="#8BC2EF" stroke="#0E0902" stroke-width="11" d="M259.5,287.7v12.5c0,3.3,2.7,5.9,5.9,5.9h25c3.3,0,5.9-2.7,5.9-5.9
			v-12.5c0-3.3-2.7-5.9-5.9-5.9h-25C262.1,281.8,259.5,284.4,259.5,287.7z"/>
		<path fill="#8BC2EF" d="M199.4,198.8c-18.8,0-36.8,2.6-52.8,7.2c-5.4,18.9-8.4,40.9-8.4,64.4c0,29.1,4.8,55.8,12.8,77.2
			c14.8,3.8,31.3,6.2,48.4,6.2s33.3-2.4,48.1-6.2c8-21.3,12.8-48.1,12.8-77.2c0-23.5-3-45.5-8.4-64.4
			C235.9,201.4,218.2,198.8,199.4,198.8z M228.9,231l-29.4,40.9L170.4,231H228.9z"/>
		<path fill="#8BC2EF" stroke="#0E0902" stroke-width="8" stroke-linejoin="round" d="M199.4,271.9c-9.4-7.5-21.1-15.1-32-18.2
			c-2.6-0.7-0.4-2.3-0.1-5.6c0.1-1.3-4.6-2.6-8.1-3.2c1.5-2.2,3.3-12.4,4.9-14.3c2.7-3,5.2,2.7,6.4,0.9
			C179.5,241.3,188.2,258.8,199.4,271.9L199.4,271.9z"/>
		<path fill="#8BC2EF" stroke="#0E0902" stroke-width="8" stroke-linejoin="round" d="M199.9,271.9c14.2-12.4,24.1-14.6,32-18.2
			c2.4-1.1,0.2-4,0.3-6.2c0.1-1.4,4.1-1.9,7.8-2.6c-2.4-3.5-3.1-11.2-5.5-13.8c-1.5-1.6-5.1,1.5-5.8,0.4
			C222.4,240.8,209.2,259.2,199.9,271.9z"/>
	</g>
	<path fill="none" stroke="#0E0902" stroke-width="11" d="M199.4,198.8c-18.8,0-36.8,2.6-52.8,7.2c-5.4,18.9-8.4,40.9-8.4,64.4
		c0,29.1,4.8,55.8,12.8,77.2c14.8,3.8,31.3,6.2,48.4,6.2s33.3-2.4,48.1-6.2c8-21.3,12.8-48.1,12.8-77.2c0-23.5-3-45.5-8.4-64.4
		C235.9,201.4,218.2,198.8,199.4,198.8z"/>
	<g>
		<circle cx="207.8" cy="284.2" r="2.8"/>
		<circle cx="207.8" cy="300.7" r="2.8"/>
		<circle cx="207.8" cy="317.3" r="2.8"/>
		<circle cx="207.8" cy="333.8" r="2.8"/>
	</g>
	<path fill="#0E0902" d="M196,272.5v81.2c0,2.2,1.8,4,4,4s4-1.8,4-4v-81.2c0-2.2-1.8-4-4-4S196,270.3,196,272.5"/>
</g>
</svg>
