<?xml version="1.0" encoding="utf-8"?>
<!-- Generator: Adobe Illustrator 17.1.0, SVG Export Plug-In . SVG Version: 6.00 Build 0)  -->
<!DOCTYPE svg PUBLIC "-//W3C//DTD SVG 1.1//EN" "http://www.w3.org/Graphics/SVG/1.1/DTD/svg11.dtd">
<svg version="1.1" id="croptop" xmlns="http://www.w3.org/2000/svg" xmlns:xlink="http://www.w3.org/1999/xlink" x="0px" y="0px"
	 viewBox="0 0 400 400" enable-background="new 0 0 400 400" xml:space="preserve">
<path id="fill::croptop" fill="#F38221" stroke="#000000" stroke-width="11" d="M145.6,327.2c-1.6-6.5-2.9-13.3-4-20.4
	c-1.7-11.5-2.6-23.8-2.6-36.4c0-23.5,3-45.5,8.4-64.4c16-4.6,34-7.2,52.8-7.2c18.8,0,36.5,2.6,52.5,7.2c5.4,18.9,8.4,40.9,8.4,64.4
	c0,12.7-0.9,24.9-2.6,36.4c-1,7.1-2.4,13.9-4,20.4l-6.2,1.9c-14.9,3.8-31,6.2-48.1,6.2c-17.1,0-33.6-2.4-48.4-6.2L145.6,327.2z
	 M168.3,219.2v19c0,13.5,11,24.5,24.5,24.5h17.6c13.5,0,24.5-11,24.5-24.5v-19c0-13.5-11-24.5-24.5-24.5h-17.6
	C179.3,194.7,168.3,205.7,168.3,219.2z"/>
</svg>
