<?xml version="1.0" encoding="utf-8"?>
<!-- Generator: Adobe Illustrator 17.1.0, SVG Export Plug-In . SVG Version: 6.00 Build 0)  -->
<!DOCTYPE svg PUBLIC "-//W3C//DTD SVG 1.1//EN" "http://www.w3.org/Graphics/SVG/1.1/DTD/svg11.dtd">
<svg version="1.1" id="cylon" xmlns="http://www.w3.org/2000/svg" xmlns:xlink="http://www.w3.org/1999/xlink" x="0px" y="0px"
	 viewBox="0 0 400 400" enable-background="new 0 0 400 400" xml:space="preserve">
<g id="fill::cylon">
	<ellipse fill="#B6B6B6" stroke="#000000" stroke-width="11" stroke-linejoin="round" cx="244.7" cy="284.3" rx="44.1" ry="53.2"/>
	<ellipse fill="#B6B6B6" stroke="#000000" stroke-width="11" stroke-linejoin="round" cx="153.7" cy="284.3" rx="44.1" ry="53.2"/>
	<path fill="#B6B6B6" stroke="#000000" stroke-width="11" stroke-linejoin="round" d="M200.3,198.8c-18.8,0-36.8,2.6-52.8,7.2
		c-5.4,18.9-8.4,40.9-8.4,64.4c0,29.1,4.8,55.9,12.8,77.2c14.8,3.8,31.3,6.2,48.4,6.2s33.3-2.4,48.1-6.2c8-21.3,12.8-48.1,12.8-77.2
		c0-23.5-3-45.5-8.4-64.4C236.8,201.4,219.1,198.8,200.3,198.8z"/>
</g>
<g id="cylon-f:darker::fill::plates">
	<path fill="#777777" stroke="#000000" stroke-width="8" stroke-linejoin="round" d="M181.7,266.3l7.5,79.4c0,0-25.5,0.6-25.1,0.6
		s-8.4-71.1-8.4-71.1L181.7,266.3z"/>
	<path fill="#777777" stroke="#000000" stroke-width="8" stroke-linejoin="round" d="M216.5,266.3l-7.5,79.4c0,0,25.5,0.6,25.1,0.6
		s8.4-71.1,8.4-71.1L216.5,266.3z"/>
	<rect x="186.3" y="284" fill="#777777" stroke="#000000" stroke-width="8" stroke-linejoin="round" width="25.3" height="61.5"/>
	<polygon fill="#777777" stroke="#000000" stroke-width="8" stroke-linejoin="round" points="188.3,246 178.6,285.9 219.4,285.9 
		209.7,246 	"/>
	<path fill="#777777" stroke="#000000" stroke-width="8" stroke-linejoin="round" d="M173.3,232.8l-24,30.7c36-6.9,69.2-6,100.6,0
		l-24-30.7H173.3z"/>
	<path fill="#777777" stroke="#000000" stroke-width="8" stroke-linejoin="round" d="M144.3,237.1c-20.8,0-37.6,16.8-37.6,37.6h37.6
		V237.1z"/>
	<path fill="#777777" stroke="#000000" stroke-width="11" stroke-linejoin="round" d="M141.1,222.6c-10.7,4.7-21.6,8.2-24.9,7.1
		c-3.4-1.1-12.3-6.1-17.7-1.7c-5.4,4.3-6,8.8,0.6,16.7s14.4,12.9,25.3,12.7c11-0.2,39.1,2,46.8-7.4
		C178.9,240.7,181.9,229.2,141.1,222.6z"/>
	<path fill="#777777" stroke="#000000" stroke-width="8" stroke-linejoin="round" d="M256.7,237.1c20.8,0,37.6,16.8,37.6,37.6h-37.6
		V237.1z"/>
	<path fill="#777777" stroke="#000000" stroke-width="11" stroke-linejoin="round" d="M261,222.6c10.7,4.7,21.6,8.2,24.9,7.1
		c3.4-1.1,12.3-6.1,17.7-1.7c5.4,4.3,6,8.8-0.6,16.7s-14.4,12.9-25.3,12.7c-11-0.2-39.1,2-46.8-7.4
		C223.2,240.7,220.2,229.2,261,222.6z"/>
	<path fill="#777777" stroke="#000000" stroke-width="11" stroke-linejoin="round" d="M152.6,339.2c-0.7,1.1-1.2,2.3-1.2,3.5
		c0,9.1,36.2,21.7,48.4,21.7s48.4-12.6,48.4-21.7c0-1.2-0.5-2.4-1.2-3.5c-13.7,1.6-29.7,2.5-47.1,2.5
		C182.4,341.7,166.3,340.8,152.6,339.2z"/>
</g>
</svg>
