<?xml version="1.0" encoding="utf-8"?>
<!-- Generator: Adobe Illustrator 17.1.0, SVG Export Plug-In . SVG Version: 6.00 Build 0)  -->
<!DOCTYPE svg PUBLIC "-//W3C//DTD SVG 1.1//EN" "http://www.w3.org/Graphics/SVG/1.1/DTD/svg11.dtd">
<svg version="1.1" id="doge-shirt" xmlns="http://www.w3.org/2000/svg" xmlns:xlink="http://www.w3.org/1999/xlink" x="0px" y="0px"
	 viewBox="0 0 400 400" enable-background="new 0 0 400 400" xml:space="preserve">
<path fill="#FFFCDD" stroke="#000000" stroke-width="11" stroke-linejoin="round" d="M245.2,231c24.4,0,44.1,23.8,44.1,53.2
	c0,11,7.7,32.9,7.7,32.9s-33.3,0.7-48.6,0.7c-24.4,0-47.4-4.2-47.4-33.6C201,254.9,220.8,231,245.2,231z"/>
<path fill="#FFFCDD" stroke="#000000" stroke-width="11" stroke-linejoin="round" d="M154.9,231c-24.4,0-44.1,23.8-44.1,53.2
	c0,11-7.7,32.9-7.7,32.9s33.3,0.7,48.6,0.7c24.4,0,47.4-4.2,47.4-33.6C199,254.9,179.2,231,154.9,231z"/>
<path id="fill::doge-shirt" fill="#558E38" stroke="#000000" stroke-width="11" d="M200.3,198.8c-18.8,0-36.8,2.6-52.8,7.2
	c-5.4,18.9-8.4,40.9-8.4,64.4c0,29.1,4.8,55.9,12.8,77.2c14.8,3.8,31.3,6.2,48.4,6.2c17.1,0,33.3-2.4,48.1-6.2
	c8-21.3,12.8-48.1,12.8-77.2c0-23.5-3-45.5-8.4-64.4C236.8,201.4,219.1,198.8,200.3,198.8z"/>
<g>
	<path fill="#FFFCDD" d="M158.6,251.1v9.9c0,17.2,20.1,26.6,33.3,15.6l2.2-1.9L158.6,251.1z"/>
	<path fill="#FFFCDD" d="M241.5,251.1v9.9c0,17.2-20.1,26.6-33.3,15.6l-2.2-1.9L241.5,251.1z"/>
	<ellipse fill="#FFFCDD" cx="200.1" cy="290.3" rx="41.4" ry="38.5"/>
	<path fill="#558E38" d="M182.3,278.5c1.6,0,2.9,1.3,2.9,2.9c0,1.6-1.3,2.9-2.9,2.9s-2.9-1.3-2.9-2.9
		C179.4,279.8,180.7,278.5,182.3,278.5 M182.3,275.5c-3.3,0-5.9,2.6-5.9,5.9c0,3.3,2.6,5.9,5.9,5.9s5.9-2.6,5.9-5.9
		C188.2,278.1,185.6,275.5,182.3,275.5z"/>
	<path fill="#558E38" d="M217.8,278.5c1.6,0,2.9,1.3,2.9,2.9c0,1.6-1.3,2.9-2.9,2.9s-2.9-1.3-2.9-2.9
		C214.9,279.8,216.2,278.5,217.8,278.5 M217.8,275.5c-3.3,0-5.9,2.6-5.9,5.9c0,3.3,2.6,5.9,5.9,5.9s5.9-2.6,5.9-5.9
		C223.7,278.1,221.1,275.5,217.8,275.5z"/>
	<path fill="none" stroke="#558E38" stroke-width="4" stroke-linecap="round" stroke-miterlimit="10" d="M188.2,293.2
		c0,3.9,3.2,7.1,7.1,7.1c1.8,0,3.5-0.7,4.7-1.8c1.3,1.1,2.9,1.8,4.7,1.8c3.9,0,7.1-3.2,7.1-7.1"/>
	
		<polygon fill="none" stroke="#558E38" stroke-width="4" stroke-linecap="round" stroke-linejoin="round" stroke-miterlimit="10" points="
		200.1,293.2 194.1,287.3 206,287.3 	"/>
</g>
</svg>
