<?xml version="1.0" encoding="utf-8"?>
<!-- Generator: Adobe Illustrator 17.1.0, SVG Export Plug-In . SVG Version: 6.00 Build 0)  -->
<!DOCTYPE svg PUBLIC "-//W3C//DTD SVG 1.1//EN" "http://www.w3.org/Graphics/SVG/1.1/DTD/svg11.dtd">
<svg version="1.1" id="doge-shirt" xmlns="http://www.w3.org/2000/svg" xmlns:xlink="http://www.w3.org/1999/xlink" x="0px" y="0px"
	 viewBox="0 0 400 400" enable-background="new 0 0 400 400" xml:space="preserve">
<g id="fill::accent:2">
	<path fill="#FFFCDD" stroke="#000000" stroke-width="11" stroke-linejoin="round" d="M245.2,231c24.4,0,44.1,23.8,44.1,53.2
		c0,11,7.7,32.9,7.7,32.9s-33.3,0.7-48.6,0.7c-24.4,0-47.4-4.2-47.4-33.6C201,254.9,220.8,231,245.2,231z"/>
	<path fill="#FFFCDD" stroke="#000000" stroke-width="11" stroke-linejoin="round" d="M154.9,231c-24.4,0-44.1,23.8-44.1,53.2
		c0,11-7.7,32.9-7.7,32.9s33.3,0.7,48.6,0.7c24.4,0,47.4-4.2,47.4-33.6C199,254.9,179.2,231,154.9,231z"/>
</g>
<path id="fill::doge-shirt" fill="#558E38" stroke="#000000" stroke-width="11" d="M200.3,198.8c-18.8,0-36.8,2.6-52.8,7.2
	c-5.4,18.9-8.4,40.9-8.4,64.4c0,29.1,4.8,55.9,12.8,77.2c14.8,3.8,31.3,6.2,48.4,6.2s33.3-2.4,48.1-6.2c8-21.3,12.8-48.1,12.8-77.2
	c0-23.5-3-45.5-8.4-64.4C236.8,201.4,219.1,198.8,200.3,198.8z"/>
<g id="fill::accent:1">
	<polygon fill="#FFFCDD" points="201.2,289.3 199,289.3 200.1,290.4 	"/>
	<path fill="#FFFCDD" d="M241.5,251.1l-14.7,9.8c-7.2-5.7-16.5-9.1-26.7-9.1c-10.2,0-19.5,3.4-26.7,9.1l-14.8-9.8v9.9
		c0,4.9,1.6,9.1,4.3,12.5c-2.7,5.1-4.2,10.8-4.2,16.8c0,21.3,18.5,38.5,41.4,38.5c22.9,0,41.4-17.2,41.4-38.5
		c0-6.1-1.5-11.8-4.2-16.9c2.6-3.3,4.2-7.6,4.2-12.4V251.1z M192.2,286.5c0.3-0.8,1-1.2,1.9-1.2H206c0.8,0,1.5,0.5,1.8,1.2
		c0.3,0.7,0.1,1.6-0.4,2.2l-5.9,5.9c-0.4,0.4-0.9,0.6-1.4,0.6c-0.5,0-1-0.2-1.4-0.6l-6-5.9C192.1,288.2,191.9,287.3,192.2,286.5z
		 M176.4,281.4c0-3.3,2.6-5.9,5.9-5.9c3.3,0,5.9,2.6,5.9,5.9s-2.6,5.9-5.9,5.9S176.4,284.7,176.4,281.4z M204.7,302.3
		c-1.6,0-3.2-0.5-4.7-1.3c-1.4,0.9-3.1,1.3-4.7,1.3c-5,0-9.1-4.1-9.1-9.1c0-1.1,0.9-2,2-2s2,0.9,2,2c0,2.8,2.3,5.1,5.1,5.1
		c1.2,0,2.5-0.5,3.3-1.3l1.3-1.2l1.3,1.1c1,0.9,2.2,1.3,3.4,1.3c2.8,0,5.1-2.3,5.1-5.1c0-1.1,0.9-2,2-2s2,0.9,2,2
		C213.8,298.2,209.7,302.3,204.7,302.3z M217.8,287.3c-3.3,0-5.9-2.6-5.9-5.9s2.6-5.9,5.9-5.9c3.3,0,5.9,2.6,5.9,5.9
		S221.1,287.3,217.8,287.3z"/>
	<circle fill="#FFFCDD" cx="217.8" cy="281.4" r="2.9"/>
	<circle fill="#FFFCDD" cx="182.3" cy="281.4" r="2.9"/>
</g>
</svg>
