<?xml version="1.0" encoding="utf-8"?>
<!-- Generator: Adobe Illustrator 17.1.0, SVG Export Plug-In . SVG Version: 6.00 Build 0)  -->
<!DOCTYPE svg PUBLIC "-//W3C//DTD SVG 1.1//EN" "http://www.w3.org/Graphics/SVG/1.1/DTD/svg11.dtd">
<svg version="1.1" id="football-jersey" xmlns="http://www.w3.org/2000/svg" xmlns:xlink="http://www.w3.org/1999/xlink" x="0px"
	 y="0px" viewBox="0 0 400 400" enable-background="new 0 0 400 400" xml:space="preserve">
<g id="fill::jersey">
	<path id="XMLID_2_" fill="#773141" stroke="#000000" stroke-width="11" d="M169,261.3c0,19.4-15.7,35.2-35.2,35.2
		s-35.2-15.7-35.2-35.2c0-19.4-2.8-35.2,35.2-35.2C153.3,226.2,169,241.9,169,261.3z"/>
	<path id="XMLID_1_" fill="#773141" stroke="#000000" stroke-width="11" d="M231,261.3c0,19.4,15.7,35.2,35.2,35.2
		s35.2-15.7,35.2-35.2c0-19.4,2.8-35.2-35.2-35.2C246.7,226.2,231,241.9,231,261.3z"/>
	<path fill="#773141" stroke="#000000" stroke-width="11" d="M200.2,198.8c-18.8,0-72.8,7.2-72.8,7.2s11.6,40.9,11.6,64.4
		c0,29.1,4.8,55.9,12.8,77.2c5.6,1.4,11.4,2.7,17.3,3.7c10,1.6,20.4,2.6,31.1,2.6c17.1,0,33.3-2.4,48.1-6.2
		c8-21.3,12.8-48.1,12.8-77.2c0-23.5,11.6-64.4,11.6-64.4S219,198.8,200.2,198.8z"/>
</g>
<g>
	<text transform="matrix(1 0 0 1 156.8799 318.8301)" fill="#FFFFFF" font-family="'CollegeBold'" font-size="100">2</text>
	<text transform="matrix(1 0 0 1 201.6611 318.8301)" fill="#FFFFFF" font-family="'CollegeBold'" font-size="100">1</text>
</g>
<g id="stroke::accent:1">
	
		<text transform="matrix(1 0 0 1 156.8799 318.8301)" fill="none" stroke="#E1B612" stroke-width="4" font-family="'CollegeBold'" font-size="100">2</text>
	
		<text transform="matrix(1 0 0 1 201.6611 318.8301)" fill="none" stroke="#E1B612" stroke-width="4" font-family="'CollegeBold'" font-size="100">1</text>
</g>
<g>
	<g>
		<defs>
			<path id="SVGID_1_" d="M291.9,237.7c-4-4-12.6-6-25.8-6H133.9c-13.2,0-21.8,2-25.8,6c-4,4.1-4,11-3.9,19.8c0,1.3,0,2.5,0,3.8
				c0,16.4,13.3,29.7,29.7,29.7h132.2c16.4,0,29.7-13.3,29.7-29.7c0-1.3,0-2.6,0-3.8C295.9,248.7,296,241.8,291.9,237.7z"/>
		</defs>
		<clipPath id="SVGID_2_">
			<use xlink:href="#SVGID_1_"  overflow="visible"/>
		</clipPath>
		<g clip-path="url(#SVGID_2_)">
			<path fill="#FFFFFF" d="M121.3,275H90.2c-1.1,0-2-0.9-2-2v-6.5c0-1.1,0.9-2,2-2h31.1c1.1,0,2,0.9,2,2v6.5
				C123.3,274.1,122.4,275,121.3,275z"/>
			<path fill="#FFFFFF" d="M311.3,275h-31.1c-1.1,0-2-0.9-2-2v-6.5c0-1.1,0.9-2,2-2h31.1c1.1,0,2,0.9,2,2v6.5
				C313.3,274.1,312.4,275,311.3,275z"/>
		</g>
		<g id="fill::accent:2" clip-path="url(#SVGID_2_)">
			<path fill="#E1B612" d="M121.3,259.5H90.2c-1.1,0-2-0.9-2-2V251c0-1.1,0.9-2,2-2h31.1c1.1,0,2,0.9,2,2v6.5
				C123.3,258.6,122.4,259.5,121.3,259.5z"/>
			<path fill="#E1B612" d="M311.3,259.5h-31.1c-1.1,0-2-0.9-2-2V251c0-1.1,0.9-2,2-2h31.1c1.1,0,2,0.9,2,2v6.5
				C313.3,258.6,312.4,259.5,311.3,259.5z"/>
		</g>
	</g>
</g>
</svg>
