<?xml version="1.0" encoding="utf-8"?>
<!-- Generator: Adobe Illustrator 17.1.0, SVG Export Plug-In . SVG Version: 6.00 Build 0)  -->
<!DOCTYPE svg PUBLIC "-//W3C//DTD SVG 1.1//EN" "http://www.w3.org/Graphics/SVG/1.1/DTD/svg11.dtd">
<svg version="1.1" id="football-jersey" xmlns="http://www.w3.org/2000/svg" xmlns:xlink="http://www.w3.org/1999/xlink" x="0px"
	 y="0px" viewBox="0 0 400 400" enable-background="new 0 0 400 400" xml:space="preserve">
<g id="fill::jersey">
	<path id="XMLID_2_" fill="#773141" stroke="#000000" stroke-width="11" d="M169,261.3c0,19.4-15.7,35.2-35.2,35.2
		s-35.2-15.7-35.2-35.2c0-19.4-2.8-35.2,35.2-35.2C153.3,226.2,169,241.9,169,261.3z"/>
	<path id="XMLID_1_" fill="#773141" stroke="#000000" stroke-width="11" d="M231,261.3c0,19.4,15.7,35.2,35.2,35.2
		s35.2-15.7,35.2-35.2c0-19.4,2.8-35.2-35.2-35.2C246.7,226.2,231,241.9,231,261.3z"/>
	<path fill="#773141" stroke="#000000" stroke-width="11" d="M200.2,198.8c-18.8,0-72.8,7.2-72.8,7.2s11.6,40.9,11.6,64.4
		c0,29.1,4.8,55.9,12.8,77.2c5.6,1.4,11.4,2.7,17.3,3.7c10,1.6,20.4,2.6,31.1,2.6c17.1,0,33.3-2.4,48.1-6.2
		c8-21.3,12.8-48.1,12.8-77.2c0-23.5,11.6-64.4,11.6-64.4S219,198.8,200.2,198.8z"/>
</g>
<g>
	<text transform="matrix(1 0 0 1 156.8799 318.8301)" fill="#FFFFFF" font-family="'CollegeBold'" font-size="100">2</text>
	<text transform="matrix(1 0 0 1 201.6611 318.8301)" fill="#FFFFFF" font-family="'CollegeBold'" font-size="100">1</text>
</g>
<g id="accent-f::stroke::number-stroke">
	
		<text transform="matrix(1 0 0 1 156.8799 318.8301)" fill="none" stroke="#E1B612" stroke-width="4" font-family="'CollegeBold'" font-size="100">2</text>
	
		<text transform="matrix(1 0 0 1 201.6611 318.8301)" fill="none" stroke="#E1B612" stroke-width="4" font-family="'CollegeBold'" font-size="100">1</text>
</g>
<g>
	<path fill="#FFFFFF" d="M278.2,266.5v6.5c0,1.1,0.9,2,2,2h12.2c1.7-3.2,2.8-6.7,3.2-10.5h-15.4
		C279.1,264.5,278.2,265.4,278.2,266.5z"/>
	<path fill="#FFFFFF" d="M123.3,273v-6.5c0-1.1-0.9-2-2-2h-16.9c0.4,3.8,1.5,7.3,3.2,10.5h13.7C122.4,275,123.3,274.1,123.3,273z"/>
</g>
<g id="fill::accent">
	<path fill="#E1B612" d="M123.3,257.5V251c0-1.1-0.9-2-2-2h-17c-0.2,2.6-0.1,5.4-0.1,8.5c0,0.7,0,1.3,0,2h17.1
		C122.4,259.5,123.3,258.6,123.3,257.5z"/>
	<path fill="#E1B612" d="M278.2,251v6.5c0,1.1,0.9,2,2,2h15.6c0-0.7,0-1.4,0-2c0-3.1,0.1-5.9-0.1-8.5h-15.5
		C279.1,249,278.2,249.9,278.2,251z"/>
</g>
</svg>
