<?xml version="1.0" encoding="utf-8"?>
<!-- Generator: Adobe Illustrator 17.1.0, SVG Export Plug-In . SVG Version: 6.00 Build 0)  -->
<!DOCTYPE svg PUBLIC "-//W3C//DTD SVG 1.1//EN" "http://www.w3.org/Graphics/SVG/1.1/DTD/svg11.dtd">
<svg version="1.1" id="halter" xmlns="http://www.w3.org/2000/svg" xmlns:xlink="http://www.w3.org/1999/xlink" x="0px" y="0px"
	 viewBox="0 0 400 400" enable-background="new 0 0 400 400" xml:space="preserve">
<path id="fill::halter" fill="#8CC63F" stroke="#000000" stroke-width="11" d="M252.8,206c5.4,18.9,8.4,40.9,8.4,64.4
	c0,29.1-4.8,55.9-12.8,77.2c-14.9,3.8-31,6.2-48.1,6.2c-17.1,0-33.6-2.4-48.4-6.2c-8-21.3-12.8-48.1-12.8-77.2
	c0-23.5,3-45.5,8.4-64.4c16-4.6,34-7.2,52.8-7.2C219.1,198.8,236.8,201.4,252.8,206z M156.1,216.1v25.2c0,17.9,14.5,32.4,31.9,32.4
	h23.3c18.4,0,32.9-14.5,32.9-32.4v-25.2c0-17.9-14.5-32.4-32.4-32.4h-23.3C170.6,183.7,156.1,198.2,156.1,216.1z"/>
</svg>
