<?xml version="1.0" encoding="utf-8"?>
<!-- Generator: Adobe Illustrator 17.1.0, SVG Export Plug-In . SVG Version: 6.00 Build 0)  -->
<!DOCTYPE svg PUBLIC "-//W3C//DTD SVG 1.1//EN" "http://www.w3.org/Graphics/SVG/1.1/DTD/svg11.dtd">
<svg version="1.1" id="heart" xmlns="http://www.w3.org/2000/svg" xmlns:xlink="http://www.w3.org/1999/xlink" x="0px" y="0px"
	 viewBox="0 0 400 400" enable-background="new 0 0 400 400" xml:space="preserve">
<g id="fill::heart">
	<path fill="#FF5FCB" stroke="#0E0902" stroke-width="11" d="M155,231c-23,0-41.7,21.3-43.8,48.4h87.5C196.7,252.3,178,231,155,231z
		"/>
	<path fill="#FF5FCB" stroke="#0E0902" stroke-width="11" d="M245.3,231c-23,0-41.7,21.3-43.8,48.4H289
		C287,252.3,268.3,231,245.3,231z"/>
	<path fill="#FF5FCB" stroke="#0E0902" stroke-width="11" d="M200.3,198.8c-18.8,0-36.8,2.6-52.8,7.2c-5.4,18.9-8.4,40.9-8.4,64.4
		c0,29.1,4.8,55.9,12.8,77.2c14.8,3.8,31.3,6.2,48.4,6.2s33.3-2.4,48.1-6.2c8-21.3,12.8-48.1,12.8-77.2c0-23.5-3-45.5-8.4-64.4
		C236.8,201.4,219.1,198.8,200.3,198.8z"/>
</g>
<path fill="#E41B5B" stroke="#FBAEFF" stroke-width="8" stroke-linecap="round" stroke-linejoin="round" d="M201,266.1
	c-7.2-13.1-34.7-14.5-33.5,4.6c1,15.8,25.9,32.8,33.5,45.5l0,0c0,0,0,0,0,0c0,0,0,0,0,0l0,0c7.5-12.7,32.5-29.7,33.4-45.5
	C235.6,251.5,208.2,253,201,266.1z"/>
</svg>
