<?xml version="1.0" encoding="utf-8"?>
<!-- Generator: Adobe Illustrator 17.1.0, SVG Export Plug-In . SVG Version: 6.00 Build 0)  -->
<!DOCTYPE svg PUBLIC "-//W3C//DTD SVG 1.1//EN" "http://www.w3.org/Graphics/SVG/1.1/DTD/svg11.dtd">
<svg version="1.1" id="historical-costuming" xmlns="http://www.w3.org/2000/svg" xmlns:xlink="http://www.w3.org/1999/xlink"
	 x="0px" y="0px" viewBox="0 0 400 400" enable-background="new 0 0 400 400" xml:space="preserve">
<g id="fill::costuming">
	<ellipse id="XMLID_2_" fill="#E0CFAD" stroke="#000000" stroke-width="11" cx="154.9" cy="284.3" rx="44.1" ry="53.2"/>
	<ellipse id="XMLID_3_" fill="#E0CFAD" stroke="#000000" stroke-width="11" cx="245.2" cy="284.3" rx="44.1" ry="53.2"/>
	<path fill="#E0CFAD" stroke="#000000" stroke-width="11" d="M200.3,198.8c-18.8,0-36.8,2.6-52.8,7.2c-5.4,18.9-8.4,40.9-8.4,64.4
		c0,29.1,4.8,55.9,12.8,77.2c14.8,3.8,31.3,6.2,48.4,6.2s33.3-2.4,48.1-6.2c8-21.3,12.8-48.1,12.8-77.2c0-23.5-3-45.5-8.4-64.4
		C236.8,201.4,219.1,198.8,200.3,198.8z"/>
</g>
<g>
	<path fill="#4F3B26" stroke="#000000" stroke-width="7.1304" d="M143.4,299.2c0,0,19.7,4.3,55.6,4.3c35.8,0,59.2-4.3,59.2-4.3v14.3
		c0,0-23.3,4.3-59.2,4.3c-35.8,0-55.6-4.3-55.6-4.3L143.4,299.2L143.4,299.2z"/>
	<path fill="#4F3B26" stroke="#000000" stroke-width="6" d="M177.6,316.7c-0.7,5.4-5.8,9.2-11.2,8.5l-29.4-4.1
		c-5.5-0.8-9.3-5.8-8.5-11.2l1.6-11.8c0.7-5.4,5.8-9.2,11.2-8.5l29.4,4.1c5.4,0.8,9.2,5.8,8.5,11.2L177.6,316.7z"/>
	<path fill="#4F3B26" stroke="#000000" stroke-width="6" d="M179.3,305c-0.8,5.4-5.8,9.2-11.2,8.5l-29.4-4.1
		c-5.5-0.8-9.2-5.8-8.5-11.2v-0.1c0.7-5.4,5.8-9.2,11.2-8.5l29.4,4.1c5.4,0.8,9.2,5.8,8.5,11.2V305z"/>
</g>
<g>
	
		<line fill="none" stroke="#000000" stroke-width="3" stroke-linecap="round" stroke-linejoin="round" x1="194.9" y1="257.3" x2="207.4" y2="244.8"/>
	
		<line fill="none" stroke="#000000" stroke-width="3" stroke-linecap="round" stroke-linejoin="round" x1="194.9" y1="244.8" x2="207.4" y2="257.3"/>
	
		<line fill="none" stroke="#000000" stroke-width="3" stroke-linecap="round" stroke-linejoin="round" x1="194.9" y1="269.2" x2="207.4" y2="256.6"/>
	
		<line fill="none" stroke="#000000" stroke-width="3" stroke-linecap="round" stroke-linejoin="round" x1="194.9" y1="256.6" x2="207.4" y2="269.2"/>
	
		<line fill="none" stroke="#000000" stroke-width="3" stroke-linecap="round" stroke-linejoin="round" x1="194.9" y1="244.2" x2="207.4" y2="231.6"/>
	
		<line fill="none" stroke="#000000" stroke-width="3" stroke-linecap="round" stroke-linejoin="round" x1="194.9" y1="231.6" x2="207.4" y2="244.2"/>
</g>
</svg>
