<?xml version="1.0" encoding="utf-8"?>
<!-- Generator: Adobe Illustrator 17.1.0, SVG Export Plug-In . SVG Version: 6.00 Build 0)  -->
<!DOCTYPE svg PUBLIC "-//W3C//DTD SVG 1.1//EN" "http://www.w3.org/Graphics/SVG/1.1/DTD/svg11.dtd">
<svg version="1.1" id="jacket" xmlns="http://www.w3.org/2000/svg" xmlns:xlink="http://www.w3.org/1999/xlink" x="0px" y="0px"
	 viewBox="0 0 400 400" enable-background="new 0 0 400 400" xml:space="preserve">
<g id="fill::jacket">
	<path fill="#7F7C3E" stroke="#000000" stroke-width="11" d="M191.9,313.1c4.5-8.3,7.1-18.2,7.1-28.9c0-29.4-19.7-53.2-44.1-53.2
		c-24.4,0-44.1,23.8-44.1,53.2c0,10.6,2.6,20.6,7.1,28.9H191.9z"/>
	<path fill="#7F7C3E" stroke="#000000" stroke-width="11" d="M282.2,313.1c4.5-8.3,7.1-18.2,7.1-28.9c0-29.4-19.7-53.2-44.1-53.2
		c-24.4,0-44.1,23.8-44.1,53.2c0,10.6,2.6,20.6,7.1,28.9H282.2z"/>
	<path fill="#7F7C3E" stroke="#000000" stroke-width="11" d="M200.3,198.8c-18.8,0-36.8,2.6-52.8,7.2c-5.4,18.9-8.4,40.9-8.4,64.4
		c0,29.1,4.8,55.9,12.8,77.2c14.8,3.8,31.3,6.2,48.4,6.2c17.1,0,33.3-2.4,48.1-6.2c8-21.3,12.8-48.1,12.8-77.2
		c0-23.5-3-45.5-8.4-64.4C236.8,201.4,219.1,198.8,200.3,198.8z"/>
</g>
<g>
	<polyline points="196.6,239.3 196.6,357 205.6,357 205.6,239.3 	"/>
	<polygon points="155.9,236.1 186.5,262.5 203.2,244.4 196.6,238.3 185.8,250 161.7,229.3 155.9,236.1 	"/>
	<polygon points="240.4,229.3 216.3,250 205.5,238.3 198.9,244.4 215.5,262.5 246.2,236.1 240.4,229.3 	"/>
</g>
</svg>
