<?xml version="1.0" encoding="utf-8"?>
<!-- Generator: Adobe Illustrator 17.1.0, SVG Export Plug-In . SVG Version: 6.00 Build 0)  -->
<!DOCTYPE svg PUBLIC "-//W3C//DTD SVG 1.1//EN" "http://www.w3.org/Graphics/SVG/1.1/DTD/svg11.dtd">
<svg version="1.1" id="kendo" xmlns="http://www.w3.org/2000/svg" xmlns:xlink="http://www.w3.org/1999/xlink" x="0px" y="0px"
	 viewBox="0 0 400 400" enable-background="new 0 0 400 400" xml:space="preserve">
<g id="fill::kendo">
	<path fill="#004270" stroke="#000000" stroke-width="11" stroke-linejoin="round" d="M155,231c-23,0-41.7,21.3-43.8,48.4h87.5
		C196.7,252.3,178,231,155,231z"/>
	<path fill="#004270" stroke="#000000" stroke-width="11" stroke-linejoin="round" d="M245.3,231c-23,0-41.7,21.3-43.8,48.4H289
		C287,252.3,268.3,231,245.3,231z"/>
	<path fill="#004270" stroke="#000000" stroke-width="11" stroke-linejoin="round" d="M200.3,198.8c-18.8,0-36.8,2.6-52.8,7.2
		c-5.4,18.9-8.4,40.9-8.4,64.4c0,29.1,4.8,55.9,12.8,77.2c14.8,3.8,31.3,6.2,48.4,6.2s33.3-2.4,48.1-6.2c8-21.3,12.8-48.1,12.8-77.2
		c0-23.5-3-45.5-8.4-64.4C236.8,201.4,219.1,198.8,200.3,198.8z"/>
</g>
<path fill="#060E18" stroke="#000000" stroke-width="11" stroke-linejoin="round" d="M191.5,230.3c4.2,4.2-5,22.5-0.2,26.8
	c4.7,4.3,9.9,4.4,15.2,0s-4.4-22.4-0.7-26.8H191.5z"/>
<g id="kendo-f:darker::fill::plates">
	<path fill="#1B175B" stroke="#000000" stroke-width="11" stroke-linejoin="round" d="M226.9,235.1c6.5,19.1,31.2,27.4,54,31.4
		l19.8-20.2c-16.3-1.6-28.1-10.7-33.6-23.5L226.9,235.1z"/>
	<path fill="#1B175B" stroke="#000000" stroke-width="11" stroke-linejoin="round" d="M169.8,235.1c-6.5,19.1-31.2,27.4-54,31.4
		L96,246.3c16.3-1.6,28.1-10.7,33.6-23.5L169.8,235.1z"/>
	<path fill="#1B175B" stroke="#000000" stroke-width="11" stroke-linejoin="round" d="M256.6,312.4l-9.4,38.8
		c-9.1,4.1-21.5,5.6-32.5,6.5l-9.1-41L256.6,312.4z"/>
	<path fill="#1B175B" stroke="#000000" stroke-width="11" stroke-linejoin="round" d="M143.7,312.4l9.4,38.8
		c9.1,4.1,21.5,5.6,32.5,6.5l9.1-41L143.7,312.4z"/>
	<path fill="#1B175B" stroke="#000000" stroke-width="11" stroke-linejoin="round" d="M186.8,325.5c0.1,11.1-2.1,22.1-6.5,33.2
		c11.5,2.5,26.9,2.6,41,0c-5.2-11-7.3-22.1-7.6-33.1L186.8,325.5z"/>
	<path fill="#1B175B" stroke="#000000" stroke-width="11" stroke-linejoin="round" d="M258.2,296.9c-12.7-2.7-20.4-38.6-25.2-38.8
		c-4.4-0.2-17.6,15.5-31.8,16.5c-0.1,0-0.3,0-0.4,0c-0.3,0-0.6,0-0.9,0c-0.3,0-0.6,0-0.9,0c-0.1,0-0.3,0-0.4,0
		c-14.2-1-27.4-16.6-31.8-16.5c-4.8,0.2-12.5,36.1-25.2,38.8c0.3,8.2,0.8,12.9,3.4,21.2c15.2,2.6,35.3,2.8,53.7,2.9l0,0
		c0.4,0,0.9,0,1.3,0c0.4,0,0.9,0,1.3,0l0,0c18.3-0.1,38.4-0.3,53.7-2.9C257.4,309.8,257.8,305.1,258.2,296.9z"/>
	<path fill="#1B175B" stroke="#000000" stroke-width="11" stroke-linejoin="round" d="M141.5,300.5c39.1-6,78.5-6.2,117.6,0
		l-3.4,25.4c-36.9,5.7-72.7,5.6-109.6,0L141.5,300.5z"/>
</g>
</svg>
