<?xml version="1.0" encoding="utf-8"?>
<!-- Generator: Adobe Illustrator 17.1.0, SVG Export Plug-In . SVG Version: 6.00 Build 0)  -->
<!DOCTYPE svg PUBLIC "-//W3C//DTD SVG 1.1//EN" "http://www.w3.org/Graphics/SVG/1.1/DTD/svg11.dtd">
<svg version="1.1" id="lab-coat" xmlns="http://www.w3.org/2000/svg" xmlns:xlink="http://www.w3.org/1999/xlink" x="0px" y="0px"
	 viewBox="0 0 400 400" enable-background="new 0 0 400 400" xml:space="preserve">
<g id="fill::lab-coat:1">
	<path fill="#FFFFFF" stroke="#000000" stroke-width="11" d="M191.9,313.1c4.5-8.3,7.1-18.2,7.1-28.9c0-29.4-19.7-53.2-44.1-53.2
		c-24.4,0-44.1,23.8-44.1,53.2c0,10.6,2.6,20.6,7.1,28.9H191.9z"/>
	<path fill="#FFFFFF" stroke="#000000" stroke-width="11" d="M282.2,313.1c4.5-8.3,7.1-18.2,7.1-28.9c0-29.4-19.7-53.2-44.1-53.2
		c-24.4,0-44.1,23.8-44.1,53.2c0,10.6,2.6,20.6,7.1,28.9H282.2z"/>
	<path fill="#FFFFFF" stroke="#000000" stroke-width="11" d="M200.4,198.8c-18.8,0-36.8,2.6-52.8,7.2c-5.4,18.9-8.4,40.9-8.4,64.4
		c0,29.1,4.8,70.9,12.8,92.2c14.8,3.8,31.3,6.2,48.4,6.2c17.1,0,33.3-2.4,48.1-6.2c8-21.3,12.8-63.1,12.8-92.2
		c0-23.5-3-45.5-8.4-64.4C236.9,201.4,219.2,198.8,200.4,198.8z"/>
</g>
<polygon id="fill::undershirt" fill="#06B5FF" points="173.5,187 200.3,327.5 225.6,187 "/>
<g id="fill::lab-coat:2">
	<polygon fill="#FFFFFF" stroke="#000000" stroke-width="6" stroke-linejoin="round" points="185.4,228.1 169.3,241.6 182,260.2 
		170.1,267 200.3,330.6 	"/>
	<polygon fill="#FFFFFF" stroke="#000000" stroke-width="6" stroke-linejoin="round" points="215,228.1 231.1,241.6 218.4,260.2 
		230.3,267 200.1,330.6 	"/>
</g>
<g>
	<path fill="none" stroke="#0A0A0A" stroke-width="6" stroke-linecap="round" d="M154.8,314c0,0,8.2,4,21.9,0"/>
	<path fill="none" stroke="#0A0A0A" stroke-width="6" stroke-linecap="round" d="M225.8,314.9c0,0,8.2,4,21.9,0"/>
	<polyline fill="#231F20" points="202.4,368.8 202.4,330.6 198.4,330.6 198.4,368.8 	"/>
</g>
</svg>
