<?xml version="1.0" encoding="utf-8"?>
<!-- Generator: Adobe Illustrator 17.1.0, SVG Export Plug-In . SVG Version: 6.00 Build 0)  -->
<!DOCTYPE svg PUBLIC "-//W3C//DTD SVG 1.1//EN" "http://www.w3.org/Graphics/SVG/1.1/DTD/svg11.dtd">
<svg version="1.1" id="military" xmlns="http://www.w3.org/2000/svg" xmlns:xlink="http://www.w3.org/1999/xlink" x="0px" y="0px"
	 viewBox="0 0 400 400" enable-background="new 0 0 400 400" xml:space="preserve">
<g id="fill::military:1">
	<path fill="#2B4924" stroke="#0E0902" stroke-width="11" d="M252.6,228.6c38.3,5.3,40.7,14.5,41.3,20.9c0.6,6.3,0,49-1.2,50.7
		c-1.1,1.7-36.8,38.8-41.4,42.3c-4.6,3.4-8.6-57.2-8.6-57.2C236.5,256.3,238.8,252.7,252.6,228.6"/>
	<path fill="#2B4924" stroke="#0E0902" stroke-width="11" d="M143.8,228.6c-38.8,5.4-41.6,14.5-42.1,20.9c-0.6,6.3,0,49,1.2,50.7
		c1.1,1.7,29.5,38.8,34.1,42.3c4.6,3.4,16.7-57.2,16.7-57.2C160,256.3,157.6,252.7,143.8,228.6"/>
</g>
<path id="fill::undershirt" fill="#383838" stroke="#0E0902" stroke-width="11" d="M199.6,217.7c-18.8,0-36.8,2.3-52.8,6.3
	c-5.4,16.5-8.4,35.8-8.4,56.3c0,25.4,4.8,48.9,12.8,67.5c14.8,3.3,31.3,5.5,48.4,5.5s33.3-2.1,48.1-5.5c8-18.7,12.8-42.1,12.8-67.5
	c0-20.6-3-39.8-8.4-56.3C236.1,219.9,218.4,217.7,199.6,217.7"/>
<g>
	<path fill="#E2E21B" d="M293.7,236.7l-15.3-8.8c-4.2-2.4-9.6-1-12.1,3.2c-2.4,4.2-1,9.6,3.2,12.1l15.3,8.8c4.2,2.4,9.6,1,12.1-3.2
		l0,0C299.4,244.6,297.9,239.2,293.7,236.7z"/>
	<path fill="#E2E21B" d="M103,234.9l15.3-8.8c4.2-2.4,9.6-1,12.1,3.2l0,0c2.4,4.2,1,9.6-3.2,12.1l-15.3,8.8c-4.2,2.4-9.6,1-12.1-3.2
		l0,0C97.3,242.8,98.8,237.4,103,234.9z"/>
	<path fill="#E2E21B" d="M138.2,299.2L138.2,299.2c5,0,8.4,4.2,7.7,9.3l-3.8,28.7c-0.7,5.1-5.3,9.3-10.2,9.3l0,0
		c-5,0-8.4-4.2-7.7-9.3l3.8-28.7C128.6,303.4,133.2,299.2,138.2,299.2z"/>
	<path fill="#E2E21B" d="M257.8,299.2c-5,0-8.4,4.2-7.7,9.3l3.8,28.7c0.7,5.1,5.3,9.3,10.2,9.3l0,0c5,0,8.4-4.2,7.7-9.3l-3.8-28.7
		C267.3,303.4,262.7,299.2,257.8,299.2"/>
</g>
<path fill="#993421" stroke="#0E0902" stroke-width="8" d="M199.6,217.7c-0.9,0-1.9,0-2.8,0l-23.1,23.1c6.3,5.2,11.2,11.3,12.3,16.7
	c0.3,1.3,0.5,2.7,0.7,4.2l12.7,12.7l11.8-11.8c0.2-4.2,0.5-7.9,0.8-11.1c0,0,5.4-5.5,12.7-11.3l-22.6-22.6
	C201.3,217.7,200.5,217.7,199.6,217.7"/>
<g id="fill::military:2">
	<path fill="#2B4924" stroke="#0E0902" stroke-width="11" d="M186.1,257.5c3.8,18.3-0.8,50.7-5.7,66.1
		c-8.2,25.6-17.4,54.8-21.7,54.8c-8.1,0-22.8-31.8-23.2-54.1c-0.4-22.3-4.8-86.1,3.3-93.9C148.5,220.9,182.8,241.8,186.1,257.5"/>
	<path fill="#2B4924" stroke="#0E0902" stroke-width="11" stroke-linejoin="round" d="M212.1,251.5c-1.4,13.5-2.4,38.9,1.8,58.4
		c3.4,16.2,22.8,68.5,27.9,68.5c7.9,0,19-31.8,19.4-54.1c0.4-22.3,2.7-84.4-3.2-93.9C248.5,215,212.1,251.5,212.1,251.5z"/>
</g>
<g>
	<g>
		<g>
			<path fill="#EFE741" d="M224.9,268.6h19.5c2.2,0,4-1.8,4-4s-1.8-4-4-4h-19.5c-2.2,0-4,1.8-4,4S222.7,268.6,224.9,268.6"/>
			<path fill="#EFE741" d="M224.9,289.3h19.5c2.2,0,4-1.8,4-4s-1.8-4-4-4h-19.5c-2.2,0-4,1.8-4,4S222.7,289.3,224.9,289.3"/>
			<path fill="#EFE741" d="M224.9,309.2h19.5c2.2,0,4-1.8,4-4s-1.8-4-4-4h-19.5c-2.2,0-4,1.8-4,4
				C220.9,307.4,222.7,309.2,224.9,309.2"/>
		</g>
		<g>
			<path fill="#EFE741" d="M150.9,268.6h19.5c2.2,0,4-1.8,4-4s-1.8-4-4-4h-19.5c-2.2,0-4,1.8-4,4S148.7,268.6,150.9,268.6"/>
			<path fill="#EFE741" d="M150.9,289.3h19.5c2.2,0,4-1.8,4-4s-1.8-4-4-4h-19.5c-2.2,0-4,1.8-4,4S148.7,289.3,150.9,289.3"/>
			<path fill="#EFE741" d="M150.9,309.2h19.5c2.2,0,4-1.8,4-4s-1.8-4-4-4h-19.5c-2.2,0-4,1.8-4,4
				C146.9,307.4,148.7,309.2,150.9,309.2"/>
		</g>
	</g>
	<g>
		<path fill="#7D4D26" d="M158.7,264.6c0,3.4-2.7,6.1-6.1,6.1c-3.4,0-6.1-2.7-6.1-6.1l0,0c0-3.4,2.7-6.1,6.1-6.1
			C155.9,258.4,158.6,261.2,158.7,264.6L158.7,264.6"/>
		<path fill="#9D6130" d="M152.6,258.4L152.6,258.4c-3.4,0-6.1,2.7-6.1,6.1l0,0c0,0.2,0,0.3,0,0.5c0.1,0.2,0.2,0.3,0.2,0.5
			c1.3-2.1,3.3-3.4,5.9-3.4c2.5,0,4.7,1.2,5.9,3.1c0-0.2,0-0.4,0-0.6c0-1.7-0.6-3.2-1.7-4.4C155.7,259.1,154.2,258.4,152.6,258.4"/>
	</g>
	<g>
		<path fill="#7D4D26" d="M250.5,264.6c0,3.4-2.7,6.1-6.1,6.1c-3.4,0-6.1-2.7-6.1-6.1l0,0c0-3.4,2.7-6.1,6.1-6.1
			C247.8,258.4,250.5,261.2,250.5,264.6L250.5,264.6"/>
		<path fill="#9D6130" d="M244.4,258.4L244.4,258.4c-1,0-1.9,0.2-2.8,0.7c-1.9,1-3.2,3-3.3,5.3c0,0.1,0,0.1,0,0.2l0,0v0.1
			c0,0.3,0.3,0.5,0.3,0.9c1.3-2.1,3.3-3.4,5.9-3.4c2.5,0,4.6,1.2,5.9,3.1c0-0.1,0-0.3,0-0.4s0-0.1,0-0.2c0-0.8-0.2-1.6-0.4-2.3
			C249.2,260,247,258.4,244.4,258.4"/>
	</g>
	<g>
		<path fill="#7D4D26" d="M158.7,285.3c0,3.4-2.7,6.1-6.1,6.1c-3.4,0-6.1-2.7-6.1-6.1l0,0c0-3.4,2.7-6.1,6.1-6.1
			C155.9,279.2,158.6,281.9,158.7,285.3L158.7,285.3"/>
		<path fill="#9D6130" d="M152.6,279.2L152.6,279.2c-3.4,0-6.1,2.7-6.1,6.1l0,0c0,0.1,0,0.3,0,0.4c0.1,0.2,0.2,0.3,0.2,0.5
			c1.3-2.1,3.3-3.4,5.9-3.4c2.5,0,4.7,1.2,5.9,3.1c0-0.2,0-0.4,0-0.6c0-1.3-0.4-2.5-1-3.5c-0.1-0.2-0.2-0.3-0.3-0.4
			C156,280,154.4,279.2,152.6,279.2"/>
	</g>
	<g>
		<path fill="#7D4D26" d="M250.5,285.3c0,3.4-2.7,6.1-6.1,6.1c-3.4,0-6.1-2.7-6.1-6.1l0,0c0-3.4,2.7-6.1,6.1-6.1
			C247.8,279.2,250.5,281.9,250.5,285.3L250.5,285.3"/>
		<path fill="#9D6130" d="M244.4,279.2L244.4,279.2c-1.8,0-3.5,0.8-4.6,2.1c-0.1,0.1-0.1,0.2-0.2,0.2c-0.6,0.8-1,1.6-1.2,2.6
			c-0.1,0.4-0.1,0.8-0.1,1.2l0,0l0,0c0,0.3,0.3,0.6,0.3,0.9c1.3-2.1,3.3-3.4,5.9-3.4c2.5,0,4.6,1.2,5.9,3.1c0-0.1,0-0.2,0-0.4
			c0-0.1,0-0.1,0-0.2c0-0.4,0-0.8-0.1-1.1C249.9,281.3,247.4,279.2,244.4,279.2"/>
	</g>
	<g>
		<path fill="#7D4D26" d="M158.7,305.2c0,3.4-2.7,6.1-6.1,6.1c-3.4,0-6.1-2.7-6.1-6.1l0,0c0-3.4,2.7-6.1,6.1-6.1
			C155.9,299.1,158.6,301.8,158.7,305.2L158.7,305.2"/>
		<path fill="#9D6130" d="M152.6,299.1L152.6,299.1c-3.4,0-6.1,2.7-6.1,6.1l0,0c0,0.2,0,0.3,0,0.5c0.1,0.2,0.2,0.3,0.2,0.5
			c1.3-2.1,3.3-3.4,5.9-3.4c2.5,0,4.7,1.2,5.9,3.1c0-0.2,0-0.4,0-0.6c0-1.7-0.7-3.3-1.8-4.5C155.7,299.7,154.2,299.1,152.6,299.1"/>
	</g>
	<g>
		<path fill="#7D4D26" d="M250.5,305.2c0,3.4-2.7,6.1-6.1,6.1c-3.4,0-6.1-2.7-6.1-6.1l0,0c0-3.4,2.7-6.1,6.1-6.1
			S250.5,301.8,250.5,305.2L250.5,305.2"/>
		<path fill="#9D6130" d="M244.4,299.1L244.4,299.1c-0.9,0-1.8,0.2-2.6,0.6c-2,1-3.5,3.1-3.5,5.4v0.1l0,0v0.1c0,0.3,0.3,0.5,0.3,0.9
			c1.3-2.1,3.3-3.4,5.9-3.4c2.5,0,4.6,1.2,5.9,3.1c0-0.1,0-0.3,0-0.4s0-0.1,0-0.2c0-0.9-0.2-1.7-0.5-2.5
			C249.1,300.6,246.9,299.1,244.4,299.1"/>
	</g>
</g>
<path fill="#D6DE23" d="M110.3,240.2c6.5,22.7,13.6,37.7,21.1,47.2c3.7,4.8,7.6,8.2,11.5,10.5c4,2.3,8,3.3,12,3.3
	c2.6,0,5.1-0.4,7.4-1.2c4.1-1.3,7.8-3.6,11-6.3c4.8-4,8.7-8.9,11.5-13.3c1.4-2.2,2.5-4.2,3.3-6c0.4-0.9,0.7-1.7,1-2.5
	s0.5-1.5,0.5-2.4c0.2-2.2-1.5-4.1-3.7-4.3c-2.2-0.2-4.1,1.5-4.3,3.7h0.5l-0.5-0.1l0,0h0.5l-0.5-0.1c0,0,0,0.2-0.1,0.5
	c-0.2,0.6-0.6,1.5-1.1,2.5c-0.9,1.9-2.3,4.2-4,6.6c-2.6,3.6-6,7.5-9.8,10.2c-1.9,1.4-3.9,2.5-5.9,3.3s-4,1.2-6,1.2
	c-2.5,0-5.1-0.6-8-2.3c-2.1-1.2-4.4-3-6.8-5.6c-3.6-3.9-7.3-9.5-11-17.3s-7.5-17.7-11-30.1c-0.6-2.1-2.8-3.3-5-2.7
	C110.9,235.8,109.7,238,110.3,240.2L110.3,240.2z"/>
<g>
	<path fill="#5D5D5D" d="M118.7,227.7c2.1,3.7-0.2,9-5.1,11.9c-5,2.9-10.7,2.2-12.9-1.5l0,0c-2.1-3.7,0.2-9,5.1-11.9
		C110.8,223.3,116.5,224,118.7,227.7L118.7,227.7z"/>
	<path fill="#5D5D5D" d="M277.5,229.4c-2.1,3.7,0.2,9,5.1,11.9c5,2.9,10.7,2.2,12.9-1.5l0,0c2.1-3.7-0.2-9-5.1-11.9
		C285.4,225,279.7,225.7,277.5,229.4L277.5,229.4z"/>
</g>
</svg>
