<?xml version="1.0" encoding="utf-8"?>
<!-- Generator: Adobe Illustrator 17.1.0, SVG Export Plug-In . SVG Version: 6.00 Build 0)  -->
<!DOCTYPE svg PUBLIC "-//W3C//DTD SVG 1.1//EN" "http://www.w3.org/Graphics/SVG/1.1/DTD/svg11.dtd">
<svg version="1.1" id="periwinkle" xmlns="http://www.w3.org/2000/svg" xmlns:xlink="http://www.w3.org/1999/xlink" x="0px" y="0px"
	 viewBox="0 0 400 400" enable-background="new 0 0 400 400" xml:space="preserve">
<g>
	<path fill="#5E658B" stroke="#000000" stroke-width="11" d="M155,231c-23,0-41.7,21.3-43.8,48.4h87.5C196.7,252.3,178,231,155,231z
		"/>
	<path fill="#5E658B" stroke="#000000" stroke-width="11" d="M245.3,231c-23,0-41.7,21.3-43.8,48.4H289
		C287,252.3,268.3,231,245.3,231z"/>
	<path fill="#5E658B" stroke="#000000" stroke-width="11" d="M200.3,198.8c-18.8,0-36.8,2.6-52.8,7.2c-5.4,18.9-8.4,40.9-8.4,64.4
		c0,29.1,4.8,55.9,12.8,77.2c14.8,3.8,31.3,6.2,48.4,6.2c17.1,0,33.3-2.4,48.1-6.2c8-21.3,12.8-48.1,12.8-77.2
		c0-23.5-3-45.5-8.4-64.4C236.8,201.4,219.1,198.8,200.3,198.8z"/>
</g>
<g>
	<path fill="#8A93C9" d="M194.8,294.2c0,0-19.9,3.2-20.8,3.2c-0.9,0-3.8,0.4-5.2,2.3c-1.4,1.9-10.9,14.2-11.4,16.9
		c-0.5,2.7-0.2,2.7,0.6,3c0.8,0.4,6.5,5.1,7.4,5.4c0.9,0.4,2.4,2.5,2.4,2.5s2.2,0.8,2.7,1c0.5,0.3,1.9,1.8,2.4,2.4
		c0.5,0.6,2.5,0.6,4.6,2.4c2.1,1.8,10.1-0.9,11.5-9.8c1.4-8.9,2.4-10.1,4.3-12.8c1.9-2.7,5.3-11.4,5.6-12.9c0.3-1.5,0-3.7,0-3.7
		H194.8z"/>
	<g>
		<g>
			<path fill="#483F70" d="M179.3,334.7C179.3,334.7,179.3,334.7,179.3,334.7c-0.9,0-1.7-0.2-2.3-0.7c-1.2-1-2.3-1.4-3.1-1.7
				c-0.7-0.2-1.2-0.4-1.6-0.9c-0.6-0.7-1.8-2-2.2-2.2c-0.3-0.2-1.8-0.7-2.6-1c-0.1-0.1-0.3-0.2-0.4-0.3c-0.7-1-1.7-2.1-2.1-2.3
				c-0.5-0.2-1.7-1.1-4.2-3.1c-1.3-1-2.9-2.3-3.2-2.4l-0.1,0c-1.3-0.6-1.4-1.4-0.9-3.8c0.4-2.2,5.6-9.2,10.5-15.8
				c0.5-0.6,0.8-1.1,1-1.3c1.9-2.6,5.8-2.6,5.8-2.6c0.8,0,12.8-1.9,20.7-3.2c0,0,0.1,0,0.1,0h4.1c0.4,0,0.7,0.3,0.8,0.7
				c0,0.1,0.3,2.3,0,3.9c-0.3,1.6-3.7,10.4-5.7,13.2l-0.1,0.2c-1.8,2.5-2.7,3.8-4.1,12.3C188.5,331.3,182.9,334.7,179.3,334.7z
				 M168.3,326.9c0.6,0.2,2.1,0.7,2.5,1c0.8,0.4,2.4,2.3,2.7,2.6c0.1,0.1,0.5,0.2,0.9,0.4c0.9,0.3,2.2,0.8,3.6,1.9
				c0.3,0.2,0.7,0.3,1.3,0.3c3,0,7.9-3.1,9-9.6c1.4-8.9,2.4-10.3,4.3-13l0.1-0.2c1.9-2.6,5.2-11.3,5.4-12.6c0.1-0.9,0.1-2.1,0.1-2.8
				h-3.3c-3.5,0.6-19.9,3.2-20.8,3.2c-0.8,0-3.4,0.4-4.6,2c-0.2,0.3-0.5,0.7-1,1.3c-2.4,3.2-9.9,13.1-10.3,15.2
				c-0.3,1.5-0.3,1.9-0.2,2c0,0,0.2,0.1,0.3,0.1l0.1,0.1c0.4,0.2,1.4,0.9,3.5,2.6c1.4,1.1,3.5,2.7,3.9,2.9
				C166.6,324.7,167.8,326.3,168.3,326.9z"/>
		</g>
	</g>
	<path fill="#8A93C9" d="M199.2,298.6c0,0-3.2,19.9-3.4,20.7c-0.3,0.8-0.8,3.7,0.6,5.6c1.4,1.9,10.1,14.8,12.5,16.1
		c2.4,1.3,2.5,1,3.1,0.4c0.6-0.6,6.8-4.6,7.5-5.3c0.6-0.7,3.2-1.5,3.2-1.5s1.4-1.8,1.8-2.2c0.4-0.4,2.3-1.3,3-1.5
		c0.8-0.3,1.4-2.2,3.7-3.6c2.3-1.5,2.3-9.9-5.7-14c-8-4.1-8.9-5.4-10.8-8.1c-1.9-2.6-9.2-8.6-10.6-9.3c-1.4-0.7-3.5-1.1-3.5-1.1
		L199.2,298.6z"/>
	<path fill="#8A93C9" d="M204.1,295.6c0,0,17.9,9.2,18.6,9.7c0.7,0.5,3.3,1.9,5.5,1.2c2.2-0.7,17.2-5,19.2-6.9c2-1.8,1.7-2,1.3-2.8
		c-0.4-0.8-2.3-7.9-2.7-8.8c-0.5-0.8-0.4-3.5-0.4-3.5s-1.3-1.9-1.5-2.4c-0.3-0.5-0.5-2.6-0.5-3.4c0-0.8-1.6-2-2.3-4.7
		c-0.7-2.7-8.7-5.2-15,1.1c-6.4,6.3-7.9,6.8-11,7.8c-3.1,1-11,6.1-12.1,7.1c-1.1,1.1-2.2,3-2.2,3L204.1,295.6z"/>
	<g>
		<g>
			<path fill="#483F70" d="M226.9,307.5L226.9,307.5c-2,0-3.9-1-4.7-1.6c-0.6-0.4-11.4-6-18.5-9.6c0,0-0.1,0-0.1-0.1l-3.3-2.4
				c-0.3-0.2-0.4-0.7-0.2-1c0-0.1,1.1-2,2.3-3.1c1.1-1.1,9.1-6.2,12.4-7.3l0.2-0.1c2.9-0.9,4.4-1.5,10.5-7.5
				c2.7-2.7,6.1-4.2,9.5-4.2c3.4,0,6.3,1.5,6.8,3.4c0.4,1.5,1,2.5,1.5,3.2c0.4,0.6,0.7,1.1,0.8,1.6c0,0.9,0.3,2.7,0.4,3
				c0.2,0.3,1,1.6,1.5,2.3c0.1,0.1,0.1,0.3,0.1,0.4c0,1.2,0.1,2.7,0.3,3.1c0.3,0.5,0.7,1.9,1.6,4.9c0.5,1.6,1,3.5,1.2,3.8l0.1,0.1
				c0.7,1.3,0.3,1.9-1.5,3.6c-1.6,1.5-9.9,4.2-17.8,6.6c-0.7,0.2-1.3,0.4-1.6,0.5C228,307.4,227.5,307.5,226.9,307.5z M204.5,294.9
				c3.1,1.6,18,9.2,18.7,9.7c0.5,0.4,2.1,1.3,3.8,1.3l0,0c0.4,0,0.8-0.1,1.1-0.2c0.3-0.1,0.9-0.3,1.6-0.5c3.9-1.2,15.7-4.7,17.3-6.2
				c1.1-1.1,1.3-1.4,1.4-1.5c0,0-0.1-0.2-0.1-0.3l-0.1-0.1c-0.2-0.4-0.6-1.6-1.3-4.1c-0.5-1.7-1.2-4.2-1.4-4.6
				c-0.5-0.9-0.6-2.8-0.6-3.6c-0.4-0.5-1.2-1.8-1.5-2.3c-0.4-0.8-0.6-3.3-0.6-3.7c0-0.1-0.3-0.5-0.5-0.8c-0.5-0.8-1.3-1.9-1.8-3.7
				c-0.2-0.9-2.3-2.3-5.3-2.3c-3,0-6,1.3-8.4,3.7c-6.4,6.3-8.1,6.9-11.1,7.9l-0.2,0.1c-3,1-10.9,6-11.8,7c-0.7,0.6-1.3,1.6-1.7,2.2
				L204.5,294.9z"/>
		</g>
	</g>
	<path fill="#8A93C9" d="M203,290c0,0,14.3-14.2,15-14.7c0.7-0.5,2.9-2.5,2.9-4.9c0-2.4,0.6-17.9-0.6-20.3c-1.1-2.5-1.4-2.3-2.3-2.1
		c-0.9,0.2-8.2-0.3-9.2-0.1c-0.9,0.2-3.4-0.7-3.4-0.7s-2.2,0.6-2.8,0.7c-0.6,0.1-2.6-0.3-3.4-0.5c-0.8-0.2-2.4,0.9-5.1,0.7
		c-2.8-0.2-7.7,6.6-3.6,14.6c4,8,4,9.6,4,12.9c0,3.3,2.3,12.4,3,13.7c0.7,1.4,2.1,3,2.1,3L203,290z"/>
	<path fill="#8A93C9" d="M197.1,288.8c0,0-9-18-9.3-18.8c-0.3-0.8-1.5-3.5-3.7-4.3c-2.2-0.8-16.8-6.1-19.5-5.8
		c-2.7,0.3-2.6,0.6-2.7,1.5c-0.1,0.9-2.9,7.7-3,8.7c-0.1,1-1.7,3.1-1.7,3.1s-0.1,2.3-0.2,2.8c-0.1,0.6-1.1,2.3-1.6,3
		c-0.4,0.7,0.1,2.6-0.9,5.1c-1,2.6,3.9,9.4,12.8,8c8.9-1.4,10.4-0.8,13.5,0.2c3.1,1,12.5,1.6,14,1.4c1.5-0.2,3.5-1.1,3.5-1.1
		L197.1,288.8z"/>
	<g>
		<g>
			<path fill="#483F70" d="M193.8,294.6C193.8,294.6,193.8,294.6,193.8,294.6c-3,0-10.4-0.6-13.2-1.5l-0.2-0.1
				c-1.7-0.5-2.9-0.9-5.1-0.9c-1.8,0-4.3,0.3-7.8,0.8c-0.8,0.1-1.6,0.2-2.4,0.2c-5.1,0-8.6-2.6-10.3-5c-1-1.5-1.4-3.1-0.9-4.2
				c0.6-1.4,0.6-2.6,0.6-3.5c0-0.7,0-1.3,0.3-1.7c0.5-0.8,1.4-2.4,1.4-2.7c0.1-0.4,0.1-1.9,0.2-2.7c0-0.2,0.1-0.3,0.2-0.4
				c0.7-0.9,1.5-2.2,1.5-2.7c0.1-0.5,0.6-2,1.6-4.9c0.6-1.5,1.3-3.4,1.3-3.8l0-0.1c0.2-1.4,0.9-1.7,3.4-2c0.1,0,0.2,0,0.4,0
				c2.6,0,10.9,2.8,17.9,5.3c0.7,0.3,1.3,0.4,1.6,0.5c2.5,0.8,3.9,3.7,4.2,4.7c0.3,0.7,5.7,11.6,9.3,18.7c0,0,0,0.1,0,0.1l1.2,3.9
				c0.1,0.4-0.1,0.8-0.4,0.9c-0.1,0-2.1,0.9-3.7,1.2C194.7,294.6,194.3,294.6,193.8,294.6z M175.2,290.6c2.5,0,3.9,0.4,5.6,1
				l0.2,0.1c2.6,0.8,9.8,1.4,12.7,1.4h0c0.6,0,0.8,0,0.9,0c0.9-0.1,2-0.5,2.7-0.8l-1-3.1c-1.6-3.1-9.1-18-9.3-18.9
				c-0.2-0.8-1.4-3.1-3.3-3.8c-0.3-0.1-0.9-0.3-1.6-0.6c-4-1.4-14.7-5.2-17.4-5.2c-0.1,0-0.1,0-0.2,0c-1.5,0.2-1.9,0.3-2,0.4
				c0,0,0,0.2,0,0.3l0,0.1c-0.1,0.4-0.5,1.6-1.4,4.1c-0.6,1.6-1.5,4.1-1.6,4.5c-0.1,1-1.2,2.6-1.7,3.3c0,0.6-0.1,2.2-0.2,2.7
				c-0.1,0.9-1.5,3-1.7,3.3c-0.1,0.1-0.1,0.6-0.1,0.9c0,0.9-0.1,2.4-0.7,4c-0.2,0.5-0.1,1.5,0.8,2.8c1.4,2.1,4.5,4.4,9,4.4
				c0.7,0,1.4-0.1,2.2-0.2C170.8,290.9,173.3,290.6,175.2,290.6z"/>
		</g>
	</g>
	<g>
		<g>
			<path fill="#483F70" d="M199.7,293.1c-0.2,0-0.4-0.1-0.6-0.2c-0.1-0.1-1.5-1.7-2.3-3.2c-0.7-1.4-3.1-10.6-3.1-14.1l0-0.2
				c0-3,0-4.7-3.9-12.4c-3.2-6.4-0.8-11.3,0.1-12.7c1.2-2,2.9-3.2,4.3-3.1c1.5,0.1,2.6-0.2,3.5-0.5c0.7-0.2,1.3-0.4,1.8-0.2
				c0.7,0.2,2.4,0.5,3,0.5c0,0,0.1,0,0.1,0c0.4-0.1,1.8-0.5,2.7-0.7c0.1,0,0.3,0,0.5,0c0.5,0.2,2,0.6,2.8,0.6c0.1,0,0.2,0,0.2,0
				c0.2,0,0.4-0.1,1.3-0.1c1,0,2.5,0.1,3.9,0.1c1.3,0,2.6,0.1,3.4,0.1c0.5,0,0.6,0,0.6,0l0.1,0c0.2,0,0.4-0.1,0.6-0.1
				c1,0,1.5,0.8,2.4,2.6c0.9,2,0.9,10.7,0.7,19c0,0.8,0,1.3,0,1.7c0,2.6-2.3,4.9-3.2,5.5c-0.6,0.5-9.3,9-14.9,14.6
				c0,0-0.1,0.1-0.1,0.1l-3.3,2.4C200,293.1,199.8,293.1,199.7,293.1z M194.1,248.8c-0.7,0-1.9,0.7-2.9,2.3c-0.7,1.2-2.9,5.5,0,11.2
				c4,8,4.1,9.8,4.1,13l0,0.2c0,3.2,2.3,12.2,2.9,13.4c0.4,0.8,1.1,1.7,1.6,2.3l2.7-1.9c2.5-2.5,14.3-14.2,15.1-14.7
				c0.7-0.5,2.6-2.3,2.6-4.3c0-0.3,0-0.9,0-1.7c0.1-4,0.4-16.4-0.5-18.3c-0.7-1.4-0.9-1.7-1-1.8c-0.1,0-0.2,0-0.3,0.1l-0.1,0
				c-0.1,0-0.3,0-0.9,0c-0.8,0-2.1,0-3.4-0.1c-1.4-0.1-2.9-0.1-3.9-0.1c-0.7,0-0.9,0-0.9,0c-0.2,0-0.3,0.1-0.5,0.1
				c-1,0-2.5-0.5-3.1-0.6c-0.6,0.2-2.1,0.6-2.6,0.7c-0.1,0-0.2,0-0.3,0c-0.8,0-2.6-0.4-3.4-0.6c-0.2,0-0.6,0.1-0.9,0.2
				C197.3,248.6,195.9,249,194.1,248.8L194.1,248.8z"/>
		</g>
	</g>
	<g>
		<g>
			<path fill="#483F70" d="M211,342.8c-0.6,0-1.2-0.3-2.6-1c-1.9-1.1-7-8.1-11.8-14.9c-0.4-0.6-0.8-1.1-1-1.4
				c-1.5-2.1-1-5.3-0.7-6.3c0.2-0.7,2.2-12.7,3.4-20.6c0,0,0-0.1,0-0.1l1.3-3.9c0.1-0.4,0.5-0.6,0.9-0.5c0.1,0,2.2,0.5,3.7,1.2
				c1.4,0.7,8.7,6.7,10.8,9.5l0.1,0.2c1.8,2.4,2.8,3.8,10.4,7.7c5.3,2.7,7.3,7.3,7.5,10.6c0.1,2.2-0.6,3.9-1.7,4.6
				c-1.3,0.8-2,1.8-2.6,2.5c-0.4,0.6-0.8,1-1.3,1.2c-0.9,0.3-2.5,1.1-2.8,1.4c-0.3,0.3-1.2,1.5-1.7,2.1c-0.1,0.1-0.2,0.2-0.4,0.3
				c-1.1,0.3-2.5,0.9-2.8,1.3c-0.4,0.4-1.6,1.3-4.2,3c-1.4,0.9-3,2.1-3.3,2.3l-0.1,0.1C212,342.4,211.6,342.8,211,342.8z
				 M199.9,298.8c-0.6,3.5-3.2,19.9-3.5,20.8c-0.3,0.8-0.7,3.3,0.4,5c0.2,0.3,0.5,0.8,1,1.4c2.3,3.3,9.4,13.4,11.3,14.5
				c1,0.5,1.6,0.8,1.9,0.8h0c0,0,0.1-0.1,0.2-0.2l0.1-0.1c0.3-0.3,1.3-1,3.5-2.5c1.4-1,3.6-2.5,3.9-2.8c0.7-0.7,2.5-1.4,3.3-1.7
				c0.4-0.5,1.4-1.7,1.7-2.1c0.6-0.6,3-1.6,3.3-1.7c0.1-0.1,0.4-0.4,0.6-0.7c0.6-0.7,1.4-1.9,3-2.8c0.5-0.3,1.1-1.5,1-3.3
				c-0.1-3-1.9-7-6.6-9.3c-8-4.1-9-5.5-11-8.1l-0.1-0.2c-1.9-2.6-9.1-8.5-10.3-9.1c-0.8-0.4-1.9-0.7-2.6-0.9L199.9,298.8z"/>
		</g>
	</g>
	<path fill="#483F70" d="M211.2,341.3c-0.5,0-1.1-0.2-2.4-0.9c-1.8-1-6.5-7.6-10.8-13.9c-0.4-0.6-0.7-1-0.9-1.3
		c-1.4-2-0.9-4.9-0.6-5.9c0.2-0.7,2-11.9,3.1-19.2c0,0,0-0.1,0-0.1l1.2-3.6c0.1-0.3,0.5-0.5,0.8-0.5c0.1,0,2.1,0.4,3.4,1.1
		c1.3,0.7,8,6.3,9.9,8.9l0.1,0.2c1.6,2.3,2.5,3.5,9.6,7.1c4.8,2.5,6.7,6.8,6.8,9.9c0.1,2-0.5,3.7-1.6,4.3c-1.2,0.8-1.9,1.6-2.3,2.3
		c-0.4,0.5-0.7,1-1.2,1.1c-0.8,0.3-2.3,1-2.5,1.3c-0.2,0.2-1.1,1.4-1.6,2c-0.1,0.1-0.2,0.2-0.3,0.2c-1,0.3-2.3,0.9-2.6,1.2
		c-0.3,0.4-1.5,1.2-3.9,2.8c-1.2,0.9-2.8,1.9-3,2.2l-0.1,0.1C212.2,341,211.8,341.3,211.2,341.3z M201,300.4
		c-0.5,3.2-2.9,18.5-3.2,19.3c-0.2,0.7-0.7,3.1,0.4,4.6c0.2,0.2,0.5,0.7,0.9,1.3c2.1,3.1,8.6,12.5,10.3,13.5
		c0.9,0.5,1.5,0.8,1.7,0.8h0c0,0,0.1-0.1,0.2-0.2l0.1-0.1c0.3-0.3,1.2-0.9,3.2-2.3c1.3-0.9,3.3-2.3,3.6-2.6c0.6-0.7,2.3-1.3,3-1.5
		c0.4-0.5,1.2-1.6,1.6-1.9c0.6-0.6,2.7-1.5,3-1.6c0.1-0.1,0.4-0.4,0.6-0.7c0.5-0.7,1.3-1.7,2.7-2.6c0.5-0.3,1-1.4,0.9-3.1
		c-0.1-2.7-1.8-6.5-6.1-8.7c-7.3-3.8-8.3-5.1-10.1-7.6l-0.1-0.2c-1.7-2.4-8.3-7.9-9.5-8.5c-0.7-0.4-1.8-0.7-2.4-0.9L201,300.4z"/>
	<path fill="#483F70" d="M207,294.6c2.8,1.5,16.4,8.6,17.1,9.1c0.4,0.3,1.9,1.2,3.4,1.2l0,0c0.4,0,0.7-0.1,1-0.1
		c0.3-0.1,0.8-0.3,1.5-0.5c3.5-1.1,14.3-4.4,15.7-5.8c1-1,1.2-1.3,1.2-1.4c0,0-0.1-0.1-0.1-0.2l-0.1-0.1c-0.2-0.4-0.5-1.5-1.2-3.9
		c-0.4-1.6-1.1-3.9-1.3-4.3c-0.5-0.8-0.5-2.6-0.5-3.4c-0.3-0.5-1.1-1.7-1.3-2.1c-0.4-0.7-0.5-3.1-0.6-3.4c0-0.1-0.3-0.5-0.4-0.8
		c-0.5-0.7-1.2-1.8-1.6-3.4c-0.2-0.9-2.1-2.1-4.9-2.1c-2.8,0-5.5,1.2-7.7,3.5c-5.8,5.9-7.3,6.4-10.2,7.4l-0.2,0.1
		c-2.8,0.9-9.9,5.6-10.8,6.5c-0.6,0.6-1.2,1.5-1.5,2.1L207,294.6z M227.5,306.3L227.5,306.3c-1.8,0-3.6-1-4.3-1.5
		c-0.6-0.4-10.4-5.6-16.9-9c0,0-0.1,0-0.1-0.1l-3-2.2c-0.3-0.2-0.4-0.6-0.2-0.9c0-0.1,1-1.9,2.1-2.9c1-1,8.3-5.8,11.3-6.8l0.2-0.1
		c2.6-0.9,4.1-1.4,9.6-7c2.5-2.5,5.5-3.9,8.7-3.9c3.1,0,5.8,1.4,6.2,3.2c0.3,1.4,1,2.3,1.4,3c0.4,0.6,0.7,1,0.7,1.5
		c0,0.9,0.3,2.5,0.4,2.8c0.2,0.3,0.9,1.5,1.4,2.2c0.1,0.1,0.1,0.3,0.1,0.4c0,1.1,0.1,2.5,0.3,2.9c0.3,0.4,0.7,1.8,1.4,4.6
		c0.4,1.5,0.9,3.3,1.1,3.6l0.1,0.1c0.6,1.2,0.3,1.8-1.4,3.4c-1.5,1.4-9.1,3.9-16.3,6.1c-0.7,0.2-1.2,0.4-1.5,0.5
		C228.5,306.2,228,306.3,227.5,306.3z"/>
	<path fill="#483F70" d="M192.1,293.5L192.1,293.5c-2.7,0-9.6-0.5-12.2-1.4l-0.2-0.1c-1.5-0.5-2.6-0.9-4.7-0.9c-1.7,0-4,0.2-7.2,0.7
		c-0.7,0.1-1.5,0.2-2.2,0.2c-4.7,0-8-2.4-9.5-4.7c-0.9-1.4-1.3-2.9-0.9-3.9c0.5-1.3,0.6-2.4,0.6-3.2c0-0.7,0-1.2,0.3-1.6
		c0.5-0.7,1.3-2.2,1.3-2.5c0.1-0.3,0.1-1.7,0.1-2.5c0-0.1,0.1-0.3,0.1-0.4c0.7-0.9,1.4-2,1.4-2.5c0-0.5,0.5-1.8,1.5-4.6
		c0.5-1.4,1.2-3.2,1.2-3.5l0-0.1c0.2-1.3,0.9-1.6,3.1-1.9c0.1,0,0.2,0,0.3,0c2.4,0,10.1,2.6,16.6,4.9c0.7,0.2,1.2,0.4,1.5,0.5
		c2.3,0.8,3.6,3.4,3.9,4.4c0.2,0.7,5.3,10.7,8.6,17.3c0,0,0,0.1,0,0.1l1.1,3.6c0.1,0.3-0.1,0.7-0.4,0.9c-0.1,0-1.9,0.9-3.4,1.1
		C193,293.5,192.6,293.5,192.1,293.5z M175,289.7c2.3,0,3.6,0.4,5.2,0.9l0.2,0.1c2.4,0.8,9,1.3,11.8,1.3h0c0.5,0,0.8,0,0.9,0
		c0.8-0.1,1.8-0.5,2.5-0.7l-0.9-2.9c-1.5-2.9-8.4-16.6-8.6-17.4c-0.2-0.7-1.3-2.9-3-3.5c-0.3-0.1-0.8-0.3-1.5-0.5
		c-3.7-1.3-13.6-4.8-16.1-4.8c-0.1,0-0.1,0-0.2,0c-1.4,0.2-1.8,0.3-1.8,0.4c0,0,0,0.2,0,0.3l0,0.1c-0.1,0.4-0.4,1.5-1.3,3.8
		c-0.6,1.5-1.4,3.8-1.4,4.2c-0.1,0.9-1.1,2.4-1.6,3c0,0.6-0.1,2-0.1,2.5c-0.1,0.8-1.4,2.8-1.6,3.1c-0.1,0.1-0.1,0.5-0.1,0.9
		c0,0.9-0.1,2.2-0.7,3.7c-0.2,0.4-0.1,1.3,0.7,2.5c1.3,1.9,4.2,4,8.3,4c0.7,0,1.3-0.1,2-0.2C170.9,289.9,173.2,289.7,175,289.7z"/>
	<path fill="#483F70" d="M179.2,333.3L179.2,333.3c-0.9,0-1.6-0.2-2.1-0.6c-1.1-0.9-2.2-1.3-2.9-1.6c-0.6-0.2-1.1-0.4-1.5-0.8
		c-0.6-0.7-1.7-1.9-2-2.1c-0.3-0.2-1.6-0.6-2.4-0.9c-0.1-0.1-0.3-0.1-0.3-0.3c-0.6-0.9-1.5-2-1.9-2.1c-0.5-0.2-1.6-1.1-3.9-2.9
		c-1.2-0.9-2.7-2.1-3-2.2l-0.1,0c-1.2-0.6-1.3-1.3-0.9-3.6c0.4-2,5.2-8.6,9.8-14.8c0.4-0.6,0.7-1,0.9-1.2c1.8-2.4,5.4-2.4,5.4-2.4
		c0.7,0,11.9-1.8,19.3-2.9c0,0,0.1,0,0.1,0h3.8c0.4,0,0.7,0.3,0.7,0.6c0,0.1,0.2,2.1,0,3.6c-0.2,1.5-3.4,9.7-5.3,12.3l-0.1,0.2
		c-1.6,2.3-2.5,3.5-3.8,11.5C187.8,330.1,182.6,333.3,179.2,333.3z M168.9,326.1c0.6,0.2,1.9,0.7,2.4,0.9c0.7,0.4,2.3,2.2,2.5,2.4
		c0.1,0.1,0.5,0.2,0.8,0.3c0.8,0.3,2.1,0.7,3.4,1.8c0.2,0.2,0.7,0.3,1.2,0.3c2.8,0,7.4-2.9,8.4-9c1.3-8.3,2.3-9.6,4-12.1l0.1-0.2
		c1.7-2.4,4.9-10.5,5.1-11.8c0.1-0.8,0.1-1.9,0.1-2.6h-3.1c-3.2,0.5-18.6,3-19.4,3c-0.8,0-3.2,0.3-4.3,1.8c-0.2,0.2-0.5,0.7-0.9,1.3
		c-2.3,3-9.2,12.2-9.6,14.2c-0.3,1.4-0.2,1.8-0.2,1.9c0,0,0.2,0.1,0.2,0.1l0.1,0c0.4,0.2,1.3,0.9,3.3,2.4c1.3,1,3.2,2.5,3.6,2.7
		C167.4,324,168.5,325.5,168.9,326.1z"/>
	<path fill="#483F70" d="M200,291.8c-0.2,0-0.4-0.1-0.5-0.2c-0.1-0.1-1.5-1.6-2.1-3c-0.7-1.4-2.9-10-2.9-13.3l0-0.2
		c0-2.8,0-4.4-3.7-11.7c-3.1-6-0.7-10.7,0.1-12c1.1-1.9,2.7-3,4.1-2.9c1.4,0.1,2.5-0.2,3.3-0.5c0.7-0.2,1.2-0.3,1.7-0.2
		c0.7,0.2,2.2,0.5,2.8,0.5c0,0,0.1,0,0.1,0c0.4-0.1,1.7-0.4,2.5-0.7c0.1,0,0.3,0,0.4,0c0.5,0.2,1.9,0.6,2.7,0.6c0.1,0,0.2,0,0.2,0
		c0.2,0,0.4-0.1,1.2-0.1c1,0,2.3,0.1,3.7,0.1c1.3,0,2.4,0.1,3.2,0.1c0.5,0,0.6,0,0.6,0l0.1,0c0.2,0,0.4-0.1,0.6-0.1
		c0.9,0,1.4,0.7,2.2,2.5c0.9,1.9,0.8,10.1,0.6,17.9c0,0.7,0,1.3,0,1.6c0,2.5-2.2,4.6-3,5.2c-0.6,0.4-8.7,8.5-14.1,13.8
		c0,0-0.1,0.1-0.1,0.1l-3.1,2.2C200.3,291.7,200.1,291.8,200,291.8z M194.7,250c-0.7,0-1.8,0.7-2.7,2.2c-0.7,1.1-2.7,5.2,0,10.6
		c3.8,7.6,3.8,9.2,3.8,12.3l0,0.2c0,3,2.2,11.5,2.8,12.6c0.4,0.8,1.1,1.6,1.5,2.2l2.5-1.8c2.3-2.3,13.5-13.4,14.2-13.9
		c0.6-0.4,2.4-2.1,2.4-4c0-0.3,0-0.9,0-1.6c0.1-3.8,0.3-15.4-0.5-17.3c-0.6-1.3-0.9-1.6-1-1.7c-0.1,0-0.2,0-0.3,0.1l-0.1,0
		c-0.1,0-0.3,0-0.9,0c-0.8,0-2,0-3.2-0.1c-1.3,0-2.7-0.1-3.6-0.1c-0.7,0-0.9,0-0.9,0c-0.1,0-0.3,0-0.5,0c-0.9,0-2.4-0.4-2.9-0.6
		c-0.6,0.2-2,0.6-2.5,0.6c-0.1,0-0.2,0-0.3,0c-0.8,0-2.5-0.4-3.2-0.6c-0.2,0-0.5,0.1-0.9,0.2C197.7,249.8,196.4,250.1,194.7,250
		L194.7,250z"/>
	<path fill="#483F70" d="M199.5,288.2c0,0,1.5,20.7,14.2,29.8C210.8,312.6,200.2,293.9,199.5,288.2"/>
	<path fill="#483F70" d="M194,292.6c0,0,20.1,5.3,32.8-3.8C220.7,289.8,199.7,293.8,194,292.6"/>
	<path fill="#483F70" d="M205.8,290.4c0,0-19.2,8-23.7,22.9C186.3,308.8,200.6,292.9,205.8,290.4"/>
	<path fill="#483F70" d="M205.7,300.2c0,0-12.1-16.9-27.6-18C183.4,285.3,202.2,295.7,205.7,300.2"/>
	<path fill="#483F70" d="M196.4,302.3c0,0,11.4-17.4,6.8-32.3C202.2,276.1,199.3,297.3,196.4,302.3"/>
	<polygon fill="#8A93C9" points="192.9,298.2 194.7,289 204.1,287.9 208,296.4 201.1,302.8 	"/>
	<circle fill="#F9EC31" stroke="#754C28" stroke-width="0.7603" stroke-miterlimit="10" cx="200.4" cy="294.8" r="2.8"/>
	<path fill="#FFFFFF" d="M201.1,303.6c-0.1,0-0.3,0-0.4-0.1l-8.2-4.6c-0.3-0.2-0.4-0.5-0.4-0.8l1.8-9.2c0.1-0.3,0.3-0.6,0.7-0.6
		l9.3-1.1c0.3,0,0.6,0.1,0.8,0.4l3.9,8.5c0.1,0.3,0.1,0.7-0.2,0.9l-6.9,6.4C201.5,303.5,201.3,303.6,201.1,303.6z M193.7,297.8
		l7.2,4.1l6.1-5.6l-3.5-7.5l-8.2,1L193.7,297.8z"/>
	<path fill="#FFFFFF" d="M201,302.4c-0.1,0-0.2,0-0.3-0.1l-7-3.9c-0.2-0.1-0.4-0.4-0.3-0.7l1.6-7.9c0.1-0.3,0.3-0.5,0.6-0.5l8-0.9
		c0.3,0,0.6,0.1,0.7,0.4l3.4,7.3c0.1,0.3,0.1,0.6-0.1,0.7l-5.9,5.5C201.3,302.3,201.1,302.4,201,302.4z M194.7,297.4l6.2,3.5
		l5.2-4.8l-3-6.5l-7.1,0.8L194.7,297.4z"/>
</g>
</svg>
