<?xml version="1.0" encoding="utf-8"?>
<!-- Generator: Adobe Illustrator 17.1.0, SVG Export Plug-In . SVG Version: 6.00 Build 0)  -->
<!DOCTYPE svg PUBLIC "-//W3C//DTD SVG 1.1//EN" "http://www.w3.org/Graphics/SVG/1.1/DTD/svg11.dtd">
<svg version="1.1" id="soccer" xmlns="http://www.w3.org/2000/svg" xmlns:xlink="http://www.w3.org/1999/xlink" x="0px" y="0px"
	 viewBox="0 0 400 400" enable-background="new 0 0 400 400" xml:space="preserve">
<g id="fill::polo:1">
	<path fill="#23BE00" stroke="#000000" stroke-width="11" d="M245.3,231c-18.3,0-15,32.7-0.1,32.7c16.8,0,33,0,40.7,0
		C279.2,244.5,263.6,231,245.3,231z"/>
	<path fill="#23BE00" stroke="#000000" stroke-width="11" d="M155,231c-18.3,0-33.9,13.5-40.5,32.7c10.3,0,25.7,0,40.5,0
		C171.7,263.7,173.3,231,155,231z"/>
	<path fill="#23BE00" stroke="#000000" stroke-width="11" d="M200.3,198.8c-18.8,0-36.8,2.6-52.8,7.2c-5.4,18.9-8.4,40.9-8.4,64.4
		c0,29.1,4.8,55.9,12.8,77.2c14.8,3.8,31.3,6.2,48.4,6.2s33.3-2.4,48.1-6.2c8-21.3,12.8-48.1,12.8-77.2c0-23.5-3-45.5-8.4-64.4
		C236.8,201.4,219.1,198.8,200.3,198.8z"/>
</g>
<polygon id="snoo-body-f::fill::neck" fill="#FCFFF8" points="199,271.9 159.7,219.8 245.2,219.8 "/>
<g id="fill::polo:2">
	<path fill="#23BE00" stroke="#000000" stroke-width="6" stroke-linejoin="round" d="M199.9,271.9c-9.4-7.5-21.1-15.1-32-18.2
		c-2.6-0.7-0.4-2.3-0.1-5.6c0.1-1.3-4.6-2.6-8.1-3.2c1.5-2.2,3.3-12.4,4.9-14.3c2.7-3,5.2,2.7,6.4,0.9
		C180,241.3,188.7,258.8,199.9,271.9L199.9,271.9z"/>
	<path fill="#23BE00" stroke="#000000" stroke-width="6" stroke-linejoin="round" d="M200.4,271.9c14.2-12.4,24.1-14.6,32-18.2
		c2.4-1.1,0.2-4,0.3-6.2c0.1-1.4,4.1-1.9,7.8-2.6c-2.4-3.5-3.1-11.2-5.5-13.8c-1.5-1.6-5.1,1.5-5.8,0.4
		C222.9,240.8,209.7,259.2,200.4,271.9z"/>
</g>
</svg>
