<?xml version="1.0" encoding="utf-8"?>
<!-- Generator: Adobe Illustrator 17.1.0, SVG Export Plug-In . SVG Version: 6.00 Build 0)  -->
<!DOCTYPE svg PUBLIC "-//W3C//DTD SVG 1.1//EN" "http://www.w3.org/Graphics/SVG/1.1/DTD/svg11.dtd">
<svg version="1.1" id="Layer_2" xmlns="http://www.w3.org/2000/svg" xmlns:xlink="http://www.w3.org/1999/xlink" x="0px" y="0px"
	 viewBox="0 0 400 400" enable-background="new 0 0 400 400" xml:space="preserve">
<g id="fill::pussycat-bow">
	<path id="path4248_23_" fill="#FFDECA" stroke="#000000" stroke-width="11" d="M250.2,235.5
		c-8.4,16.4-19.9,28.2-5,28.2c6.1,0,12.2,0,17.8,0c9.7,0,19-9.4,16.2-13.4C271.1,238.5,256.4,223.3,250.2,235.5z"/>
	<path id="path4248_22_" fill="#FFDECA" stroke="#000000" stroke-width="11" d="M149.4,235.5
		c8.4,16.4,19.9,28.2,5,28.2c-6.1,0-12.2,0-17.8,0c-9.7,0-19-9.4-16.2-13.4C128.5,238.5,143.2,223.3,149.4,235.5z"/>
	<path fill="#FFDECA" stroke="#000000" stroke-width="11" stroke-linejoin="round" d="M252.8,206c5.4,18.9,8.4,40.9,8.4,64.4
		c0,29.1-4.8,55.9-12.8,77.2c-14.9,3.8-31,6.2-48.1,6.2c-17.1,0-33.6-2.4-48.4-6.2c-8-21.3-12.8-48.1-12.8-77.2
		c0-23.5,3-45.5,8.4-64.4c16-4.6,34-7.2,52.8-7.2C219.1,198.8,236.8,201.4,252.8,206z M144.4,213.9c0,0,27.2,60.8,55.8,60.8
		s55.8-60.8,55.8-60.8l-55.8-45.8L144.4,213.9z"/>
	<g>
		<polygon fill="#FFDECA" stroke="#000303" stroke-width="6" stroke-linejoin="round" points="192.1,310 167.1,300.3 192.3,269.5 
			202.2,273.3 		"/>
		<polygon fill="#FFDECA" stroke="#000303" stroke-width="6" stroke-linejoin="round" points="206.6,310 229.5,300.3 206.4,269.7 
			196.6,273.6 		"/>
		<path fill="#FFDECA" stroke="#000303" stroke-width="6" stroke-linejoin="round" d="M213,262c0,0,25.5-7,33.5-3s7,23,0,27
			s-24.4-11.2-41.7-10.9C187.4,275.4,213,262,213,262z"/>
		<path fill="#FFDECA" stroke="#000303" stroke-width="6" stroke-linejoin="round" d="M189.7,262c0,0-25.5-7-33.5-3s-7,23,0,27
			s24.4-11.2,41.7-10.9C215.3,275.4,189.7,262,189.7,262z"/>
		<circle fill="#FFDECA" stroke="#000303" stroke-width="6" stroke-linejoin="round" cx="199.5" cy="269.8" r="7.4"/>
	</g>
</g>
</svg>
