<?xml version="1.0" encoding="utf-8"?>
<!-- Generator: Adobe Illustrator 17.1.0, SVG Export Plug-In . SVG Version: 6.00 Build 0)  -->
<!DOCTYPE svg PUBLIC "-//W3C//DTD SVG 1.1//EN" "http://www.w3.org/Graphics/SVG/1.1/DTD/svg11.dtd">
<svg version="1.1" id="shirt-tie" xmlns="http://www.w3.org/2000/svg" xmlns:xlink="http://www.w3.org/1999/xlink" x="0px" y="0px"
	 viewBox="0 0 400 400" enable-background="new 0 0 400 400" xml:space="preserve">
<g id="fill::shirt">
	<path fill="#69397F" stroke="#000000" stroke-width="11" d="M154.9,231c-24.4,0-44.1,23.8-44.1,53.2c0,10.6,2.6,20.6,7.1,28.9H155
		C154.8,313.1,154.9,257.5,154.9,231z"/>
	<path fill="#69397F" stroke="#000000" stroke-width="11" d="M282.2,313.1c4.5-8.3,7.1-18.2,7.1-28.9c0-29.4-19.7-53.2-44.1-53.2
		c0,36.8,0,82.1,0,82.1H282.2z"/>
	<path fill="#69397F" d="M253.1,206c5.4,18.9,8.4,40.9,8.4,64.4c0,29.1-4.8,55.8-12.8,77.2c-14.8,3.8-31,6.2-48.1,6.2
		s-33.6-2.4-48.4-6.2c-8-21.3-12.8-48.1-12.8-77.2c0-23.5,3-45.5,8.4-64.4c16-4.6,34-7.2,52.8-7.2S237.1,201.4,253.1,206z
		 M168.8,233.8l31.8,38.8l28.5-38.8H168.8z"/>
</g>
<path fill="none" stroke="#000000" stroke-width="11" d="M253.1,206c5.4,18.9,8.4,40.9,8.4,64.4c0,29.1-4.8,55.8-12.8,77.2
	c-14.8,3.8-31,6.2-48.1,6.2s-33.6-2.4-48.4-6.2c-8-21.3-12.8-48.1-12.8-77.2c0-23.5,3-45.5,8.4-64.4c16-4.6,34-7.2,52.8-7.2
	S237.1,201.4,253.1,206z"/>
<line id="shirt:darken::stroke::zip" fill="none" stroke="#492059" stroke-width="6" x1="200.1" y1="267" x2="200.1" y2="348.5"/>
<g id="fill::shirt_x26__x26_shirt-f:darken::stroke::collar">
	<path fill="#69397F" stroke="#492059" stroke-width="6" d="M200.5,270.4c-23.6-16.1-31.3-20.5-37-18.6l1.7-15.8l18.6,2.4
		C186.4,250.5,194.8,260.2,200.5,270.4z"/>
	<path fill="#69397F" stroke="#492059" stroke-width="6" d="M201.3,270.4c23.5-17.6,30.3-19.3,34.8-17.2l-4.2-17.4l-14,2.6
		C215.7,247.3,208.2,259.5,201.3,270.4z"/>
</g>
<g id="tie">
	<path fill="#000E21" d="M205.8,276.4c0,6.9,7.8,47.8,7.8,53.8c0,2.7-10,13.3-13.5,13.3s-12.7-10.2-12.7-13.3
		c0-6.2,7.1-47.1,7.1-53.8H205.8z"/>
	<path fill="#000E21" d="M209.8,273.8c0,7.1-4.3,8.7-9.6,8.7s-9.6-1.5-9.6-8.7s4.3-8.7,9.6-8.7C205.5,265.1,209.8,266.7,209.8,273.8
		z"/>
	
		<line fill="none" stroke="#797979" stroke-width="3.5" stroke-linecap="round" stroke-linejoin="round" x1="204.6" y1="297.2" x2="192.5" y2="297.2"/>
</g>
</svg>
