<?xml version="1.0" encoding="utf-8"?>
<!-- Generator: Adobe Illustrator 17.1.0, SVG Export Plug-In . SVG Version: 6.00 Build 0)  -->
<!DOCTYPE svg PUBLIC "-//W3C//DTD SVG 1.1//EN" "http://www.w3.org/Graphics/SVG/1.1/DTD/svg11.dtd">
<svg version="1.1" id="star-trek" xmlns="http://www.w3.org/2000/svg" xmlns:xlink="http://www.w3.org/1999/xlink" x="0px" y="0px"
	 viewBox="0 0 400 400" enable-background="new 0 0 400 400" xml:space="preserve">
<g id="fill::star-trek">
	<path id="XMLID_2_" fill="#B71B1B" stroke="#000000" stroke-width="11" stroke-miterlimit="10" d="M191.9,313.1
		c4.5-8.3,7.1-18.2,7.1-28.9c0-29.4-19.7-53.2-44.1-53.2s-44.1,23.8-44.1,53.2c0,10.6,2.6,20.6,7.1,28.9H191.9z"/>
	<path fill="#B71B1B" stroke="#000000" stroke-width="11" stroke-miterlimit="10" d="M282.2,313.1c4.5-8.3,7.1-18.2,7.1-28.9
		c0-29.4-19.7-53.2-44.1-53.2s-44.1,23.8-44.1,53.2c0,10.6,2.6,20.6,7.1,28.9H282.2z"/>
	<path fill="#B71B1B" stroke="#000000" stroke-width="11" stroke-miterlimit="10" d="M200.3,198.8c-18.8,0-36.8,2.6-52.8,7.2
		c-5.4,18.9-8.4,40.9-8.4,64.4c0,29.1,4.8,55.9,12.8,77.2c14.8,3.8,31.3,6.2,48.4,6.2s33.3-2.4,48.1-6.2c8-21.3,12.8-48.1,12.8-77.2
		c0-23.5-3-45.5-8.4-64.4C236.8,201.4,219.1,198.8,200.3,198.8z"/>
</g>
<g>
	<path fill="#FF9439" d="M283.4,291h-17.5c-0.3,3.7-0.7,7.4-1.1,11H281C282.1,298.5,282.9,294.8,283.4,291z"/>
	<path fill="#FF9439" d="M116.6,291c0.4,3.8,1.2,7.5,2.4,11h16.4c-0.4-3.6-0.8-7.3-1.1-11H116.6z"/>
</g>
<rect x="174" y="191.7" transform="matrix(-0.7071 -0.7071 0.7071 -0.7071 186.4747 510.7127)" stroke="#000000" stroke-width="11" stroke-linejoin="round" stroke-miterlimit="10" width="50" height="50"/>
<g>
	<path fill="#CBAA4A" stroke="#000000" stroke-width="2" stroke-miterlimit="10" d="M244.4,276.7c0,0-2.9-11.5-4.3-15.3
		c-1.4-3.8-5-11.7-6.3-12.8c0,0-6.5,9.7-9,19.8c0,0-3.1,12-3.1,16.4c0,0,7-9,11.3-11.5C237.3,270.8,239.7,270.7,244.4,276.7z"/>
	<polygon id="polygon11208" points="235.9,270 236.3,266.1 239.2,264.3 235.6,263.8 233.9,252.3 232.2,263.8 228.6,264.3 
		231.5,266.1 231.8,270 233.9,266.5 	"/>
</g>
</svg>
