<?xml version="1.0" encoding="utf-8"?>
<!-- Generator: Adobe Illustrator 17.1.0, SVG Export Plug-In . SVG Version: 6.00 Build 0)  -->
<!DOCTYPE svg PUBLIC "-//W3C//DTD SVG 1.1//EN" "http://www.w3.org/Graphics/SVG/1.1/DTD/svg11.dtd">
<svg version="1.1" id="tank" xmlns="http://www.w3.org/2000/svg" xmlns:xlink="http://www.w3.org/1999/xlink" x="0px" y="0px"
	 viewBox="0 0 400 400" enable-background="new 0 0 400 400" xml:space="preserve">
<path id="fill::tank" fill="#918E74" stroke="#000000" stroke-width="11" d="M252.8,206c5.4,18.9,8.4,40.9,8.4,64.4
	c0,29.1-4.8,55.9-12.8,77.2c-14.9,3.8-31,6.2-48.1,6.2s-33.6-2.4-48.4-6.2c-8-21.3-12.8-48.1-12.8-77.2c0-23.5,3-45.5,8.4-64.4
	c16-4.6,34-7.2,52.8-7.2C219.1,198.8,236.8,201.4,252.8,206z M168.3,219.2v19c0,13.5,11,24.5,24.5,24.5h17.6
	c13.5,0,24.5-11,24.5-24.5v-19c0-13.5-11-24.5-24.5-24.5h-17.6C179.3,194.7,168.3,205.7,168.3,219.2z"/>
</svg>
