<?xml version="1.0" encoding="utf-8"?>
<!-- Generator: Adobe Illustrator 17.1.0, SVG Export Plug-In . SVG Version: 6.00 Build 0)  -->
<!DOCTYPE svg PUBLIC "-//W3C//DTD SVG 1.1//EN" "http://www.w3.org/Graphics/SVG/1.1/DTD/svg11.dtd">
<svg version="1.1" id="toga" xmlns="http://www.w3.org/2000/svg" xmlns:xlink="http://www.w3.org/1999/xlink" x="0px" y="0px"
	 viewBox="0 0 400 400" enable-background="new 0 0 400 400" xml:space="preserve">
<path id="fill::toga" fill="#FFF2CC" stroke="#000000" stroke-width="11" d="M217.6,252.9c9.9-15.4,22.4-24.5,22.4-24.5
	c11.2,0.4,15.3-5.6,18.4,7c0.3,6.3,1.3,13,2.8,20.3c3.1,15.3,5.2,42.1-2.8,61.3c-7.5,17.9,0,26.6,0,31.5c0,11.2-4.7,15.2-4.7,15.2
	s-5.8,13.1-16.3,11.5c-10.5-1.6-19.4,12.6-47.2,6.8C162.4,376.4,149,367,149,367s0.5-7.9-5.2-20.5c-0.7-1.6-1.5-3.7-2.1-6.1
	c-1-3.5-1-11.9-1.8-16.3c-3-16.7-1.9-25.7-0.3-34.8c3.8,0.6,6.8,3.6,14.1,10.5C173.5,313.5,203.6,274.8,217.6,252.9z"/>
</svg>
