<?xml version="1.0" encoding="utf-8"?>
<!-- Generator: Adobe Illustrator 17.1.0, SVG Export Plug-In . SVG Version: 6.00 Build 0)  -->
<!DOCTYPE svg PUBLIC "-//W3C//DTD SVG 1.1//EN" "http://www.w3.org/Graphics/SVG/1.1/DTD/svg11.dtd">
<svg version="1.1" id="tubetop" xmlns="http://www.w3.org/2000/svg" xmlns:xlink="http://www.w3.org/1999/xlink" x="0px" y="0px"
	 viewBox="0 0 400 400" enable-background="new 0 0 400 400" xml:space="preserve">
<path id="fill::tubetop_2_" fill="#F6ED4B" stroke="#000000" stroke-width="11" d="M200,316.9c-17.1,0-33.3-2.4-48.1-6.2
	c0,0-8.7-2.3-10-2.4c-0.1-0.4-0.1-0.9-0.2-1.3c-1.7-11.5-2.6-23.8-2.6-36.4c0-7.6,0.3-15.1,0.9-22.3c4.3,0,11.9,2.5,11.9,2.5
	c14.9,3.8,31,6.2,48.1,6.2h0.3c17.1,0,33.3-2.4,48.1-6.2c0,0,7.6-2.5,11.9-2.5c0.6,7.2,0.9,14.7,0.9,22.3c0,12.7-0.9,24.9-2.6,36.4
	c-0.1,0.4-0.1,0.9-0.2,1.3c-1.3,0.2-10,2.4-10,2.4c-14.9,3.8-31,6.2-48.1,6.2H200z"/>
</svg>
