<?xml version="1.0" encoding="utf-8"?>
<!-- Generator: Adobe Illustrator 17.1.0, SVG Export Plug-In . SVG Version: 6.00 Build 0)  -->
<!DOCTYPE svg PUBLIC "-//W3C//DTD SVG 1.1//EN" "http://www.w3.org/Graphics/SVG/1.1/DTD/svg11.dtd">
<svg version="1.1" id="tux" xmlns="http://www.w3.org/2000/svg" xmlns:xlink="http://www.w3.org/1999/xlink" x="0px" y="0px"
	 viewBox="0 0 400 400" enable-background="new 0 0 400 400" xml:space="preserve">
<g id="fill:tux:2">
	<path fill="#3A3A3A" stroke="#0E0902" stroke-width="11" stroke-miterlimit="10" d="M191.9,313.1c4.5-8.3,7.1-18.2,7.1-28.9
		c0-29.4-19.7-53.2-44.1-53.2c-24.4,0-44.1,23.8-44.1,53.2c0,10.6,2.6,20.6,7.1,28.9H191.9z"/>
	<path fill="#3A3A3A" stroke="#0D0902" stroke-width="11" stroke-miterlimit="10" d="M282.2,313.1c4.5-8.3,7.1-18.2,7.1-28.9
		c0-29.4-19.7-53.2-44.1-53.2c-24.4,0-44.1,23.8-44.1,53.2c0,10.6,2.6,20.6,7.1,28.9H282.2z"/>
</g>
<path fill="#FFFFFF" stroke="#0E0902" stroke-width="11" stroke-miterlimit="10" d="M200.3,198.8c-18.8,0-36.8,2.6-52.8,7.2
	c-5.4,18.9-8.4,40.9-8.4,64.4c0,29.1,4.8,55.9,12.8,77.2c14.8,3.8,31.3,6.2,48.4,6.2c17.1,0,33.3-2.4,48.1-6.2
	c8-21.3,12.8-48.1,12.8-77.2c0-23.5-3-45.5-8.4-64.4C236.8,201.4,219.1,198.8,200.3,198.8z"/>
<rect x="191.1" y="238.1" transform="matrix(-0.6864 -0.7272 0.7272 -0.6864 158.9524 564.9702)" fill="#600202" width="20.3" height="20.3"/>
<g>
	<polygon fill="none" stroke="#0E0902" stroke-width="8" points="213.3,250.7 186.3,223.7 240.3,223.7 	"/>
	<polygon fill="none" stroke="#0E0902" stroke-width="8" points="188.2,250.7 161.2,223.7 215.1,223.7 	"/>
</g>
<path fill="#D9DB97" stroke="#0E0902" stroke-width="6" stroke-linejoin="round" stroke-miterlimit="10" d="M169.8,251.1l30,32
	l34-31.1l-1.7,86.8c0,0-25.2,26.2-57.2,4.3c-10.3-7-4.7-3.2-3.4-16C174.2,300,169.8,251.1,169.8,251.1z"/>
<g id="fill:tux:1">
	<path fill="#3A3A3A" stroke="#0D0902" stroke-width="6" stroke-miterlimit="10" d="M176.3,239.2l21.2,122.5c0,0-26.2,8-42.7-5.5
		c-16.4-13.5-19-127.4-11.4-126.1C151,231.5,176.3,239.2,176.3,239.2z"/>
	<polygon fill="#3A3A3A" stroke="#0D0902" stroke-width="6" stroke-linejoin="round" stroke-miterlimit="10" points="177.6,238.6 
		158.9,253.3 171.6,271.9 159.8,278.6 194.9,347.9 	"/>
	<path fill="#3A3A3A" stroke="#0D0902" stroke-width="6" stroke-miterlimit="10" d="M223.4,238.5l-21.2,122.5c0,0,26.2,8,42.7-5.5
		c16.4-13.5,19-127.4,11.4-126.1C248.7,230.8,223.4,238.5,223.4,238.5z"/>
	<polygon fill="#3A3A3A" stroke="#0D0902" stroke-width="6" stroke-linejoin="round" stroke-miterlimit="10" points="222,237.9 
		240.7,252.6 228.1,271.2 239.9,277.9 204.8,347.2 	"/>
</g>
<g>
	<polygon fill="#600202" points="201.9,250.5 226,237.9 226,263.1 	"/>
	<polygon fill="#600202" points="199,250.5 174.9,263.1 174.9,237.9 	"/>
</g>
<g>
	<circle fill="#231F20" cx="200.3" cy="298.2" r="2.5"/>
	<circle fill="#231F20" cx="200.3" cy="316.5" r="2.5"/>
</g>
</svg>
