<?xml version="1.0" encoding="utf-8"?>
<!-- Generator: Adobe Illustrator 17.1.0, SVG Export Plug-In . SVG Version: 6.00 Build 0)  -->
<!DOCTYPE svg PUBLIC "-//W3C//DTD SVG 1.1//EN" "http://www.w3.org/Graphics/SVG/1.1/DTD/svg11.dtd">
<svg version="1.1" id="v-neck-curved" xmlns="http://www.w3.org/2000/svg" xmlns:xlink="http://www.w3.org/1999/xlink" x="0px"
	 y="0px" viewBox="0 0 400 400" enable-background="new 0 0 400 400" xml:space="preserve">
<g id="fill::v-neck-curved">
	<path fill="#38383A" stroke="#000000" stroke-width="11" d="M250.2,235.5c-8.4,16.4-19.9,28.2-5,28.2c6.1,0,12.2,0,17.8,0
		c9.7,0,19-9.4,16.2-13.4C271.1,238.5,256.4,223.3,250.2,235.5z"/>
	<path fill="#38383A" stroke="#000000" stroke-width="11" d="M149.4,235.5c8.4,16.4,19.9,28.2,5,28.2c-6.1,0-12.2,0-17.8,0
		c-9.7,0-19-9.4-16.2-13.4C128.5,238.5,143.2,223.3,149.4,235.5z"/>
	<path fill="#38383A" stroke="#000000" stroke-width="11" stroke-linejoin="round" d="M252.8,206c5.4,18.9,8.4,40.9,8.4,64.4
		c0,29.1-4.8,55.9-12.8,77.2c-14.9,3.8-31,6.2-48.1,6.2s-33.6-2.4-48.4-6.2c-8-21.3-12.8-48.1-12.8-77.2c0-23.5,3-45.5,8.4-64.4
		c16-4.6,34-7.2,52.8-7.2C219.1,198.8,236.8,201.4,252.8,206z M144.4,213.9c0,0,27.2,60.8,55.8,60.8s55.8-60.8,55.8-60.8l-55.8-45.8
		L144.4,213.9z"/>
</g>
</svg>
