<?xml version="1.0" encoding="utf-8"?>
<!-- Generator: Adobe Illustrator 17.1.0, SVG Export Plug-In . SVG Version: 6.00 Build 0)  -->
<!DOCTYPE svg PUBLIC "-//W3C//DTD SVG 1.1//EN" "http://www.w3.org/Graphics/SVG/1.1/DTD/svg11.dtd">
<svg version="1.1" id="v-neck" xmlns="http://www.w3.org/2000/svg" xmlns:xlink="http://www.w3.org/1999/xlink" x="0px" y="0px"
	 viewBox="0 0 400 400" enable-background="new 0 0 400 400" xml:space="preserve">
<g id="fill::v-neck">
	<path fill="#31AF64" stroke="#000000" stroke-width="11" d="M155,231c-23,0-41.7,21.3-43.8,48.4h87.5C196.7,252.3,178,231,155,231z
		"/>
	<path fill="#31AF64" stroke="#000000" stroke-width="11" d="M245.3,231c-23,0-41.7,21.3-43.8,48.4H289
		C287,252.3,268.3,231,245.3,231z"/>
	<path fill="#31AF64" stroke="#000000" stroke-width="11" d="M252.8,206c5.4,18.9,8.4,40.9,8.4,64.4c0,29.1-4.8,55.9-12.8,77.2
		c-14.9,3.8-31,6.2-48.1,6.2s-33.6-2.4-48.4-6.2c-8-21.3-12.8-48.1-12.8-77.2c0-23.5,3-45.5,8.4-64.4c16-4.6,34-7.2,52.8-7.2
		C219.1,198.8,236.8,201.4,252.8,206z M154.4,213.9l45.8,45.8l45.8-45.8l-45.8-45.8L154.4,213.9z"/>
</g>
</svg>
