<?xml version="1.0" encoding="utf-8"?>
<!-- Generator: Adobe Illustrator 17.1.0, SVG Export Plug-In . SVG Version: 6.00 Build 0)  -->
<!DOCTYPE svg PUBLIC "-//W3C//DTD SVG 1.1//EN" "http://www.w3.org/Graphics/SVG/1.1/DTD/svg11.dtd">
<svg version="1.1" id="vest-warmer" xmlns="http://www.w3.org/2000/svg" xmlns:xlink="http://www.w3.org/1999/xlink" x="0px"
	 y="0px" viewBox="0 0 400 400" enable-background="new 0 0 400 400" xml:space="preserve">
<g>
	<g id="fill::vest-warmer">
		<path id="XMLID_34_" fill="#3BC0C7" d="M252.8,206c5.4,18.9,8.4,40.9,8.4,64.4c0,29.1-4.8,55.9-12.8,77.2
			c-14.9,3.8-31,6.2-48.1,6.2s-33.6-2.4-48.4-6.2c-8-21.3-12.8-48.1-12.8-77.2c0-23.5,3-45.5,8.4-64.4c16-4.6,34-7.2,52.8-7.2
			C219.1,198.8,236.8,201.4,252.8,206z M168.3,204.2v19c0,13.5,11,24.5,24.5,24.5h17.6c13.5,0,24.5-11,24.5-24.5v-19
			c0-13.5-11-24.5-24.5-24.5h-17.6C179.3,179.7,168.3,190.7,168.3,204.2z"/>
	</g>
	<g>
		<defs>
			<path id="SVGID_1_" d="M252.8,206c5.4,18.9,8.4,40.9,8.4,64.4c0,29.1-4.8,55.9-12.8,77.2c-14.9,3.8-31,6.2-48.1,6.2
				s-33.6-2.4-48.4-6.2c-8-21.3-12.8-48.1-12.8-77.2c0-23.5,3-45.5,8.4-64.4c16-4.6,34-7.2,52.8-7.2
				C219.1,198.8,236.8,201.4,252.8,206z M168.3,204.2v19c0,13.5,11,24.5,24.5,24.5h17.6c13.5,0,24.5-11,24.5-24.5v-19
				c0-13.5-11-24.5-24.5-24.5h-17.6C179.3,179.7,168.3,190.7,168.3,204.2z"/>
		</defs>
		<clipPath id="SVGID_2_">
			<use xlink:href="#SVGID_1_"  overflow="visible"/>
		</clipPath>
		<g opacity="0.3" clip-path="url(#SVGID_2_)">
			<path fill="none" stroke="#000000" stroke-width="3" stroke-dasharray="5.8864,5.8864" d="M302.6,285.5
				c-8.4,23.6-50.5,41.5-101.2,41.5c-52.7,0-96.1-19.3-102-44.3"/>
			<path fill="none" stroke="#000000" stroke-width="3" stroke-dasharray="5.8864,5.8864" d="M302.6,257.5
				c-8.4,23.6-50.5,41.5-101.2,41.5c-52.7,0-96.1-19.3-102-44.3"/>
			<path fill="none" stroke="#000000" stroke-width="3" stroke-dasharray="5.9725,5.9725" d="M261.1,257.6
				c-16.8,8.7-37.4,14.4-59.7,14.4c-52.8,0-96.3-32.4-102.1-59.2"/>
		</g>
	</g>
	<g>
		<defs>
			<path id="SVGID_3_" d="M252.8,206c5.4,18.9,8.4,40.9,8.4,64.4c0,29.1-4.8,55.9-12.8,77.2c-14.9,3.8-31,6.2-48.1,6.2
				s-33.6-2.4-48.4-6.2c-8-21.3-12.8-48.1-12.8-77.2c0-23.5,3-45.5,8.4-64.4c16-4.6,34-7.2,52.8-7.2
				C219.1,198.8,236.8,201.4,252.8,206z M168.3,204.2v19c0,13.5,11,24.5,24.5,24.5h17.6c13.5,0,24.5-11,24.5-24.5v-19
				c0-13.5-11-24.5-24.5-24.5h-17.6C179.3,179.7,168.3,190.7,168.3,204.2z"/>
		</defs>
		<clipPath id="SVGID_4_">
			<use xlink:href="#SVGID_3_"  overflow="visible"/>
		</clipPath>
		<line clip-path="url(#SVGID_4_)" fill="none" stroke="#000000" stroke-width="9" x1="201.1" y1="247.7" x2="201.1" y2="353.8"/>
	</g>
	<g>
		<path id="XMLID_1_" fill="none" stroke="#000000" stroke-width="11" d="M252.8,206c5.4,18.9,8.4,40.9,8.4,64.4
			c0,29.1-4.8,55.9-12.8,77.2c-14.9,3.8-31,6.2-48.1,6.2s-33.6-2.4-48.4-6.2c-8-21.3-12.8-48.1-12.8-77.2c0-23.5,3-45.5,8.4-64.4
			c16-4.6,34-7.2,52.8-7.2C219.1,198.8,236.8,201.4,252.8,206z M168.3,204.2v19c0,13.5,11,24.5,24.5,24.5h17.6
			c13.5,0,24.5-11,24.5-24.5v-19c0-13.5-11-24.5-24.5-24.5h-17.6C179.3,179.7,168.3,190.7,168.3,204.2z"/>
	</g>
</g>
</svg>
