<?xml version="1.0" encoding="utf-8"?>
<!-- Generator: Adobe Illustrator 17.1.0, SVG Export Plug-In . SVG Version: 6.00 Build 0)  -->
<!DOCTYPE svg PUBLIC "-//W3C//DTD SVG 1.1//EN" "http://www.w3.org/Graphics/SVG/1.1/DTD/svg11.dtd">
<svg version="1.1" id="wolverine" xmlns="http://www.w3.org/2000/svg" xmlns:xlink="http://www.w3.org/1999/xlink" x="0px" y="0px"
	 viewBox="0 0 400 400" enable-background="new 0 0 400 400" xml:space="preserve">
<path id="fill::chest" fill="#F2D821" stroke="#000000" stroke-width="11" stroke-miterlimit="10" d="M200.3,198.8
	c-18.8,0-36.8,2.6-52.8,7.2c-5.4,18.9-8.4,40.9-8.4,64.4c0,29.1,4.8,55.9,12.8,77.2c14.8,3.8,31.3,6.2,48.4,6.2s33.3-2.4,48.1-6.2
	c8-21.3,12.8-48.1,12.8-77.2c0-23.5-3-45.5-8.4-64.4C236.8,201.4,219.1,198.8,200.3,198.8z"/>
<g>
	<g>
		<defs>
			<path id="SVGID_1_" d="M200.3,198.8c-18.8,0-36.8,2.6-52.8,7.2c-5.4,18.9-8.4,40.9-8.4,64.4c0,29.1,4.8,55.9,12.8,77.2
				c14.8,3.8,31.3,6.2,48.4,6.2s33.3-2.4,48.1-6.2c8-21.3,12.8-48.1,12.8-77.2c0-23.5-3-45.5-8.4-64.4
				C236.8,201.4,219.1,198.8,200.3,198.8z"/>
		</defs>
		<clipPath id="SVGID_2_">
			<use xlink:href="#SVGID_1_"  overflow="visible"/>
		</clipPath>
		<path clip-path="url(#SVGID_2_)" d="M137.9,283c0,0,22.3,0.6,39.1,12.5l-41.6,0.4"/>
	</g>
	<g>
		<defs>
			<path id="SVGID_3_" d="M200.3,198.8c-18.8,0-36.8,2.6-52.8,7.2c-5.4,18.9-8.4,40.9-8.4,64.4c0,29.1,4.8,55.9,12.8,77.2
				c14.8,3.8,31.3,6.2,48.4,6.2s33.3-2.4,48.1-6.2c8-21.3,12.8-48.1,12.8-77.2c0-23.5-3-45.5-8.4-64.4
				C236.8,201.4,219.1,198.8,200.3,198.8z"/>
		</defs>
		<clipPath id="SVGID_4_">
			<use xlink:href="#SVGID_3_"  overflow="visible"/>
		</clipPath>
		<path clip-path="url(#SVGID_4_)" d="M136.2,307.5c0,0,24.6-4.7,34.3,4.9l-31.5,3.5"/>
	</g>
	<g>
		<defs>
			<path id="SVGID_5_" d="M200.3,198.8c-18.8,0-36.8,2.6-52.8,7.2c-5.4,18.9-8.4,40.9-8.4,64.4c0,29.1,4.8,55.9,12.8,77.2
				c14.8,3.8,31.3,6.2,48.4,6.2s33.3-2.4,48.1-6.2c8-21.3,12.8-48.1,12.8-77.2c0-23.5-3-45.5-8.4-64.4
				C236.8,201.4,219.1,198.8,200.3,198.8z"/>
		</defs>
		<clipPath id="SVGID_6_">
			<use xlink:href="#SVGID_5_"  overflow="visible"/>
		</clipPath>
		<path clip-path="url(#SVGID_6_)" d="M140,323.6c0,0,11.6,0.5,27.1,5.4l-28.4,3.8"/>
	</g>
	<g>
		<defs>
			<path id="SVGID_7_" d="M200.3,198.8c-18.8,0-36.8,2.6-52.8,7.2c-5.4,18.9-8.4,40.9-8.4,64.4c0,29.1,4.8,55.9,12.8,77.2
				c14.8,3.8,31.3,6.2,48.4,6.2s33.3-2.4,48.1-6.2c8-21.3,12.8-48.1,12.8-77.2c0-23.5-3-45.5-8.4-64.4
				C236.8,201.4,219.1,198.8,200.3,198.8z"/>
		</defs>
		<clipPath id="SVGID_8_">
			<use xlink:href="#SVGID_7_"  overflow="visible"/>
		</clipPath>
		<path clip-path="url(#SVGID_8_)" d="M262.5,283c0,0-22.3,0.6-39.1,12.5l41.6,0.4"/>
	</g>
	<g>
		<defs>
			<path id="SVGID_9_" d="M200.3,198.8c-18.8,0-36.8,2.6-52.8,7.2c-5.4,18.9-8.4,40.9-8.4,64.4c0,29.1,4.8,55.9,12.8,77.2
				c14.8,3.8,31.3,6.2,48.4,6.2s33.3-2.4,48.1-6.2c8-21.3,12.8-48.1,12.8-77.2c0-23.5-3-45.5-8.4-64.4
				C236.8,201.4,219.1,198.8,200.3,198.8z"/>
		</defs>
		<clipPath id="SVGID_10_">
			<use xlink:href="#SVGID_9_"  overflow="visible"/>
		</clipPath>
		<path clip-path="url(#SVGID_10_)" d="M264.3,307.5c0,0-24.6-4.7-34.3,4.9l31.5,3.5"/>
	</g>
	<g>
		<defs>
			<path id="SVGID_11_" d="M200.3,198.8c-18.8,0-36.8,2.6-52.8,7.2c-5.4,18.9-8.4,40.9-8.4,64.4c0,29.1,4.8,55.9,12.8,77.2
				c14.8,3.8,31.3,6.2,48.4,6.2s33.3-2.4,48.1-6.2c8-21.3,12.8-48.1,12.8-77.2c0-23.5-3-45.5-8.4-64.4
				C236.8,201.4,219.1,198.8,200.3,198.8z"/>
		</defs>
		<clipPath id="SVGID_12_">
			<use xlink:href="#SVGID_11_"  overflow="visible"/>
		</clipPath>
		<path clip-path="url(#SVGID_12_)" d="M260.5,323.6c0,0-11.6,0.5-27.1,5.4l28.4,3.8"/>
	</g>
	<g>
		<defs>
			<path id="SVGID_13_" d="M200.3,198.8c-18.8,0-36.8,2.6-52.8,7.2c-5.4,18.9-8.4,40.9-8.4,64.4c0,29.1,4.8,55.9,12.8,77.2
				c14.8,3.8,31.3,6.2,48.4,6.2s33.3-2.4,48.1-6.2c8-21.3,12.8-48.1,12.8-77.2c0-23.5-3-45.5-8.4-64.4
				C236.8,201.4,219.1,198.8,200.3,198.8z"/>
		</defs>
		<clipPath id="SVGID_14_">
			<use xlink:href="#SVGID_13_"  overflow="visible"/>
		</clipPath>
		<path clip-path="url(#SVGID_14_)" d="M148,227.8c0,0,20.5,23.2,30.4,50.2l3.6-46.9"/>
	</g>
	<g>
		<defs>
			<path id="SVGID_15_" d="M200.3,198.8c-18.8,0-36.8,2.6-52.8,7.2c-5.4,18.9-8.4,40.9-8.4,64.4c0,29.1,4.8,55.9,12.8,77.2
				c14.8,3.8,31.3,6.2,48.4,6.2s33.3-2.4,48.1-6.2c8-21.3,12.8-48.1,12.8-77.2c0-23.5-3-45.5-8.4-64.4
				C236.8,201.4,219.1,198.8,200.3,198.8z"/>
		</defs>
		<clipPath id="SVGID_16_">
			<use xlink:href="#SVGID_15_"  overflow="visible"/>
		</clipPath>
		<path clip-path="url(#SVGID_16_)" d="M255,230c0,0-20.5,23.2-30.4,50.2l-3.6-46.9"/>
	</g>
</g>
<g id="fill::shoulder-pads">
	<path fill="#0576B0" stroke="#000000" stroke-width="8" stroke-miterlimit="10" d="M141.2,228.5c0,0-29.2-4.8-37.2-0.7
		c-8,4.2,31.5,18.9,35,25C142.5,258.9,141.2,228.5,141.2,228.5z"/>
	<path fill="#0576B0" stroke="#000000" stroke-width="8" stroke-miterlimit="10" d="M260.9,230c0,0,29.2-4.8,37.2-0.7
		c8,4.2-31.5,18.9-35,25C259.6,260.4,260.9,230,260.9,230z"/>
</g>
</svg>
