<?xml version="1.0" encoding="utf-8"?>
<!-- Generator: Adobe Illustrator 17.1.0, SVG Export Plug-In . SVG Version: 6.00 Build 0)  -->
<!DOCTYPE svg PUBLIC "-//W3C//DTD SVG 1.1//EN" "http://www.w3.org/Graphics/SVG/1.1/DTD/svg11.dtd">
<svg version="1.1" id="Layer_3" xmlns="http://www.w3.org/2000/svg" xmlns:xlink="http://www.w3.org/1999/xlink" x="0px" y="0px"
	 viewBox="0 0 400 400" enable-background="new 0 0 400 400" xml:space="preserve">
<g id="clip_1_">
	<g>
		<path id="XMLID_14_" fill="#634A1D" d="M277.4,314.1c15.7-15.7,22.5-36,20.3-50.2c-0.5-4.7-2.2-8.7-5.2-11.7
			c-0.1-0.1-0.2-0.2-0.2-0.2c-0.1-0.1-0.2-0.2-0.2-0.2c-3-3-7-4.7-11.7-5.2c-14-2.3-34.4,4.5-50.2,20.3
			c-15.8,15.7-22.5,36-20.3,50.2c0.5,4.7,2.2,8.7,5.2,11.7c0.1,0.1,0.2,0.2,0.2,0.2c0.1,0.1,0.2,0.2,0.2,0.2c3,3,7,4.7,11.7,5.2
			C241.4,336.6,261.7,329.8,277.4,314.1z"/>
	</g>
	<path fill="#FFFFFF" d="M214.1,308.3l21.9,21.9c4.4-0.4,9-1.5,13.6-3.2l-32.3-32.3C215.5,299.4,214.5,304.1,214.1,308.3z"/>
	<path fill="#FFFFFF" d="M272.6,250.7c-4.1,0.3-8.8,1.2-13.8,3l31.8,31.8c1.7-4.9,2.7-9.6,3-13.9L272.6,250.7z"/>
	<path id="XMLID_1_" fill="none" stroke="#231F20" stroke-width="9" stroke-miterlimit="10" d="M277.4,314.1
		c15.7-15.7,22.5-36,20.3-50.2c-0.5-4.7-2.2-8.7-5.2-11.7c-0.1-0.1-0.2-0.2-0.2-0.2c-0.1-0.1-0.2-0.2-0.2-0.2c-3-3-7-4.7-11.7-5.2
		c-14-2.3-34.4,4.5-50.2,20.3c-15.8,15.7-22.5,36-20.3,50.2c0.5,4.7,2.2,8.7,5.2,11.7c0.1,0.1,0.2,0.2,0.2,0.2
		c0.1,0.1,0.2,0.2,0.2,0.2c3,3,7,4.7,11.7,5.2C241.4,336.6,261.7,329.8,277.4,314.1z"/>
	<g>
		<path id="XMLID_15_" fill="none" stroke="#FFFFFF" stroke-width="3" stroke-linecap="round" stroke-miterlimit="10" d="
			M270.4,254.7c-10.6,5-21.2,12.2-30.7,21.6c-8.9,8.9-15.8,18.8-20.8,28.8"/>
		
			<line fill="none" stroke="#FFFFFF" stroke-width="3" stroke-linecap="round" stroke-miterlimit="10" x1="251.7" y1="259.1" x2="261.1" y2="268.5"/>
		
			<line fill="none" stroke="#FFFFFF" stroke-width="3" stroke-linecap="round" stroke-miterlimit="10" x1="245.3" y1="264.5" x2="254.7" y2="274"/>
		
			<line fill="none" stroke="#FFFFFF" stroke-width="3" stroke-linecap="round" stroke-miterlimit="10" x1="238.7" y1="269.9" x2="248.2" y2="279.3"/>
		
			<line fill="none" stroke="#FFFFFF" stroke-width="3" stroke-linecap="round" stroke-miterlimit="10" x1="232.1" y1="275.1" x2="241.5" y2="284.6"/>
		
			<line fill="none" stroke="#FFFFFF" stroke-width="3" stroke-linecap="round" stroke-miterlimit="10" x1="226.8" y1="281.8" x2="236.2" y2="291.2"/>
		
			<line fill="none" stroke="#FFFFFF" stroke-width="3" stroke-linecap="round" stroke-miterlimit="10" x1="222" y1="288.8" x2="231.4" y2="298.2"/>
	</g>
</g>
<path id="snoo-body-f::fill::hand" fill="#00FF00" stroke="#000000" stroke-width="11" d="M268.9,298.9c10.6-0.2,19.3,8.3,19.4,18.9
	c0.2,10.6-8.3,19.3-18.9,19.4c-10.6,0.2-19.3-8.3-19.4-18.9C249.9,307.7,258.4,299,268.9,298.9z"/>
</svg>
