<?xml version="1.0" encoding="utf-8"?>
<!-- Generator: Adobe Illustrator 17.1.0, SVG Export Plug-In . SVG Version: 6.00 Build 0)  -->
<!DOCTYPE svg PUBLIC "-//W3C//DTD SVG 1.1//EN" "http://www.w3.org/Graphics/SVG/1.1/DTD/svg11.dtd">
<svg version="1.1" id="baby" xmlns="http://www.w3.org/2000/svg" xmlns:xlink="http://www.w3.org/1999/xlink" x="0px" y="0px"
	 viewBox="0 0 400 400" enable-background="new 0 0 400 400" xml:space="preserve">
<g>
	<path fill="#C6DEF7" d="M234.8,323c-17.5-14.3-16.2-43.2,6.9-71.7c23.1-28.4,56.1-39.8,73.6-25.6c17.5,14.3,13,48.9-10.1,77.3
		C282,331.5,252.3,337.3,234.8,323z"/>
	<path fill="none" stroke="#000000" stroke-width="6" d="M234.8,323c-17.5-14.3-16.2-43.2,6.9-71.7c23.1-28.4,56.1-39.8,73.6-25.6
		c17.5,14.3,13,48.9-10.1,77.3C282,331.5,252.3,337.3,234.8,323z"/>
	<polyline fill="none" stroke="#000000" stroke-width="6" stroke-linecap="round" stroke-linejoin="round" points="341,195.8 
		369.2,177.2 369.2,204 	"/>
	<g id="fill::baby-body">
		<path fill="#FFFFFF" stroke="#000000" stroke-width="6" d="M292.9,186.2c-4.8,5.9-13.6,6.8-19.5,2s-6.8-13.6-2-19.5
			s13.6-6.8,19.5-2C296.9,171.5,297.8,180.3,292.9,186.2z"/>
		<path fill="#FFFFFF" stroke="#000000" stroke-width="6" d="M380.8,257.8c-4.8,5.9-13.6,6.8-19.5,2c-5.9-4.8-6.8-13.5-2-19.5
			c4.8-5.9,13.6-6.8,19.5-2C384.7,243.1,385.6,251.8,380.8,257.8z"/>
		<path fill="#FFFFFF" stroke="#000000" stroke-width="6" d="M362.5,267.4c-14.3,17.5-47.6,14-74.5-7.9s-37.1-53.8-22.8-71.4
			c14.3-17.5,47.7-14,74.5,7.9C366.6,218,376.8,249.9,362.5,267.4z"/>
		<path fill="#FFFFFF" stroke="#000000" stroke-width="6" d="M271.8,247.1c-4,4.9-11.2,5.6-16.1,1.7c-4.9-4-5.6-11.2-1.7-16.1
			c4-4.9,11.2-5.6,16.1-1.6C275,235,275.8,242.2,271.8,247.1z"/>
		<path fill="#FFFFFF" stroke="#000000" stroke-width="6" d="M314,282.3c-4,4.9-11.2,5.6-16.1,1.7c-4.9-4-5.6-11.2-1.7-16.1
			c4-4.9,11.2-5.6,16.1-1.6C317.3,270.2,318,277.4,314,282.3z"/>
		<path fill="#FFFFFF" stroke="#000000" stroke-width="6" stroke-linecap="round" stroke-linejoin="round" d="M375.2,210.3
			c-3,3.7-8.4,4.2-12,1.2c-3.7-3-4.2-8.4-1.2-12c3-3.7,8.3-4.2,12-1.2C377.6,201.3,378.1,206.7,375.2,210.3z"/>
	</g>
	<g>
		<path fill="#FF4500" d="M332.5,241.3c-2.8,0-5.5-1-7.7-2.8c-2.5-2-4.1-5-4.4-8.2s0.6-6.4,2.7-8.9c2.3-2.8,5.8-4.5,9.4-4.5
			c2.8,0,5.5,1,7.7,2.7c5.2,4.2,6,11.9,1.7,17.1C339.6,239.6,336.2,241.3,332.5,241.3z"/>
		<path fill="#FF4500" d="M297.2,212.5c-2.8,0-5.5-1-7.7-2.8c-2.5-2-4.1-5-4.4-8.2s0.6-6.4,2.7-8.9c2.3-2.8,5.8-4.5,9.4-4.5
			c2.8,0,5.5,1,7.7,2.7c5.2,4.2,6,11.9,1.7,17.1C304.3,210.9,300.9,212.5,297.2,212.5z"/>
		<path fill="none" stroke="#000000" stroke-width="6" stroke-linecap="round" d="M286.5,228.8c0.4,8,6.8,15.3,18.6,15.4"/>
	</g>
</g>
<path id="snoo-body-f::fill::hand" fill="#00FF00" stroke="#000000" stroke-width="11" d="M280.4,330.7c-7.6-7.4-7.7-19.5-0.3-27.1
	c7.4-7.6,19.5-7.7,27.1-0.3s3.4,15.2-4,22.7C295.8,333.6,287.9,338.1,280.4,330.7z"/>
</svg>
