<?xml version="1.0" encoding="utf-8"?>
<!-- Generator: Adobe Illustrator 17.1.0, SVG Export Plug-In . SVG Version: 6.00 Build 0)  -->
<!DOCTYPE svg PUBLIC "-//W3C//DTD SVG 1.1//EN" "http://www.w3.org/Graphics/SVG/1.1/DTD/svg11.dtd">
<svg version="1.1" id="Layer_2" xmlns="http://www.w3.org/2000/svg" xmlns:xlink="http://www.w3.org/1999/xlink" x="0px" y="0px"
	 viewBox="0 0 400 400" enable-background="new 0 0 400 400" xml:space="preserve">
<g id="g10" transform="matrix(1.25,0,0,-1.25,0,500)">
	
		<path id="path3953" fill="#FFE20A" stroke="#000000" stroke-width="6" d="
		M231.8,205c1.9-13.9-1.9-13.4-3.7-18c-6-15.4-19.7-30.8-53.3-18.2c-4.1,1.3-7.9-5.2-3.1-11.6c4.9-6.4,15.5-17,41.3-10.8
		s31.2,28.4,31.5,30.8c0.3,2.4,0.8,11.1-4.9,16.4c-3.5,3.3-0.1,11.2-0.1,11.2S235.8,206.4,231.8,205L231.8,205z"/>
	
		<path id="path3951" fill="#AA8200" stroke="#000000" stroke-width="6" d="
		M231.8,205c0.4,5.8,11.2,12.3,7.8-0.2"/>
	
		<path id="path3947" fill="none" stroke="#000000" stroke-width="4.0079" stroke-linecap="round" stroke-linejoin="round" d="
		M231.8,205c1.9-13.9-1.9-13.4-3.7-18c-6-15.4-19.7-30.8-53.3-18.2c-4.1,1.3-7.9-5.2-3.1-11.6c4.9-6.4,15.5-17,41.3-10.8
		s31.2,28.4,31.5,30.8s0.8,11.1-4.9,16.4c-3.5,3.3-0.1,11.2-0.1,11.2S235.8,206.4,231.8,205L231.8,205z"/>
	
		<path id="path3949" fill="none" stroke="#000000" stroke-width="4.0079" stroke-linecap="round" stroke-linejoin="round" d="
		M231.8,205c0.4,5.8,11.2,12.3,7.8-0.2"/>
	
		<path id="path3955" fill="none" stroke="#000000" stroke-width="5" stroke-linecap="round" stroke-linejoin="round" d="
		M238.1,197.1c4.1-25.2-30-60.9-67.7-31.3"/>
</g>
<ellipse id="snoo-body-f::fill::hand" transform="matrix(0.8337 -0.5522 0.5522 0.8337 -131.2481 205.5488)" fill="#00FF00" stroke="#000000" stroke-width="11" cx="275.7" cy="320.7" rx="22.3" ry="16.8"/>
</svg>
