<?xml version="1.0" encoding="utf-8"?>
<!-- Generator: Adobe Illustrator 17.1.0, SVG Export Plug-In . SVG Version: 6.00 Build 0)  -->
<!DOCTYPE svg PUBLIC "-//W3C//DTD SVG 1.1//EN" "http://www.w3.org/Graphics/SVG/1.1/DTD/svg11.dtd">
<svg version="1.1" id="Layer_2" xmlns="http://www.w3.org/2000/svg" xmlns:xlink="http://www.w3.org/1999/xlink" x="0px" y="0px"
	 viewBox="0 0 400 400" enable-background="new 0 0 400 400" xml:space="preserve">
<g>
	<path d="M318.8,98.9c0-4.8-0.9-9.2-2.5-13c-2.3-5.7-6.2-10.1-10.8-13c-4.6-2.9-9.8-4.3-15-4.3c-3.3,0-6.6,0.6-9.7,1.7
		c-4.6,1.7-8.9,4.9-11.9,9.3c-3,4.4-4.8,10.1-4.8,16.6c0,0.1,0,0.1,0,0.2l-7.3,138.8l9.3,43l-3.4,83.5c0,0.1,0,0.2-0.1,0.3
		c-0.1,0.2-0.2,0.4-0.5,0.9c-0.2,0.3-0.6,0.7-1,1.2c-0.6,0.7-1.5,1.6-2.3,2.8c-0.8,1.2-1.6,2.7-2,4.6c-0.2,0.9-0.3,1.9-0.3,2.8
		c0,2.5,0.5,5,1.6,7.3c0.6,1.2,1.3,2.3,2.2,3.3c0.9,1,2.1,2,3.4,2.6c4.3,2.1,9.1,3.1,13.9,3.1c3.6,0,7.2-0.6,10.5-1.8
		c1.6-0.6,3-1.5,4-2.6c1.6-1.6,2.7-3.5,3.5-5.4c0.7-2,1.1-4,1.2-6.1c0-0.4,0-0.8,0-1.2l0,0c-0.1-1.9-0.8-3.5-1.4-4.7
		c-0.5-0.9-1-1.7-1.5-2.4c-0.7-1-1.3-1.7-1.5-2.2c-0.1-0.3-0.2-0.4-0.2-0.6c0-0.1,0-0.2,0-0.3l0-0.1l0,0l5.4-83.4l13.8-41.8
		 M288.4,278.1l-5.5,84.6l0,0c0,0.2,0,0.5,0,0.7c0,0.9,0.1,1.8,0.3,2.7c0.4,1.4,1,2.6,1.6,3.6c0.9,1.4,1.7,2.4,2.2,3.2
		c0.2,0.4,0.4,0.7,0.5,0.9c0.1,0.2,0.1,0.4,0.2,0.6l0,0c0,0.1,0,0.3,0,0.4c0,0.5-0.1,1.2-0.2,1.8c-0.2,0.9-0.7,1.9-1.1,2.5
		c-0.2,0.3-0.5,0.5-0.6,0.7c-0.2,0.1-0.3,0.2-0.4,0.3c-2.2,0.8-4.8,1.2-7.4,1.2c-3.5,0-7-0.8-9.8-2.1c-0.1-0.1-0.3-0.2-0.5-0.4
		c-0.3-0.4-0.7-1-1-1.8c-0.3-0.8-0.4-1.7-0.4-2.5c0-0.4,0-0.8,0.1-1.1c0.1-0.3,0.2-0.6,0.5-1c0.2-0.4,0.6-0.8,1.1-1.3
		c0.7-0.8,1.7-1.8,2.6-3.2c0.5-0.7,0.9-1.5,1.2-2.5c0.3-0.9,0.6-2,0.6-3.1l3.4-84.7l-9.3-43l7.3-137.9l0-0.1l0-0.3
		c0-3.3,0.6-6,1.5-8.3c1.4-3.4,3.6-5.8,6.3-7.5c2.7-1.7,5.9-2.5,9.2-2.5c2.3,0,4.6,0.4,6.8,1.3c3.3,1.3,6.2,3.5,8.4,6.7
		c2.1,3.2,3.6,7.4,3.7,13l-7.3,137.5L288.4,278.1z"/>
	<path fill="#89561A" d="M305.7,85.9c-1-1.5-2.2-2.8-3.5-3.9c-1.5-1.2-3.1-2.1-4.8-2.8c-2.2-0.9-4.5-1.3-6.8-1.3c0,0,0,0,0,0
		c0,0,0,0,0,0c-3.3,0-6.5,0.9-9.2,2.5c-2.7,1.7-4.9,4.1-6.3,7.5c-0.9,2.3-1.5,5-1.5,8.3l0,0.3l0,0.1l-7.3,137.9l9.3,43l-3.4,84.7
		c0,1.1-0.3,2.2-0.6,3.1c-0.3,0.9-0.8,1.8-1.2,2.5c-0.9,1.4-1.9,2.4-2.6,3.2c-0.5,0.5-0.8,1-1.1,1.3c-0.3,0.5-0.4,0.7-0.5,1
		c-0.1,0.3-0.1,0.7-0.1,1.1c0,0.8,0.1,1.7,0.4,2.5c0.3,0.8,0.7,1.5,1,1.8c0.2,0.2,0.4,0.4,0.5,0.4c2.4,1.2,5.3,1.9,8.3,2.1
		c0.5,0,1,0,1.5,0c0,0,0,0,0,0c0,0,0,0,0,0c2.6,0,5.1-0.4,7.4-1.2c0.1,0,0.2-0.1,0.4-0.3c0.2-0.1,0.4-0.4,0.6-0.7
		c0.5-0.6,0.9-1.5,1.1-2.5c0.2-0.6,0.2-1.3,0.2-1.8c0-0.1,0-0.3,0-0.4l0,0c0-0.2-0.1-0.4-0.2-0.6c-0.1-0.2-0.3-0.5-0.5-0.9
		c-0.5-0.8-1.3-1.8-2.2-3.2c-0.6-1-1.2-2.1-1.6-3.6c-0.2-0.8-0.3-1.7-0.3-2.7c0-0.2,0-0.5,0-0.7l0,0l5.5-84.6l13.8-41.7l7.3-137.6
		C309.3,93.2,307.9,89,305.7,85.9z"/>
	<path opacity="0.3" d="M302.2,82c-2.7,42.9-11.5,114.2-13.8,154.3l-11,50.9l1.8,76.2c-0.3,4.5,1.5,3.5,1.8,7.9
		c0.3,3.6-1.6,8.1-4.7,9.8c0.5,0,1,0,1.5,0c0,0,0,0,0,0c0,0,0,0,0,0c2.6,0,5.1-0.4,7.4-1.2c0.1,0,0.2-0.1,0.4-0.3
		c0.2-0.1,0.4-0.4,0.6-0.7c0.5-0.6,0.9-1.5,1.1-2.5c0.2-0.6,0.2-1.3,0.2-1.8c0-0.1,0-0.3,0-0.4l0,0c0-0.2-0.1-0.4-0.2-0.6
		c-0.1-0.2-0.3-0.5-0.5-0.9c-0.5-0.8-1.3-1.8-2.2-3.2c-0.6-1-1.2-2.1-1.6-3.6c-0.2-0.8-0.3-1.7-0.3-2.7c0-0.2,0-0.5,0-0.7l0,0
		l5.5-84.6l13.8-41.7l7.3-137.6c-0.1-5.6-1.5-9.8-3.7-13C304.7,84.3,303.5,83.1,302.2,82"/>
</g>
<path id="snoo-body-f::fill::hand" fill="#00FF00" stroke="#000000" stroke-width="11" d="M263.8,316.8l0,0.2
	c2.9,10.3,12.9,16.5,22.5,13.8l1.3-0.4c9.6-2.7,15-13.2,12.1-23.5l0-0.2c-2.9-10.3-12.9-16.5-22.5-13.8l-1.3,0.4
	C266.4,296,261,306.5,263.8,316.8z"/>
</svg>
