<?xml version="1.0" encoding="utf-8"?>
<!-- Generator: Adobe Illustrator 17.1.0, SVG Export Plug-In . SVG Version: 6.00 Build 0)  -->
<!DOCTYPE svg PUBLIC "-//W3C//DTD SVG 1.1//EN" "http://www.w3.org/Graphics/SVG/1.1/DTD/svg11.dtd">
<svg version="1.1" id="Layer_3" xmlns="http://www.w3.org/2000/svg" xmlns:xlink="http://www.w3.org/1999/xlink" x="0px" y="0px"
	 viewBox="0 0 400 400" enable-background="new 0 0 400 400" xml:space="preserve">
<ellipse fill="#FFFFFF" stroke="#000000" stroke-width="9" cx="258" cy="296.3" rx="30.2" ry="27.9"/>
<g>
	<path fill="#FF0000" d="M236.2,291.5c-0.6,0.1-1.2,0.1-1.8,0.1l0.2,8.3c0.8,0,1.6-0.1,2.4-0.1L236.2,291.5z M239.6,290.9
		c-0.6,0.1-1.1,0.3-1.7,0.4l1.4,8.2c0.8-0.1,1.6-0.3,2.3-0.5L239.6,290.9L239.6,290.9z M242.9,289.8c-0.5,0.2-1.1,0.4-1.6,0.6
		l2.7,7.8c0.8-0.3,1.5-0.5,2.2-0.9L242.9,289.8L242.9,289.8z M246.1,288.2c-0.5,0.3-1,0.6-1.5,0.9l3.8,7.4c0.7-0.4,1.4-0.8,2.1-1.2
		L246.1,288.2L246.1,288.2z M248.9,286.1c-0.4,0.4-0.9,0.7-1.4,1.1l4.9,6.7c0.6-0.5,1.3-1,1.9-1.5L248.9,286.1L248.9,286.1z
		 M251.4,283.6c-0.4,0.4-0.8,0.9-1.2,1.3l5.8,5.9c0.6-0.6,1.1-1.1,1.6-1.7L251.4,283.6L251.4,283.6z M253.5,280.8
		c-0.3,0.5-0.7,1-1,1.4l6.6,5c0.5-0.6,0.9-1.3,1.4-2L253.5,280.8L253.5,280.8z M255.2,277.7c-0.2,0.5-0.5,1.1-0.8,1.6l7.3,3.9
		c0.4-0.7,0.7-1.4,1.1-2.1L255.2,277.7L255.2,277.7z M256.4,274.4c-0.2,0.6-0.3,1.1-0.5,1.7l7.8,2.8c0.3-0.7,0.5-1.5,0.7-2.3
		L256.4,274.4L256.4,274.4z"/>
	<path fill="#FF0000" d="M280.4,303c0.2,0,0.4,0.1,0.6,0.1l1.3-8.2c-0.3,0-0.6-0.1-0.9-0.1L280.4,303L280.4,303z M276.9,302.9
		c0.2,0,0.4,0,0.6,0c0.4,0,0.8,0,1.2,0l0.4-8.3c-0.5,0-1.1,0-1.6,0c-0.3,0-0.5,0-0.8,0L276.9,302.9z M273.4,303.2
		c0.6-0.1,1.2-0.2,1.7-0.2l-0.8-8.2c-0.8,0.1-1.6,0.2-2.4,0.3L273.4,303.2L273.4,303.2z M270,304.1c0.6-0.2,1.1-0.4,1.7-0.5l-2.1-8
		c-0.8,0.2-1.5,0.4-2.3,0.7L270,304.1z M266.8,305.5c0.5-0.3,1.1-0.5,1.6-0.8l-3.3-7.6c-0.7,0.3-1.4,0.7-2.2,1L266.8,305.5z
		 M263.8,307.3c0.5-0.3,1-0.7,1.5-1l-4.4-7c-0.7,0.4-1.3,0.9-2,1.3L263.8,307.3L263.8,307.3z M261.1,309.6c0.4-0.4,0.9-0.8,1.3-1.2
		l-5.4-6.3c-0.6,0.5-1.2,1-1.8,1.6L261.1,309.6z M258.8,312.3c0.4-0.5,0.7-0.9,1.1-1.4l-6.2-5.4c-0.5,0.6-1,1.2-1.5,1.9L258.8,312.3
		L258.8,312.3z M256.9,315.2c0.3-0.5,0.6-1,0.9-1.5l-7-4.5c-0.4,0.7-0.8,1.3-1.2,2.1L256.9,315.2L256.9,315.2z M255.5,318.5
		c0.2-0.6,0.4-1.1,0.7-1.6l-7.6-3.4c-0.3,0.7-0.6,1.5-0.9,2.2L255.5,318.5L255.5,318.5z"/>
</g>
<path id="snoo-body-f::fill::hand" fill="#00FF00" stroke="#000000" stroke-width="11" d="M288.7,307.1l1.1,0.7
	c8.6,5,11.2,16.5,5.9,25.8l-0.1,0.1c-5.3,9.3-16.6,12.7-25.2,7.8l-1.1-0.7c-8.6-5-11.2-16.5-5.9-25.8l0.1-0.1
	C268.8,305.6,280.1,302.1,288.7,307.1z"/>
</svg>
