<?xml version="1.0" encoding="utf-8"?>
<!-- Generator: Adobe Illustrator 17.1.0, SVG Export Plug-In . SVG Version: 6.00 Build 0)  -->
<!DOCTYPE svg PUBLIC "-//W3C//DTD SVG 1.1//EN" "http://www.w3.org/Graphics/SVG/1.1/DTD/svg11.dtd">
<svg version="1.1" id="Layer_2" xmlns="http://www.w3.org/2000/svg" xmlns:xlink="http://www.w3.org/1999/xlink" x="0px" y="0px"
	 viewBox="0 0 400 400" enable-background="new 0 0 400 400" xml:space="preserve">
<g id="basketball-clip">
	<defs>
		<circle id="XMLID_11_" cx="287.6" cy="345" r="49.9"/>
	</defs>
	<use xlink:href="#XMLID_11_"  overflow="visible" fill="#FF8B22"/>
	<clipPath id="XMLID_2_">
		<use xlink:href="#XMLID_11_"  overflow="visible"/>
	</clipPath>
	
		<ellipse clip-path="url(#XMLID_2_)" fill="none" stroke="#231F20" stroke-width="5" stroke-miterlimit="10" cx="300.3" cy="300.7" rx="128.4" ry="50.2"/>
	<path clip-path="url(#XMLID_2_)" fill="none" stroke="#231F20" stroke-width="5" stroke-miterlimit="10" d="M270.7,348.9
		c0,22.3,47.3,42.6,110.5,46c60.9,3.2,110.5-23.7,110.5-46c0-22.3-49.5-53.9-110-46.4C318.5,310.3,270.7,326.6,270.7,348.9z"/>
	
		<ellipse clip-path="url(#XMLID_2_)" fill="none" stroke="#231F20" stroke-width="5" stroke-miterlimit="10" cx="226.1" cy="348.1" rx="28.3" ry="44.7"/>
	
		<ellipse clip-path="url(#XMLID_2_)" fill="none" stroke="#231F20" stroke-width="5" stroke-miterlimit="10" cx="437.2" cy="349.1" rx="175.8" ry="104.6"/>
	<use xlink:href="#XMLID_11_"  overflow="visible" fill="none" stroke="#231F20" stroke-width="8" stroke-miterlimit="10"/>
</g>
<path id="snoo-body-f::fill::hand" fill="#00FF00" stroke="#000000" stroke-width="11" d="M284.9,270.4
	c-10.6-0.2-19.3,8.3-19.4,18.9c-0.2,10.6,8.3,19.3,18.9,19.4c10.6,0.2,19.3-8.3,19.4-18.9C303.9,279.3,295.4,270.6,284.9,270.4z"/>
</svg>
