<?xml version="1.0" encoding="utf-8"?>
<!-- Generator: Adobe Illustrator 17.1.0, SVG Export Plug-In . SVG Version: 6.00 Build 0)  -->
<!DOCTYPE svg PUBLIC "-//W3C//DTD SVG 1.1//EN" "http://www.w3.org/Graphics/SVG/1.1/DTD/svg11.dtd">
<svg version="1.1" id="Layer_3" xmlns="http://www.w3.org/2000/svg" xmlns:xlink="http://www.w3.org/1999/xlink" x="0px" y="0px"
	 viewBox="0 0 400 400" enable-background="new 0 0 400 400" xml:space="preserve">
<path id="fill::bowl" fill="#CC6744" stroke="#000000" stroke-width="7" stroke-linejoin="round" d="M220.6,305.8
	c3.2,7.9,21.6,45.7,62.4,29.5s28.1-56.4,25-64.3c-3.2-7.9-25.3-6.6-49.4,3C234.5,283.6,217.5,297.9,220.6,305.8z"/>
<g>
	<defs>
		
			<ellipse id="XMLID_23_" transform="matrix(-0.9289 0.3704 -0.3704 -0.9289 616.6263 458.3946)" cx="264.3" cy="288.4" rx="47" ry="15.5"/>
	</defs>
	<use xlink:href="#XMLID_23_"  overflow="visible" fill="#EBEBEC"/>
	<clipPath id="XMLID_2_">
		<use xlink:href="#XMLID_23_"  overflow="visible"/>
	</clipPath>
	<path clip-path="url(#XMLID_2_)" fill="#EDED9A" stroke="#000000" stroke-width="5" stroke-linejoin="round" d="M257.7,293.9
		c1.6-0.6,3.2-0.8,4.7-0.6c1.5-3.1,4.1-5.8,7.6-7.1c6.8-2.7,14.4,0.1,17.8,6.4c0,0,0.1,0,0.1-0.1c5-2,10.8,0.4,12.8,5.5
		c2,5-0.4,10.8-5.5,12.8c-3.3,1.3-6.9,0.7-9.6-1.3c-1.4,1.4-3.1,2.6-5,3.4c-4.7,1.9-9.8,1.1-13.7-1.7c-0.6,0.4-1.3,0.8-2,1.1
		c-5,2-10.8-0.4-12.8-5.5S252.7,295.9,257.7,293.9z"/>
	<use xlink:href="#XMLID_23_"  overflow="visible" fill="none" stroke="#000000" stroke-width="7" stroke-linejoin="round"/>
</g>
<path id="snoo-body-f::fill::hand" fill="#00FF00" stroke="#000000" stroke-width="11" d="
	M269,344.5c4.8,8,17.3,9.2,27.9,2.8c10.6-6.4,15.2-18.1,10.3-26c0,0,0,0,0,0c-4.8-8-17.3-9.2-27.9-2.8
	C268.8,324.9,264.2,336.5,269,344.5C269,344.5,269,344.5,269,344.5z"/>
</svg>
