<?xml version="1.0" encoding="utf-8"?>
<!-- Generator: Adobe Illustrator 17.1.0, SVG Export Plug-In . SVG Version: 6.00 Build 0)  -->
<!DOCTYPE svg PUBLIC "-//W3C//DTD SVG 1.1//EN" "http://www.w3.org/Graphics/SVG/1.1/DTD/svg11.dtd">
<svg version="1.1" id="Layer_2" xmlns="http://www.w3.org/2000/svg" xmlns:xlink="http://www.w3.org/1999/xlink" x="0px" y="0px"
	 viewBox="0 0 400 400" enable-background="new 0 0 400 400" xml:space="preserve">
<g>
	<defs>
		<path id="XMLID_1_" d="M303.5,275.9l-77.4,4.9v42.9l0.9-0.1l-0.9,0.3l54.7,10.4c16.2-1.5,23.3-8.6,22.7-15.4l0,0V275.9z"/>
	</defs>
	<use xlink:href="#XMLID_1_"  overflow="visible" fill="#7C4933"/>
	<clipPath id="XMLID_3_">
		<use xlink:href="#XMLID_1_"  overflow="visible"/>
	</clipPath>
	<path clip-path="url(#XMLID_3_)" fill="none" stroke="#44220F" stroke-width="6" stroke-linejoin="round" d="M226.1,297.8
		l54.7,10.4c15.3-1.4,22.5-7.9,22.8-14.3"/>
	<path clip-path="url(#XMLID_3_)" fill="none" stroke="#44220F" stroke-width="6" stroke-linejoin="round" d="M226.1,312.1
		l54.7,10.4c15.3-1.4,22.5-7.9,22.8-14.3"/>
	<use xlink:href="#XMLID_1_"  overflow="visible" fill="none" stroke="#000000" stroke-width="6" stroke-linejoin="round"/>
</g>
<path fill="#FFFFFF" stroke="#000000" stroke-width="6" stroke-linejoin="round" d="M275.4,262.9l-49.3,18l54.7,10.4
	C314.8,288.2,308.8,260.2,275.4,262.9z"/>
<circle fill="#ED1C24" stroke="#7C1118" stroke-width="6" stroke-linejoin="round" cx="277" cy="271.2" r="8.5"/>
<path id="snoo-body-f::fill::hand" fill="#00FF00" stroke="#000000" stroke-width="11" d="M282.4,314.3c10.2,2.9,16,13.6,13.1,23.7
	c-2.9,10.2-13.6,16-23.7,13.1s-16-13.6-13.1-23.7C261.7,317.2,272.3,311.3,282.4,314.3z"/>
</svg>
