<?xml version="1.0" encoding="utf-8"?>
<!-- Generator: Adobe Illustrator 17.1.0, SVG Export Plug-In . SVG Version: 6.00 Build 0)  -->
<!DOCTYPE svg PUBLIC "-//W3C//DTD SVG 1.1//EN" "http://www.w3.org/Graphics/SVG/1.1/DTD/svg11.dtd">
<svg version="1.1" id="Layer_2" xmlns="http://www.w3.org/2000/svg" xmlns:xlink="http://www.w3.org/1999/xlink" x="0px" y="0px"
	 viewBox="0 0 400 400" enable-background="new 0 0 400 400" xml:space="preserve">
<path id="fill::can:1" fill="#94A3A6" d="M252,272h25.5c5.5,0,10,4.5,10,10v49.6c0,2.8-2.3,4.7-3.2,7.4c0,0,0,0,0,0
	c0,3-8.7,5.5-19.5,5.5s-19.5-2.5-19.5-5.5c0,0,0,0,0,0c-1-2.6-3.2-4.6-3.2-7.4V282C242,276.5,246.5,272,252,272z"/>
<path fill="#FCFEFB" fill-opacity="0.6" d="M251.9,276.1c3,0.7,6.8,1.2,10.9,1.4c-2.9,1.8-4.8,4.9-4.8,8.5v49.6
	c0,2.8,2.3,4.7,3.2,7.4c0,0,0,0,0,0c0,1.2,1.4,2.3,3.8,3.3c-8-0.7-13.8-2.8-13.8-5.3c0,0,0,0,0,0c-1-2.6-3.2-4.6-3.2-7.4V284
	C248,280.8,249.5,277.9,251.9,276.1z"/>
<path fill="none" stroke="#000000" stroke-width="6" d="M252,272h25.5c5.5,0,10,4.5,10,10v49.6c0,2.8-2.3,4.7-3.2,7.4c0,0,0,0,0,0
	c0,3-8.7,5.5-19.5,5.5s-19.5-2.5-19.5-5.5c0,0,0,0,0,0c-1-2.6-3.2-4.6-3.2-7.4V282C242,276.5,246.5,272,252,272z"/>
<ellipse id="fill::can:2" fill="#94A3A6" stroke="#000000" stroke-width="6" cx="264.8" cy="272" rx="19.5" ry="5.5"/>
<ellipse transform="matrix(-0.9996 2.651896e-02 -2.651896e-02 -0.9996 529.8611 537.002)" cx="261.4" cy="272" rx="7.7" ry="2.3"/>
<ellipse id="snoo-body-f:fill::hand_1_" fill="#00FF00" stroke="#000000" stroke-width="11" cx="289" cy="307.2" rx="18.8" ry="21.8"/>
</svg>
