<?xml version="1.0" encoding="utf-8"?>
<!-- Generator: Adobe Illustrator 17.1.0, SVG Export Plug-In . SVG Version: 6.00 Build 0)  -->
<!DOCTYPE svg PUBLIC "-//W3C//DTD SVG 1.1//EN" "http://www.w3.org/Graphics/SVG/1.1/DTD/svg11.dtd">
<svg version="1.1" id="Layer_3" xmlns="http://www.w3.org/2000/svg" xmlns:xlink="http://www.w3.org/1999/xlink" x="0px" y="0px"
	 viewBox="0 0 400 400" enable-background="new 0 0 400 400" xml:space="preserve">
<g id="glass">
	<g>
		<defs>
			<path id="XMLID_35_" d="M283.9,300.7c0,3.3-2.7,6-6,6h-15.3c-3.3,0-6-2.7-6-6l-3-49.4c0-3.3,2.7-6,6-6h21.3c3.3,0,6,2.7,6,6
				L283.9,300.7z"/>
		</defs>
		<use xlink:href="#XMLID_35_"  overflow="visible" fill="#F4F4F9"/>
		<clipPath id="XMLID_2_">
			<use xlink:href="#XMLID_35_"  overflow="visible"/>
		</clipPath>
		<path clip-path="url(#XMLID_2_)" fill="#E0C59B" stroke="#E9CB68" stroke-width="6" d="M253.6,276.1c0,2.2,7.5,4,16.7,4
			c9.2,0,16.7-1.8,16.7-4l-3.1,30.5h-33.5L253.6,276.1z"/>
		<use xlink:href="#XMLID_35_"  overflow="visible" fill="none" stroke="#88B1C9" stroke-width="6"/>
	</g>
	<ellipse fill="#D7E9F7" stroke="#88B1C9" stroke-width="6" cx="270.2" cy="247.6" rx="16.7" ry="4"/>
	<path fill="#F0F0F7" stroke="#88B1C9" stroke-width="6" d="M286.9,349.8c0,3.1-7.3,5.6-16.7,5.6c-9.2,0-16.7-2.5-16.7-5.6
		c0-3.1,7.5-5.6,16.7-5.6C279.5,344.3,286.9,346.8,286.9,349.8z"/>
	<polyline fill="#F0F0F7" stroke="#88B1C9" stroke-width="6" points="264.4,348.6 264.4,306.6 276.1,306.6 276.1,348.6 	"/>
</g>
<ellipse id="snoo-body-f:fill::hand" fill="#00FF00" stroke="#000000" stroke-width="11" cx="289" cy="307.2" rx="18.8" ry="21.8"/>
</svg>
