<?xml version="1.0" encoding="utf-8"?>
<!-- Generator: Adobe Illustrator 17.1.0, SVG Export Plug-In . SVG Version: 6.00 Build 0)  -->
<!DOCTYPE svg PUBLIC "-//W3C//DTD SVG 1.1//EN" "http://www.w3.org/Graphics/SVG/1.1/DTD/svg11.dtd">
<svg version="1.1" id="Layer_3" xmlns="http://www.w3.org/2000/svg" xmlns:xlink="http://www.w3.org/1999/xlink" x="0px" y="0px"
	 viewBox="0 0 400 400" enable-background="new 0 0 400 400" xml:space="preserve">
<g>
	<path fill="#E9D979" stroke="#000000" stroke-width="6" d="M253.1,270h49.2c2.4,0,4.7,2,4.4,4.4l-5.7,35.2
		c-0.8,5.3-1.6,9.5-3.5,9.5h-39.6c-1.9,0-2.7-4.2-3.5-9.5l-5.7-35.2C248.4,272,250.7,270,253.1,270z"/>
	<path fill="#2F1900" stroke="#070200" stroke-width="6" d="M277.7,232.1c-18.4,0-34.9,11.8-36.7,22.4s-2.1,13.6-2.2,22.8
		c0,2,1.1,3.4,3.1,4.4c2,1,4.8-2.2,8.3-1.9c3.5,0.4,7.7,4.4,12.4,4.5c4.7,0,9.8-3.9,15.1-3.9c5.4,0,10.5,4,15.1,3.9
		s8.8-4.1,12.4-4.5c3.5-0.4,6.4,2.9,8.3,1.9c2-1,3.1-2.5,3.1-4.4c0.6-11-0.7-11.6-2.2-22.8C313,243.3,296.2,232.1,277.7,232.1z"/>
	<path fill="#FFFFFF" stroke="#9A9A9A" stroke-width="6" d="M278,225.5c-26.5,1.5-33.2,9.8-37.6,29.2c0,3,4.2,6.8,11,7.3
		c6.8,0.6,16.2-3.8,26.6-3.8c10.4,0,19.8,4.3,26.6,3.8c6.8-0.6,11-4.3,11-7.3C314.9,232.7,296.3,225.8,278,225.5z"/>
	<path fill="#54BF00" d="M265.2,232.2h5.3c0.6,0,1.1,0.5,1.1,1.1v0.2c0,0.6-0.5,1.1-1.1,1.1h-5.3c-0.6,0-1.1-0.5-1.1-1.1v-0.2
		C264.1,232.7,264.6,232.2,265.2,232.2z"/>
	<circle fill="#BF0000" stroke="#620000" stroke-width="6" cx="278.8" cy="224.5" r="9.5"/>
	<path fill="#BF0000" d="M283.7,222.2c7.8-1.7,10.9-5.6,10.9-5.6"/>
	<path fill="#620000" d="M284.2,224.7c4.2-0.9,7.3-2.5,9.3-3.8c2-1.4,2.9-2.6,3.1-2.7c0.9-1.1,0.7-2.7-0.5-3.6
		c-1.1-0.9-2.7-0.7-3.6,0.5l1.3,1l-1.3-1.1l0,0l1.3,1l-1.3-1.1l0,0l0,0l0,0l0,0l0,0c0,0.1-0.7,0.9-2.2,1.9c-1.5,1-3.8,2.1-7.1,2.9
		c-1.4,0.3-2.3,1.7-2,3.1C281.5,224.1,282.8,225,284.2,224.7L284.2,224.7z"/>
	<path fill="#00BF9D" d="M254.6,239.3h5.3c0.6,0,1.1,0.5,1.1,1.1v0.2c0,0.6-0.5,1.1-1.1,1.1h-5.3c-0.6,0-1.1-0.5-1.1-1.1v-0.2
		C253.5,239.8,254,239.3,254.6,239.3z"/>
	<path fill="#BFA700" d="M251,247.3l4.9,2c0.6,0.2,0.8,0.9,0.6,1.4l-0.1,0.1c-0.2,0.6-0.9,0.8-1.4,0.6l-4.9-2
		c-0.6-0.2-0.8-0.9-0.6-1.4l0.1-0.1C249.8,247.3,250.4,247.1,251,247.3z"/>
	<path fill="#BF0059" d="M261.9,251h5.3c0.6,0,1.1,0.5,1.1,1.1v0.2c0,0.6-0.5,1.1-1.1,1.1h-5.3c-0.6,0-1.1-0.5-1.1-1.1v-0.2
		C260.8,251.5,261.3,251,261.9,251z"/>
	<path fill="#BF0000" d="M269.6,242.4l5.2-0.9c0.6-0.1,1.2,0.3,1.3,0.9l0,0.2c0.1,0.6-0.3,1.2-0.9,1.3l-5.2,0.9
		c-0.6,0.1-1.2-0.3-1.3-0.9l0-0.2C268.6,243.1,269,242.5,269.6,242.4z"/>
	<path fill="#BF9D00" d="M284.4,249.6h5.3c0.6,0,1.1,0.5,1.1,1.1v0.2c0,0.6-0.5,1.1-1.1,1.1h-5.3c-0.6,0-1.1-0.5-1.1-1.1v-0.2
		C283.3,250.1,283.8,249.6,284.4,249.6z"/>
	<path fill="#2F00BF" d="M284.7,241.6l4.9,2c0.6,0.2,0.8,0.9,0.6,1.4l-0.1,0.1c-0.2,0.6-0.9,0.8-1.4,0.6l-4.9-2
		c-0.6-0.2-0.8-0.9-0.6-1.4l0.1-0.1C283.5,241.7,284.2,241.4,284.7,241.6z"/>
	<path fill="#1ABF00" d="M292.5,235.7h5.3c0.6,0,1.1,0.5,1.1,1.1v0.2c0,0.6-0.5,1.1-1.1,1.1h-5.3c-0.6,0-1.1-0.5-1.1-1.1v-0.2
		C291.4,236.2,291.9,235.7,292.5,235.7z"/>
	<path fill="#00BF98" d="M302,245.9l5.1-1.6c0.6-0.2,1.2,0.1,1.4,0.7l0,0.1c0.2,0.6-0.1,1.2-0.7,1.4l-5.1,1.6
		c-0.6,0.2-1.2-0.1-1.4-0.7l0-0.1C301.1,246.7,301.4,246.1,302,245.9z"/>
</g>
<path id="snoo-body-f::fill::hand" fill="#00FF00" stroke="#000000" stroke-width="11" d="M304.2,320.7c0,10.5-11.3,19-25.2,19
	c-13.9,0-25.2-8.5-25.2-19v0c0-10.5,11.3-19,25.2-19C292.9,301.6,304.2,310.2,304.2,320.7L304.2,320.7z"/>
</svg>
