<?xml version="1.0" encoding="utf-8"?>
<!-- Generator: Adobe Illustrator 17.1.0, SVG Export Plug-In . SVG Version: 6.00 Build 0)  -->
<!DOCTYPE svg PUBLIC "-//W3C//DTD SVG 1.1//EN" "http://www.w3.org/Graphics/SVG/1.1/DTD/svg11.dtd">
<svg version="1.1" id="dog" xmlns="http://www.w3.org/2000/svg" xmlns:xlink="http://www.w3.org/1999/xlink" x="0px" y="0px"
	 viewBox="0 0 400 400" enable-background="new 0 0 400 400" xml:space="preserve">
<g id="fill::dog-body">
	<path fill="#FFFFFF" d="M235.2,388.2c4.6,4.5,16.2,11.9,34,3.9s27.8-29.3,23.2-33.8c-4.6-4.5-11.7,7-26.8,18.6
		C250.2,388.8,230.7,383.7,235.2,388.2z"/>
	<path fill="none" stroke="#000000" stroke-width="6" d="M235.2,388.2c4.6,4.5,16.2,11.9,34,3.9s27.8-29.3,23.2-33.8
		c-4.6-4.5-11.7,7-26.8,18.6C250.2,388.8,230.7,383.7,235.2,388.2z"/>
	<path fill="#FFFFFF" d="M299.4,395.5h14.3c12.7-4.5,22.2-20.5,22.2-39.6c0-22.6-13.1-40.9-29.3-40.9c-16.2,0-29.3,18.3-29.3,40.9
		C277.2,375,286.7,391,299.4,395.5z"/>
	<path fill="none" stroke="#000000" stroke-width="6" d="M299.4,395.5h14.3c12.7-4.5,22.2-20.5,22.2-39.6
		c0-22.6-13.1-40.9-29.3-40.9c-16.2,0-29.3,18.3-29.3,40.9C277.2,375,286.7,391,299.4,395.5z"/>
	<path fill="#FFFFFF" d="M298.6,395.5c0.3-1,0.5-2,0.5-3.1c0-6.9-6.2-12.5-13.7-12.5c-7.6,0-13.7,5.6-13.7,12.5
		c0,1.1,0.2,2.1,0.5,3.1H298.6z"/>
	<path fill="none" stroke="#000000" stroke-width="6" stroke-linecap="round" stroke-linejoin="round" d="M298.6,395.5
		c0.3-1,0.5-2,0.5-3.1c0-6.9-6.2-12.5-13.7-12.5c-7.6,0-13.7,5.6-13.7,12.5c0,1.1,0.2,2.1,0.5,3.1H298.6z"/>
	<path fill="#FFFFFF" d="M314.3,395.5c-0.3-1-0.5-2-0.5-3.1c0-6.9,6.2-12.5,13.7-12.5c7.6,0,13.7,5.6,13.7,12.5
		c0,1.1-0.2,2.1-0.5,3.1H314.3z"/>
	<path fill="none" stroke="#000000" stroke-width="6" stroke-linecap="round" stroke-linejoin="round" d="M314.3,395.5
		c-0.3-1-0.5-2-0.5-3.1c0-6.9,6.2-12.5,13.7-12.5c7.6,0,13.7,5.6,13.7,12.5c0,1.1-0.2,2.1-0.5,3.1H314.3z"/>
	<path fill="#FFFFFF" d="M267.2,298.2c6.8,0,12.1,19.9,4.3,30.7c-7.8,10.7-17.7,14.4-22.3,8.2c-4.5-6.2-1.8-7.7,5.9-18.4
		C262.9,308,259.5,298.2,267.2,298.2z"/>
	<path fill="none" stroke="#000000" stroke-width="6" d="M267.2,298.2c6.8,0,12.1,19.9,4.3,30.7c-7.8,10.7-17.7,14.4-22.3,8.2
		c-4.5-6.2-1.8-7.7,5.9-18.4C262.9,308,259.5,298.2,267.2,298.2z"/>
	<path fill="#FFFFFF" d="M346,298.2c6,0,4.2,9.7,12,20.4c7.8,10.7,10.4,12.2,5.9,18.4c-4.5,6.2-14.5,2.5-22.2-8.2
		C333.9,318.2,336.2,298.2,346,298.2z"/>
	<path fill="none" stroke="#000000" stroke-width="6" d="M346,298.2c6,0,4.2,9.7,12,20.4c7.8,10.7,10.4,12.2,5.9,18.4
		c-4.5,6.2-14.5,2.5-22.2-8.2C333.9,318.2,336.2,298.2,346,298.2z"/>
	<path fill="#FFFFFF" d="M344.9,321c0,21.1-17.1,38.3-38.3,38.3c-21.2,0-38.3-17.2-38.3-38.3c0-21.2,17.1-38.3,38.3-38.3
		C327.7,282.7,344.9,299.9,344.9,321z"/>
	<path fill="none" stroke="#000000" stroke-width="6" stroke-linecap="round" stroke-linejoin="round" d="M344.9,321
		c0,21.1-17.1,38.3-38.3,38.3c-21.2,0-38.3-17.2-38.3-38.3c0-21.2,17.1-38.3,38.3-38.3C327.7,282.7,344.9,299.9,344.9,321z"/>
</g>
<g id="dog-face">
	<path fill="#FF4500" d="M287.1,301.8c-3.8,0-6.9,3.1-6.9,6.9c0,3.8,3.1,6.9,6.9,6.9c3.8,0,6.9-3.1,6.9-6.9
		C294,304.9,290.9,301.8,287.1,301.8z"/>
	<path fill="#FF4500" d="M326.1,301.8c-3.8,0-6.9,3.1-6.9,6.9c0,3.8,3.1,6.9,6.9,6.9c3.8,0,6.9-3.1,6.9-6.9
		C333,304.9,329.9,301.8,326.1,301.8z"/>
	<path d="M315.2,321.5l-6,7.5c-1.4,1.7-4,1.7-5.4,0l-6-7.5c-1.8-2.2-0.2-5.6,2.7-5.6h12C315.4,316,317,319.3,315.2,321.5z"/>
	<path fill="none" stroke="#000000" stroke-width="4" stroke-linecap="round" stroke-linejoin="round" d="M285,337.2
		c0,6.4,9.6-0.3,21.3-0.3s21.3,6.8,21.3,0.3"/>
</g>
</svg>
