<?xml version="1.0" encoding="utf-8"?>
<!-- Generator: Adobe Illustrator 17.1.0, SVG Export Plug-In . SVG Version: 6.00 Build 0)  -->
<!DOCTYPE svg PUBLIC "-//W3C//DTD SVG 1.1//EN" "http://www.w3.org/Graphics/SVG/1.1/DTD/svg11.dtd">
<svg version="1.1" id="Layer_3" xmlns="http://www.w3.org/2000/svg" xmlns:xlink="http://www.w3.org/1999/xlink" x="0px" y="0px"
	 viewBox="0 0 400 400" enable-background="new 0 0 400 400" xml:space="preserve">
<path fill="#E0D39D" stroke="#AFA57D" stroke-width="4" stroke-miterlimit="10" d="M256.2,227.6c-0.5-3.3,1.7-6.4,4.9-6.9
	c3.3-0.5,6.4,1.7,6.9,4.9c0.3,1.8-0.3,3.6-1.4,4.9l23.1,129.9c0.5,2.8-1.4,5.5-4.2,6l-0.1,0c-2.8,0.5-5.5-1.5-5.9-4.3l-20.4-130.4
	C257.6,230.9,256.5,229.4,256.2,227.6z"/>
<path fill="#E0D39D" stroke="#AFA57D" stroke-width="4" stroke-miterlimit="10" d="M238.4,233.3c-1.2-3.1,0.4-6.6,3.5-7.8
	c3.1-1.2,6.6,0.4,7.8,3.5c0.7,1.7,0.4,3.6-0.4,5.1l48.5,122.7c1.1,2.7-0.3,5.7-2.9,6.7l-0.1,0c-2.7,1-5.7-0.3-6.7-3l-46-123.7
	C240.4,236.3,239,235,238.4,233.3z"/>
<ellipse id="snoo-body-f::fill::hand_1_" transform="matrix(-0.3583 -0.9336 0.9336 -0.3583 84.3144 673.9916)" fill="#FFFFFF" stroke="#000000" stroke-width="11" cx="273.8" cy="308" rx="21" ry="18.8"/>
</svg>
