<?xml version="1.0" encoding="utf-8"?>
<!-- Generator: Adobe Illustrator 17.1.0, SVG Export Plug-In . SVG Version: 6.00 Build 0)  -->
<!DOCTYPE svg PUBLIC "-//W3C//DTD SVG 1.1//EN" "http://www.w3.org/Graphics/SVG/1.1/DTD/svg11.dtd">
<svg version="1.1" id="Layer_2" xmlns="http://www.w3.org/2000/svg" xmlns:xlink="http://www.w3.org/1999/xlink" x="0px" y="0px"
	 viewBox="0 0 400 400" enable-background="new 0 0 400 400" xml:space="preserve">
<g>
	<g id="fill::accent">
		<path id="rect6632-2-1-0_2_" fill="#B8B8B8" stroke="#000000" stroke-width="7.0452" stroke-linejoin="round" d="M231.2,303h72
			c1.7,0,2-0.6,0.7-1.4l-7.1-4.2c-1.3-0.8-3.8-1.4-5.5-1.4h-72c-1.7,0-2,0.6-0.7,1.4l7.1,4.2C227,302.3,229.5,303,231.2,303z"/>
		<path id="rect6632-3_2_" fill="#595A5B" stroke="#000000" stroke-width="6" stroke-linejoin="round" d="M219.6,296.3l10.5,5.6
			c1.3,0.7,2.3,2.6,2.3,4.4v7.8c0,1.7-1,2.6-2.3,1.9l-10.5-5.6c-1.3-0.7-2.3-2.6-2.3-4.4v-7.8C217.3,296.4,218.3,295.6,219.6,296.3z
			"/>
		<path id="rect6632_3_" fill="#595A5B" stroke="#000000" stroke-width="8" stroke-linejoin="round" d="M233.5,301.4h72
			c1.7,0,3.1,1.4,3.1,3.1v8.3c0,1.7-1.4,3.1-3.1,3.1h-72c-1.7,0-3.1-1.4-3.1-3.1v-8.3C230.4,302.8,231.8,301.4,233.5,301.4z"/>
	</g>
	<path id="fill::ds" fill="#B72525" stroke="#000000" stroke-width="8" stroke-linejoin="round" d="M233.5,270.4h72
		c1.7,0,3.1,1.4,3.1,3.1v24.3c0,1.7-1.4,3.1-3.1,3.1h-72c-1.7,0-3.1-1.4-3.1-3.1v-24.3C230.4,271.8,231.8,270.4,233.5,270.4z"/>
</g>
<path id="snoo-body-f::fill::hand" sodipodi:cx="26.859009" sodipodi:rx="3.5907767" sodipodi:cy="29.945826" sodipodi:ry="1.0385631" sodipodi:type="arc" fill="#00FF00" stroke="#000000" stroke-width="11" d="
	M295.6,321.9c0,10.5-11.3,19-25.2,19c-13.9,0-25.2-8.5-25.2-19c0,0,0,0,0,0c0-10.5,11.3-19,25.2-19
	C284.3,302.9,295.6,311.4,295.6,321.9C295.6,321.9,295.6,321.9,295.6,321.9z"/>
</svg>
