<?xml version="1.0" encoding="utf-8"?>
<!-- Generator: Adobe Illustrator 17.1.0, SVG Export Plug-In . SVG Version: 6.00 Build 0)  -->
<!DOCTYPE svg PUBLIC "-//W3C//DTD SVG 1.1//EN" "http://www.w3.org/Graphics/SVG/1.1/DTD/svg11.dtd">
<svg version="1.1" id="Layer_2" xmlns="http://www.w3.org/2000/svg" xmlns:xlink="http://www.w3.org/1999/xlink" x="0px" y="0px"
	 viewBox="0 0 400 400" enable-background="new 0 0 400 400" xml:space="preserve">
<path fill-rule="evenodd" clip-rule="evenodd" fill="#EAF5F7" d="M244.8,343c-0.2-0.2-0.4-0.4-0.5-0.6c-0.1-0.1-0.2-0.3-0.3-0.4
	c-0.1-0.2-0.3-0.4-0.4-0.6c-0.1-0.1-0.2-0.3-0.2-0.5c-0.1-0.2-0.2-0.4-0.3-0.7c-0.1-0.2-0.1-0.3-0.2-0.5c-0.1-0.3-0.1-0.5-0.2-0.8
	c0-0.1-0.1-0.3-0.1-0.4c-0.1-0.4-0.1-0.8-0.2-1.2c0-0.2,0-0.3,0-0.5c0-0.3,0-0.6,0-0.8c0-0.2,0-0.4,0-0.6c0-0.3,0-0.5,0.1-0.8
	c0-0.2,0.1-0.4,0.1-0.6c0-0.1,0-0.2,0.1-0.3c0,0,0,0,0,0c0.3-1.3,0.7-2.7,1.4-4l11.4-22.8c3.6-7.1,8.7-14.5,8.7-17.9v-19
	c0-0.6,0-1.2,0.1-1.8c-0.3,0-0.6,0-0.8-0.1c-0.1,0-0.1,0-0.2,0c-0.4-0.1-0.7-0.2-1-0.3c-0.1,0-0.1-0.1-0.2-0.1
	c-0.3-0.1-0.6-0.3-0.8-0.5c0,0,0,0,0,0c-0.3-0.2-0.5-0.4-0.7-0.7c0-0.1-0.1-0.1-0.1-0.2c-0.2-0.2-0.4-0.5-0.5-0.8
	c0-0.1-0.1-0.1-0.1-0.2c-0.1-0.3-0.3-0.5-0.4-0.8c0,0,0-0.1,0-0.1c-0.1-0.3-0.2-0.6-0.2-0.9c0-0.1,0-0.2,0-0.2
	c0-0.3-0.1-0.6-0.1-0.9c0-0.1,0-0.1,0-0.2c0-0.3,0-0.5,0.1-0.8c0-0.1,0-0.1,0-0.2c0-0.2,0.1-0.5,0.2-0.7c0,0,0,0,0,0
	c0.6-2.2,2.4-4.1,5.5-4.1h24.7c3.6,0,5.5,2.6,5.7,5.3c0,0,0,0,0,0c0,0.2,0,0.3,0,0.5c0,0,0,0.1,0,0.1c0,0.3,0,0.7-0.1,1
	c0,0,0,0.1,0,0.1c-0.1,0.3-0.1,0.6-0.2,0.9c0,0,0,0.1,0,0.1c-0.1,0.3-0.2,0.6-0.4,0.8c0,0-0.1,0.1-0.1,0.1c-0.2,0.3-0.3,0.5-0.5,0.8
	c0,0-0.1,0.1-0.1,0.1c-0.2,0.2-0.4,0.5-0.7,0.6c0,0-0.1,0.1-0.1,0.1c-0.3,0.2-0.6,0.4-0.9,0.5c0,0-0.1,0-0.1,0
	c-0.3,0.1-0.7,0.3-1.1,0.3c0,0-0.1,0-0.1,0c-0.3,0.1-0.6,0.1-0.9,0.1c0.1,0.6,0.1,1.2,0.1,1.8v19c0,3.8,5.1,10.8,8.7,17.9l11.3,22.5
	c1,2,1.6,3.9,1.8,5.7c0,0,0,0,0,0c0,0.2,0,0.5,0,0.7c0,0.1,0,0.3,0,0.4c0,0.4,0,0.9,0,1.3c0,0.1,0,0.2,0,0.4c0,0.3-0.1,0.6-0.1,0.9
	c0,0.2-0.1,0.3-0.1,0.5c-0.1,0.3-0.1,0.5-0.2,0.7c-0.1,0.1-0.1,0.3-0.2,0.4c-0.1,0.3-0.2,0.5-0.4,0.8c-0.1,0.1-0.1,0.2-0.2,0.3
	c-0.2,0.3-0.4,0.6-0.6,0.9c-0.1,0.1-0.2,0.2-0.2,0.3c-0.2,0.2-0.4,0.4-0.6,0.6c-0.1,0.1-0.2,0.2-0.3,0.3c-0.2,0.2-0.4,0.3-0.6,0.5
	c-0.1,0.1-0.2,0.2-0.3,0.2c-0.3,0.2-0.6,0.3-0.8,0.5c-0.1,0-0.1,0.1-0.2,0.1c-0.4,0.2-0.7,0.3-1.1,0.5c-0.1,0-0.3,0.1-0.4,0.1
	c-0.3,0.1-0.6,0.2-0.9,0.2c-0.2,0-0.3,0.1-0.5,0.1c-0.3,0.1-0.6,0.1-0.9,0.1c-0.2,0-0.3,0-0.5,0.1c-0.4,0-0.9,0.1-1.4,0.1
	c0,0,0,0-0.1,0h-5.7l-42.3,0c-0.5,0-1.1,0-1.6-0.1c-0.2,0-0.3,0-0.5-0.1c-0.3,0-0.7-0.1-1-0.2c-0.2,0-0.3-0.1-0.5-0.1
	c-0.3-0.1-0.6-0.2-0.8-0.3c-0.2-0.1-0.3-0.1-0.5-0.2c-0.3-0.1-0.5-0.2-0.8-0.4c-0.1-0.1-0.3-0.1-0.4-0.2c-0.3-0.2-0.6-0.4-0.8-0.5
	c-0.1,0-0.1-0.1-0.2-0.1c-0.3-0.2-0.6-0.5-0.9-0.8C245,343.2,244.9,343.1,244.8,343z"/>
<path id="fill::fluid" fill-rule="evenodd" clip-rule="evenodd" fill="#39B54A" d="M256.3,313.1l-9.3,18.4
	c-3.9,7.7-0.3,12.6,8.3,12.6h38.6h5.2c7.9,0,12.3-4,7.9-12.8l-9.1-18.2H256.3L256.3,313.1z"/>
<path d="M253.1,350.2c-0.6,0-1.3,0-2-0.1c-0.2,0-0.3,0-0.5-0.1l-0.1,0c-0.4-0.1-0.9-0.1-1.3-0.2c-0.2-0.1-0.5-0.1-0.7-0.2
	c-0.4-0.1-0.8-0.2-1.1-0.3c-0.2-0.1-0.5-0.2-0.7-0.3c-0.4-0.2-0.7-0.3-1.2-0.5c-0.2-0.1-0.3-0.2-0.5-0.3c-0.4-0.2-0.8-0.5-1.2-0.7
	c-0.1-0.1-0.3-0.2-0.3-0.2c-0.5-0.3-0.9-0.7-1.3-1.2c-0.1-0.1-0.3-0.3-0.4-0.4c-0.3-0.3-0.5-0.6-0.7-0.9c-0.1-0.2-0.3-0.4-0.4-0.6
	c-0.2-0.3-0.4-0.6-0.5-0.9c-0.1-0.2-0.2-0.4-0.3-0.7c-0.1-0.3-0.3-0.6-0.4-1c0,0,0-0.1,0-0.1c-0.1-0.2-0.1-0.4-0.2-0.6
	c-0.1-0.3-0.2-0.7-0.3-1.1c0-0.2-0.1-0.4-0.1-0.5c-0.1-0.5-0.2-1.1-0.2-1.7c0-0.2,0-0.4,0-0.6c0-0.4,0-0.7,0-1.1
	c0-0.2,0-0.4,0.1-0.7c0-0.3,0.1-0.7,0.1-1c0-0.3,0.1-0.5,0.1-0.8c0-0.1,0-0.3,0.1-0.4c0-0.1,0.1-0.3,0.1-0.4
	c0.4-1.6,0.9-3.1,1.7-4.5l11.4-22.8c1.2-2.4,2.5-4.8,3.8-7.1c1.7-3.1,4.3-7.7,4.4-9v-17.8c-0.5-0.2-0.9-0.5-1.3-0.7
	c-0.1,0-0.1-0.1-0.2-0.1c-0.4-0.3-0.9-0.7-1.3-1.2c-0.1-0.1-0.2-0.2-0.2-0.3c-0.4-0.4-0.7-0.9-0.9-1.3c-0.1-0.1-0.1-0.2-0.2-0.3
	c-0.2-0.4-0.4-0.8-0.6-1.3c0-0.1-0.1-0.2-0.1-0.3c-0.2-0.5-0.3-0.9-0.4-1.4c0-0.1-0.1-0.3-0.1-0.4c-0.1-0.5-0.1-1-0.1-1.4
	c0-0.1,0-0.2,0-0.4c0-0.4,0-0.9,0.1-1.3c0-0.1,0-0.2,0-0.3c0.1-0.4,0.1-0.7,0.3-1.1c0-0.2,0.1-0.3,0.2-0.5c1.3-3.9,4.9-6.4,9.2-6.4
	h24.7c5.1,0,9,3.5,9.7,8.5c0,0.2,0.1,0.3,0.1,0.5c0,0.2,0,0.4,0,0.7c0,0.1,0,0.2,0,0.2c0,0.5,0,1-0.1,1.5c0,0.1,0,0.2,0,0.2
	c-0.1,0.5-0.2,1-0.4,1.5c0,0-0.1,0.2-0.1,0.2c-0.2,0.5-0.4,1-0.7,1.5l-0.1,0.2c-0.3,0.5-0.6,0.9-0.9,1.3c-0.1,0.1-0.1,0.2-0.2,0.3
	c-0.4,0.4-0.8,0.8-1.3,1.2l-0.2,0.1c-0.4,0.3-0.9,0.6-1.3,0.8V289c0,1.5,2.5,5.8,4.3,9c1.3,2.3,2.7,4.6,3.9,7.1l11.3,22.5
	c1.1,2.2,1.8,4.4,2.1,6.5c0,0.1,0.1,0.3,0.1,0.4c0,0.3,0,0.5,0.1,0.7l0,0.3c0,0.2,0,0.3,0,0.5c0,0.6,0,1.2,0,1.8
	c0,0.2,0,0.3-0.1,0.5c-0.1,0.4-0.1,0.9-0.2,1.3c0,0.2-0.1,0.4-0.2,0.6c-0.1,0.4-0.2,0.7-0.3,1.1c-0.1,0.2-0.1,0.4-0.2,0.6
	c-0.2,0.4-0.3,0.8-0.5,1.1c-0.1,0.1-0.1,0.3-0.2,0.4c-0.3,0.5-0.6,0.9-0.9,1.4c-0.1,0.1-0.2,0.3-0.3,0.4c-0.3,0.3-0.5,0.6-0.8,0.9
	c-0.1,0.1-0.3,0.3-0.5,0.4c-0.3,0.2-0.6,0.5-0.9,0.8c-0.1,0.1-0.3,0.2-0.4,0.3c-0.3,0.2-0.7,0.5-1.1,0.7c-0.1,0.1-0.2,0.1-0.3,0.2
	c-0.5,0.2-1,0.5-1.6,0.7c-0.1,0.1-0.3,0.1-0.5,0.2c-0.4,0.1-0.8,0.2-1.2,0.3c-0.2,0.1-0.4,0.1-0.6,0.1c-0.4,0.1-0.8,0.1-1.2,0.2
	l-0.1,0c-0.2,0-0.3,0-0.5,0.1c-0.6,0.1-1.1,0.1-1.6,0.1c-0.1,0-0.1,0-0.2,0h-5.7l0,0L253.1,350.2z M302.1,342.1l0.3,0
	c0.2,0,0.4-0.1,0.6-0.1c0.1,0,0.2,0,0.3-0.1c0.2,0,0.4-0.1,0.6-0.2l0.3-0.1c0.2-0.1,0.4-0.2,0.6-0.3c0.1,0,0.1-0.1,0.2-0.1
	c0.2-0.1,0.3-0.2,0.5-0.3l0.2-0.1c0.1-0.1,0.2-0.2,0.4-0.3l0.2-0.1c0.1-0.1,0.2-0.2,0.3-0.3l0.2-0.2c0.1-0.1,0.2-0.3,0.3-0.4
	c0-0.1,0.1-0.2,0.1-0.2c0.1-0.1,0.1-0.3,0.2-0.4l0.1-0.2c0-0.1,0.1-0.3,0.1-0.5c0-0.1,0-0.1,0.1-0.2c0-0.2,0.1-0.4,0.1-0.5l0-0.2
	c0-0.3,0-0.5,0-0.9l0-0.5c0-0.1,0-0.2,0-0.2c-0.2-1.4-0.6-2.9-1.4-4.4L295,308.7c-1.1-2.3-2.4-4.5-3.7-6.7c-3-5.2-5.4-9.4-5.4-13
	v-19c0-0.4,0-0.8-0.1-1.3c-0.1-1.1,0.2-2.2,0.9-3s1.7-1.4,2.8-1.4c0.1,0,0.2,0,0.5-0.1c0.1,0,0.2-0.1,0.3-0.1l0,0
	c0,0,0.1-0.1,0.2-0.1c0.1,0,0.1-0.1,0.2-0.2c0.1-0.1,0.1-0.1,0.2-0.2c0.1-0.1,0.1-0.2,0.1-0.2c0,0,0-0.1,0-0.1
	c0-0.1,0.1-0.2,0.1-0.3c0,0,0-0.1,0-0.1c0-0.1,0-0.2,0-0.3c0,0,0,0,0,0c0-0.1,0-0.2,0-0.2c-0.1-1.6-1.3-1.6-1.7-1.6h-24.7
	c-0.9,0-1.4,0.3-1.7,1.2c0,0.1,0,0.1-0.1,0.2c0,0,0,0.1,0,0.1c0,0.1,0,0.2,0,0.4c0,0.1,0,0.2,0,0.4c0,0,0,0.1,0,0.1
	c0,0.1,0,0.2,0.1,0.3c0,0,0,0.1,0,0.1c0,0.1,0.1,0.2,0.1,0.3c0,0.1,0.1,0.1,0.1,0.1l-2.9,2.7l2.8-2.4l0.1-0.2c0,0,0,0,0.1,0l0,0
	c0.1,0.1,0.1,0.1,0.1,0.1c0,0,0,0,0,0c0,0,0.1,0,0.2,0.1c0,0,0,0,0.1,0c0.1,0,0.2,0.1,0.2,0.1l-0.7,3.9l0.9-3.9c0.1,0,0.2,0,0.3,0
	c1.1,0.1,2.1,0.6,2.8,1.4s1,1.9,0.9,3c-0.1,0.5-0.1,0.9-0.1,1.3v19c0,3.2-2,6.8-5.4,13c-1.2,2.2-2.5,4.5-3.7,6.7l-11.4,22.8
	c-0.5,1-0.9,2-1.1,3.1c0,0.1,0,0.1,0,0.2c0,0,0,0,0,0c0,0.2-0.1,0.3-0.1,0.4c0,0.2,0,0.4-0.1,0.6c0,0,0,0.1,0,0.1c0,0.1,0,0.2,0,0.3
	c0,0.2,0,0.4,0,0.6l0,0.3c0,0.3,0.1,0.5,0.1,0.7l0.1,0.3c0,0.2,0.1,0.3,0.1,0.5l0.1,0.3c0,0.1,0.1,0.2,0.2,0.4
	c0,0.1,0.1,0.2,0.1,0.3c0.1,0.1,0.1,0.2,0.2,0.4l0.1,0.2c0.1,0.1,0.2,0.2,0.3,0.3l0.2,0.2c0.1,0.1,0.3,0.3,0.4,0.4
	c0.1,0,0.1,0.1,0.2,0.1c0.2,0.1,0.3,0.2,0.5,0.3l0.3,0.1c0.2,0.1,0.3,0.2,0.5,0.2c0.1,0,0.2,0.1,0.3,0.1c0.2,0.1,0.3,0.1,0.5,0.2
	c0.1,0,0.2,0.1,0.3,0.1c0.2,0,0.4,0.1,0.7,0.1l0.3,0.1c0.4,0,0.8,0.1,1.2,0.1l47.9,0C301.4,342.2,301.8,342.2,302.1,342.1z"/>
<path id="snoo-body-f::fill::hand" inkscape:transform-center-x="3.5902537" inkscape:transform-center-y="7.8965722" fill="#00FF00" stroke="#000000" stroke-width="11" d="
	M312.5,311.4l0,0.2c-2.9,10.3-12.9,16.5-22.5,13.8l-1.3-0.4c-9.6-2.7-15-13.2-12.1-23.5l0-0.2c2.9-10.3,12.9-16.5,22.5-13.8l1.3,0.4
	C309.9,290.6,315.3,301.1,312.5,311.4z"/>
</svg>
