<?xml version="1.0" encoding="utf-8"?>
<!-- Generator: Adobe Illustrator 17.1.0, SVG Export Plug-In . SVG Version: 6.00 Build 0)  -->
<!DOCTYPE svg PUBLIC "-//W3C//DTD SVG 1.1//EN" "http://www.w3.org/Graphics/SVG/1.1/DTD/svg11.dtd">
<svg version="1.1" id="Layer_2" xmlns="http://www.w3.org/2000/svg" xmlns:xlink="http://www.w3.org/1999/xlink" x="0px" y="0px"
	 viewBox="0 0 400 400" enable-background="new 0 0 400 400" xml:space="preserve">
<g>
	<g>
		<path fill="#8E5B49" d="M267.6,394.1c-4.3,0-7.7-1.9-9.7-5.4c-1.5-2.7-2.8-9-0.1-34.5c1.6-15.7,4.6-37.2,8.8-63.9
			c7.6-48.4,17.5-103,24-139.1c3.3-18.2,5.9-32.7,6-34.4c0.2-5.2,6.8-6.9,12.5-7.9c5.4-0.9,12.6-1.4,20.4-1.4c7.5,0,25.6,0.5,30,4.7
			c3.4,3.3,13.9,13.4,7,23.2c-1.9,2.7-5.7,3.9-12.7,3.9c-5.4,0-12.2-0.7-18.8-1.4c-6.2-0.6-12-1.2-16.3-1.2c-1.9,0-3,0.1-3.7,0.2
			c-3.4,9.6-14.6,81.7-33.1,250.2l-0.2,1.9l-1.6,1C279.4,390.4,273.5,394.1,267.6,394.1z"/>
		<path d="M329.6,111.4c12.5,0,24.8,1.3,27.2,3.6c5.1,4.9,10.9,11.8,6.5,18c-1.2,1.6-4.7,2.2-9.4,2.2c-10.2,0-25.9-2.6-35.1-2.6
			c-2.9,0-5.1,0.3-6.4,0.9c-7,3.8-34.4,253.1-34.4,253.1s-5.5,3.4-10.4,3.4c-2.4,0-4.8-0.8-6.2-3.4c-9.2-16.1,38.9-262.7,39.2-269.8
			C300.8,113.1,315.3,111.4,329.6,111.4 M329.6,103.4c-8,0-15.5,0.5-21.1,1.4c-4.2,0.7-15.4,2.5-15.9,11.5c-0.2,2.3-2.9,17-6,34
			c-6.5,36.1-16.4,90.8-24,139.2c-4.2,26.8-7.2,48.4-8.8,64.1c-2.9,27.9-1.3,33.6,0.6,36.9c2.7,4.7,7.5,7.4,13.2,7.4
			c6.9,0,13.4-3.9,14.6-4.7l3.3-2.1l0.4-3.8c0.1-0.6,6.5-59.2,13.9-119.3c11.2-91.9,16.3-119.5,18.3-127.6c0.2,0,0.4,0,0.6,0
			c4.1,0,9.8,0.6,15.9,1.2c6.7,0.7,13.6,1.4,19.2,1.4c5.9,0,12.5-0.7,16-5.6c3.7-5.2,4-11.5,0.9-17.7c-2.2-4.3-5.6-8-8.4-10.7
			C360.9,107.8,356.3,103.4,329.6,103.4L329.6,103.4z"/>
	</g>
	<path fill="#FFFFFF" stroke="#000000" stroke-width="5.0756" d="M318.9,109.4c0,0,4.7,24.2,5.1,25.2c0.4,1.1,29.9,2.6,29.9,2.6
		l-2-27.5C351.9,109.7,324.6,107.3,318.9,109.4z"/>
</g>
<path id="snoo-body-f::fill::hand" inkscape:transform-center-x="3.5902537" inkscape:transform-center-y="7.8965722" fill="#00FF00" stroke="#000000" stroke-width="11" d="
	M308,311.9l0,0.2c-2.9,10.3-12.9,16.5-22.5,13.8l-1.3-0.4c-9.6-2.7-15-13.2-12.1-23.5l0-0.2c2.9-10.3,12.9-16.5,22.5-13.8l1.3,0.4
	C305.5,291.1,310.9,301.6,308,311.9z"/>
</svg>
