<?xml version="1.0" encoding="utf-8"?>
<!-- Generator: Adobe Illustrator 17.1.0, SVG Export Plug-In . SVG Version: 6.00 Build 0)  -->
<!DOCTYPE svg PUBLIC "-//W3C//DTD SVG 1.1//EN" "http://www.w3.org/Graphics/SVG/1.1/DTD/svg11.dtd">
<svg version="1.1" id="Layer_2" xmlns="http://www.w3.org/2000/svg" xmlns:xlink="http://www.w3.org/1999/xlink" x="0px" y="0px"
	 viewBox="0 0 400 400" enable-background="new 0 0 400 400" xml:space="preserve">
<g id="fill::fish_x26__x26_fish-f:darker::stroke::outline">
	<path fill="#2389C3" stroke="#2C5A75" stroke-width="6" stroke-linejoin="round" d="M324.5,276.3c16.8,17,1.7,39.3-7,43.4
		l-17.9-25.1L324.5,276.3z"/>
	
		<ellipse transform="matrix(0.9874 0.1583 -0.1583 0.9874 49.3524 -39.413)" fill="#2389C3" stroke="#2C5A75" stroke-width="6" stroke-linejoin="round" cx="272.2" cy="290.2" rx="39.5" ry="22.2"/>
	<path fill="#2389C3" stroke="#2C5A75" stroke-width="6" stroke-linejoin="round" d="M296,302.8c1.1,11.7,9,15.8,9,15.8
		s-22.1-1.4-25.8-10.2C275.5,299.7,296.2,301.2,296,302.8z"/>
	<path fill="#2389C3" stroke="#2C5A75" stroke-width="6" stroke-linejoin="round" d="M264.9,267.3l14.9-9c0,0,22.3,11.5,24.8,21.6
		C294.2,274.3,264.9,267.3,264.9,267.3z"/>
	<path fill="#2389C3" stroke="#2C5A75" stroke-width="5" stroke-linejoin="round" d="M233,285c1.2,2.9,7.8,4.6,7.8,4.6l4.5,0.6"/>
</g>
<circle opacity="0.7" cx="257.1" cy="281.1" r="6.7"/>
<path id="snoo-body-f::fill::hand" fill="#00FF00" stroke="#000000" stroke-width="11" d="M284.4,311.8l-0.4-1.3
	c-2.8-9.5-13.3-14.8-23.6-11.9l-0.2,0c-10.3,3-16.4,13.1-13.6,22.6l0.4,1.3c2.8,9.5,13.3,14.8,23.6,11.9l0.2,0
	C281.1,331.5,287.2,321.3,284.4,311.8z"/>
</svg>
