<?xml version="1.0" encoding="utf-8"?>
<!-- Generator: Adobe Illustrator 17.1.0, SVG Export Plug-In . SVG Version: 6.00 Build 0)  -->
<!DOCTYPE svg PUBLIC "-//W3C//DTD SVG 1.1//EN" "http://www.w3.org/Graphics/SVG/1.1/DTD/svg11.dtd">
<svg version="1.1" id="Layer_2" xmlns="http://www.w3.org/2000/svg" xmlns:xlink="http://www.w3.org/1999/xlink" x="0px" y="0px"
	 viewBox="0 0 400 400" enable-background="new 0 0 400 400" xml:space="preserve">
<path fill="#00A551" stroke="#004B1C" stroke-width="7.0855" d="M234.7,235.1c0,0,17.4,22.5,36.5,5.2
	C257.7,218.4,234.7,235.1,234.7,235.1z"/>
<path fill="#00A551" stroke="#004B1C" stroke-width="7.0855" d="M310.8,268.9c0,0-10.9-26.2-33.9-14.6
	C284.3,279,310.8,268.9,310.8,268.9z"/>
<path fill="#00A551" stroke="#004B1C" stroke-width="7.0855" d="M259.1,305.6c0,0,9.4-12.8,9.7-16.8c0.2-4.2,0.4-26.3,0.1-34.2
	c-0.1-3.5,0.2-24,4.6-30.6c2.4-3.6,13.6-9,15.9-12.1c2.3-3-4.8,8.6-6.4,12.7c-1.6,4.1-5.1,1.8-6.4,10.4c-1.3,8.6-1,17.3-0.9,24.9
	c0.2,8.4-0.4,30.8-2.4,34.2c-2.1,3.5-7.8,14.5-7.8,14.5"/>
<polygon fill="#F6921E" stroke="#A76D0A" stroke-width="7.0855" stroke-linejoin="round" points="248.7,269.3 247.7,279.1 
	247.8,279.1 294.6,292.5 294.8,292.6 299.1,283.6 "/>
<polygon fill="#F6921E" stroke="#A76D0A" stroke-width="7.0855" stroke-linejoin="round" points="274.5,328.6 245.4,320.2 
	252,280.3 290.4,291.3 "/>
<g id="fill::flower_x26__x26_flower-f:darker::stroke::outline">
	<path fill="#90278E" stroke="#480046" stroke-width="7.0855" d="M295.2,181.7c0,0-27.5,15.8-11.3,39.7
		C310.2,209.7,295.2,181.7,295.2,181.7z"/>
	<path fill="#90278E" stroke="#480046" stroke-width="7.0855" d="M263.8,185.3c0,0-8.3,30.7,20.1,36.1
		C294.2,194.5,263.8,185.3,263.8,185.3z"/>
	<path fill="#90278E" stroke="#480046" stroke-width="7.0855" d="M244.1,210.1c0,0,15.8,27.5,39.7,11.3
		C272.1,195.1,244.1,210.1,244.1,210.1z"/>
	<path fill="#90278E" stroke="#480046" stroke-width="7.0855" d="M247.7,241.5c0,0,30.7,8.3,36.1-20.1
		C256.9,211.1,247.7,241.5,247.7,241.5z"/>
	<path fill="#90278E" stroke="#480046" stroke-width="7.0855" d="M272.5,261.1c0,0,27.5-15.8,11.3-39.7
		C257.5,233.1,272.5,261.1,272.5,261.1z"/>
	<path fill="#90278E" stroke="#480046" stroke-width="7.0855" d="M303.9,257.5c0,0,8.3-30.7-20.1-36.1
		C273.5,248.4,303.9,257.5,303.9,257.5z"/>
	<path fill="#90278E" stroke="#480046" stroke-width="7.0855" d="M323.6,232.8c0,0-15.8-27.5-39.7-11.3
		C295.6,247.8,323.6,232.8,323.6,232.8z"/>
	<path fill="#90278E" stroke="#480046" stroke-width="7.0855" d="M319.9,201.4c0,0-30.7-8.3-36.1,20.1
		C310.8,231.8,319.9,201.4,319.9,201.4z"/>
</g>
<path id="flower-f:darker::stroke::center" fill="#F9EC31" stroke="#480046" stroke-width="7.0855" d="M292.5,224.1
	c-1.4,4.9-6.5,7.7-11.4,6.3s-7.7-6.5-6.3-11.4c1.4-4.9,6.5-7.7,11.4-6.3S293.9,219.2,292.5,224.1z"/>
<path id="snoo-body-f::fill::hand" fill="#00FF00" stroke="#000000" stroke-width="11" d="M263,319.5l0.1,1.3
	c1,9.9,10.5,17,21.1,15.9h0.2c10.6-1.1,18.4-10,17.4-19.9l-0.1-1.3c-1-9.9-10.5-17-21.1-15.9h-0.2
	C269.7,300.7,261.9,309.6,263,319.5z"/>
</svg>
