<?xml version="1.0" encoding="utf-8"?>
<!-- Generator: Adobe Illustrator 17.1.0, SVG Export Plug-In . SVG Version: 6.00 Build 0)  -->
<!DOCTYPE svg PUBLIC "-//W3C//DTD SVG 1.1//EN" "http://www.w3.org/Graphics/SVG/1.1/DTD/svg11.dtd">
<svg version="1.1" id="Layer_2" xmlns="http://www.w3.org/2000/svg" xmlns:xlink="http://www.w3.org/1999/xlink" x="0px" y="0px"
	 viewBox="0 0 400 400" enable-background="new 0 0 400 400" xml:space="preserve">
<g>
	<path fill="#4E6A4D" d="M301.3,266.2c-8.2,5.7-14.8,11.7-20.1,18.2c-3.9,4.9-7.1,10-9.6,15.5c-3.7,8.2-6,17-7.3,26.6
		c-1.3,9.6-1.7,20.1-1.7,31.7h10c0-10.1,0.3-19.2,1.2-27.4c0.7-6.1,1.7-11.7,3.2-16.9c2.2-7.8,5.5-14.7,10.3-21.1
		c4.8-6.4,11.1-12.5,19.7-18.4L301.3,266.2L301.3,266.2z"/>
	
		<ellipse id="snoo-body-f::fill::hand" fill="#00FF00" stroke="#000000" stroke-width="11" stroke-miterlimit="10" cx="278.5" cy="306.3" rx="20.7" ry="21"/>
	<g id="fill::flower_x26__x26_flower-f:darker::stroke::outline">
		<path fill="#A36DCD" stroke="#6E4092" stroke-width="7" stroke-miterlimit="10" d="M308.8,287.8c15.3,0,28.6-7.8,32-24.4
			C324.8,262.2,312.7,273.3,308.8,287.8z"/>
		<path fill="#A36DCD" stroke="#6E4092" stroke-width="7" stroke-miterlimit="10" d="M305.3,285.8c7.7,13.5,21,21.2,36.6,16.1
			C335.4,287.8,320.4,282.7,305.3,285.8z"/>
		<path fill="#A36DCD" stroke="#6E4092" stroke-width="7" stroke-miterlimit="10" d="M304.3,285.5c7.6-13.4,7.7-28.9-4.6-40.5
			C290.9,259.2,294,274.5,304.3,285.5z"/>
		<path fill="#A36DCD" stroke="#6E4092" stroke-width="7" stroke-miterlimit="10" d="M301.6,287.9c-7.7-13.5-21-21.2-36.6-16.1
			C272.5,286.2,287.5,291.3,301.6,287.9z"/>
		<path fill="#A36DCD" stroke="#6E4092" stroke-width="7" stroke-miterlimit="10" d="M306,287c-15.3,0-28.6,7.8-32,24.4
			C290,312.7,302.1,301.5,306,287z"/>
		<path fill="#A36DCD" stroke="#6E4092" stroke-width="7" stroke-miterlimit="10" d="M307.4,285.4c-7.6,13.4-7.7,28.9,4.6,40.5
			C320.6,312.7,316.8,296.2,307.4,285.4z"/>
	</g>
	<path fill="#F2DD70" d="M299.8,284.4c-1.1,4.3,1.8,8.8,6.5,10c4.7,1.3,9.5-1.1,10.6-5.4c1.1-4.3-1.8-8.8-6.5-10
		C305.7,277.7,300.9,280.1,299.8,284.4z"/>
</g>
</svg>
