<?xml version="1.0" encoding="utf-8"?>
<!-- Generator: Adobe Illustrator 17.1.0, SVG Export Plug-In . SVG Version: 6.00 Build 0)  -->
<!DOCTYPE svg PUBLIC "-//W3C//DTD SVG 1.1//EN" "http://www.w3.org/Graphics/SVG/1.1/DTD/svg11.dtd">
<svg version="1.1" id="Layer_3" xmlns="http://www.w3.org/2000/svg" xmlns:xlink="http://www.w3.org/1999/xlink" x="0px" y="0px"
	 viewBox="0 0 400 400" enable-background="new 0 0 400 400" xml:space="preserve">
<path fill="#A87C4F" stroke="#754C28" stroke-width="7.2332" stroke-linejoin="round" stroke-miterlimit="10" d="M273.4,344.9
	c-1.5,4-5.9,6-10,4.6c-4-1.4-6.1-5.8-4.8-9.9l0,0l18.8-52.6l14.8,5.3L273.4,344.9L273.4,344.9z"/>
<path fill="#929497" stroke="#6D6E70" stroke-width="6.2303" stroke-linejoin="round" stroke-miterlimit="10" d="M273.9,222.9
	c1.3-3.4,5.1-5.2,8.6-4c3.5,1.2,5.3,5,4.1,8.5l0,0l-16.5,46.2l11.7,4.2l16.5-46.2l0,0c1.3-3.4,5.1-5.2,8.6-4c3.5,1.2,5.3,5,4.1,8.5
	l0,0l-16.5,46.2l11.7,4.2l16.5-46.2l0,0c1.3-3.4,5.1-5.2,8.6-4c3.5,1.2,5.3,5,4.1,8.5l0,0L319,291.1c-2,5.7-6.5,13.1-13.4,10.6
	l-7.7-2.8l-29-10.4l-7.7-2.8c-7-2.5-5.7-11-3.7-16.7L273.9,222.9L273.9,222.9z"/>
<path id="snoo-body-f::fill::hand" fill="#00FF00" stroke="#000000" stroke-width="11" d="M285,298.3c-9.2-5.5-21.1-2.6-26.6,6.6
	c-5.5,9.2-2.6,21.1,6.6,26.6c9.2,5.5,21.1,2.6,26.6-6.6C297.1,315.7,294.2,303.8,285,298.3z"/>
</svg>
