<?xml version="1.0" encoding="utf-8"?>
<!-- Generator: Adobe Illustrator 17.1.0, SVG Export Plug-In . SVG Version: 6.00 Build 0)  -->
<!DOCTYPE svg PUBLIC "-//W3C//DTD SVG 1.1//EN" "http://www.w3.org/Graphics/SVG/1.1/DTD/svg11.dtd">
<svg version="1.1" id="gilder" xmlns="http://www.w3.org/2000/svg" xmlns:xlink="http://www.w3.org/1999/xlink" x="0px" y="0px"
	 viewBox="0 0 400 400" enable-background="new 0 0 400 400" xml:space="preserve">
<g>
	<g>
		<g>
			<defs>
				<path id="SVGID_1_" d="M237.5,278.6c0,21.9,17.8,39.7,39.7,39.7s39.6-17.8,39.6-39.7c0-21.9-17.8-39.6-39.6-39.6
					C255.3,238.9,237.5,256.7,237.5,278.6z M255,271.6c0.2-0.7,0.9-1.3,1.7-1.4l13-1.7l5.7-11.8c0.3-0.7,1.1-1.1,1.8-1.1
					c0.8,0,1.5,0.4,1.8,1.1l5.7,11.8l13,1.7c0.8,0.1,1.4,0.6,1.7,1.4c0.2,0.7,0,1.6-0.5,2.1l-9.5,9l2.4,12.9c0.1,0.8-0.2,1.6-0.8,2
					c-0.4,0.3-0.8,0.4-1.2,0.4c-0.3,0-0.7-0.1-1-0.3l-11.5-6.2l-11.5,6.2c-0.7,0.4-1.5,0.3-2.2-0.1c-0.6-0.5-1-1.2-0.8-2l2.4-12.9
					l-9.5-9C255,273.2,254.8,272.4,255,271.6z"/>
			</defs>
			<clipPath id="SVGID_2_">
				<use xlink:href="#SVGID_1_"  overflow="visible"/>
			</clipPath>
			<path clip-path="url(#SVGID_2_)" fill="#FFF088" d="M285.6,249.2c16.1,4.6,25.4,21.5,20.8,37.6c-4.6,16.1-21.5,25.4-37.6,20.8
				S243.4,286.1,248,270C252.6,253.8,269.5,244.5,285.6,249.2z"/>
		</g>
	</g>
	<polygon fill="none" stroke="#7E6625" stroke-width="6.3036" stroke-linejoin="round" points="264.7,296 277.2,289.2 289.7,296 
		287.1,282 297.4,272.3 283.3,270.4 277.2,257.6 271,270.4 256.9,272.3 267.3,282 	"/>
	<path fill="none" stroke="#7E6625" stroke-width="6.3036" stroke-linejoin="round" d="M245,278.6c0,17.8,14.4,32.2,32.2,32.2
		s32.2-14.4,32.2-32.2c0-17.8-14.4-32.2-32.2-32.2S245,260.8,245,278.6z"/>
</g>
<polyline opacity="0.5" fill="#F5FEFF" enable-background="new    " points="296.3,243.6 293.6,256 281.2,258.7 293.6,261.3 
	296.3,273.7 298.9,261.3 311.3,258.7 298.9,256 296.3,243.6 "/>
<path id="body-f::fill::hand" fill="#00FF00" stroke="#000000" stroke-width="11" d="M276.6,296.6c10.3,2.6,16.5,12.9,14,23.2
	c-2.6,10.3-12.9,16.5-23.2,14c-10.3-2.6-16.5-12.9-14-23.2S266.3,294,276.6,296.6z"/>
</svg>
