<?xml version="1.0" encoding="utf-8"?>
<!-- Generator: Adobe Illustrator 17.1.0, SVG Export Plug-In . SVG Version: 6.00 Build 0)  -->
<!DOCTYPE svg PUBLIC "-//W3C//DTD SVG 1.1//EN" "http://www.w3.org/Graphics/SVG/1.1/DTD/svg11.dtd">
<svg version="1.1" id="Layer_2" xmlns="http://www.w3.org/2000/svg" xmlns:xlink="http://www.w3.org/1999/xlink" x="0px" y="0px"
	 viewBox="0 0 400 400" enable-background="new 0 0 400 400" xml:space="preserve">
<g>
	<path fill="#996632" stroke="#000000" stroke-width="9" stroke-linecap="round" stroke-linejoin="round" d="M287.2,264.1
		c-27.9-2.7-37.2,7.6-39.3,18.9c-1.8,9.6,3.4,20.8,2.5,26.3c-1.7,11.1-20.9,18.7-22.4,44.7c-1.7,30.1,23.7,37.9,46.8,40.1
		c23.1,2.2,49.5-0.7,53.6-30.5c3.5-25.8-14-36.9-13.6-48.1c0.2-5.5,7.4-15.6,7.4-25.3C322.3,278.6,315.1,266.7,287.2,264.1
		L287.2,264.1z"/>
	
		<ellipse transform="matrix(0.9955 9.489155e-02 -9.489155e-02 0.9955 30.3237 -25.3745)" fill="#703616" cx="282" cy="306.2" rx="16.1" ry="16.7"/>
	<path fill="#380B00" d="M254.1,346.3l46.9,4.5c0.7,0.1,1.1,0.9,1.1,2l-0.3,3.6c-0.1,1-0.7,1.8-1.4,1.7l-46.9-4.5
		c-0.7-0.1-1.1-0.9-1.1-2l0.3-3.6C252.8,347,253.4,346.2,254.1,346.3z"/>
	<path fill="#754410" d="M267.1,348.3l20.7,2c0.3,0,0.5,0.7,0.4,1.5l-0.3,2.9c-0.1,0.8-0.4,1.4-0.7,1.4l-20.7-2
		c-0.3,0-0.5-0.7-0.4-1.5l0.3-2.9C266.5,348.9,266.8,348.3,267.1,348.3z"/>
	<path fill="#D6A47C" d="M286.8,200.6l-11.7,98.3l0,0c2.4-2.2,5.6-3.4,9.1-3.1c3.5,0.3,6.5,2.2,8.4,4.8l0,0l7.1-98.7L286.8,200.6z"
		/>
	<g>
		<path d="M288.9,354.8l14.9-184.3c0-0.2-0.1-0.5-0.2-0.7l-3.1-4c-0.3-0.4-1-0.5-1.4-0.2c-0.4,0.3-0.5,1-0.2,1.4l2.8,3.7L287,354.6
			c0,0.6,0.4,1,0.9,1.1C288.4,355.7,288.9,355.3,288.9,354.8L288.9,354.8z"/>
		<path d="M284,353.8l14.7-159.2c0-0.3,0-0.5-0.2-0.7l-3.1-4c-0.3-0.4-1-0.5-1.4-0.2c-0.4,0.3-0.5,1-0.2,1.4l2.8,3.7L282,353.6
			c-0.1,0.5,0.4,1,0.9,1.1C283.5,354.7,283.9,354.3,284,353.8L284,353.8z"/>
		<path d="M269.9,352.5l0.2-1.4l0,0l21-183.8l0,0l0.2-1.6c0.1-0.5-0.4-1-0.9-1.1c-0.5-0.1-1,0.4-1.1,0.9l-0.2,1.6l-21,183.8
			l-0.2,1.4c-0.1,0.5,0.3,1,0.9,1.1C269.3,353.4,269.8,353,269.9,352.5L269.9,352.5z"/>
		<path d="M275.2,352.8l16.5-160.9l0-0.1l0-1.7c0-0.6-0.5-1-1-1c-0.6,0-1,0.5-1,1l0,1.7l-16.5,160.8c-0.1,0.5,0.3,1,0.9,1.1
			C274.7,353.7,275.2,353.3,275.2,352.8L275.2,352.8z"/>
		<path d="M279,352.6l16-152.4c0.1-0.5-0.3-1-0.9-1.1s-1,0.3-1.1,0.9l-16,152.4c-0.1,0.5,0.3,1,0.9,1.1S279,353.1,279,352.6"/>
	</g>
	
		<ellipse transform="matrix(0.9955 9.489152e-02 -9.489152e-02 0.9955 30.3227 -25.3681)" cx="281.9" cy="306.1" rx="11.7" ry="12.1"/>
	<g>
		<path fill="#CCA483" d="M279.2,169.4l30.3,2.9c2.5,0.2,4.7-1.6,4.9-4.1c0.2-2.5-1.6-4.7-4.1-4.9l-30.3-2.9
			c-2.5-0.2-4.7,1.6-4.9,4.1C275,167,276.8,169.2,279.2,169.4"/>
		<path fill="#CCA483" d="M279.2,182.7l28,2.7c2.5,0.2,4.7-1.6,4.9-4.1c0.2-2.5-1.6-4.7-4.1-4.9l-28-2.7c-2.5-0.2-4.7,1.6-4.9,4.1
			C274.9,180.3,276.7,182.5,279.2,182.7"/>
		<path fill="#CCA483" d="M279.1,196l25.6,2.4c2.5,0.2,4.7-1.6,4.9-4.1c0.2-2.5-1.6-4.7-4.1-4.9l-25.6-2.4c-2.5-0.2-4.7,1.6-4.9,4.1
			C274.8,193.6,276.6,195.8,279.1,196"/>
	</g>
	<path fill="#996632" stroke="#000000" stroke-width="9" stroke-linecap="round" stroke-linejoin="round" d="M295.7,156.9
		c-3.3-0.3-9.5,1.1-10.5,3.7l-1.7,36.3l0.7,0.9l0.9,1.7l12.9,1.2l1.2-1.5l0.9-0.7l5.2-35.9C304.9,159.8,299,157.2,295.7,156.9z"/>
</g>
<path id="snoo-body-f::fill::hand" fill="#FFFFFF" stroke="#000000" stroke-width="11" d="M303.1,227.7c-10.6-0.6-19.6,7.5-20.2,18
	c-0.6,10.6,7.5,19.6,18,20.2c10.6,0.6,13.5-7.7,14.1-18.3C315.6,237.1,313.6,228.3,303.1,227.7z"/>
</svg>
