<?xml version="1.0" encoding="utf-8"?>
<!-- Generator: Adobe Illustrator 17.1.0, SVG Export Plug-In . SVG Version: 6.00 Build 0)  -->
<!DOCTYPE svg PUBLIC "-//W3C//DTD SVG 1.1//EN" "http://www.w3.org/Graphics/SVG/1.1/DTD/svg11.dtd">
<svg version="1.1" id="handbag" xmlns="http://www.w3.org/2000/svg" xmlns:xlink="http://www.w3.org/1999/xlink" x="0px" y="0px"
	 viewBox="0 0 400 400" enable-background="new 0 0 400 400" xml:space="preserve">
<g id="bag">
	
		<path id="bag-f:darken::stroke::accent:2" fill="none" stroke="#872A0E" stroke-width="10.5038" stroke-linecap="round" stroke-linejoin="round" d="
		M307,347.7c0,0,6.9-68.8-26.2-76.4c-33.1,7.6-26.2,76.4-26.2,76.4"/>
	<path id="fill::bag" fill="#A61C00" d="M281.3,305.1c23.9-1.3,40.6,77.4,40.6,77.4h-81.3C240.6,382.5,257.4,306.4,281.3,305.1z"/>
	<g id="bag-f:darken::stroke::accent:1">
		<path fill="none" stroke="#872A0E" stroke-width="9" stroke-linecap="round" stroke-linejoin="round" d="M281.3,305.1
			c23.9-1.3,40.6,77.4,40.6,77.4h-81.3C240.6,382.5,257.4,306.4,281.3,305.1z"/>
		
			<line fill="none" stroke="#872A0E" stroke-width="9" stroke-linecap="round" stroke-linejoin="round" x1="281.3" y1="309.2" x2="281.3" y2="377.1"/>
	</g>
</g>
<path id="snoo-body-f::fill::hand" fill="#00FF00" stroke="#000000" stroke-width="11" d="M283.1,278.2c9.6,4.5,13.6,16,9.1,25.5
	c-4.5,9.6-15.9,13.6-25.5,9.1s-13.6-15.9-9.1-25.5S273.6,273.7,283.1,278.2z"/>
</svg>
