<?xml version="1.0" encoding="utf-8"?>
<!-- Generator: Adobe Illustrator 17.1.0, SVG Export Plug-In . SVG Version: 6.00 Build 0)  -->
<!DOCTYPE svg PUBLIC "-//W3C//DTD SVG 1.1//EN" "http://www.w3.org/Graphics/SVG/1.1/DTD/svg11.dtd">
<svg version="1.1" id="Layer_3" xmlns="http://www.w3.org/2000/svg" xmlns:xlink="http://www.w3.org/1999/xlink" x="0px" y="0px"
	 viewBox="0 0 400 400" enable-background="new 0 0 400 400" xml:space="preserve">
<g id="hockey-clip">
	<g>
		<defs>
			<path id="XMLID_16_" d="M372.6,40.9c-8.5,6.1-5.9,2.8-50.8,40.5c-18.3,15.4-28.3,28.6-33.7,38.8l-12.7,267.1l-10.7-0.4L275.8,101
				l0,0c14.6-38.9,80-81.8,80-81.8C358.8,17.2,377.6,36.8,372.6,40.9z"/>
		</defs>
		<use xlink:href="#XMLID_16_"  overflow="visible" fill="#A6A8AB"/>
		<clipPath id="XMLID_2_">
			<use xlink:href="#XMLID_16_"  overflow="visible"/>
		</clipPath>
		<path clip-path="url(#XMLID_2_)" fill="#58595B" stroke="#231F20" stroke-width="5" stroke-miterlimit="10" d="M302.6,108.1
			c-0.3,0-15.1-24.9-27.6-24L340.8,17c0,0,20.5,17.9,27.2,35.5L302.6,108.1z"/>
		
			<use xlink:href="#XMLID_16_"  overflow="visible" fill="none" stroke="#231F20" stroke-width="8" stroke-linecap="round" stroke-miterlimit="10"/>
	</g>
	
		<rect x="259.7" y="378.2" transform="matrix(0.9992 3.920085e-02 -3.920085e-02 0.9992 15.2951 -10.3148)" fill="#58595B" stroke="#231F20" stroke-width="8" stroke-linejoin="round" stroke-miterlimit="10" width="21.9" height="13.3"/>
</g>
<path id="snoo-body-f::fill::hand_1_" fill="#00FF00" stroke="#000000" stroke-width="11" d="M273.7,299.4
	c10.6-0.2,19.3,8.3,19.4,18.9c0.2,10.6-8.3,19.3-18.9,19.4c-10.6,0.2-19.3-8.3-19.4-18.9C254.7,308.2,263.1,299.5,273.7,299.4z"/>
</svg>
