<?xml version="1.0" encoding="utf-8"?>
<!-- Generator: Adobe Illustrator 17.1.0, SVG Export Plug-In . SVG Version: 6.00 Build 0)  -->
<!DOCTYPE svg PUBLIC "-//W3C//DTD SVG 1.1//EN" "http://www.w3.org/Graphics/SVG/1.1/DTD/svg11.dtd">
<svg version="1.1" id="Layer_3" xmlns="http://www.w3.org/2000/svg" xmlns:xlink="http://www.w3.org/1999/xlink" x="0px" y="0px"
	 viewBox="0 0 400 400" enable-background="new 0 0 400 400" xml:space="preserve">
<g>
	<path id="rect4257_1_" fill="#2A2C2C" stroke="#000000" stroke-width="9" d="M287.6,389.1l51.5-230.5c0.9-3.8-1.6-7.7-5.4-8.5
		l-53.5-12c-3.8-0.9-7.7,1.6-8.5,5.4l-51.5,230.5c-0.9,3.8,1.6,7.7,5.4,8.5l53.5,12C282.9,395.4,286.8,393,287.6,389.1z"/>
	<path id="rect5407-6-8-7-2-8_1_" fill="#FFFFFF" stroke="#000000" stroke-width="6" stroke-linejoin="round" d="M267.9,361.6
		l-38.9-8.7c-2.5-0.6-4.2-2.1-3.9-3.6l3.5-15.5c0.3-1.4,2.6-2.1,5-1.6l38.9,8.7c2.5,0.6,4.2,2.1,3.9,3.6l-3.5,15.5
		C272.6,361.4,270.4,362.1,267.9,361.6z"/>
	<path id="rect5407-6-8-7-2-1-2_1_" fill="#FFFFFF" stroke="#000000" stroke-width="6" stroke-linejoin="round" d="M272.5,340.9
		l-38.9-8.7c-2.5-0.6-4.2-2.1-3.9-3.6l3.5-15.5c0.3-1.4,2.6-2.1,5-1.6l38.9,8.7c2.5,0.6,4.2,2.1,3.9,3.6l-3.5,15.5
		C277.2,340.8,275,341.5,272.5,340.9z"/>
	<path id="rect5407-6-8-7-2-65-5_1_" fill="#FFFFFF" stroke="#000000" stroke-width="6" d="M286.3,279l-38.9-8.7
		c-2.5-0.6-4.2-2.1-3.9-3.6l3.5-15.5c0.3-1.4,2.6-2.1,5-1.6l38.9,8.7c2.5,0.6,4.2,2.1,3.9,3.6l-3.5,15.5
		C291.1,278.9,288.8,279.6,286.3,279z"/>
	<path id="rect5407-6-8-7-2-6-31-9_1_" fill="#FFFFFF" stroke="#000000" stroke-width="6" d="M281.7,299.7l-38.9-8.7
		c-2.5-0.6-4.2-2.1-3.9-3.6l3.5-15.5c0.3-1.4,2.6-2.1,5-1.6l38.9,8.7c2.5,0.6,4.2,2.1,3.9,3.6l-3.5,15.5
		C286.5,299.5,284.2,300.2,281.7,299.7z"/>
	<path id="rect5535-3-7_1_" fill="#FFFFFF" stroke="#000000" stroke-width="6" stroke-linejoin="round" d="M277.1,320.3l-38.9-8.7
		c-2.5-0.6-4.2-2.1-3.9-3.6l3.5-15.5c0.3-1.4,2.6-2.1,5-1.6l38.9,8.7c2.5,0.6,4.2,2.1,3.9,3.6l-3.5,15.5
		C281.8,320.1,279.6,320.8,277.1,320.3z"/>
	
		<rect id="rect5407-6-8-7-2-1-1-5_1_" x="249.2" y="233.2" transform="matrix(0.9759 0.2181 -0.2181 0.9759 59.7509 -53.8472)" fill="#FFFFFF" stroke="#000000" stroke-width="2.6779" width="49.1" height="21.1"/>
	<path id="rect5407-6-8-7-2-65-9-6_1_" fill="#FFFFFF" stroke="#000000" stroke-width="6" d="M300.2,217.1l-38.9-8.7
		c-2.5-0.6-4.2-2.1-3.9-3.6l3.5-15.5c0.3-1.4,2.6-2.1,5-1.6l38.9,8.7c2.5,0.6,4.2,2.1,3.9,3.6l-3.5,15.5
		C304.9,217,302.6,217.7,300.2,217.1z"/>
	<path id="rect5407-6-8-7-2-6-3-2-3-7_1_" fill="#FFFFFF" stroke="#000000" stroke-width="6" d="M295.6,237.8l-38.9-8.7
		c-2.5-0.6-4.2-2.1-3.9-3.6l3.5-15.5c0.3-1.4,2.6-2.1,5-1.6l38.9,8.7c2.5,0.6,4.2,2.1,3.9,3.6l-3.5,15.5
		C300.3,237.6,298,238.3,295.6,237.8z"/>
	<path id="rect5407-6-8-7-2-6-3-3-1-0-6_1_" fill="#FFFFFF" stroke="#000000" stroke-width="6" d="M290.9,258.4l-38.9-8.7
		c-2.5-0.6-4.2-2.1-3.9-3.6l3.5-15.5c0.3-1.4,2.6-2.1,5-1.6l38.9,8.7c2.5,0.6,4.2,2.1,3.9,3.6l-3.5,15.5
		C295.7,258.2,293.4,258.9,290.9,258.4z"/>
	<path id="rect5407-6-8-7-2-1-1-8-0-2_1_" fill="#FFFFFF" stroke="#000000" stroke-width="6" d="M304.8,196.5l-38.9-8.7
		c-2.5-0.6-4.2-2.1-3.9-3.6l3.5-15.5c0.3-1.4,2.6-2.1,5-1.6l38.9,8.7c2.5,0.6,4.2,2.1,3.9,3.6l-3.5,15.5
		C309.5,196.3,307.3,197,304.8,196.5z"/>
	
		<rect id="rect5407-6-8-7-2-6-8_1_" x="249" y="332.7" transform="matrix(0.9759 0.2181 -0.2181 0.9759 80.3105 -49.1082)" stroke="#000000" stroke-width="3.266" width="27.2" height="12.9"/>
	
		<rect id="rect5407-6-8-7-2-6-3-2-7_1_" x="262.9" y="270.6" transform="matrix(0.9759 0.2181 -0.2181 0.9759 67.0819 -53.6366)" stroke="#000000" stroke-width="3.266" width="27.2" height="12.9"/>
	
		<rect id="rect5407-6-8-7-2-6-3-3-1-9_1_" x="253.7" y="311.8" transform="matrix(0.9759 0.2181 -0.2181 0.9759 75.8567 -50.6328)" stroke="#000000" stroke-width="3.266" width="27.2" height="12.9"/>
	
		<rect id="rect5407-6-8-7-2-6-31-2-2_1_" x="272.2" y="229" transform="matrix(0.9759 0.2181 -0.2181 0.9759 58.2424 -56.6626)" stroke="#000000" stroke-width="3.266" width="27.2" height="12.9"/>
	
		<rect id="rect5535-3-0-9_1_" x="267.5" y="249.8" transform="matrix(0.9759 0.2181 -0.2181 0.9759 62.663 -55.1493)" stroke="#000000" stroke-width="3.266" width="27.2" height="12.9"/>
	
		<rect id="rect5407-6-8-7-2-1-1-8-0_1_" x="281.4" y="187.8" transform="matrix(0.9759 0.2181 -0.2181 0.9759 49.4676 -59.6664)" stroke="#000000" stroke-width="3.266" width="27.2" height="12.9"/>
	<line id="rect6092_1_" fill="#2A2C2C" stroke="#000000" stroke-width="9" x1="270.9" y1="363.9" x2="313.3" y2="174.2"/>
</g>
<path id="snoo-fill-body::fill::hand" fill="#00FF00" stroke="#000000" stroke-width="11" d="M319.1,276.7
	c-10.5-1.6-20.2,5.6-21.8,16c-1.6,10.5,5.6,20.2,16,21.8s14.1-6.4,15.7-16.9C330.6,287.2,329.5,278.3,319.1,276.7z"/>
</svg>
