<?xml version="1.0" encoding="utf-8"?>
<!-- Generator: Adobe Illustrator 17.1.0, SVG Export Plug-In . SVG Version: 6.00 Build 0)  -->
<!DOCTYPE svg PUBLIC "-//W3C//DTD SVG 1.1//EN" "http://www.w3.org/Graphics/SVG/1.1/DTD/svg11.dtd">
<svg version="1.1" id="Layer_3" xmlns="http://www.w3.org/2000/svg" xmlns:xlink="http://www.w3.org/1999/xlink" x="0px" y="0px"
	 viewBox="0 0 400 400" enable-background="new 0 0 400 400" xml:space="preserve">
<g id="fill::laptop">
	<path fill="#B8B8B8" stroke="#000000" stroke-width="6" d="M235,307.8h98.8c2.4,0,2.8-0.9,1-1.9l-9.8-5.8c-1.8-1.1-5.2-1.9-7.6-1.9
		h-98.8c-2.4,0-2.8,0.9-1,1.9l9.8,5.8C229.2,306.9,232.6,307.8,235,307.8z"/>
	<path fill="#B8B8B8" stroke="#000000" stroke-width="6" d="M219,298.6l14.4,7.7c1.8,0.9,3.2,3.6,3.2,6v3.8c0,2.4-1.4,3.5-3.2,2.6
		L219,311c-1.8-0.9-3.2-3.6-3.2-6v-3.8C215.8,298.8,217.2,297.7,219,298.6z"/>
	<path fill="#B8B8B8" stroke="#000000" stroke-width="9" d="M238.1,243.1h98.8c2.4,0,4.3,1.9,4.3,4.3v67.7c0,2.4-1.9,4.3-4.3,4.3
		h-98.8c-2.4,0-4.3-1.9-4.3-4.3v-67.7C233.8,245,235.7,243.1,238.1,243.1z"/>
</g>
<path id="snoo-body-f::fill::hand_1_" fill="#00FF00" stroke="#000000" stroke-width="11" d="M310.1,321.9c0,10.5-11.3,19-25.2,19
	c-13.9,0-25.2-8.5-25.2-19v0c0-10.5,11.3-19,25.2-19C298.8,302.9,310.1,311.4,310.1,321.9L310.1,321.9z"/>
</svg>
