<?xml version="1.0" encoding="utf-8"?>
<!-- Generator: Adobe Illustrator 17.1.0, SVG Export Plug-In . SVG Version: 6.00 Build 0)  -->
<!DOCTYPE svg PUBLIC "-//W3C//DTD SVG 1.1//EN" "http://www.w3.org/Graphics/SVG/1.1/DTD/svg11.dtd">
<svg version="1.1" id="magnifying_x5F_glass" xmlns="http://www.w3.org/2000/svg" xmlns:xlink="http://www.w3.org/1999/xlink"
	 x="0px" y="0px" viewBox="0 0 400 400" enable-background="new 0 0 400 400" xml:space="preserve">
<g>
	<path fill="#7F5C33" stroke="#463A2E" stroke-width="7" stroke-linecap="round" stroke-linejoin="round" d="M267.7,279.3l-9.8,65.3
		c-0.4,2.9,2.3,5.6,6.1,6.2c3.8,0.6,7.2-1.3,7.6-4.1h0.1l9.8-65.3L267.7,279.3z"/>
	<g>
		
			<linearGradient id="SVGID_1_" gradientUnits="userSpaceOnUse" x1="350.7033" y1="136.9663" x2="431.5377" y2="136.9663" gradientTransform="matrix(0.9971 -7.671344e-02 -7.671344e-02 -0.9971 -99.8791 405.7732)">
			<stop  offset="0" style="stop-color:#FFFFFF"/>
			<stop  offset="0.2234" style="stop-color:#E7EAFF"/>
			<stop  offset="0.6912" style="stop-color:#ABB4FF"/>
			<stop  offset="1" style="stop-color:#808DFF"/>
		</linearGradient>
		<path fill="url(#SVGID_1_)" fill-opacity="0.75" d="M319.9,236.1c1.7,22.3-14.9,41.7-37.2,43.4c-22.2,1.7-41.7-14.9-43.4-37.2
			c-1.7-22.2,14.9-41.7,37.2-43.4C298.8,197.1,318.2,213.8,319.9,236.1z"/>
		<path fill="none" stroke="#336699" stroke-width="11" d="M319.9,236.1c1.7,22.3-14.9,41.7-37.2,43.4
			c-22.2,1.7-41.7-14.9-43.4-37.2s14.9-41.7,37.2-43.4C298.8,197.1,318.2,213.8,319.9,236.1z"/>
	</g>
</g>
<path id="body-f::fill::mag-glass" fill="#00FF00" stroke="#000000" stroke-width="11" d="M274.2,296.5c10.3,2.6,16.5,12.9,14,23.2
	c-2.6,10.3-12.9,16.5-23.2,14c-10.3-2.6-16.5-12.9-14-23.2C253.5,300.2,263.9,293.9,274.2,296.5z"/>
</svg>
