<?xml version="1.0" encoding="utf-8"?>
<!-- Generator: Adobe Illustrator 17.1.0, SVG Export Plug-In . SVG Version: 6.00 Build 0)  -->
<!DOCTYPE svg PUBLIC "-//W3C//DTD SVG 1.1//EN" "http://www.w3.org/Graphics/SVG/1.1/DTD/svg11.dtd">
<svg version="1.1" id="Layer_3" xmlns="http://www.w3.org/2000/svg" xmlns:xlink="http://www.w3.org/1999/xlink" x="0px" y="0px"
	 viewBox="0 0 400 400" enable-background="new 0 0 400 400" xml:space="preserve">
<g>
	
		<linearGradient id="SVGID_1_" gradientUnits="userSpaceOnUse" x1="0" y1="400" x2="1" y2="400" gradientTransform="matrix(53.7896 15.1388 -10.6668 37.9001 4596.2412 -14888.8418)">
		<stop  offset="0" style="stop-color:#FFFFFF"/>
		<stop  offset="1" style="stop-color:#CECECE"/>
	</linearGradient>
	<path fill="url(#SVGID_1_)" stroke="#000000" stroke-width="8" stroke-linejoin="round" d="M380.5,285.5
		c-6.7,23.9-22.9,40.2-36.2,36.5c-13.3-3.7-18.6-26.1-11.9-50c6.7-23.9,22.9-40.2,36.2-36.5C381.9,239.3,387.2,261.7,380.5,285.5z"
		/>
	<g id="fill::megaphone">
		<path fill="#D5411F" stroke="#000000" stroke-width="8" stroke-linejoin="round" d="M303.1,238c-7.4-1-45.1-6.9-49.2-7
			s-8.5,3.5-9.4,6.2c-0.9,2.7-2.3,16.3-0.7,22.6c1.6,6.3,4.2,9.7,7.1,13.2s5.9,2.7,9.5,7.8c4.3,6,1.5,11.8,2.8,15.1s4,3.1,4,3.1
			s-8.2,32.5-8.3,43.3c-0.1,10.3,2.8,11.9,15.3,13.8c11.7,1.7,16.3,0.1,16.4-0.9c0-1-7.5-46.9-5.2-53.2l9.5-10.9
			c0,0-13.9-6-8.7-26.5C290.9,246.5,297.7,241.3,303.1,238z"/>
		<path fill="#D5411F" stroke="#000000" stroke-width="8" stroke-linejoin="round" d="M332.6,258c0,0,2.3,0.3,6,1.1
			c15.8,3.4,20.4,11.1,17.7,20.2s-11,12.1-25,7.3c-1.3-0.5-8.2-2-8.2-2l-3.1-27L332.6,258z"/>
	</g>
	<path fill="#FFFFFF" stroke="#000000" stroke-width="8" stroke-linejoin="round" d="M360.6,235.8c-12.3,1.7-29,5.6-58.1,2.2
		c-23.9,21.8-19.7,46.6-8.4,52.8c0,0,3.4,1.7,12.9,6.2c12.6,6.1,22.4,14.2,29.4,19.8c-6.8-9-9.3-26.9-4.2-44.8
		C337.7,252.6,349.4,238.6,360.6,235.8z"/>
</g>
<path id="snoo-body-f::fill::hand" fill="#00FF00" stroke="#000000" stroke-width="11" d="M257.5,325.8l0,0.2
	c2.9,10.3,12.9,16.5,22.5,13.8l1.3-0.4c9.6-2.7,15-13.2,12.1-23.5l0-0.2c-2.9-10.3-12.9-16.5-22.5-13.8l-1.3,0.4
	C260,305,254.6,315.5,257.5,325.8z"/>
</svg>
