<?xml version="1.0" encoding="utf-8"?>
<!-- Generator: Adobe Illustrator 17.1.0, SVG Export Plug-In . SVG Version: 6.00 Build 0)  -->
<!DOCTYPE svg PUBLIC "-//W3C//DTD SVG 1.1//EN" "http://www.w3.org/Graphics/SVG/1.1/DTD/svg11.dtd">
<svg version="1.1" id="Layer_3" xmlns="http://www.w3.org/2000/svg" xmlns:xlink="http://www.w3.org/1999/xlink" x="0px" y="0px"
	 viewBox="0 0 400 400" enable-background="new 0 0 400 400" xml:space="preserve">
<ellipse fill="#FFFFFF" cx="278.2" cy="301.6" rx="9.2" ry="16.5"/>
<path d="M278.2,318.1v-5.7v0.4l0.1-0.4h-0.1v0.4l0.1-0.4v0.2l0.1-0.2l0,0v0.2l0.1-0.2l0,0l0,0l0,0l0,0l0,0c0,0-0.3-0.1-0.7-0.5
	c-0.6-0.6-1.4-2-2-3.8s-1-4.1-1-6.5c0-1.8,0.2-3.6,0.6-5.1c0.3-1.1,0.6-2.2,1-3c0.6-1.3,1.2-2.1,1.7-2.5c0.2-0.2,0.3-0.2,0.4-0.3
	l0,0l-0.1-0.3v0.3h0.1l-0.1-0.3v0.3v-0.4l-0.1,0.4h0.1v-0.4l-0.1,0.4v-0.2l-0.1,0.2l0,0v-0.2l-0.1,0.2l0,0l0,0l0,0l0,0l0,0
	c0,0,0.3,0.1,0.7,0.5c0.6,0.6,1.4,2,2,3.8s1,4.1,1,6.5c0,1.8-0.2,3.6-0.6,5.1c-0.3,1.1-0.6,2.2-1,3c-0.6,1.3-1.2,2.1-1.7,2.5
	c-0.2,0.2-0.3,0.2-0.4,0.3l0,0l0.1,0.3v-0.3h-0.1l0.1,0.3v-0.3V318.1v5.7c1.3,0,2.6-0.2,3.8-0.7c2.1-0.8,3.8-2.1,5.1-3.5
	c2-2.2,3.4-5,4.4-8s1.5-6.4,1.5-9.9c0-2.7-0.3-5.3-0.9-7.7c-0.4-1.8-1-3.5-1.7-5.1c-1.1-2.4-2.6-4.6-4.5-6.3c-1-0.9-2.1-1.6-3.4-2.1
	s-2.8-0.9-4.2-0.9c-1.3,0-2.6,0.2-3.8,0.7c-2.1,0.8-3.8,2.1-5.1,3.5c-2,2.2-3.4,5-4.4,8s-1.5,6.4-1.5,9.9c0,2.7,0.3,5.3,0.9,7.7
	c0.4,1.8,1,3.5,1.7,5.1c1.1,2.4,2.6,4.6,4.5,6.3c1,0.9,2.1,1.6,3.4,2.1s2.8,0.9,4.2,0.9V318.1z"/>
<path id="fill::mug" fill="#FFFFFF" stroke="#000000" stroke-width="8" stroke-linejoin="round" stroke-miterlimit="10" d="
	M279.2,276.9v40.2c0,11-8.8,19.8-19.8,19.8h-12c-11,0-19.8-8.8-19.8-19.8v-40.2c0,0-0.1-10.9,25.8-10.9S279.2,276.9,279.2,276.9z"/>
<path opacity="0.5" fill="#010300" d="M253.3,265.6c-14,0-25.3,5-25.3,11.2c0,6.2,11.3,11.2,25.3,11.2c14,0,25.3-5,25.3-11.2
	C278.6,270.6,267.3,265.6,253.3,265.6"/>
<path d="M282.6,272.4c-0.5-1.2-1.2-2.2-2-3.1c-1.4-1.6-3.1-2.8-5-3.9c-2.9-1.6-6.2-2.8-10-3.6c-3.8-0.8-7.9-1.3-12.3-1.3
	c-3.8,0-7.4,0.3-10.8,1c-5,1-9.4,2.5-13,4.8c-1.8,1.2-3.3,2.5-4.5,4.2c-0.6,0.9-1.1,1.8-1.5,2.9c-0.4,1-0.6,2.2-0.6,3.3
	c0,1.5,0.4,3,1,4.4c0.5,1.2,1.2,2.2,2,3.1c1.4,1.6,3.1,2.8,5,3.9c2.9,1.6,6.2,2.8,10,3.6c3.8,0.8,7.9,1.3,12.3,1.3
	c3.8,0,7.4-0.3,10.8-1c5-1,9.4-2.5,13-4.8c1.8-1.2,3.3-2.5,4.5-4.2c0.6-0.9,1.1-1.8,1.5-2.9c0.4-1,0.6-2.2,0.6-3.3h0
	C283.6,275.3,283.2,273.8,282.6,272.4z M273.5,277c-0.1,0.1-0.2,0.3-0.4,0.6c-0.4,0.5-1.3,1.2-2.4,1.8c-1.8,1-4.3,1.9-7.3,2.6
	c-3,0.7-6.4,1-10.1,1c-3.2,0-6.2-0.3-8.9-0.8c-4.1-0.7-7.4-2-9.3-3.3c-1-0.6-1.6-1.2-1.8-1.6c-0.1-0.2-0.2-0.3-0.2-0.4l0-0.1
	c0,0,0,0,0.1-0.2c0.1-0.1,0.2-0.3,0.4-0.6c0.4-0.5,1.3-1.2,2.4-1.8c1.8-1,4.3-1.9,7.3-2.6c3-0.7,6.4-1,10.1-1c3.2,0,6.2,0.3,8.9,0.8
	c4.1,0.7,7.4,2,9.3,3.3c1,0.6,1.6,1.2,1.8,1.6c0.1,0.2,0.2,0.3,0.2,0.4l0,0.1C273.6,276.8,273.6,276.8,273.5,277z"/>
<path fill="#C3C3C3" d="M256.2,222.2c-0.1,0.1-2.5,2.3-5,5.4c-1.3,1.6-2.6,3.4-3.6,5.4c-0.5,1-1,2.1-1.4,3.3s-0.6,2.5-0.6,3.8
	c0,1,0.1,2,0.5,3.1c0.3,1,0.8,2.1,1.5,3c0.7,1,1.4,2.2,1.9,3.5s0.7,2.6,0.7,3.8c0,1.4-0.3,2.7-1,3.9c-0.7,1.2-1.9,2.4-4.1,3.5
	l0.6,1.2c2.5-0.3,5.1-0.5,7.8-0.5c1.6,0,3.2,0.1,4.7,0.2c1.4-2.6,2-5.5,2-8.2c0-2.5-0.5-4.9-1.3-7.2c-0.8-2.2-1.9-4.2-3.2-6v-0.1
	c0-0.2,0-0.5,0.2-0.9c0.2-0.8,0.8-1.9,1.5-3c1.1-1.7,2.5-3.4,3.7-4.6c0.6-0.6,1.1-1.1,1.4-1.5c0.2-0.2,0.3-0.3,0.4-0.4l0.1-0.1l0,0
	l-0.8-0.9l0.8,0.9L256.2,222.2"/>
<path fill="#6E6E6E" d="M253.4,261.5c-2.7,0-5.3,0.2-7.8,0.5l3.9,7.8c3.6-1.8,6.4-4.3,8.2-7.2c0.2-0.3,0.4-0.6,0.5-0.9
	C256.6,261.5,255,261.5,253.4,261.5"/>
<path id="snoo-body-f::fill::hand" fill="#00FF00" stroke="#000000" stroke-width="11" stroke-miterlimit="10" d="M282.9,330.3
	c-10.5-1.3-18-10.8-16.7-21.3s10.8-18,21.3-16.7s11.9,10,10.6,20.5C296.9,323.3,293.4,331.6,282.9,330.3z"/>
</svg>
