<?xml version="1.0" encoding="utf-8"?>
<!-- Generator: Adobe Illustrator 17.1.0, SVG Export Plug-In . SVG Version: 6.00 Build 0)  -->
<!DOCTYPE svg PUBLIC "-//W3C//DTD SVG 1.1//EN" "http://www.w3.org/Graphics/SVG/1.1/DTD/svg11.dtd">
<svg version="1.1" id="Layer_2" xmlns="http://www.w3.org/2000/svg" xmlns:xlink="http://www.w3.org/1999/xlink" x="0px" y="0px"
	 viewBox="0 0 400 400" enable-background="new 0 0 400 400" xml:space="preserve">
<g>
	<g id="fill::paintbrush">
		<path fill="#B000FF" d="M374.7,202.3c-0.6-2.1-1.4-4.2-2.2-5.9c-0.4-0.9-0.8-1.6-1.4-2.3c-0.3-0.3-0.6-0.6-0.9-0.9
			c-0.2-0.1-0.4-0.3-0.7-0.4c-0.3-0.1-0.6-0.2-0.9-0.2h-0.2c-0.4,0-0.9,0.1-1.3,0.4c-0.3,0.2-0.6,0.5-0.8,0.7
			c-0.3,0.4-0.4,0.8-0.4,1c-0.1,0.3-0.1,0.5-0.1,0.7c0,0.6,0.1,1.1,0.1,1.6c0.1,0.5,0.1,1.1,0.1,1.7c0,1-0.1,1.9-0.6,2.8l0,0
			c-0.3,0.6-0.5,1.3-0.5,2.1s0.2,1.5,0.6,2.1c0.6,0.9,1.4,1.4,2.1,1.7c0.8,0.3,1.6,0.5,2.4,0.5c0.5,0,1-0.1,1.5-0.2
			c0.8-0.2,1.5-0.5,2.2-1.2c0.3-0.3,0.6-0.8,0.8-1.2c0.2-0.5,0.3-1,0.3-1.5C374.9,203.2,374.9,202.7,374.7,202.3z"/>
		<path fill="#B000FF" d="M365.8,184.8c-1.1-1.2-2.8-1.8-5.2-1.8c-5.6,0-14.8,3.3-19.8,5.3c-1.8,0.7-3.3,1.3-4.6,1.7
			c-5.9,2.1-7.8,3.1-12.6,10.3c-6.1,9.2-4.9,26-4.8,26.7l0.1,1.4l11.6,8.4l1.2-0.1c0.5-0.1,13.5-1.7,18.6-12.2
			c2.6-5.2,2.2-9.3,1.8-13c-0.3-3.3-0.6-6.1,1.1-9.9c1.9-4.3,6-6.9,9-8.7c2.5-1.6,4.4-2.7,4.6-4.9
			C367,186.7,366.6,185.6,365.8,184.8z"/>
	</g>
	<path opacity="0.6" fill="#FFFFFF" enable-background="new    " d="M336.2,196.5c-1.2,0.5-2.1,0.9-2.9,1.5
		c-0.4,0.3-0.8,0.7-1.3,1.2c-0.8,0.8-1.7,2-2.9,3.7c-0.1,0.2-0.3,0.4-0.4,0.6c-0.1,0.2-0.3,0.4-0.4,0.6c-0.6,1-1.2,2.3-1.6,3.6
		c-0.5,1.6-1,3.4-1.3,5.1c-0.5,2.7-0.7,5.5-0.7,7.8c0,1.8,0,3.4,0,4.4l7.3,5.3c2.7-0.6,9.9-2.6,12.9-8.8v-0.1
		c0.2-0.4,0.4-0.9,0.5-1.3c1.1-3,0.9-5.4,0.6-8.2c0-0.1,0-0.1,0-0.2c-0.1-1.3-0.3-2.7-0.3-4.2c0-0.6,0-1.1,0.1-1.7
		c-4.3-0.4-8.9-4.6-9.8-9.2C336.3,196.7,336.2,196.6,336.2,196.5"/>
	<path fill="#FFF088" stroke="#7E6625" stroke-width="8" stroke-linejoin="round" stroke-miterlimit="10" d="M242.4,350.8
		c-3.6-2.1,77.3-126.1,77.3-126.1l15,10.2C334.8,235,246,352.9,242.4,350.8z"/>
	<path id="snoo-body-f::fill::hand" fill="#00FF00" stroke="#000000" stroke-width="11" stroke-miterlimit="10" d="M276.6,296.6
		c10.3,2.6,16.5,12.9,14,23.2c-2.6,10.3-12.9,16.5-23.2,14c-10.3-2.6-16.5-12.9-14-23.2S266.3,294,276.6,296.6z"/>
</g>
</svg>
