<?xml version="1.0" encoding="utf-8"?>
<!-- Generator: Adobe Illustrator 17.0.0, SVG Export Plug-In . SVG Version: 6.00 Build 0)  -->
<!DOCTYPE svg PUBLIC "-//W3C//DTD SVG 1.1//EN" "http://www.w3.org/Graphics/SVG/1.1/DTD/svg11.dtd">
<svg version="1.1" id="Parrot" xmlns="http://www.w3.org/2000/svg" xmlns:xlink="http://www.w3.org/1999/xlink" x="0px" y="0px"
	 width="400px" height="400px" viewBox="-380 320 400 400" enable-background="new -380 320 400 400" xml:space="preserve">
<path fill="#FFFFFF" stroke="#000000" stroke-width="8" d="M-302.383,548.5"/>
<g>
	<path fill="#FFFFFF" stroke="#000000" stroke-width="8" d="M-247.36,545.876c0,0-12.276-10.178-22.53,6.676
		c-1.148,1.887-2.259,15.761-5.36,14.495c-1.179-0.481-6.922-4.861-6.794-10.408c0.233-10.027-18.163-44.19,7.154-45.784
		c23.854-1.501,21.33,23.879,29.272,32.407c7.942,8.528,3.587,10.234,3.587,10.234"/>
	<path fill="#FFFFFF" stroke="#FFB643" stroke-width="8" d="M-240.326,614.282l-13.382,1c0,0-13.5,1.298-6.5,8.399"/>
	<path fill="#FFFFFF" stroke="#000000" stroke-width="8" d="M-210.718,658.282l-14.33-55.055l0,0
		c-1.363-16.43-7.725-66.837-34.16-58.445c0,0-38.5,10.498,9,65.749l9.199-0.811L-210.718,658.282z"/>
	<path fill="#FFFFFF" stroke="#000000" d="M-253.708,540.782"/>
	<path fill="#DCDCDC" stroke="#000000" stroke-width="8" d="M-254.321,544.02c0,0-9.887,9.262-7.387,24.762s16,24.984,16,24.984
		l49.5,19.016C-196.208,612.782-242.934,538.258-254.321,544.02z"/>
	<path fill="#FFFFFF" stroke="#000000" stroke-width="8" d="M-273.934,529.532"/>
	<g>
		<path fill="#FFB643" stroke="#000000" stroke-width="4" stroke-linejoin="round" d="M-294.441,542.796c0,0,10.929,1.606,14.724,0
			c3.795-1.605,5.793-3.403,5.793-3.403l-4.588-5.638"/>
		<path fill="#FFB643" stroke="#000000" stroke-width="4" stroke-linejoin="round" d="M-279.716,529.998
			c0,0-17.579-7.585-15.781,13.59c0,0,3.741-4.431,5.864-4.812l6.627-0.926l4.495-4.095L-279.716,529.998z"/>
	</g>
	<circle fill="#FF4500" cx="-270.985" cy="523.559" r="4.527"/>
</g>
<circle fill="#00FF00" stroke="#000000" stroke-width="11" stroke-linejoin="round" cx="-243.135" cy="641.015" r="19.5"/>
<g>
	<path fill="#FFFFFF" stroke="#000000" stroke-width="4" stroke-linejoin="round" d="M-207.208,647.556"/>
	<path fill="#FFFFFF" stroke="#000000" stroke-width="4" stroke-linejoin="round" d="M-217.644,642.259"/>
	<path fill="#FFFFFF" stroke="#000000" stroke-width="6" stroke-linejoin="round" d="M-261.12,615.42"/>
</g>
</svg>
