<?xml version="1.0" encoding="utf-8"?>
<!-- Generator: Adobe Illustrator 17.1.0, SVG Export Plug-In . SVG Version: 6.00 Build 0)  -->
<!DOCTYPE svg PUBLIC "-//W3C//DTD SVG 1.1//EN" "http://www.w3.org/Graphics/SVG/1.1/DTD/svg11.dtd">
<svg version="1.1" id="Layer_4" xmlns="http://www.w3.org/2000/svg" xmlns:xlink="http://www.w3.org/1999/xlink" x="0px" y="0px"
	 viewBox="0 0 400 400" enable-background="new 0 0 400 400" xml:space="preserve">
<g>
	<path fill="#161616" stroke="#000000" stroke-width="8" stroke-miterlimit="10" d="M312.6,262.5l-30.3-13.1c-3.3-1.4-7,0.1-8.4,3.4
		l-27.1,62.9c-1.4,3.3,0.1,7,3.4,8.4l30.3,13.1c3.3,1.4,7-0.1,8.4-3.4l27.1-62.9C317.3,267.7,315.8,263.9,312.6,262.5z"/>
	<path fill="#222222" d="M309.5,274.4l-33.8-14.6c-2.3-1-4.9,0.1-5.9,2.4l-19,44.2c-1,2.3,0.1,4.9,2.4,5.9l33.8,14.6
		c2.3,1,4.9-0.1,5.9-2.4l19-44.2C312.9,278,311.8,275.4,309.5,274.4z"/>
</g>
<path id="snoo-body-f::fill::hand" fill="#00FF00" stroke="#000000" stroke-width="11" d="M273.6,308.7c-6.2,11.5-3.7,24.8,5.4,29.7
	c9.2,4.9,21.6-0.4,27.7-11.9c6.2-11.5,3.7-24.8-5.4-29.7C292.1,291.8,279.7,297.2,273.6,308.7z"/>
</svg>
