<?xml version="1.0" encoding="utf-8"?>
<!-- Generator: Adobe Illustrator 17.1.0, SVG Export Plug-In . SVG Version: 6.00 Build 0)  -->
<!DOCTYPE svg PUBLIC "-//W3C//DTD SVG 1.1//EN" "http://www.w3.org/Graphics/SVG/1.1/DTD/svg11.dtd">
<svg version="1.1" id="rabbit" xmlns="http://www.w3.org/2000/svg" xmlns:xlink="http://www.w3.org/1999/xlink" x="0px" y="0px"
	 viewBox="0 0 400 400" enable-background="new 0 0 400 400" xml:space="preserve">
<g id="fill::rabbit-body">
	<path fill="#FFFFFF" stroke="#000000" stroke-width="6" d="M281.1,395.5h15.3c13.6-3.4,23.7-15.5,23.7-30c0-17.1-14-31-31.3-31
		s-31.3,13.9-31.3,31C257.5,380,267.5,392.1,281.1,395.5z"/>
	<path fill="#FFFFFF" stroke="#000000" stroke-width="6" stroke-linecap="round" stroke-linejoin="round" d="M283.5,395.4
		c0.2-0.6,0.3-1.2,0.3-1.8c0-4-4-7.3-9-7.3s-9,3.3-9,7.3c0,0.6,0.1,1.2,0.3,1.8H283.5z"/>
	<path fill="#FFFFFF" stroke="#000000" stroke-width="6" stroke-linecap="round" stroke-linejoin="round" d="M293.8,395.4
		c-0.2-0.6-0.3-1.2-0.3-1.8c0-4,4-7.3,9-7.3s9,3.3,9,7.3c0,0.6-0.1,1.2-0.3,1.8H293.8z"/>
	<path fill="#FFFFFF" stroke="#000000" stroke-width="6" d="M295.7,361.4c-3.5-0.7-4.2-0.6-1.8-15.8c2-12.7,0.5-36.6,9.7-34.6
		c7.2,1.5,3.1,10.5,3.6,14.5c0.8,6.1,4.9,8.4,0.2,19.1C302.3,355.8,299.1,362.1,295.7,361.4z"/>
	<path fill="#FFFFFF" stroke="#000000" stroke-width="6" d="M283.7,361.3c3.5-0.8,4.2-0.6,1.7-15.8c-2.1-12.6-0.6-36.6-9.8-34.5
		c-7.2,1.6-3,10.5-3.6,14.6c-0.8,6.1-4.9,8.4-0.1,19.1C277,355.8,280.2,362.1,283.7,361.3z"/>
	
		<ellipse fill="#FFFFFF" stroke="#000000" stroke-width="6" stroke-linecap="round" stroke-linejoin="round" cx="289.7" cy="372.4" rx="20" ry="22.9"/>
</g>
<g id="face">
	<path fill="#FF4500" d="M278.2,369.6c-2.3,0-4.2,1.9-4.2,4.2c0,2.3,1.9,4.2,4.2,4.2c2.3,0,4.2-1.9,4.2-4.2
		C282.4,371.4,280.5,369.6,278.2,369.6z"/>
	<path fill="#FF4500" d="M301.2,369.5c-2.3,0-4.2,1.9-4.2,4.2c0,2.3,1.9,4.2,4.2,4.2c2.3,0,4.2-1.9,4.2-4.2
		C305.3,371.4,303.5,369.5,301.2,369.5z"/>
	<path d="M293.9,385.1l-2.8,3.9c-0.7,0.9-2.3,0.9-3,0l-2.8-3.9c-0.7-0.9,0.2-2,1.5-2h5.6C293.8,383.1,294.6,384.2,293.9,385.1z"/>
	<line fill="none" stroke="#000000" stroke-width="2" x1="289.6" y1="385.6" x2="289.6" y2="392.3"/>
</g>
</svg>
