<?xml version="1.0" encoding="utf-8"?>
<!-- Generator: Adobe Illustrator 17.1.0, SVG Export Plug-In . SVG Version: 6.00 Build 0)  -->
<!DOCTYPE svg PUBLIC "-//W3C//DTD SVG 1.1//EN" "http://www.w3.org/Graphics/SVG/1.1/DTD/svg11.dtd">
<svg version="1.1" id="Layer_2" xmlns="http://www.w3.org/2000/svg" xmlns:xlink="http://www.w3.org/1999/xlink" x="0px" y="0px"
	 viewBox="0 0 400 400" enable-background="new 0 0 400 400" xml:space="preserve">
<g>
	<path stroke="#000000" stroke-width="4" stroke-miterlimit="10" d="M319.2,250.1c0-1.7-0.6-2.9-1.4-3.6c-0.1-0.8-0.6-2.2-2.9-2.9
		l-11.6-3.8c-1.1-0.4-2.5-0.5-3.8-0.5c-0.4-0.6-1.2-1.1-2.4-1.5l-11.6-3.8c-1.1-0.4-2.5-0.5-3.8-0.5c-0.4-0.6-1.2-1.1-2.4-1.5
		l-11.6-3.8c-2.2-0.7-5.3-0.6-7,0.2l-8.8,4.2c-0.9,0.4-1.4,1-1.7,1.6c-1.2,0.1-2.2,0.3-3,0.7l-8.8,4.2c-0.9,0.4-1.4,1-1.7,1.6
		c-1.2,0.1-2.2,0.3-3,0.7l-8.8,4.2c-1.9,0.9-2,2.3-1.9,2.9c0,0.1,0,0.1,0,0.2c-1,0.8-1.5,2.1-1.5,3.6v12.7c0,1.3,0.4,2.6,1.1,3.7
		c-0.7,0.8-1.1,1.9-1.1,3.2v12.7c0,1.3,0.4,2.6,1.1,3.7c-0.7,0.8-1.1,1.9-1.1,3.2v12.7c0,2.8,2,5.6,4.5,6.4l11.6,3.9
		c1.1,0.4,2.3,0.3,3.3-0.1c0.8,1,1.8,1.8,3,2.2l11.6,3.9c1.1,0.4,2.3,0.3,3.3-0.1c0.8,1,1.8,1.8,3,2.2l11.6,3.9
		c0.5,0.2,1.1,0.3,1.6,0.3c0.8,0,1.6-0.2,2.2-0.6c0.6,0.4,1.2,0.6,1.8,0.6c0.6,0,1.1-0.1,1.7-0.4l8.6-4.4c0.8-0.4,1.6-1.1,2.2-2
		c0.8,0.2,1.7,0.1,2.5-0.3l8.6-4.4c0.8-0.4,1.6-1.1,2.2-2c0.8,0.2,1.7,0.1,2.5-0.3l8.6-4.4c2-1,3.5-3.8,3.5-6.4v-12.7
		c0-1.4-0.4-2.4-0.9-3.1c0.6-1.1,0.9-2.4,0.9-3.7v-12.7c0-1.4-0.4-2.4-0.9-3.1c0.6-1.1,0.9-2.4,0.9-3.7V250.1z"/>
	<g>
		<path fill="#9494FF" stroke="#000000" stroke-width="3" stroke-miterlimit="10" d="M226.5,249.5l11.6,3.9c1.8,0.6,3.2,2.6,3.2,4.6
			v12.7c0,1.9-1.4,3-3.2,2.4l-11.6-3.9c-1.8-0.6-3.2-2.6-3.2-4.6v-12.7C223.3,250,224.7,248.9,226.5,249.5z"/>
		<path fill="#9494FF" stroke="#000000" stroke-width="3" stroke-miterlimit="10" d="M244.4,255.6l11.6,3.9c1.8,0.6,3.2,2.6,3.2,4.6
			v12.7c0,1.9-1.4,3-3.2,2.4l-11.6-3.9c-1.8-0.6-3.2-2.6-3.2-4.6V258C241.2,256.1,242.6,255,244.4,255.6z"/>
		<path fill="#9494FF" stroke="#000000" stroke-width="3" stroke-miterlimit="10" d="M262.3,261.7l11.6,3.9c1.8,0.6,3.2,2.6,3.2,4.6
			v12.7c0,1.9-1.4,3-3.2,2.4l-11.6-3.9c-1.8-0.6-3.2-2.6-3.2-4.6v-12.7C259.1,262.1,260.5,261.1,262.3,261.7z"/>
		<path fill="#9494FF" stroke="#000000" stroke-width="3" stroke-miterlimit="10" d="M262.3,281.2l11.6,3.9c1.8,0.6,3.2,2.6,3.2,4.6
			v12.7c0,1.9-1.4,3-3.2,2.4l-11.6-3.9c-1.8-0.6-3.2-2.6-3.2-4.6v-12.7C259.1,281.7,260.5,280.6,262.3,281.2z"/>
		<path fill="#9494FF" stroke="#000000" stroke-width="3" stroke-miterlimit="10" d="M244.4,275.1l11.6,3.9c1.8,0.6,3.2,2.6,3.2,4.6
			v12.7c0,1.9-1.4,3-3.2,2.4l-11.6-3.9c-1.8-0.6-3.2-2.6-3.2-4.6v-12.7C241.2,275.6,242.6,274.5,244.4,275.1z"/>
		<path fill="#9494FF" stroke="#000000" stroke-width="3" stroke-miterlimit="10" d="M226.5,269.1l11.6,3.9c1.8,0.6,3.2,2.6,3.2,4.6
			v12.7c0,1.9-1.4,3-3.2,2.4l-11.6-3.9c-1.8-0.6-3.2-2.6-3.2-4.6v-12.7C223.3,269.5,224.7,268.5,226.5,269.1z"/>
		<path fill="#9494FF" stroke="#000000" stroke-width="3" stroke-miterlimit="10" d="M226.5,288.6l11.6,3.9c1.8,0.6,3.2,2.6,3.2,4.6
			v12.7c0,1.9-1.4,3-3.2,2.4l-11.6-3.9c-1.8-0.6-3.2-2.6-3.2-4.6V291C223.3,289.1,224.7,288,226.5,288.6z"/>
		<path fill="#9494FF" stroke="#000000" stroke-width="3" stroke-miterlimit="10" d="M244.4,294.6l11.6,3.9c1.8,0.6,3.2,2.6,3.2,4.6
			v12.7c0,1.9-1.4,3-3.2,2.4l-11.6-3.9c-1.8-0.6-3.2-2.6-3.2-4.6V297C241.2,295.1,242.6,294.1,244.4,294.6z"/>
		<path fill="#9494FF" stroke="#000000" stroke-width="3" stroke-miterlimit="10" d="M262.3,300.7l11.6,3.9c1.8,0.6,3.2,2.6,3.2,4.6
			v12.7c0,1.9-1.4,3-3.2,2.4l-11.6-3.9c-1.8-0.6-3.2-2.6-3.2-4.6v-12.7C259.1,301.2,260.5,300.1,262.3,300.7z"/>
		<path fill="#EFF7FF" stroke="#000000" stroke-width="3" stroke-miterlimit="10" d="M314.9,247.8l-8.6,4.4
			c-1.3,0.7-2.4,2.7-2.4,4.7v12.7c0,1.9,1.1,2.9,2.4,2.3l8.6-4.4c1.3-0.7,2.4-2.7,2.4-4.7v-12.7
			C317.3,248.2,316.2,247.1,314.9,247.8z"/>
		<path fill="#EFF7FF" stroke="#000000" stroke-width="3" stroke-miterlimit="10" d="M301.6,254.5l-8.6,4.4
			c-1.3,0.7-2.4,2.7-2.4,4.7v12.7c0,1.9,1.1,2.9,2.4,2.3l8.6-4.4c1.3-0.7,2.4-2.7,2.4-4.7v-12.7C304,254.8,302.9,253.8,301.6,254.5z
			"/>
		<path fill="#EFF7FF" stroke="#000000" stroke-width="3" stroke-miterlimit="10" d="M288.3,261.2l-8.6,4.4
			c-1.3,0.7-2.4,2.7-2.4,4.7v12.7c0,1.9,1.1,2.9,2.4,2.3l8.6-4.4c1.3-0.7,2.4-2.7,2.4-4.7v-12.7
			C290.7,261.5,289.6,260.5,288.3,261.2z"/>
		<path fill="#EFF7FF" stroke="#000000" stroke-width="3" stroke-miterlimit="10" d="M288.3,280.7l-8.6,4.4
			c-1.3,0.7-2.4,2.7-2.4,4.7v12.7c0,1.9,1.1,2.9,2.4,2.3l8.6-4.4c1.3-0.7,2.4-2.7,2.4-4.7V283C290.7,281.1,289.6,280,288.3,280.7z"
			/>
		<path fill="#EFF7FF" stroke="#000000" stroke-width="3" stroke-miterlimit="10" d="M301.6,274l-8.6,4.4c-1.3,0.7-2.4,2.7-2.4,4.7
			v12.7c0,1.9,1.1,2.9,2.4,2.3l8.6-4.4c1.3-0.7,2.4-2.7,2.4-4.7v-12.7C304,274.4,302.9,273.3,301.6,274z"/>
		<path fill="#EFF7FF" stroke="#000000" stroke-width="3" stroke-miterlimit="10" d="M314.9,267.3l-8.6,4.4
			c-1.3,0.7-2.4,2.7-2.4,4.7V289c0,1.9,1.1,2.9,2.4,2.3l8.6-4.4c1.3-0.7,2.4-2.7,2.4-4.7v-12.7C317.3,267.7,316.2,266.7,314.9,267.3
			z"/>
		<path fill="#EFF7FF" stroke="#000000" stroke-width="3" stroke-miterlimit="10" d="M314.9,286.8l-8.6,4.4
			c-1.3,0.7-2.4,2.7-2.4,4.7v12.7c0,1.9,1.1,2.9,2.4,2.3l8.6-4.4c1.3-0.7,2.4-2.7,2.4-4.7v-12.7
			C317.3,287.2,316.2,286.2,314.9,286.8z"/>
		<path fill="#EFF7FF" stroke="#000000" stroke-width="3" stroke-miterlimit="10" d="M301.6,293.5l-8.6,4.4
			c-1.3,0.7-2.4,2.7-2.4,4.7v12.7c0,1.9,1.1,2.9,2.4,2.3l8.6-4.4c1.3-0.7,2.4-2.7,2.4-4.7v-12.7C304,293.9,302.9,292.9,301.6,293.5z
			"/>
		<path fill="#EFF7FF" stroke="#000000" stroke-width="3" stroke-miterlimit="10" d="M288.3,300.2l-8.6,4.4
			c-1.3,0.7-2.4,2.7-2.4,4.7v12.7c0,1.9,1.1,2.9,2.4,2.3l8.6-4.4c1.3-0.7,2.4-2.7,2.4-4.7v-12.7
			C290.7,300.6,289.6,299.6,288.3,300.2z"/>
		<path fill="#FF5700" stroke="#000000" stroke-width="3" stroke-miterlimit="10" d="M315,247.6l-8.8,4.2c-1.3,0.6-3.8,0.7-5.6,0.1
			l-11.6-3.8c-1.8-0.6-2.1-1.5-0.8-2.2l8.8-4.2c1.3-0.6,3.8-0.7,5.6-0.1l11.6,3.8C316,246,316.4,246.9,315,247.6z"/>
		<path fill="#FF5700" stroke="#000000" stroke-width="3" stroke-miterlimit="10" d="M301.5,254l-8.8,4.2c-1.3,0.6-3.8,0.7-5.6,0.1
			l-11.6-3.8c-1.8-0.6-2.1-1.5-0.8-2.2l8.8-4.2c1.3-0.6,3.8-0.7,5.6-0.1l11.6,3.8C302.5,252.4,302.8,253.3,301.5,254z"/>
		<path fill="#FF5700" stroke="#000000" stroke-width="3" stroke-miterlimit="10" d="M288,260.4l-8.8,4.2c-1.3,0.6-3.8,0.7-5.6,0.1
			l-11.6-3.8c-1.8-0.6-2.1-1.5-0.8-2.2l8.8-4.2c1.3-0.6,3.8-0.7,5.6-0.1l11.6,3.8C289,258.8,289.3,259.7,288,260.4z"/>
		<path fill="#FF5700" stroke="#000000" stroke-width="3" stroke-miterlimit="10" d="M270.2,254.6l-8.8,4.2
			c-1.3,0.6-3.8,0.7-5.6,0.1l-11.6-3.8c-1.8-0.6-2.1-1.5-0.8-2.2l8.8-4.2c1.3-0.6,3.8-0.7,5.6-0.1l11.6,3.8
			C271.1,253,271.5,253.9,270.2,254.6z"/>
		<path fill="#FF5700" stroke="#000000" stroke-width="3" stroke-miterlimit="10" d="M283.7,248.2l-8.8,4.2
			c-1.3,0.6-3.8,0.7-5.6,0.1l-11.6-3.8c-1.8-0.6-2.1-1.5-0.8-2.2l8.8-4.2c1.3-0.6,3.8-0.7,5.6-0.1l11.6,3.8
			C284.7,246.6,285,247.5,283.7,248.2z"/>
		<path fill="#FF5700" stroke="#000000" stroke-width="3" stroke-miterlimit="10" d="M297.2,241.8l-8.8,4.2
			c-1.3,0.6-3.8,0.7-5.6,0.1l-11.6-3.8c-1.8-0.6-2.1-1.5-0.8-2.2l8.8-4.2c1.3-0.6,3.8-0.7,5.6-0.1l11.6,3.8
			C298.2,240.2,298.5,241.1,297.2,241.8z"/>
		<path fill="#FF5700" stroke="#000000" stroke-width="3" stroke-miterlimit="10" d="M279.4,236l-8.8,4.2c-1.3,0.6-3.8,0.7-5.6,0.1
			l-11.6-3.8c-1.8-0.6-2.1-1.5-0.8-2.2l8.8-4.2c1.3-0.6,3.8-0.7,5.6-0.1l11.6,3.8C280.4,234.4,280.7,235.3,279.4,236z"/>
		<path fill="#FF5700" stroke="#000000" stroke-width="3" stroke-miterlimit="10" d="M265.9,242.4l-8.8,4.2
			c-1.3,0.6-3.8,0.7-5.6,0.1l-11.6-3.8c-1.8-0.6-2.1-1.5-0.8-2.2l8.8-4.2c1.3-0.6,3.8-0.7,5.6-0.1l11.6,3.8
			C266.8,240.8,267.2,241.7,265.9,242.4z"/>
		<path fill="#FF5700" stroke="#000000" stroke-width="3" stroke-miterlimit="10" d="M252.3,248.8l-8.8,4.2
			c-1.3,0.6-3.8,0.7-5.6,0.1l-11.6-3.8c-1.8-0.6-2.1-1.5-0.8-2.2l8.8-4.2c1.3-0.6,3.8-0.7,5.6-0.1l11.6,3.8
			C253.3,247.2,253.7,248.1,252.3,248.8z"/>
	</g>
	
		<ellipse id="snoo-body-f::fill::hand" fill="#00FF00" stroke="#000000" stroke-width="11" cx="272.2" cy="322.3" rx="25.2" ry="19"/>
</g>
</svg>
