<?xml version="1.0" encoding="utf-8"?>
<!-- Generator: Adobe Illustrator 17.1.0, SVG Export Plug-In . SVG Version: 6.00 Build 0)  -->
<!DOCTYPE svg PUBLIC "-//W3C//DTD SVG 1.1//EN" "http://www.w3.org/Graphics/SVG/1.1/DTD/svg11.dtd">
<svg version="1.1" id="Layer_3" xmlns="http://www.w3.org/2000/svg" xmlns:xlink="http://www.w3.org/1999/xlink" x="0px" y="0px"
	 viewBox="0 0 400 400" enable-background="new 0 0 400 400" xml:space="preserve">
<g transform="matrix(0.06826227,0,0,0.06826227,-0.843332,-7.0581497)">
	<g id="Layer_9">
		<g id="g10126">
			<g id="g10128">
				<path id="path10130" inkscape:connector-curvature="0" d="M3496.6,4096.8c102-266,319-575,638-699c0,0,153-58,291-71
					c25-6,50-10,72-10c150,2,218,24,345,109c5,3,10,7,15,11c1,0,1,1,2,1c1,1,1,1,2,2c4,3,8,7,12,10c1,1,1,1,2,2c5,4,9,9,13,13l1,1
					c1,1,1,2,2,2c4,4,7,8,10,12c1,1,1,1,2,2l1,1c4,5,8,10,12,15c1,1,2,2,2,4c3,4,6,9,9,13c1,1,1,2,2,3c0,1,1,1,1,2c3,6,7,11,10,17
					c1,1,1,2,1,3c3,5,5,10,8,16c0,1,1,2,1,3c0,1,1,2,1,2c3,6,6,13,8,19c0,0,0,0,0,1c3,6,5,13,7,20c1,2,1,4,2,5c2,6,4,12,6,18
					c0,1,1,2,1,3c2,7,4,14,6,22c0,2,1,4,1,6c1,6,3,12,4,18c0,2,1,3,1,5c1,8,3,15,4,23c0,2,0,4,1,5c1,6,2,13,2,19c0,2,0,4,1,6
					c1,8,1,16,2,24v1v1c3,57-1,117-12,180c-41,229-208,513-316,620c-106,105-195,186-391,266c-155,63-271,94-366,100c1,0,1,0,1,0
					s-1,0-3,0c-22,1-42,1-62,0c-3,0-6,0-8-1c-11-1-21-2-32-3c-10-1-21-2-31-2h-1c0,0,0,0-1,0c-87-8-177-28-283-149
					c0,0-67-117-70-197C3420.6,4489.8,3394.6,4362.8,3496.6,4096.8z"/>
			</g>
			<g id="g10132">
				<path id="path10134" inkscape:connector-curvature="0" d="M3842.6,5043.8c-4,0-8-1-12-1c-10-1-19-1-29-2h-2c-11-1-22-2-33-3h-4
					c-111-10-231-41-361-190l-8-9l-6-11c-13-23-81-147-85-251c-1-9-1-18-2-28c-6-88-17-235,83-494c53-136,259-593,707-768h1
					c7-2,164-61,314-77c33-7,62-11,90-11h4c172,3,264,32,410,130c6,4,13,8,20,14c2,1,4,2,5,3c1,2,3,3,4,4c5,4,10,9,15,13
					c2,1,3,2,4,3c6,6,11,11,17,17l4,4c2,1,3,3,4,4c4,4,8,8,12,13c2,1,3,3,4,4l1,2c0,1,1,1,1,2c5,6,9,13,14,19c1,1,2,3,3,5
					c4,6,7,11,11,17c1,2,2,3,3,5c1,2,1,3,2,4c4,7,8,14,12,21c1,2,1,3,2,4c4,6,7,12,10,19c1,1,2,3,3,5c1,1,1,3,2,4c3,7,7,15,10,23v1
					c3,8,6,16,9,24l2,7c2,7,5,15,7,22l1,4c3,8,5,17,7,26l2,7c2,7,4,15,5,22v1c0,2,1,4,1,5c1,9,3,18,4,27l1,6c1,7,2,15,3,23l1,7
					c1,9,1,18,2,27c0,1,0,1,0,2v5v1c3,65-2,134-14,203c-44,246-216,553-350,685c-118,116-218,205-430,291c-167,68-295,102-404,109
					l-2-37v28l1,9c-1,0-1,0-1,0h-1c-12,1-24,1-35,1C3868.6,5043.8,3855.6,5042.8,3842.6,5043.8z M3905.6,4802.8c82-5,189-35,330-90
					c171-70,247-137,351-240c91-89,246-351,283-556c9-53,13-105,10-153v-2c0-6,0-13-1-19v-5c-1-5-1-11-2-16l-1-4c-1-6-2-12-3-18
					l-1-4c-1-5-2-9-3-14l-1-5c-1-6-3-11-4-16l-1-3c-1-5-2-9-4-14l-1-4c-2-5-3-10-5-14l-1-2c-2-5-4-9-6-13c0-1-1-1-1-2s-1-1-1-2
					c-2-4-4-7-6-11l-1-2c-2-3-5-7-7-11l0,0c0-1-1-1-1-2c-2-3-4-6-6-9l-2-3c-2-3-5-6-7-9c-1-1-2-1-2-2c-2-2-4-5-6-7c-1-1-1-1-2-2l0,0
					c-2-2-5-5-7-7c-1-1-1-1-2-2c-3-2-5-4-7-6c-1,0-1-1-2-1c0-1-1-1-1-1c-2-2-5-4-8-6c-108-73-152-87-280-89c-7,0-20,1-41,6l-9,2
					l-9,1c-117,11-252,61-260,64c-283,110-479,398-569,630c-81,208-73,313-68,390c1,13,2,24,2,35c2,30,28,93,49,133
					c76,83,131,94,195,100h3c9,1,19,1,28,2h2c11,1,22,2,32,3c1,0,3,0,4,0h3c14,1,30,1,46,0L3905.6,4802.8L3905.6,4802.8z"/>
			</g>
		</g>
	</g>
	<g id="Layer_4">
		<g id="use10145-0-1" transform="translate(-0.78110197,-1.0338362e-5)">
			<path id="SVGID_2_-4-7" inkscape:connector-curvature="0" fill="#558E38" d="M3431.4,4569.8c-12-79-29-207,73-473
				c102-266,319-575,638-699c0,0,199-76,349-74c150,2,233,16,360,102s184,282,143,511c-41,229-208,513-316,620
				c-106,105-195,186-391,266c-196,79-330,109-438,99S3476.4,4875.8,3431.4,4569.8z"/>
		</g>
		<g id="use20231" transform="translate(-0.78110197,-1.0338362e-5)">
			<path id="SVGID_4_-1-6" inkscape:connector-curvature="0" fill="#4B8FCC" d="M3496.4,4758.8c0,0-59-99-58-194c1-86-1-220,117-477
				c121-262,319-485,555-646c0,0,53-37,103-59c74-33,188-62,278-60c150,2,233,16,360,102c92,62,93,77,133,198c18,54-66,326-66,326
				s-133,300-248,446c-284,361-604,364-794,449c-152,68,45,78,45,78s-50,1-73-1c-21-2-43-3-64-5
				C3698.4,4908.8,3603.4,4880.8,3496.4,4758.8z"/>
		</g>
		<g>
			<defs>
				<path id="SVGID_1_" d="M3488.6,4758.8c0,0-59-99-58-194c1-86-1-220,117-477c121-262,319-485,555-646c0,0,53-37,103-59
					c74-33,188-62,278-60c150,2,233,16,360,102c92,62,93,77,133,198c18,54-66,326-66,326s-133,300-248,446c-284,361-604,364-794,449
					c-152,68,45,78,45,78s-50,1-73-1c-21-2-43-3-64-5C3690.6,4908.8,3595.6,4880.8,3488.6,4758.8z"/>
			</defs>
			<clipPath id="SVGID_2_">
				<use xlink:href="#SVGID_1_"  overflow="visible"/>
			</clipPath>
			
				<rect id="rect10391" x="4992.6" y="3322.8" opacity="0.74" clip-path="url(#SVGID_2_)" fill="#5694C9" enable-background="new    " width="2" height="1601"/>
		</g>
		<g>
			<defs>
				<path id="SVGID_3_" d="M3488.6,4758.8c0,0-59-99-58-194c1-86-1-220,117-477c121-262,319-485,555-646c0,0,53-37,103-59
					c74-33,188-62,278-60c150,2,233,16,360,102c92,62,93,77,133,198c18,54-66,326-66,326s-133,300-248,446c-284,361-604,364-794,449
					c-152,68,45,78,45,78s-50,1-73-1c-21-2-43-3-64-5C3690.6,4908.8,3595.6,4880.8,3488.6,4758.8z"/>
			</defs>
			<clipPath id="SVGID_4_">
				<use xlink:href="#SVGID_3_"  overflow="visible"/>
			</clipPath>
			
				<rect id="rect10393" x="4989.6" y="3322.8" opacity="0.74" clip-path="url(#SVGID_4_)" fill="#5693C8" enable-background="new    " width="3" height="1601"/>
		</g>
		<g>
			<defs>
				<path id="SVGID_5_" d="M3488.6,4758.8c0,0-59-99-58-194c1-86-1-220,117-477c121-262,319-485,555-646c0,0,53-37,103-59
					c74-33,188-62,278-60c150,2,233,16,360,102c92,62,93,77,133,198c18,54-66,326-66,326s-133,300-248,446c-284,361-604,364-794,449
					c-152,68,45,78,45,78s-50,1-73-1c-21-2-43-3-64-5C3690.6,4908.8,3595.6,4880.8,3488.6,4758.8z"/>
			</defs>
			<clipPath id="SVGID_6_">
				<use xlink:href="#SVGID_5_"  overflow="visible"/>
			</clipPath>
			
				<rect id="rect10395" x="4986.6" y="3322.8" opacity="0.74" clip-path="url(#SVGID_6_)" fill="#5592C8" enable-background="new    " width="3" height="1601"/>
		</g>
		<g>
			<defs>
				<path id="SVGID_7_" d="M3488.6,4758.8c0,0-59-99-58-194c1-86-1-220,117-477c121-262,319-485,555-646c0,0,53-37,103-59
					c74-33,188-62,278-60c150,2,233,16,360,102c92,62,93,77,133,198c18,54-66,326-66,326s-133,300-248,446c-284,361-604,364-794,449
					c-152,68,45,78,45,78s-50,1-73-1c-21-2-43-3-64-5C3690.6,4908.8,3595.6,4880.8,3488.6,4758.8z"/>
			</defs>
			<clipPath id="SVGID_8_">
				<use xlink:href="#SVGID_7_"  overflow="visible"/>
			</clipPath>
			
				<rect id="rect10397" x="4983.6" y="3322.8" opacity="0.74" clip-path="url(#SVGID_8_)" fill="#5592C7" enable-background="new    " width="3" height="1601"/>
		</g>
		<g>
			<defs>
				<path id="SVGID_9_" d="M3488.6,4758.8c0,0-59-99-58-194c1-86-1-220,117-477c121-262,319-485,555-646c0,0,53-37,103-59
					c74-33,188-62,278-60c150,2,233,16,360,102c92,62,93,77,133,198c18,54-66,326-66,326s-133,300-248,446c-284,361-604,364-794,449
					c-152,68,45,78,45,78s-50,1-73-1c-21-2-43-3-64-5C3690.6,4908.8,3595.6,4880.8,3488.6,4758.8z"/>
			</defs>
			<clipPath id="SVGID_10_">
				<use xlink:href="#SVGID_9_"  overflow="visible"/>
			</clipPath>
			
				<rect id="rect10399" x="4979.6" y="3322.8" opacity="0.74" clip-path="url(#SVGID_10_)" fill="#5591C7" enable-background="new    " width="3" height="1601"/>
		</g>
		<g id="g10725" transform="translate(-0.22890034,3.3836261e-7)">
			<path id="path10727" inkscape:connector-curvature="0" fill="#FFFFFF" d="M3491.1,4758.8c0,0,76,32,55,9c-53-59-62-130-65-184
				c-5-86,2-240,112-495c115-265,289-412,494-572c0,0,96-70,154-98c73-35,341-173,569-17c73,50,154,637-666,1187
				c-132,89-418,238-567,206c-16-3,73,90,208,115c24,4,17,9-5,7C3693.1,4908.8,3598.1,4880.8,3491.1,4758.8z"/>
			<path id="path12976" inkscape:connector-curvature="0" sodipodi:nodetypes="cscsc" fill="#B5E3FA" d="M3641.9,4724.2
				c114.5-33.4,995.5-451.6,1007.1-1149.1c1.5-90.2-78.9-209.7-206-190c82-24.1,295-25.6,325,41.2
				C4952.7,3837.2,4156.2,4723.4,3641.9,4724.2z"/>
		</g>
	</g>
</g>
<path id="snoo-body-f::fill::hand" sodipodi:cx="26.859009" sodipodi:rx="3.5907767" sodipodi:cy="29.945826" sodipodi:ry="1.0385631" sodipodi:type="arc" fill="#00FF00" stroke="#000000" stroke-width="11" d="
	M334.4,300c6.4,8.3,2.7,22-8.3,30.5c-11,8.5-25.2,8.7-31.6,0.4c0,0,0,0,0,0c-6.4-8.3-2.7-22,8.3-30.5
	C313.8,291.9,328,291.7,334.4,300C334.4,300,334.4,300,334.4,300z"/>
</svg>
