<?xml version="1.0" encoding="utf-8"?>
<!-- Generator: Adobe Illustrator 17.1.0, SVG Export Plug-In . SVG Version: 6.00 Build 0)  -->
<!DOCTYPE svg PUBLIC "-//W3C//DTD SVG 1.1//EN" "http://www.w3.org/Graphics/SVG/1.1/DTD/svg11.dtd">
<svg version="1.1" id="Layer_2" xmlns="http://www.w3.org/2000/svg" xmlns:xlink="http://www.w3.org/1999/xlink" x="0px" y="0px"
	 viewBox="0 0 400 400" enable-background="new 0 0 400 400" xml:space="preserve">
<g>
	<path id="fill::skateboard" fill="#686767" stroke="#000000" stroke-width="8" d="M290.5,366.5l22.3-164.8
		c2.4-17.7-9.8-33.9-27.5-36.3c-17.6-2.4-33.7,10-36.1,27.7l-22.3,164.8c-2.4,17.7,0.9,32.7,27.5,36.3S288.1,384.2,290.5,366.5z"/>
	<g opacity="0.4">
		<path fill="#FFFFFF" d="M287.6,354.2c-2.1,15.2-8.2,26.8-31,23.8c-22.8-3.1-25.6-15.9-23.6-31.1l0.1-0.6c-0.2,0-0.4,0-0.5-0.1
			l-1.7,12.3c-1.3,9.4-0.5,16.1,2.3,20.9c3.5,5.9,10.6,9.4,21.7,10.9c2.7,0.4,5.2,0.5,7.5,0.5c0,0,0,0,0,0c15,0,21.7-7,24.1-24.8
			l1.8-13.1c-0.2-0.1-0.3-0.1-0.5-0.2L287.6,354.2z"/>
		<path fill="#FFFFFF" d="M284.8,169.4c-1.3-0.2-2.5-0.3-3.8-0.3c-14,0-25.9,10.5-27.8,24.5l-1.6,11.5c0.2,0,0.4,0,0.5,0.1
			c2.1-15.1,15.9-25.7,31-23.6c15.1,2,25.6,15.9,23.6,31.1l0,0.4c0.2,0.1,0.3,0.2,0.5,0.3l1.7-12.2
			C310.9,185.7,300.1,171.4,284.8,169.4z"/>
	</g>
	<g>
		<path fill="#6F6F6F" d="M281.2,231.5l-10.9-1.5c-1.9-0.3-3.3-2-3-4l2.5-18.8c0.3-1.9,2-3.3,4-3l10.9,1.5c1.9,0.3,3.3,2,3,4
			l-2.5,18.8C284.9,230.4,283.1,231.8,281.2,231.5z"/>
		<path fill="#414141" d="M281.2,231.5l0.4-3l-10.9-1.5c-0.1,0-0.2-0.1-0.3-0.2c-0.1-0.1-0.1-0.2-0.1-0.3l0-0.1l0,0l2.5-18.8
			c0-0.1,0.1-0.2,0.2-0.3c0.1-0.1,0.2-0.1,0.3-0.1l0.1,0l10.9,1.5c0.1,0,0.2,0.1,0.3,0.2c0.1,0.1,0.1,0.2,0.1,0.3l0,0.1l0,0
			l-2.5,18.8c0,0.1-0.1,0.2-0.2,0.3c-0.1,0.1-0.2,0.1-0.3,0.1l-0.1,0L281.2,231.5l-0.4,3c0.3,0,0.6,0.1,0.9,0.1
			c1.6,0,3.1-0.6,4.3-1.6c1.2-1,2-2.4,2.2-4l2.5-18.8l0,0c0-0.3,0.1-0.6,0.1-0.9c0-1.6-0.6-3.1-1.6-4.3c-1-1.2-2.4-2-4-2.2
			l-10.9-1.5c-0.3,0-0.6-0.1-0.9-0.1c-1.6,0-3.1,0.6-4.3,1.6c-1.2,1-2,2.4-2.2,4l-2.5,18.8l0,0c0,0.3-0.1,0.6-0.1,0.9
			c0,1.6,0.6,3.1,1.6,4.3c1,1.2,2.4,2,4,2.2l10.9,1.5L281.2,231.5z"/>
		<path fill="#6F6F6F" d="M300.5,218.4c0,0-9.4-0.9-13.8,0.4c-3.8,1.2-3.6,7.3-10.2,6.4c-6.6-0.9-4.7-6.7-8.1-8.9
			c-3.9-2.5-13.2-4.1-13.2-4.1l0.8-6l45.2,6.1L300.5,218.4z"/>
		<path fill="#414141" d="M300.5,218.4l0.5-5.1c-0.1,0-3.3-0.3-7.1-0.3c-1.4,0-2.9,0-4.3,0.2c-1.5,0.1-2.9,0.3-4.4,0.8
			c-1,0.3-1.9,0.8-2.7,1.3c-1.3,1-2.1,2-2.7,2.8c-0.4,0.6-0.8,1.1-1.1,1.4c-0.2,0.3-0.4,0.4-0.5,0.6l-0.2,0.1l0,0l0,0.1l0-0.1l0,0
			l0,0.1l0-0.1c0,0-0.1,0-0.3,0c-0.1,0-0.3,0-0.5,0c-0.4-0.1-0.7-0.1-0.8-0.2l-0.1,0l0,0c0,0-0.1-0.1-0.2-0.4
			c-0.2-0.5-0.5-1.5-1.1-2.9c-0.3-0.7-0.7-1.5-1.3-2.3c-0.6-0.8-1.5-1.7-2.5-2.3c-0.8-0.5-1.5-0.9-2.3-1.2c-1.4-0.6-2.8-1.1-4.2-1.6
			c-2.1-0.6-4.2-1.1-5.8-1.5c-1.6-0.3-2.6-0.5-2.7-0.5l-0.9,5.1l5.1,0.7l0.1-0.9l35,4.7l-0.1,0.9L300.5,218.4l0.5-5.1L300.5,218.4
			l5.1,0.7l0.8-6c0.2-1.3-0.2-2.7-1-3.8c-0.8-1.1-2.1-1.8-3.4-2l-45.2-6.1c-2.8-0.4-5.4,1.6-5.8,4.4l-0.8,6
			c-0.4,2.7,1.5,5.3,4.2,5.8l0,0c0.2,0,2.4,0.4,5,1.1c1.3,0.3,2.6,0.7,3.8,1.1c1.2,0.4,2.1,0.9,2.5,1.1l0.5-0.8l-0.8,0.6
			c0,0,0.1,0.2,0.3,0.2l0.5-0.8l-0.8,0.6l0.1-0.1l-0.1,0.1l0,0l0.1-0.1l-0.1,0.1c0,0,0.2,0.4,0.5,1.1c0.2,0.5,0.4,1.2,0.8,2.1
			c0.3,0.6,0.6,1.3,1.1,2.1c0.7,1.1,1.9,2.2,3.3,3.1c1.4,0.8,3,1.4,4.8,1.6c0.7,0.1,1.3,0.1,1.9,0.1c1.1,0,2.2-0.1,3.2-0.4
			c0.9-0.3,1.7-0.6,2.4-1.1c1.3-0.8,2.2-1.7,2.9-2.5c0.5-0.6,0.9-1.2,1.2-1.6c0.5-0.7,0.8-1.1,0.9-1.2l0.1,0l-0.4-0.4l0.3,0.5
			l0.1-0.1l-0.4-0.4l0.3,0.5l-0.6-1l0.3,1.1l0.2-0.1l-0.6-1l0.3,1.1c0.4-0.1,1.3-0.3,2.3-0.4c1-0.1,2.2-0.1,3.4-0.1
			c1.6,0,3.1,0.1,4.3,0.1c0.6,0,1,0.1,1.4,0.1c0.2,0,0.3,0,0.4,0l0.1,0l0,0c2.8,0.3,5.2-1.7,5.6-4.4L300.5,218.4z"/>
		<path fill="#404040" d="M273.1,216.6l0.3-1.9c0.3-1.9,1.7-3.2,3.2-3l3.7,0.5c1.5,0.2,2.6,1.9,2.3,3.8l-0.3,1.9
			C281.4,225,272.1,223.4,273.1,216.6z"/>
		<polygon fill="#777777" points="275.3,216.2 277.9,215.2 280.2,216.9 279.8,219.7 277.2,220.8 274.9,219.1 		"/>
		<path fill="#E4E4E4" stroke="#000000" stroke-width="8" d="M307.9,227.2l-3.6-0.5c-3.1-0.4-5.4-3.2-4.9-6.2l1.2-9.1
			c0.4-3,3.3-5.1,6.4-4.6l3.6,0.5c3.1,0.4,5.4,3.2,4.9,6.2l-1.2,9.1C313.9,225.6,311.1,227.6,307.9,227.2z"/>
		<path fill="#E4E4E4" stroke="#000000" stroke-width="8" d="M250.7,219.5l-3.6-0.5c-3.1-0.4-5.4-3.2-4.9-6.2l1.2-9.1
			c0.4-3,3.3-5.1,6.4-4.6l3.6,0.5c3.1,0.4,5.4,3.2,4.9,6.2l-1.2,9.1C256.7,217.8,253.9,219.9,250.7,219.5z"/>
	</g>
	<g>
		<path fill="#6F6F6F" d="M268,328.9l-10.9-1.5c-1.9-0.3-3.7,1.1-4,3l-2.5,18.8c-0.3,1.9,1.1,3.7,3,4l10.9,1.5c1.9,0.3,3.7-1.1,4-3
			l2.5-18.8C271.3,331,270,329.2,268,328.9z"/>
		<path fill="#414141" d="M268,328.9l0.4-3l-10.9-1.5c-0.3,0-0.6-0.1-0.9-0.1c-1.6,0-3.1,0.6-4.3,1.6c-1.2,1-2,2.4-2.2,4l-2.5,18.8
			l0,0c0,0.3-0.1,0.6-0.1,0.9c0,1.6,0.6,3.1,1.6,4.3c1,1.2,2.4,2,4,2.2l10.9,1.5c0.3,0,0.6,0.1,0.9,0.1c1.6,0,3.1-0.6,4.3-1.6
			c1.2-1,2-2.4,2.2-4l2.5-18.8l0,0c0-0.3,0.1-0.6,0.1-0.9c0-1.6-0.6-3.1-1.6-4.3c-1-1.2-2.4-2-4-2.2L268,328.9l-0.4,3
			c0.1,0,0.2,0.1,0.3,0.2c0.1,0.1,0.1,0.2,0.1,0.3l0,0.1l0,0l-2.5,18.8c0,0.1-0.1,0.2-0.2,0.3c-0.1,0.1-0.2,0.1-0.3,0.1l-0.1,0
			l-10.9-1.5c-0.1,0-0.2-0.1-0.3-0.2c-0.1-0.1-0.1-0.2-0.1-0.3l0-0.1l0,0l2.5-18.8c0-0.1,0.1-0.2,0.2-0.3c0.1-0.1,0.2-0.1,0.3-0.1
			l0.1,0l10.9,1.5L268,328.9z"/>
		<path fill="#6F6F6F" d="M283.1,346.7c0,0-9.3-1.6-13.2-4.1c-3.4-2.2-1.5-8-8.1-8.9c-6.6-0.9-6.3,5.2-10.2,6.4
			c-4.4,1.3-13.8,0.4-13.8,0.4l-0.8,6l45.2,6.1L283.1,346.7z"/>
		<path fill="#414141" d="M283.1,346.7l0.9-5.1l0,0c-0.2,0-2.4-0.4-5-1.1c-1.3-0.3-2.6-0.7-3.8-1.1c-1.2-0.4-2.1-0.9-2.5-1.1
			l-0.5,0.8l0.8-0.6c0,0-0.1-0.2-0.3-0.2l-0.5,0.8l0.8-0.6l-0.1,0.1l0.1-0.1l0,0l-0.1,0.1l0.1-0.1c0,0-0.2-0.4-0.5-1.1
			c-0.2-0.5-0.4-1.2-0.8-2.1c-0.3-0.6-0.6-1.3-1.1-2.1c-0.7-1.1-1.9-2.2-3.3-3.1c-1.4-0.8-3-1.4-4.8-1.6c-0.7-0.1-1.3-0.1-1.9-0.1
			c-1.1,0-2.2,0.1-3.2,0.4c-0.9,0.3-1.7,0.6-2.4,1.1c-1.3,0.8-2.2,1.7-2.9,2.5c-0.5,0.6-0.9,1.2-1.2,1.6c-0.5,0.7-0.8,1.1-0.9,1.2
			l-0.1,0l0.4,0.4l-0.3-0.5l-0.1,0.1l0.4,0.4l-0.3-0.5l0.6,1l-0.3-1.1l-0.2,0.1l0.6,1l-0.3-1.1c-0.4,0.1-1.3,0.3-2.3,0.4
			c-1,0.1-2.2,0.1-3.4,0.1c-1.6,0-3.1-0.1-4.3-0.1c-0.6,0-1-0.1-1.4-0.1c-0.2,0-0.3,0-0.4,0l-0.1,0l0,0c-2.8-0.3-5.2,1.7-5.6,4.4
			l-0.8,6c-0.4,2.8,1.6,5.4,4.4,5.8l45.2,6.1c1.3,0.2,2.7-0.2,3.8-1s1.8-2.1,2-3.4l0.8-6c0.4-2.7-1.5-5.3-4.2-5.8L283.1,346.7
			L278,346l-0.1,0.9l-35-4.7l0.1-0.9l-5.1-0.7l-0.5,5.1c0.1,0,3.3,0.3,7.1,0.3c1.4,0,2.9,0,4.3-0.2c1.5-0.1,2.9-0.3,4.4-0.8
			c1-0.3,1.9-0.8,2.7-1.3c1.3-1,2.1-2,2.7-2.8c0.4-0.6,0.8-1.1,1.1-1.4c0.2-0.3,0.4-0.4,0.5-0.6l0.2-0.1l0,0l0-0.1l0,0.1l0,0l0-0.1
			l0,0.1c0,0,0.1,0,0.3,0c0.1,0,0.3,0,0.5,0c0.4,0.1,0.7,0.1,0.8,0.2l0.1,0l0,0c0,0,0.1,0.1,0.2,0.4c0.2,0.5,0.5,1.5,1.1,2.9
			c0.3,0.7,0.7,1.5,1.3,2.3c0.6,0.8,1.5,1.7,2.5,2.3c0.8,0.5,1.5,0.9,2.3,1.2c1.4,0.6,2.8,1.1,4.2,1.6c2.1,0.6,4.2,1.1,5.8,1.5
			c1.6,0.3,2.6,0.5,2.7,0.5L283.1,346.7L278,346L283.1,346.7z"/>
		<path fill="#E4E4E4" stroke="#000000" stroke-width="8" d="M292.6,340.2l-3.6-0.5c-3.1-0.4-6,1.7-6.4,4.6l-1.2,9.1
			c-0.4,3,1.8,5.7,4.9,6.2l3.6,0.5c3.1,0.4,6-1.7,6.4-4.6l1.2-9.1C298,343.3,295.8,340.6,292.6,340.2z"/>
		<path fill="#E4E4E4" stroke="#000000" stroke-width="8" d="M235.5,332.4l-3.6-0.5c-3.1-0.4-6,1.7-6.4,4.6l-1.2,9.1
			c-0.4,3,1.8,5.7,4.9,6.2l3.6,0.5c3.1,0.4,6-1.7,6.4-4.6l1.2-9.1C240.8,335.6,238.6,332.8,235.5,332.4z"/>
		<path fill="#404040" d="M256.2,341.1L256,343c-0.3,1.9,0.8,3.6,2.3,3.8l3.7,0.5c1.5,0.2,3-1.1,3.2-3l0.3-1.9
			C266.5,335.3,257.1,334.3,256.2,341.1z"/>
		<polygon fill="#777777" points="258.3,342.1 260.5,343.8 263.2,342.7 263.6,339.9 261.3,338.1 258.7,339.2 		"/>
	</g>
</g>
<path id="snoo-body-f:fill::hand" fill="#00FF00" stroke="#000000" stroke-width="11" d="M278,300l0.1,1.3c1,9.9,10.5,17,21.1,15.9
	l0.2,0c10.6-1.1,18.4-10,17.4-19.9l-0.1-1.3c-1-9.9-10.5-17-21.1-15.9l-0.2,0C284.7,281.2,276.9,290.1,278,300z"/>
</svg>
