<?xml version="1.0" encoding="utf-8"?>
<!-- Generator: Adobe Illustrator 17.1.0, SVG Export Plug-In . SVG Version: 6.00 Build 0)  -->
<!DOCTYPE svg PUBLIC "-//W3C//DTD SVG 1.1//EN" "http://www.w3.org/Graphics/SVG/1.1/DTD/svg11.dtd">
<svg version="1.1" id="Layer_2" xmlns="http://www.w3.org/2000/svg" xmlns:xlink="http://www.w3.org/1999/xlink" x="0px" y="0px"
	 viewBox="0 0 400 400" enable-background="new 0 0 400 400" xml:space="preserve">
<path d="M275.4,400c-30,0-54.4-24.4-54.4-54.4c0-30,24.4-54.4,54.4-54.4s54.4,24.4,54.4,54.4C329.8,375.6,305.4,400,275.4,400z"/>
<path fill="#FFFFFF" d="M275.4,297.9c-26.3,0-47.7,21.4-47.7,47.7c0,26.3,21.4,47.7,47.7,47.7c26.3,0,47.7-21.4,47.7-47.7
	C323.1,319.3,301.7,297.9,275.4,297.9z"/>
<path d="M257.6,332.4l-15.3-6.7c0,0-9.8,13.3-10,18.2c0,0,1.4,8.3,10.2,18.8l15.2-6.7V332.4z"/>
<path d="M274.5,322.2c0,0,2.8-14.7,2.2-16.3c0,0,14.8-2.4,21.2,0c0,0,9.1,11.7,10.2,17.2l-13.4,11.1L274.5,322.2z"/>
<path d="M323.4,332l-3.1,3.3c0,0,1,12.2,0,16.7l4.2,4.3C324.5,356.3,327.2,341.1,323.4,332z"/>
<path d="M308.1,363.4c0,0-12.2-8.3-12.9-9.5c0,0-16.2,10.7-20.7,11.4c0,0,2.7,11.7,1.4,16.9c0,0,13.7,2.8,22,0
	C306.2,379.4,308.1,363.4,308.1,363.4z"/>
<path d="M239.6,313.1l4.6,1.6l15.7-11.8l0.4-3.4C260.2,299.6,244.8,304.6,239.6,313.1z"/>
<path d="M260.2,393.3l-0.5-6.6c0,0-12.9-4.9-18.3-12.8l-4.7,0.5C236.7,374.3,247.7,392.3,260.2,393.3z"/>
</svg>
