<?xml version="1.0" encoding="utf-8"?>
<!-- Generator: Adobe Illustrator 17.1.0, SVG Export Plug-In . SVG Version: 6.00 Build 0)  -->
<!DOCTYPE svg PUBLIC "-//W3C//DTD SVG 1.1//EN" "http://www.w3.org/Graphics/SVG/1.1/DTD/svg11.dtd">
<svg version="1.1" id="Layer_2" xmlns="http://www.w3.org/2000/svg" xmlns:xlink="http://www.w3.org/1999/xlink" x="0px" y="0px"
	 viewBox="0 0 400 400" enable-background="new 0 0 400 400" xml:space="preserve">
<path fill="#7F5C33" stroke="#463A2E" stroke-width="8" stroke-linecap="round" stroke-linejoin="round" d="M289.9,268l-29.8,82.5
	c-1.3,3.6,0.6,7.6,4.2,8.9c3.6,1.3,7.6-0.6,8.9-4.2l0.1,0l29.8-82.5L289.9,268z"/>
<g>
	<defs>
		
			<ellipse id="XMLID_24_" transform="matrix(0.9404 0.3401 -0.3401 0.9404 104.0314 -87.9177)" cx="302.9" cy="252.9" rx="16" ry="26"/>
	</defs>
	<use xlink:href="#XMLID_24_"  overflow="visible" fill="#6C4F29"/>
	<clipPath id="XMLID_2_">
		<use xlink:href="#XMLID_24_"  overflow="visible"/>
	</clipPath>
	
		<ellipse transform="matrix(0.9404 0.3401 -0.3401 0.9404 113.0172 -82.7673)" clip-path="url(#XMLID_2_)" fill="#5B4435" cx="292.7" cy="281.1" rx="16" ry="26"/>
	
		<use xlink:href="#XMLID_24_"  overflow="visible" fill="none" stroke="#463A2E" stroke-width="8" stroke-linecap="round" stroke-linejoin="round"/>
</g>
<path id="snoo-body-f::fill::hand" fill="#00FF00" stroke="#000000" stroke-width="11" d="M285,308.1c9.6,4.5,13.6,16,9.1,25.5
	c-4.5,9.6-15.9,13.6-25.5,9.1c-9.6-4.5-13.6-15.9-9.1-25.5C264,307.7,275.4,303.6,285,308.1z"/>
</svg>
