<?xml version="1.0" encoding="utf-8"?>
<!-- Generator: Adobe Illustrator 17.1.0, SVG Export Plug-In . SVG Version: 6.00 Build 0)  -->
<!DOCTYPE svg PUBLIC "-//W3C//DTD SVG 1.1//EN" "http://www.w3.org/Graphics/SVG/1.1/DTD/svg11.dtd">
<svg version="1.1" id="Layer_2" xmlns="http://www.w3.org/2000/svg" xmlns:xlink="http://www.w3.org/1999/xlink" x="0px" y="0px"
	 viewBox="0 0 400 400" enable-background="new 0 0 400 400" xml:space="preserve">
<path fill="none" stroke="#1A1B1B" stroke-width="5" stroke-linejoin="round" d="M336.4,233.9c4.8-9.7,0.8-21.5-9-26.3
	c-9.7-4.8-21.5-0.8-26.3,9c0,0-8.4,39-13,48.2l1.9,18.8l16-9.9C310.6,264.3,336.4,233.9,336.4,233.9z"/>
<path fill="none" stroke="#1A1B1B" stroke-width="5" stroke-linejoin="round" d="M329.4,211.4c-6.8-3.3-16.2,1.9-21,11.6
	c0,0-11,37.7-15.6,46.9"/>
<path fill="none" stroke="#1A1B1B" stroke-width="5" stroke-linejoin="round" d="M323.9,208.7c6.8,3.3,8.4,13.9,3.6,23.7
	c0,0-23.2,31.7-27.7,41"/>
<path id="fill::whisk" fill="#F04923" stroke="#000000" stroke-width="9.1525" stroke-linejoin="round" d="M288.1,264.7L258,326
	c-2.4,5-0.4,10.9,4.6,13.4s10.9,0.4,13.4-4.6l30.2-61.3L288.1,264.7z"/>
<line fill="none" stroke="#1A1B1B" stroke-width="5" stroke-linejoin="round" x1="327.5" y1="207.5" x2="297.1" y2="269.1"/>
<path id="snoo-body-f::fill::hand" fill="#00FF00" stroke="#000000" stroke-width="11" d="M285,293.1c9.6,4.5,13.6,16,9.1,25.5
	c-4.5,9.6-15.9,13.6-25.5,9.1c-9.6-4.5-13.6-15.9-9.1-25.5C264,292.7,275.4,288.6,285,293.1z"/>
</svg>
