<?xml version="1.0" encoding="utf-8"?>
<!-- Generator: Adobe Illustrator 17.1.0, SVG Export Plug-In . SVG Version: 6.00 Build 0)  -->
<!DOCTYPE svg PUBLIC "-//W3C//DTD SVG 1.1//EN" "http://www.w3.org/Graphics/SVG/1.1/DTD/svg11.dtd">
<svg version="1.1" id="Layer_3" xmlns="http://www.w3.org/2000/svg" xmlns:xlink="http://www.w3.org/1999/xlink" x="0px" y="0px"
	 viewBox="0 0 400 400" enable-background="new 0 0 400 400" xml:space="preserve">
<path fill="#929497" stroke="#6D6E70" stroke-width="6" stroke-linejoin="round" stroke-miterlimit="10" d="M278.3,356.5l-16.9,0.4
	l0.3,14c-7.2-3.1-12.3-10.1-12.5-18.4c-0.2-7.9,4.2-14.9,10.6-18.4l-23.8-82.2c-1.5-2.9-2.4-6.2-2.4-9.6c0-8.3,4.9-15.4,12-18.7
	l0,23.7l16.9,0l0-23.7c7.1,3.2,12.1,10.3,12.1,18.6c0,7.6-4.1,14.2-10.2,17.7l24.9,86.3l0,0c0.5,1.7,0.8,3.5,0.9,5.4
	c0.2,8.3-4.6,15.5-11.6,18.9L278.3,356.5z"/>
<path id="snoo-body-f::fill::hand" fill="#00FF00" stroke="#000000" stroke-width="11" d="M273.6,284.2c-10.2,2.9-16,13.6-13.1,23.7
	c2.9,10.2,13.6,16,23.7,13.1c10.2-2.9,16-13.6,13.1-23.7C294.4,287.2,283.7,281.3,273.6,284.2z"/>
</svg>
